<svg width="750" height="759" viewBox="0 0 750 759" fill="none" xmlns="http://www.w3.org/2000/svg">
<rect width="750" height="758.883" fill="#1D1F20"/>
<path d="M171.565 168.571C160.442 168.571 153.259 162.315 153.259 152.583C153.259 145.167 158.241 139.49 166.235 136.478C172.492 134.045 179.675 132.77 186.974 132.307V129.99C186.974 120.026 184.193 115.623 178.4 115.623C175.62 115.623 172.955 116.202 171.217 117.94C169.827 119.331 168.321 121.532 166.351 127.441H159.747L155.344 116.087C164.381 109.946 171.796 107.861 181.065 107.861C197.749 107.861 205.396 114.696 205.396 130.569V150.034C205.396 153.741 206.323 154.552 210.841 155.595L214.549 156.406L215.36 160.693L194.389 168.571H191.261L187.785 159.418C183.962 164.98 177.589 168.571 171.565 168.571ZM179.096 156.29C182.108 156.29 185.004 154.9 186.974 152.235V138.679C184.193 138.911 181.645 139.49 179.559 140.185C174.809 141.692 172.028 144.588 172.028 148.991C172.028 153.162 175.04 156.29 179.096 156.29ZM250.063 168.571C245.66 168.571 240.214 167.413 235.464 165.211L227.702 167.644L224.11 165.443V103.921C224.11 98.0124 223.183 96.5062 219.939 95.1159L216.231 93.4939V89.5546L238.94 80.5176L242.532 82.7189V116.666C247.63 110.989 253.654 107.861 260.027 107.861C273.698 107.861 283.894 119.447 283.894 135.667C283.894 156.174 270.802 168.571 250.063 168.571ZM251.569 161.388C258.868 161.388 264.082 153.046 264.082 140.765C264.082 128.136 259.331 121.184 251.221 121.184C248.209 121.184 244.733 122.806 242.532 125.355V150.96C242.879 157.796 246.239 161.388 251.569 161.388ZM321.648 168.571C303.11 168.571 292.219 157.912 292.219 139.374C292.219 120.721 305.543 107.861 323.27 107.861C331.844 107.861 338.679 110.178 345.167 114.349L343.082 133.118H338.1C336.246 128.368 334.624 125.008 332.77 121.995C329.295 116.434 327.325 115.16 324.197 115.16C317.709 115.16 312.263 124.081 312.263 136.71C312.263 149.686 318.52 157.333 329.063 157.333C333.813 157.333 338.679 155.711 342.155 153.162L346.094 158.26C339.954 165.211 331.959 168.571 321.648 168.571ZM376.506 168.571C361.676 168.571 352.639 155.827 352.639 140.881C352.639 120.142 365.731 107.861 386.47 107.861C388.787 107.861 391.452 108.324 394.001 109.019V102.994C394.001 97.6648 392.958 96.5062 389.83 95.1159L386.122 93.4939V89.5546L408.831 80.5176L412.422 82.7189V150.034C412.422 153.741 413.349 154.668 417.752 155.595L421.575 156.406L422.27 160.693L401.416 168.571H398.287L394.58 158.955C388.555 165.211 382.183 168.571 376.506 168.571ZM385.195 155.363C389.134 155.363 392.147 153.162 394.001 151.308V126.051C393.653 118.867 390.177 115.16 384.848 115.16C377.548 115.16 372.451 123.502 372.451 135.783C372.451 147.832 376.737 155.363 385.195 155.363ZM456.745 168.571C438.323 168.571 427.201 157.564 427.201 138.679C427.201 120.721 439.945 107.861 456.977 107.861C473.429 107.861 483.741 117.94 483.741 134.508V137.289H447.245V137.868C447.245 150.729 453.965 157.564 465.666 157.564C470.069 157.564 473.777 156.29 478.759 153.278L482.814 158.26C475.746 165.327 467.404 168.571 456.745 168.571ZM447.476 130.106L465.319 129.642C465.319 120.373 462.306 115.16 457.209 115.16C451.416 115.16 448.403 119.447 447.476 130.106ZM528.302 167.413H490.532V163.473L494.587 161.272C497.947 159.302 498.874 157.796 498.874 153.509V117.824H487.867V110.757L498.295 108.787C497.947 104.964 497.831 102.879 497.831 101.952C497.831 88.1643 506.521 80.5176 522.046 80.5176C528.65 80.5176 532.589 80.981 540.004 83.0665L538.266 99.171H534.327C529.113 90.3657 525.638 87.8167 522.393 87.8167C518.57 87.8167 516.716 91.4084 516.716 99.2869C516.716 102.299 516.832 105.659 516.948 109.019H530.735V117.824H517.296V153.509C517.296 157.101 518.802 158.839 523.552 161.272L528.302 163.473V167.413ZM560.484 196.378C544.148 196.378 535.574 191.859 535.574 183.401C535.574 179.694 538.355 175.986 546.233 171.468C539.514 169.846 536.617 166.602 536.617 160.924C536.617 159.998 536.617 159.534 536.733 158.955L547.624 145.399C540.672 141.808 536.385 135.783 536.385 128.484C536.385 116.782 548.319 107.861 563.728 107.861C568.942 107.861 573.576 108.672 577.4 110.062L594.315 107.861H598.37L597.791 118.288L586.9 117.013C589.681 120.373 590.955 124.313 590.955 129.063C590.955 140.881 579.717 148.991 563.728 148.991C560.368 148.991 557.24 148.643 554.344 147.832L552.258 151.424C552.258 152.467 552.606 153.162 553.185 153.741C554.575 154.784 557.356 155.363 562.454 155.363H576.821C591.998 155.363 598.023 159.766 598.023 170.888C598.023 185.834 582.498 196.378 560.484 196.378ZM563.96 141.923C568.942 141.923 571.839 137.057 571.839 128.484C571.839 119.91 568.942 114.928 563.96 114.928C559.094 114.928 555.618 120.489 555.618 128.484C555.618 136.71 558.862 141.923 563.96 141.923ZM567.436 186.414C578.674 186.414 587.364 182.822 587.364 178.188C587.364 173.901 584.236 172.626 574.156 172.626H556.313C555.502 172.626 554.807 172.742 552.722 172.626C550.984 175.755 550.636 177.377 550.636 178.767C550.636 183.981 555.734 186.414 567.436 186.414ZM219.891 283.413H185.481V279.473L189.536 277.272C193.011 275.302 193.823 273.796 193.823 269.509V219.921C193.823 214.244 192.896 212.622 189.652 211.232L185.944 209.61V205.671L208.653 196.518L212.244 198.835V234.288C218.385 227.568 225.336 223.861 231.593 223.861C243.642 223.861 250.826 232.666 250.826 247.496V269.509C250.826 273.796 251.637 275.302 255.112 277.272L259.168 279.473V283.413H224.757V279.473L228.812 277.272C231.825 275.534 232.404 274.26 232.404 269.509V251.088C232.404 242.746 228.812 238.343 222.092 238.343C218.617 238.343 214.793 240.197 212.244 242.862V269.509C212.244 274.26 212.824 275.534 215.836 277.272L219.891 279.473V283.413ZM278.86 216.909C272.372 216.909 268.085 211.927 268.085 206.018C268.085 199.414 272.835 195.127 278.86 195.127C284.885 195.127 289.635 199.298 289.635 206.018C289.635 212.506 285.348 216.909 278.86 216.909ZM297.977 283.413H262.871V279.473L266.927 277.272C270.287 275.302 271.213 273.912 271.213 269.509V247.264C271.213 241.355 270.287 239.733 267.042 238.459L263.335 236.953V233.013L286.043 223.861L289.635 226.062V269.509C289.635 273.912 290.562 275.302 293.922 277.272L297.977 279.473V283.413ZM319.63 217.257C313.258 217.257 308.508 212.39 308.508 206.134C308.508 199.762 313.258 195.011 319.63 195.011C325.887 195.011 330.753 199.762 330.753 206.134C330.753 212.39 325.887 217.257 319.63 217.257ZM304.105 312.378L300.977 309.713C308.855 299.401 310.361 292.797 310.361 268.814V247.264C310.361 241.355 309.435 239.849 306.19 238.459L302.483 236.837V233.013L325.191 223.861L328.783 226.062V272.522C328.783 293.492 322.758 303.225 304.105 312.378ZM375.368 283.413H340.262V279.473L344.317 277.272C347.677 275.302 348.604 273.912 348.604 269.509V219.921C348.604 214.128 347.677 212.622 344.433 211.232L340.726 209.61V205.671L363.434 196.518L367.026 198.835V246.917H371.776C374.673 246.917 377.569 245.411 379.886 242.862L384.753 237.3C385.911 236.026 387.07 234.172 387.07 232.782C387.07 231.739 385.68 230.928 384.289 230.349L380.466 228.958V225.019H410.01V228.958L405.376 230.696C399.699 232.898 398.192 233.94 393.906 238.575L387.765 245.295L404.796 271.711C406.534 274.376 408.504 276.345 410.937 277.504L414.876 279.473V283.413H389.966L372.819 253.984H367.026V269.509C367.026 273.912 367.953 275.302 371.313 277.272L375.368 279.473V283.413ZM452.533 283.413H417.427V279.473L421.482 277.272C424.842 275.302 425.769 273.912 425.769 269.509V219.921C425.769 214.128 424.842 212.622 421.598 211.232L417.89 209.61V205.671L440.599 196.518L444.191 198.835V269.509C444.191 273.912 445.117 275.302 448.477 277.272L452.533 279.473V283.413ZM490.972 283.413H457.141V279.473L461.196 277.272C464.556 275.302 465.483 273.796 465.483 269.509V247.264C465.483 241.355 464.556 239.733 461.312 238.459L457.604 236.953V233.013L478.807 223.861L482.398 226.062V236.721C486.337 231.391 492.362 223.861 501.631 223.861C510.552 223.861 516.113 228.379 518.894 235.447C521.906 231.391 528.858 223.861 538.011 223.861C550.06 223.861 557.244 232.782 557.244 247.959V269.509C557.244 273.912 557.939 275.302 561.531 277.272L565.47 279.473V283.413H531.639V279.473L535.346 277.388C538.243 275.766 538.822 274.491 538.822 269.509V251.551C538.822 242.514 535.81 238.343 529.553 238.343C526.193 238.343 523.181 240.544 520.632 244.02C520.748 245.179 520.864 246.569 520.864 247.959V269.509C520.864 274.723 521.327 276.113 523.644 277.388L527.352 279.473V283.413H495.375V279.473L499.082 277.388C501.863 275.766 502.442 274.491 502.442 269.509V251.551C502.442 243.093 499.545 238.343 493.289 238.343C489.929 238.343 486.685 240.313 483.904 243.325V269.509C483.904 274.491 484.484 275.766 487.264 277.388L490.972 279.473V283.413ZM186.74 399.413H152.329V395.473L156.384 393.272C159.86 391.302 160.671 389.796 160.671 385.509V363.264C160.671 357.471 159.86 355.849 156.5 354.459L152.793 352.953V349.013L173.995 339.861L177.587 342.062V352.605C183.843 344.727 191.49 339.861 198.442 339.861C210.491 339.861 217.674 348.782 217.674 363.844V385.509C217.674 389.796 218.485 391.302 221.961 393.272L226.016 395.473V399.413H191.606V395.473L195.661 393.272C198.673 391.534 199.253 390.26 199.253 385.509V367.435C199.253 358.862 195.661 354.343 188.941 354.343C185.465 354.343 181.758 356.429 179.093 359.209V385.509C179.093 390.26 179.672 391.534 182.685 393.272L186.74 395.473V399.413ZM262.972 400.571C244.318 400.571 231.574 388.522 231.574 370.1C231.574 353.3 245.709 339.861 262.972 339.861C281.625 339.861 294.254 351.91 294.254 370.332C294.254 387.247 280.119 400.571 262.972 400.571ZM262.972 393.272C270.039 393.272 274.21 384.93 274.21 370.332C274.21 355.733 270.039 347.16 262.972 347.16C255.789 347.16 251.618 355.502 251.618 370.1C251.618 384.698 255.789 393.272 262.972 393.272ZM338.545 427.219H300.311V423.28L304.367 421.078C308.074 419.109 309.117 417.255 309.117 413.316V363.148C309.117 357.471 308.19 355.849 304.946 354.459L301.238 352.837V348.898L322.441 339.861L326.032 342.062V350.636C332.173 343.684 339.009 339.861 345.149 339.861C358.821 339.861 368.901 351.562 368.901 367.667C368.901 388.29 355.924 400.571 335.069 400.571C332.984 400.571 330.435 400.224 327.539 399.528V413.316C327.539 416.907 329.045 418.761 333.911 421.078L338.545 423.28V427.219ZM336.692 393.388C343.991 393.388 349.089 385.046 349.089 372.765C349.089 360.136 344.454 353.069 336.344 353.069C333.216 353.069 329.972 354.575 327.539 357.124V382.497C327.886 389.333 331.246 393.388 336.692 393.388ZM445.78 427.219H407.546V423.28L412.297 421.078C417.163 418.877 418.553 416.907 418.553 413.316V391.534C412.876 397.327 406.619 400.571 401.058 400.571C387.271 400.571 377.191 389.101 377.191 372.881C377.191 352.258 390.167 339.861 411.022 339.861C415.077 339.861 419.943 341.019 424.925 343.336L433.383 339.861L436.975 342.062V413.316C436.975 417.255 438.017 419.109 441.725 421.078L445.78 423.28V427.219ZM409.748 387.363C412.876 387.363 416.12 385.857 418.553 383.308V357.935C418.205 351.099 414.845 347.044 409.4 347.044C402.101 347.044 397.003 355.502 397.003 367.783C397.003 380.412 401.637 387.363 409.748 387.363ZM486.199 399.413H448.429V395.473L452.484 393.272C455.844 391.302 456.771 389.796 456.771 385.509V363.264C456.771 357.355 455.844 355.733 452.6 354.459L448.892 352.953V349.013L470.094 339.861L473.686 342.062V352.605C477.046 345.538 483.882 339.861 489.443 339.861C493.382 339.861 497.322 341.367 500.334 344.263L498.48 361.063H494.077C490.022 355.617 487.821 353.995 484.113 353.995C481.449 353.995 478.668 355.965 475.192 359.209V385.509C475.192 389.101 476.698 390.839 481.565 393.272L486.199 395.473V399.413ZM526.936 400.571C519.406 400.571 510.832 398.602 504.807 394.662L506.661 378.674H510.832L514.308 383.887C518.71 390.491 522.186 393.272 527.979 393.272C532.498 393.272 535.626 391.187 535.626 386.9C535.626 383.887 533.425 381.223 521.375 376.125C510.832 371.606 505.85 365.929 505.85 357.819C505.85 346.812 514.887 339.861 528.443 339.861C536.089 339.861 544.315 341.483 549.529 343.916L547.907 358.746H543.504C541.998 356.313 540.029 353.88 537.943 351.447C535.51 348.666 532.266 347.16 528.906 347.16C524.156 347.16 521.607 349.129 521.607 352.026C521.607 355.965 524.156 357.935 536.553 363.496C548.255 368.71 552.078 373.808 552.078 381.223C552.078 392.693 541.535 400.571 526.936 400.571ZM579.643 400.571C568.288 400.571 564.581 395.126 564.581 378.674V349.94H555.66V342.757L566.435 340.672L578.948 324.219L583.003 326.537V341.019H597.717V349.94H583.003V375.198C583.003 386.552 585.088 390.376 590.534 390.376C592.387 390.376 594.82 389.912 597.022 389.101L598.644 395.126C594.357 398.254 586.826 400.571 579.643 400.571ZM185.949 516.571C172.857 516.571 165.905 508.461 165.905 493.052V479.264C165.905 473.587 165.094 471.965 161.85 470.575L158.143 468.953V465.013L180.735 455.861L184.443 458.178V489.46C184.443 499.424 187.339 503.247 194.638 503.247C197.419 503.247 201.011 501.509 203.328 499.076V479.264C203.328 473.587 202.517 471.965 199.273 470.575L195.565 468.953V465.013L218.274 455.861L221.866 458.178V498.034C221.866 501.741 222.677 502.552 227.195 503.595L230.903 504.406L231.714 508.693L210.743 516.571H207.615L203.907 506.955C199.273 512.98 192.553 516.571 185.949 516.571ZM269.449 512.053L258.442 516.571L236.545 469.416C234.807 465.593 233.996 464.898 230.752 462.696L228.318 460.958V457.019H264.119V460.958L261.107 462.233C258.674 463.16 257.283 464.55 257.283 466.056C257.283 466.867 257.515 467.91 258.326 469.764L268.869 493.863L279.181 469.764C279.992 467.91 280.224 466.867 280.224 466.056C280.224 464.55 278.718 463.16 276.4 462.233L273.388 460.958V457.019H297.371V460.958L293.779 463.276C291.346 464.898 289.956 465.824 288.45 469.184L269.449 512.053ZM336.782 512.284L326.355 516.571L308.049 469.416C306.891 466.288 305.848 465.129 302.256 462.696L299.823 460.958V457.019H335.276V460.958L332.264 462.233C329.831 463.16 328.325 464.666 328.325 466.056C328.325 466.983 328.441 468.026 329.02 469.764L336.319 492.009L349.411 459.684L359.839 457.019L374.553 492.125L382.431 469.764C383.011 468.026 383.242 467.099 383.242 466.056C383.242 464.55 381.968 463.16 379.419 462.233L376.407 460.958V457.019H400.506V460.958L396.914 463.276C393.67 465.361 392.859 466.404 391.816 469.184L375.596 512.284L365.516 516.571L349.759 481.234L336.782 512.284ZM424.613 515.413H398.313V511.589L403.643 509.272C407.234 507.65 409.32 506.144 411.174 503.827L423.918 488.881L409.668 469.764C406.539 465.593 405.381 464.666 402.484 462.696L399.588 460.843V457.019H433.303V460.843L430.175 462.465C429.248 462.928 428.784 463.623 428.784 464.434C428.784 464.782 429.016 465.361 429.48 465.94L436.547 475.441L440.139 471.154C442.224 468.605 443.962 465.824 443.962 464.666C443.962 463.739 443.499 463.044 442.688 462.58L439.559 460.843V457.019H465.628V460.843L460.298 463.16C456.707 464.782 454.621 466.172 452.652 468.605L441.297 481.929L456.823 502.552C459.951 506.723 461.109 507.882 464.006 509.735L467.018 511.589V515.413H433.303V511.589L436.315 509.851C437.358 509.272 437.821 508.809 437.821 507.998C437.821 507.534 437.706 507.187 437.126 506.376L428.784 495.369L423.802 501.278C421.717 503.827 420.211 506.26 420.211 507.534C420.211 508.461 420.674 509.272 421.485 509.735L424.613 511.589V515.413ZM484.013 544.378L470.341 534.182L471.963 530.59C481.579 528.041 489.11 524.218 495.019 516.224L473.469 469.3C471.731 465.477 470.92 464.782 467.676 462.58L465.243 460.843V457.019H501.044V460.843L498.032 462.117C495.599 463.16 494.208 464.55 494.208 465.94C494.208 466.867 494.44 467.91 495.251 469.648L505.794 494.558L516.106 469.648C516.917 467.91 517.149 466.867 517.149 465.94C517.149 464.55 515.642 463.16 513.325 462.117L510.313 460.843V457.019H534.296V460.843L530.704 463.276C528.271 464.782 526.881 465.709 525.375 469.069L507.88 509.272C499.306 528.852 492.239 538.237 484.013 544.378ZM587.741 515.413H537.921L536.762 507.882L567.465 464.55H560.05C554.141 464.55 550.086 466.867 546.726 471.849L542.555 478.337H538.037L540.122 457.019H587.972L589.131 464.434L558.66 507.882H568.392C573.49 507.882 578.472 504.522 582.411 498.381L586.119 492.588H590.29L587.741 515.413Z" fill="white"/>
<path d="M309.848 614.615C307.554 614.615 305.619 614.256 304.043 613.538C302.468 612.796 301.274 611.8 300.463 610.549C299.652 609.274 299.247 607.814 299.247 606.169H304.773C304.773 606.818 304.947 607.42 305.295 607.976C305.665 608.533 306.221 608.984 306.963 609.332C307.704 609.656 308.666 609.819 309.848 609.819C310.914 609.819 311.806 609.68 312.524 609.402C313.243 609.123 313.787 608.741 314.158 608.255C314.529 607.745 314.714 607.165 314.714 606.517C314.714 605.706 314.366 605.068 313.671 604.605C312.976 604.118 311.852 603.805 310.3 603.666L308.388 603.493C305.862 603.284 303.846 602.496 302.34 601.129C300.834 599.762 300.081 597.955 300.081 595.707C300.081 594.085 300.463 592.683 301.228 591.501C302.016 590.319 303.105 589.416 304.495 588.79C305.885 588.141 307.531 587.817 309.431 587.817C311.424 587.817 313.127 588.164 314.54 588.86C315.977 589.532 317.078 590.493 317.842 591.744C318.607 592.973 318.989 594.421 318.989 596.089H313.428C313.428 595.464 313.277 594.896 312.976 594.386C312.675 593.853 312.223 593.424 311.621 593.1C311.041 592.776 310.311 592.613 309.431 592.613C308.597 592.613 307.89 592.752 307.311 593.031C306.754 593.309 306.337 593.691 306.059 594.178C305.781 594.641 305.642 595.151 305.642 595.707C305.642 596.425 305.897 597.051 306.407 597.584C306.917 598.117 307.751 598.43 308.909 598.522L310.856 598.696C312.71 598.858 314.343 599.264 315.757 599.913C317.17 600.538 318.271 601.407 319.059 602.519C319.87 603.609 320.275 604.941 320.275 606.517C320.275 608.139 319.847 609.564 318.989 610.792C318.155 611.997 316.962 612.935 315.409 613.607C313.857 614.279 312.003 614.615 309.848 614.615ZM332.614 614.615C330.992 614.615 329.555 614.337 328.304 613.781C327.076 613.225 326.045 612.483 325.211 611.557C324.4 610.606 323.774 609.552 323.334 608.394C322.917 607.212 322.708 606.007 322.708 604.779V604.084C322.708 602.809 322.917 601.593 323.334 600.434C323.774 599.252 324.4 598.198 325.211 597.271C326.022 596.344 327.03 595.614 328.235 595.081C329.463 594.525 330.853 594.247 332.406 594.247C334.445 594.247 336.159 594.71 337.55 595.637C338.963 596.541 340.041 597.734 340.782 599.217C341.524 600.677 341.894 602.276 341.894 604.014V605.891L325.037 605.891V602.728H338.523L336.716 604.188C336.716 603.052 336.553 602.079 336.229 601.268C335.905 600.457 335.418 599.843 334.769 599.426C334.143 598.986 333.356 598.766 332.406 598.766C331.432 598.766 330.61 598.986 329.938 599.426C329.266 599.866 328.756 600.515 328.408 601.372C328.061 602.207 327.887 603.238 327.887 604.466C327.887 605.601 328.049 606.598 328.374 607.455C328.698 608.289 329.208 608.938 329.903 609.402C330.598 609.865 331.502 610.097 332.614 610.097C333.634 610.097 334.468 609.9 335.117 609.506C335.765 609.112 336.206 608.625 336.437 608.046H341.547C341.269 609.32 340.724 610.456 339.913 611.452C339.102 612.449 338.083 613.225 336.855 613.781C335.626 614.337 334.213 614.615 332.614 614.615ZM345.58 613.955V594.907H349.994V603.076H349.681C349.681 601.129 349.924 599.507 350.411 598.209C350.921 596.912 351.685 595.939 352.705 595.29C353.725 594.641 354.964 594.317 356.424 594.317H356.667C358.892 594.317 360.584 595.046 361.742 596.506C362.924 597.943 363.515 600.133 363.515 603.076V613.955H357.954V602.763C357.954 601.743 357.652 600.909 357.05 600.26C356.447 599.611 355.636 599.287 354.617 599.287C353.574 599.287 352.728 599.623 352.079 600.295C351.454 600.944 351.141 601.801 351.141 602.867V613.955H345.58ZM376.909 614.198C374.985 614.198 373.433 613.966 372.251 613.503C371.069 613.016 370.2 612.217 369.644 611.105C369.111 609.969 368.845 608.44 368.845 606.517V589.763H374.024V606.725C374.024 607.629 374.255 608.324 374.719 608.811C375.205 609.274 375.889 609.506 376.77 609.506H379.585V614.198H376.909ZM365.96 598.974V594.907H379.585V598.974H365.96ZM384.228 613.955V594.907H389.79V613.955H384.228ZM381.691 599.009V594.907H389.79V599.009H381.691ZM386.383 593.031C385.341 593.031 384.564 592.764 384.055 592.231C383.568 591.675 383.325 590.98 383.325 590.146C383.325 589.288 383.568 588.593 384.055 588.06C384.564 587.504 385.341 587.226 386.383 587.226C387.426 587.226 388.191 587.504 388.677 588.06C389.187 588.593 389.442 589.288 389.442 590.146C389.442 590.98 389.187 591.675 388.677 592.231C388.191 592.764 387.426 593.031 386.383 593.031ZM403.658 614.615C402.036 614.615 400.599 614.337 399.348 613.781C398.119 613.225 397.088 612.483 396.254 611.557C395.443 610.606 394.817 609.552 394.377 608.394C393.96 607.212 393.752 606.007 393.752 604.779V604.084C393.752 602.809 393.96 601.593 394.377 600.434C394.817 599.252 395.443 598.198 396.254 597.271C397.065 596.344 398.073 595.614 399.278 595.081C400.506 594.525 401.897 594.247 403.449 594.247C405.488 594.247 407.203 594.71 408.593 595.637C410.007 596.541 411.084 597.734 411.826 599.217C412.567 600.677 412.938 602.276 412.938 604.014V605.891H396.08V602.728H409.566L407.759 604.188C407.759 603.052 407.597 602.079 407.272 601.268C406.948 600.457 406.461 599.843 405.813 599.426C405.187 598.986 404.399 598.766 403.449 598.766C402.476 598.766 401.653 598.986 400.981 599.426C400.309 599.866 399.799 600.515 399.452 601.372C399.104 602.207 398.93 603.238 398.93 604.466C398.93 605.601 399.093 606.598 399.417 607.455C399.742 608.289 400.251 608.938 400.946 609.402C401.642 609.865 402.545 610.097 403.658 610.097C404.677 610.097 405.511 609.9 406.16 609.506C406.809 609.112 407.249 608.625 407.481 608.046H412.59C412.312 609.32 411.768 610.456 410.957 611.452C410.146 612.449 409.126 613.225 407.898 613.781C406.67 614.337 405.256 614.615 403.658 614.615ZM416.623 613.955V594.907H421.037V603.076H420.725C420.725 601.129 420.968 599.507 421.454 598.209C421.964 596.912 422.729 595.939 423.749 595.29C424.768 594.641 426.008 594.317 427.468 594.317H427.711C429.935 594.317 431.627 595.046 432.786 596.506C433.967 597.943 434.558 600.133 434.558 603.076V613.955H428.997V602.763C428.997 601.743 428.696 600.909 428.093 600.26C427.491 599.611 426.68 599.287 425.66 599.287C424.617 599.287 423.772 599.623 423.123 600.295C422.497 600.944 422.184 601.801 422.184 602.867V613.955H416.623ZM447.952 614.198C446.029 614.198 444.476 613.966 443.294 613.503C442.113 613.016 441.244 612.217 440.688 611.105C440.155 609.969 439.888 608.44 439.888 606.517V589.763H445.067V606.725C445.067 607.629 445.299 608.324 445.762 608.811C446.249 609.274 446.932 609.506 447.813 609.506H450.628V614.198H447.952ZM437.003 598.974V594.907H450.628V598.974H437.003Z" fill="white"/>
<path d="M138.186 661.45V658.843H143.458C144.732 658.843 145.862 658.64 146.847 658.235C147.851 657.81 148.7 657.231 149.395 656.497C150.11 655.763 150.651 654.904 151.018 653.919C151.384 652.934 151.568 651.872 151.568 650.733C151.568 649.536 151.384 648.454 151.018 647.489C150.651 646.504 150.11 645.654 149.395 644.94C148.7 644.206 147.851 643.646 146.847 643.26C145.862 642.874 144.732 642.681 143.458 642.681H138.186V640.074H143.168C145.08 640.074 146.74 640.373 148.15 640.972C149.56 641.551 150.728 642.343 151.655 643.347C152.601 644.332 153.306 645.442 153.769 646.678C154.233 647.894 154.464 649.14 154.464 650.414V651.051C154.464 652.287 154.233 653.523 153.769 654.759C153.306 655.995 152.601 657.115 151.655 658.119C150.728 659.123 149.56 659.934 148.15 660.552C146.74 661.151 145.08 661.45 143.168 661.45H138.186ZM135.927 661.45V640.074H138.765V661.45H135.927ZM165.008 661.855C163.656 661.855 162.488 661.624 161.503 661.16C160.519 660.697 159.717 660.088 159.099 659.335C158.481 658.563 158.018 657.704 157.709 656.758C157.419 655.811 157.274 654.846 157.274 653.861V653.34C157.274 652.336 157.419 651.36 157.709 650.414C158.018 649.468 158.481 648.618 159.099 647.865C159.717 647.093 160.499 646.485 161.445 646.04C162.411 645.577 163.541 645.345 164.834 645.345C166.514 645.345 167.895 645.712 168.976 646.446C170.077 647.16 170.888 648.087 171.409 649.227C171.95 650.366 172.22 651.582 172.22 652.876V654.122H158.491V652.036H170.193L169.556 653.166C169.556 652.065 169.382 651.119 169.034 650.327C168.687 649.516 168.165 648.889 167.47 648.445C166.775 648 165.896 647.778 164.834 647.778C163.734 647.778 162.816 648.029 162.083 648.531C161.368 649.034 160.827 649.719 160.461 650.588C160.113 651.457 159.939 652.461 159.939 653.6C159.939 654.701 160.113 655.695 160.461 656.584C160.827 657.453 161.387 658.148 162.141 658.669C162.894 659.171 163.849 659.422 165.008 659.422C166.225 659.422 167.209 659.152 167.963 658.611C168.735 658.071 169.198 657.443 169.353 656.729H171.96C171.747 657.791 171.322 658.708 170.685 659.48C170.048 660.253 169.247 660.842 168.281 661.247C167.316 661.653 166.225 661.855 165.008 661.855ZM181.237 661.797C179.21 661.797 177.636 661.363 176.516 660.494C175.415 659.625 174.846 658.437 174.807 656.931H177.414C177.453 657.53 177.752 658.1 178.312 658.64C178.891 659.162 179.866 659.422 181.237 659.422C182.473 659.422 183.419 659.181 184.076 658.698C184.732 658.196 185.061 657.588 185.061 656.873C185.061 656.236 184.819 655.744 184.337 655.396C183.854 655.029 183.072 654.788 181.99 654.672L180.31 654.498C178.843 654.344 177.646 653.909 176.719 653.195C175.792 652.461 175.328 651.438 175.328 650.125C175.328 649.14 175.579 648.3 176.082 647.605C176.584 646.89 177.279 646.349 178.167 645.983C179.055 645.596 180.079 645.403 181.237 645.403C182.975 645.403 184.385 645.789 185.466 646.562C186.548 647.334 187.108 648.483 187.146 650.009H184.539C184.52 649.391 184.23 648.869 183.67 648.445C183.13 648 182.319 647.778 181.237 647.778C180.156 647.778 179.335 648 178.775 648.445C178.215 648.889 177.935 649.449 177.935 650.125C177.935 650.704 178.128 651.167 178.515 651.515C178.92 651.862 179.577 652.084 180.484 652.181L182.164 652.355C183.825 652.529 185.157 652.992 186.161 653.745C187.165 654.479 187.668 655.522 187.668 656.873C187.668 657.839 187.388 658.698 186.828 659.451C186.287 660.185 185.534 660.764 184.568 661.189C183.603 661.595 182.492 661.797 181.237 661.797ZM192.451 661.334V645.867H195.231V661.334H192.451ZM190.075 648.068V645.867H195.231V648.068H190.075ZM193.233 643.376C192.615 643.376 192.151 643.212 191.842 642.883C191.553 642.555 191.408 642.14 191.408 641.638C191.408 641.136 191.553 640.721 191.842 640.392C192.151 640.064 192.615 639.9 193.233 639.9C193.851 639.9 194.304 640.064 194.594 640.392C194.903 640.721 195.057 641.136 195.057 641.638C195.057 642.14 194.903 642.555 194.594 642.883C194.304 643.212 193.851 643.376 193.233 643.376ZM206.459 667.359C205.744 667.359 205.02 667.33 204.286 667.272C203.572 667.214 202.886 667.137 202.23 667.04V664.694C202.925 664.79 203.649 664.868 204.402 664.926C205.174 665.003 205.899 665.042 206.574 665.042C207.984 665.042 209.104 664.848 209.934 664.462C210.784 664.095 211.392 663.506 211.759 662.695C212.145 661.904 212.338 660.88 212.338 659.625V656.671L213.265 654.469C213.207 656.033 212.879 657.337 212.281 658.38C211.682 659.403 210.9 660.175 209.934 660.697C208.988 661.199 207.936 661.45 206.777 661.45C205.696 661.45 204.701 661.247 203.794 660.842C202.906 660.417 202.133 659.837 201.477 659.104C200.839 658.37 200.337 657.53 199.97 656.584C199.623 655.618 199.449 654.604 199.449 653.542V653.021C199.449 651.94 199.633 650.936 199.999 650.009C200.366 649.062 200.878 648.242 201.535 647.547C202.191 646.851 202.973 646.311 203.881 645.925C204.808 645.538 205.821 645.345 206.922 645.345C208.216 645.345 209.355 645.625 210.34 646.185C211.325 646.726 212.097 647.527 212.657 648.589C213.236 649.632 213.555 650.916 213.613 652.442L212.802 652.471V645.867H215.003V659.509C215.003 661.363 214.714 662.859 214.134 663.999C213.574 665.157 212.667 666.007 211.412 666.548C210.176 667.088 208.525 667.359 206.459 667.359ZM207.299 658.901C208.225 658.901 209.065 658.698 209.819 658.293C210.591 657.887 211.199 657.308 211.643 656.555C212.107 655.782 212.338 654.865 212.338 653.803V652.471C212.338 651.428 212.097 650.549 211.614 649.835C211.151 649.12 210.543 648.58 209.79 648.213C209.036 647.846 208.216 647.662 207.328 647.662C206.323 647.662 205.435 647.894 204.663 648.358C203.89 648.821 203.292 649.478 202.867 650.327C202.442 651.158 202.23 652.142 202.23 653.282C202.23 654.421 202.442 655.415 202.867 656.265C203.311 657.115 203.91 657.771 204.663 658.235C205.435 658.679 206.314 658.901 207.299 658.901ZM220.153 661.334V645.867H222.355V652.5H222.007C222.007 650.974 222.21 649.69 222.615 648.647C223.04 647.585 223.677 646.784 224.527 646.243C225.377 645.683 226.448 645.403 227.742 645.403H227.858C229.808 645.403 231.247 646.011 232.174 647.228C233.12 648.445 233.593 650.202 233.593 652.5V661.334H230.813V651.92C230.813 650.723 230.475 649.767 229.799 649.053C229.123 648.319 228.196 647.952 227.018 647.952C225.802 647.952 224.817 648.329 224.064 649.082C223.311 649.835 222.934 650.839 222.934 652.094V661.334H220.153ZM245.256 661.855C243.904 661.855 242.736 661.624 241.751 661.16C240.766 660.697 239.965 660.088 239.347 659.335C238.729 658.563 238.266 657.704 237.957 656.758C237.667 655.811 237.522 654.846 237.522 653.861V653.34C237.522 652.336 237.667 651.36 237.957 650.414C238.266 649.468 238.729 648.618 239.347 647.865C239.965 647.093 240.747 646.485 241.693 646.04C242.659 645.577 243.788 645.345 245.082 645.345C246.762 645.345 248.143 645.712 249.224 646.446C250.325 647.16 251.136 648.087 251.657 649.227C252.198 650.366 252.468 651.582 252.468 652.876V654.122H238.739V652.036H250.441L249.803 653.166C249.803 652.065 249.63 651.119 249.282 650.327C248.934 649.516 248.413 648.889 247.718 648.445C247.023 648 246.144 647.778 245.082 647.778C243.981 647.778 243.064 648.029 242.33 648.531C241.616 649.034 241.075 649.719 240.708 650.588C240.361 651.457 240.187 652.461 240.187 653.6C240.187 654.701 240.361 655.695 240.708 656.584C241.075 657.453 241.635 658.148 242.388 658.669C243.141 659.171 244.097 659.422 245.256 659.422C246.472 659.422 247.457 659.152 248.21 658.611C248.983 658.071 249.446 657.443 249.601 656.729H252.207C251.995 657.791 251.57 658.708 250.933 659.48C250.296 660.253 249.494 660.842 248.529 661.247C247.563 661.653 246.472 661.855 245.256 661.855ZM262.875 661.855C261.775 661.855 260.761 661.653 259.834 661.247C258.907 660.842 258.096 660.272 257.401 659.538C256.725 658.804 256.194 657.955 255.808 656.989C255.441 656.024 255.258 654.981 255.258 653.861V653.34C255.258 652.239 255.441 651.206 255.808 650.24C256.175 649.275 256.687 648.425 257.343 647.691C258.019 646.958 258.811 646.388 259.718 645.983C260.645 645.558 261.669 645.345 262.789 645.345C263.966 645.345 265.038 645.596 266.004 646.098C266.969 646.581 267.761 647.344 268.379 648.387C268.997 649.429 269.344 650.781 269.422 652.442L268.263 650.588V640.19H271.044V661.334H268.842V654.469H269.653C269.576 656.226 269.209 657.655 268.553 658.756C267.896 659.837 267.066 660.629 266.062 661.131C265.077 661.614 264.015 661.855 262.875 661.855ZM263.252 659.422C264.198 659.422 265.057 659.21 265.83 658.785C266.602 658.36 267.22 657.752 267.684 656.96C268.147 656.149 268.379 655.203 268.379 654.122V652.789C268.379 651.727 268.137 650.829 267.655 650.096C267.191 649.342 266.564 648.773 265.772 648.387C265 647.981 264.15 647.778 263.223 647.778C262.2 647.778 261.292 648.02 260.5 648.502C259.728 648.985 259.12 649.661 258.675 650.53C258.251 651.399 258.038 652.422 258.038 653.6C258.038 654.778 258.26 655.811 258.704 656.7C259.149 657.569 259.767 658.244 260.558 658.727C261.35 659.191 262.248 659.422 263.252 659.422ZM291.145 661.855C289.871 661.855 288.731 661.575 287.727 661.015C286.742 660.455 285.96 659.644 285.381 658.582C284.802 657.501 284.483 656.207 284.425 654.701H285.178V661.334H282.977V640.19H285.758V650.472L284.773 652.587C284.85 650.907 285.188 649.536 285.787 648.474C286.385 647.411 287.167 646.629 288.133 646.127C289.117 645.606 290.199 645.345 291.377 645.345C292.477 645.345 293.482 645.558 294.389 645.983C295.297 646.388 296.079 646.958 296.735 647.691C297.392 648.406 297.894 649.246 298.241 650.211C298.589 651.158 298.763 652.181 298.763 653.282V653.803C298.763 654.904 298.579 655.937 298.213 656.902C297.865 657.868 297.353 658.727 296.677 659.48C296.002 660.214 295.19 660.793 294.244 661.218C293.317 661.643 292.284 661.855 291.145 661.855ZM290.826 659.422C291.869 659.422 292.777 659.171 293.549 658.669C294.322 658.167 294.92 657.482 295.345 656.613C295.77 655.724 295.982 654.701 295.982 653.542C295.982 652.384 295.76 651.37 295.316 650.501C294.891 649.632 294.293 648.966 293.52 648.502C292.748 648.02 291.85 647.778 290.826 647.778C289.9 647.778 289.04 647.991 288.249 648.416C287.457 648.821 286.82 649.42 286.337 650.211C285.873 650.984 285.642 651.92 285.642 653.021V654.353C285.642 655.415 285.883 656.323 286.366 657.076C286.849 657.829 287.486 658.409 288.278 658.814C289.069 659.22 289.919 659.422 290.826 659.422ZM301.621 667.359V664.868H303.852C304.508 664.868 305.059 664.781 305.503 664.607C305.966 664.453 306.343 664.182 306.632 663.796C306.941 663.41 307.192 662.898 307.385 662.261L312.251 645.867H314.974L309.818 662.985C309.509 664.008 309.075 664.839 308.515 665.476C307.955 666.133 307.27 666.606 306.458 666.895C305.667 667.204 304.74 667.359 303.678 667.359H301.621ZM306.343 660.986V658.669H309.703V660.986H306.343ZM306.053 660.986L300.521 645.867H303.359L308.66 660.986H306.053ZM325.558 661.334V640.19H328.397V661.334H325.558ZM334.203 661.334V645.867H336.404V652.5H336.057C336.057 650.974 336.26 649.69 336.665 648.647C337.09 647.585 337.727 646.784 338.577 646.243C339.426 645.683 340.498 645.403 341.792 645.403H341.908C343.858 645.403 345.297 646.011 346.224 647.228C347.17 648.445 347.643 650.202 347.643 652.5V661.334H344.862V651.92C344.862 650.723 344.524 649.767 343.848 649.053C343.173 648.319 342.246 647.952 341.068 647.952C339.851 647.952 338.866 648.329 338.113 649.082C337.36 649.835 336.984 650.839 336.984 652.094V661.334H334.203ZM359.19 661.855C358.089 661.855 357.075 661.653 356.148 661.247C355.222 660.842 354.411 660.272 353.715 659.538C353.04 658.804 352.508 657.955 352.122 656.989C351.755 656.024 351.572 654.981 351.572 653.861V653.34C351.572 652.239 351.755 651.206 352.122 650.24C352.489 649.275 353.001 648.425 353.657 647.691C354.333 646.958 355.125 646.388 356.033 645.983C356.959 645.558 357.983 645.345 359.103 645.345C360.281 645.345 361.352 645.596 362.318 646.098C363.283 646.581 364.075 647.344 364.693 648.387C365.311 649.429 365.659 650.781 365.736 652.442L364.577 650.588V640.19H367.358V661.334H365.157V654.469H365.968C365.89 656.226 365.523 657.655 364.867 658.756C364.21 659.837 363.38 660.629 362.376 661.131C361.391 661.614 360.329 661.855 359.19 661.855ZM359.566 659.422C360.512 659.422 361.372 659.21 362.144 658.785C362.917 658.36 363.534 657.752 363.998 656.96C364.461 656.149 364.693 655.203 364.693 654.122V652.789C364.693 651.727 364.452 650.829 363.969 650.096C363.506 649.342 362.878 648.773 362.086 648.387C361.314 647.981 360.464 647.778 359.537 647.778C358.514 647.778 357.606 648.02 356.815 648.502C356.042 648.985 355.434 649.661 354.99 650.53C354.565 651.399 354.353 652.422 354.353 653.6C354.353 654.778 354.575 655.811 355.019 656.7C355.463 657.569 356.081 658.244 356.873 658.727C357.664 659.191 358.562 659.422 359.566 659.422ZM373.454 661.334V645.867H376.234V661.334H373.454ZM371.079 648.068V645.867H376.234V648.068H371.079ZM374.236 643.376C373.618 643.376 373.154 643.212 372.845 642.883C372.556 642.555 372.411 642.14 372.411 641.638C372.411 641.136 372.556 640.721 372.845 640.392C373.154 640.064 373.618 639.9 374.236 639.9C374.854 639.9 375.307 640.064 375.597 640.392C375.906 640.721 376.061 641.136 376.061 641.638C376.061 642.14 375.906 642.555 375.597 642.883C375.307 643.212 374.854 643.376 374.236 643.376ZM390.966 661.334V656.7H390.503V651.341C390.503 650.279 390.223 649.478 389.663 648.937C389.122 648.396 388.321 648.126 387.259 648.126C386.66 648.126 386.042 648.136 385.405 648.155C384.768 648.174 384.16 648.194 383.58 648.213C383.001 648.232 382.499 648.261 382.074 648.3V645.867C382.499 645.828 382.943 645.799 383.407 645.78C383.889 645.741 384.382 645.722 384.884 645.722C385.386 645.703 385.869 645.693 386.332 645.693C387.915 645.693 389.209 645.886 390.213 646.272C391.217 646.639 391.961 647.247 392.444 648.097C392.926 648.947 393.168 650.096 393.168 651.544V661.334H390.966ZM385.898 661.739C384.739 661.739 383.735 661.546 382.885 661.16C382.055 660.755 381.408 660.175 380.944 659.422C380.5 658.669 380.278 657.762 380.278 656.7C380.278 655.599 380.52 654.682 381.002 653.948C381.504 653.214 382.229 652.664 383.175 652.297C384.121 651.911 385.26 651.718 386.593 651.718H390.793V653.803H386.477C385.357 653.803 384.498 654.073 383.899 654.614C383.3 655.155 383.001 655.85 383.001 656.7C383.001 657.549 383.3 658.235 383.899 658.756C384.498 659.277 385.357 659.538 386.477 659.538C387.133 659.538 387.761 659.422 388.36 659.191C388.958 658.94 389.451 658.534 389.837 657.974C390.242 657.395 390.464 656.603 390.503 655.599L391.256 656.7C391.159 657.8 390.889 658.727 390.445 659.48C390.02 660.214 389.422 660.774 388.649 661.16C387.896 661.546 386.979 661.739 385.898 661.739ZM398.271 661.334V645.867H400.473V652.5H400.125C400.125 650.974 400.328 649.69 400.733 648.647C401.158 647.585 401.795 646.784 402.645 646.243C403.495 645.683 404.566 645.403 405.86 645.403H405.976C407.926 645.403 409.365 646.011 410.292 647.228C411.238 648.445 411.711 650.202 411.711 652.5V661.334H408.93V651.92C408.93 650.723 408.592 649.767 407.917 649.053C407.241 648.319 406.314 647.952 405.136 647.952C403.919 647.952 402.935 648.329 402.182 649.082C401.428 649.835 401.052 650.839 401.052 652.094V661.334H398.271ZM427.908 661.334V642.159H430.746V661.334H427.908ZM421.478 642.738V640.19H437.177V642.738H421.478ZM438.215 667.359V664.868H440.445C441.102 664.868 441.652 664.781 442.096 664.607C442.56 664.453 442.936 664.182 443.226 663.796C443.535 663.41 443.786 662.898 443.979 662.261L448.845 645.867H451.568L446.412 662.985C446.103 664.008 445.669 664.839 445.109 665.476C444.549 666.133 443.863 666.606 443.052 666.895C442.261 667.204 441.334 667.359 440.272 667.359H438.215ZM442.936 660.986V658.669H446.296V660.986H442.936ZM442.647 660.986L437.114 645.867H439.953L445.254 660.986H442.647ZM455.098 667.127V645.867H457.299V652.558L456.778 652.5C456.875 650.839 457.222 649.487 457.821 648.445C458.439 647.383 459.24 646.6 460.225 646.098C461.21 645.596 462.281 645.345 463.44 645.345C464.56 645.345 465.574 645.558 466.481 645.983C467.408 646.407 468.2 646.987 468.856 647.72C469.513 648.454 470.015 649.304 470.363 650.269C470.71 651.235 470.884 652.258 470.884 653.34V653.861C470.884 654.942 470.701 655.966 470.334 656.931C469.967 657.897 469.445 658.746 468.77 659.48C468.113 660.214 467.321 660.793 466.394 661.218C465.487 661.643 464.483 661.855 463.382 661.855C462.281 661.855 461.229 661.614 460.225 661.131C459.221 660.648 458.39 659.866 457.734 658.785C457.077 657.704 456.701 656.284 456.604 654.527L457.879 656.844V667.127H455.098ZM462.948 659.422C463.99 659.422 464.898 659.181 465.67 658.698C466.443 658.196 467.041 657.511 467.466 656.642C467.891 655.753 468.103 654.74 468.103 653.6C468.103 652.442 467.891 651.428 467.466 650.559C467.041 649.69 466.443 649.014 465.67 648.531C464.898 648.029 463.99 647.778 462.948 647.778C462.021 647.778 461.161 647.991 460.37 648.416C459.578 648.821 458.941 649.42 458.458 650.211C457.995 650.984 457.763 651.92 457.763 653.021V654.353C457.763 655.415 458.004 656.323 458.487 657.076C458.97 657.829 459.607 658.409 460.399 658.814C461.19 659.22 462.04 659.422 462.948 659.422ZM481.643 661.855C480.291 661.855 479.123 661.624 478.138 661.16C477.154 660.697 476.352 660.088 475.734 659.335C475.116 658.563 474.653 657.704 474.344 656.758C474.054 655.811 473.91 654.846 473.91 653.861V653.34C473.91 652.336 474.054 651.36 474.344 650.414C474.653 649.468 475.116 648.618 475.734 647.865C476.352 647.093 477.134 646.485 478.08 646.04C479.046 645.577 480.176 645.345 481.469 645.345C483.149 645.345 484.53 645.712 485.611 646.446C486.712 647.16 487.523 648.087 488.044 649.227C488.585 650.366 488.855 651.582 488.855 652.876V654.122H475.126V652.036H486.828L486.191 653.166C486.191 652.065 486.017 651.119 485.669 650.327C485.322 649.516 484.8 648.889 484.105 648.445C483.41 648 482.531 647.778 481.469 647.778C480.369 647.778 479.451 648.029 478.718 648.531C478.003 649.034 477.463 649.719 477.096 650.588C476.748 651.457 476.574 652.461 476.574 653.6C476.574 654.701 476.748 655.695 477.096 656.584C477.463 657.453 478.023 658.148 478.776 658.669C479.529 659.171 480.485 659.422 481.643 659.422C482.86 659.422 483.845 659.152 484.598 658.611C485.37 658.071 485.833 657.443 485.988 656.729H488.595C488.382 657.791 487.958 658.708 487.32 659.48C486.683 660.253 485.882 660.842 484.916 661.247C483.951 661.653 482.86 661.855 481.643 661.855ZM499.8 661.334V640.19H502.638V661.334H499.8ZM502.059 651.92V649.371L511.125 649.342V651.891L502.059 651.92ZM502.059 642.738V640.19H511.617V642.738H502.059ZM522.445 661.855C521.093 661.855 519.905 661.624 518.882 661.16C517.859 660.697 516.99 660.088 516.275 659.335C515.58 658.563 515.049 657.704 514.682 656.758C514.335 655.811 514.161 654.846 514.161 653.861V653.34C514.161 652.355 514.344 651.389 514.711 650.443C515.078 649.478 515.619 648.618 516.333 647.865C517.048 647.093 517.917 646.485 518.94 646.04C519.963 645.577 521.132 645.345 522.445 645.345C523.758 645.345 524.926 645.577 525.949 646.04C526.973 646.485 527.842 647.093 528.556 647.865C529.271 648.618 529.811 649.478 530.178 650.443C530.545 651.389 530.729 652.355 530.729 653.34V653.861C530.729 654.846 530.545 655.811 530.178 656.758C529.831 657.704 529.3 658.563 528.585 659.335C527.89 660.088 527.031 660.697 526.007 661.16C524.984 661.624 523.796 661.855 522.445 661.855ZM522.445 659.364C523.603 659.364 524.588 659.113 525.399 658.611C526.229 658.09 526.857 657.395 527.282 656.526C527.726 655.657 527.948 654.682 527.948 653.6C527.948 652.5 527.726 651.515 527.282 650.646C526.838 649.777 526.201 649.091 525.37 648.589C524.559 648.087 523.584 647.836 522.445 647.836C521.325 647.836 520.35 648.087 519.519 648.589C518.689 649.091 518.052 649.777 517.608 650.646C517.163 651.515 516.941 652.5 516.941 653.6C516.941 654.682 517.154 655.657 517.579 656.526C518.023 657.395 518.65 658.09 519.461 658.611C520.292 659.113 521.286 659.364 522.445 659.364ZM540.252 661.797C538.417 661.797 537.008 661.199 536.023 660.002C535.038 658.804 534.546 657.076 534.546 654.817V645.838H537.326V655.367C537.326 656.584 537.655 657.54 538.311 658.235C538.968 658.911 539.856 659.249 540.976 659.249C542.135 659.249 543.081 658.882 543.815 658.148C544.548 657.395 544.915 656.371 544.915 655.078V645.838H547.696V661.334H545.494V654.701H545.842C545.842 656.226 545.639 657.52 545.234 658.582C544.828 659.625 544.22 660.426 543.409 660.986C542.617 661.527 541.604 661.797 540.368 661.797H540.252ZM553.081 661.334V645.867H555.283V652.5H554.935C554.935 650.974 555.138 649.69 555.543 648.647C555.968 647.585 556.605 646.784 557.455 646.243C558.305 645.683 559.376 645.403 560.67 645.403H560.786C562.736 645.403 564.175 646.011 565.102 647.228C566.048 648.445 566.521 650.202 566.521 652.5V661.334H563.74V651.92C563.74 650.723 563.402 649.767 562.727 649.053C562.051 648.319 561.124 647.952 559.946 647.952C558.729 647.952 557.745 648.329 556.992 649.082C556.238 649.835 555.862 650.839 555.862 652.094V661.334H553.081ZM578.068 661.855C576.967 661.855 575.954 661.653 575.027 661.247C574.1 660.842 573.289 660.272 572.594 659.538C571.918 658.804 571.387 657.955 571 656.989C570.634 656.024 570.45 654.981 570.45 653.861V653.34C570.45 652.239 570.634 651.206 571 650.24C571.367 649.275 571.879 648.425 572.536 647.691C573.211 646.958 574.003 646.388 574.911 645.983C575.838 645.558 576.861 645.345 577.981 645.345C579.159 645.345 580.231 645.596 581.196 646.098C582.162 646.581 582.953 647.344 583.571 648.387C584.189 649.429 584.537 650.781 584.614 652.442L583.455 650.588V640.19H586.236V661.334H584.035V654.469H584.846C584.769 656.226 584.402 657.655 583.745 658.756C583.089 659.837 582.258 660.629 581.254 661.131C580.269 661.614 579.207 661.855 578.068 661.855ZM578.444 659.422C579.391 659.422 580.25 659.21 581.022 658.785C581.795 658.36 582.413 657.752 582.876 656.96C583.34 656.149 583.571 655.203 583.571 654.122V652.789C583.571 651.727 583.33 650.829 582.847 650.096C582.384 649.342 581.756 648.773 580.964 648.387C580.192 647.981 579.342 647.778 578.416 647.778C577.392 647.778 576.485 648.02 575.693 648.502C574.92 648.985 574.312 649.661 573.868 650.53C573.443 651.399 573.231 652.422 573.231 653.6C573.231 654.778 573.453 655.811 573.897 656.7C574.341 657.569 574.959 658.244 575.751 658.727C576.542 659.191 577.44 659.422 578.444 659.422ZM591.579 661.334V645.867H593.78V652.239H593.664C593.664 649.98 594.157 648.329 595.141 647.286C596.146 646.224 597.642 645.693 599.631 645.693H600.152V648.184H599.168C597.623 648.184 596.435 648.599 595.605 649.429C594.775 650.24 594.359 651.418 594.359 652.963V661.334H591.579ZM602.925 667.359V664.868H605.156C605.812 664.868 606.363 664.781 606.807 664.607C607.27 664.453 607.647 664.182 607.936 663.796C608.245 663.41 608.496 662.898 608.689 662.261L613.555 645.867H616.278L611.122 662.985C610.813 664.008 610.379 664.839 609.819 665.476C609.259 666.133 608.574 666.606 607.762 666.895C606.971 667.204 606.044 667.359 604.982 667.359H602.925ZM607.647 660.986V658.669H611.007V660.986H607.647ZM607.357 660.986L601.825 645.867H604.663L609.964 660.986H607.357Z" fill="#A1A6AA"/>
</svg>
