<svg width="750" height="759" viewBox="0 0 750 759" fill="none" xmlns="http://www.w3.org/2000/svg">
<rect width="750" height="758.883" fill="#232526"/>
<path d="M198.118 183.413V166.729H196.449V147.438C196.449 143.615 195.441 140.73 193.425 138.783C191.479 136.837 188.594 135.864 184.771 135.864C182.616 135.864 180.391 135.898 178.097 135.968C175.803 136.037 173.613 136.107 171.528 136.176C169.442 136.246 167.635 136.35 166.106 136.489V127.73C167.635 127.591 169.234 127.487 170.902 127.417C172.64 127.278 174.413 127.209 176.22 127.209C178.028 127.139 179.766 127.105 181.434 127.105C187.134 127.105 191.792 127.8 195.407 129.19C199.022 130.511 201.698 132.701 203.436 135.759C205.174 138.818 206.043 142.954 206.043 148.168V183.413H198.118ZM179.87 184.872C175.699 184.872 172.084 184.177 169.025 182.787C166.036 181.327 163.707 179.242 162.039 176.531C160.44 173.819 159.641 170.552 159.641 166.729C159.641 162.766 160.51 159.464 162.248 156.823C164.055 154.181 166.662 152.2 170.068 150.879C173.474 149.489 177.576 148.794 182.372 148.794H197.492V156.301H181.955C177.923 156.301 174.83 157.275 172.675 159.221C170.52 161.167 169.442 163.67 169.442 166.729C169.442 169.787 170.52 172.255 172.675 174.132C174.83 176.009 177.923 176.948 181.955 176.948C184.319 176.948 186.578 176.531 188.733 175.696C190.888 174.793 192.661 173.333 194.051 171.317C195.511 169.231 196.31 166.381 196.449 162.766L199.161 166.729C198.813 170.691 197.84 174.028 196.241 176.739C194.712 179.381 192.557 181.397 189.776 182.787C187.065 184.177 183.763 184.872 179.87 184.872ZM253.821 185.29C249.232 185.29 245.131 184.282 241.516 182.266C237.971 180.25 235.155 177.33 233.07 173.507C230.985 169.614 229.837 164.956 229.629 159.534H232.34V183.413H224.415V107.293H234.426V144.31L230.88 151.922C231.158 145.874 232.375 140.938 234.53 137.115C236.685 133.292 239.5 130.476 242.976 128.669C246.521 126.792 250.414 125.853 254.655 125.853C258.617 125.853 262.232 126.618 265.499 128.147C268.766 129.607 271.582 131.658 273.945 134.3C276.309 136.872 278.116 139.896 279.368 143.371C280.619 146.778 281.245 150.462 281.245 154.424V156.301C281.245 160.264 280.584 163.983 279.263 167.459C278.012 170.934 276.17 174.028 273.737 176.739C271.304 179.381 268.384 181.466 264.978 182.996C261.641 184.525 257.922 185.29 253.821 185.29ZM252.674 176.531C256.427 176.531 259.695 175.627 262.475 173.819C265.256 172.012 267.411 169.544 268.94 166.416C270.47 163.218 271.234 159.534 271.234 155.363C271.234 151.192 270.435 147.542 268.836 144.414C267.307 141.286 265.152 138.888 262.371 137.219C259.59 135.481 256.358 134.612 252.674 134.612C249.337 134.612 246.243 135.377 243.393 136.906C240.543 138.366 238.249 140.521 236.511 143.371C234.843 146.152 234.008 149.524 234.008 153.486V158.283C234.008 162.106 234.877 165.373 236.615 168.084C238.353 170.795 240.647 172.881 243.497 174.341C246.348 175.801 249.406 176.531 252.674 176.531ZM320.186 185.29C315.389 185.29 311.218 184.455 307.673 182.787C304.197 181.119 301.312 178.894 299.018 176.113C296.724 173.263 294.986 170.135 293.805 166.729C292.692 163.322 292.136 159.916 292.136 156.51V154.633C292.136 151.088 292.692 147.612 293.805 144.206C294.986 140.799 296.724 137.741 299.018 135.029C301.382 132.249 304.302 130.024 307.777 128.356C311.253 126.688 315.32 125.853 319.978 125.853C324.635 125.853 328.806 126.722 332.49 128.46C336.244 130.198 339.233 132.666 341.458 135.864C343.752 138.992 345.038 142.711 345.316 147.021H335.723C335.236 143.545 333.637 140.66 330.926 138.366C328.215 136.003 324.566 134.821 319.978 134.821C316.015 134.821 312.713 135.725 310.071 137.532C307.43 139.339 305.449 141.807 304.128 144.935C302.807 148.064 302.147 151.609 302.147 155.571C302.147 159.395 302.807 162.905 304.128 166.103C305.449 169.231 307.43 171.734 310.071 173.611C312.783 175.418 316.154 176.322 320.186 176.322C323.314 176.322 326.025 175.766 328.319 174.654C330.613 173.541 332.456 172.047 333.846 170.17C335.236 168.293 336.07 166.173 336.349 163.809H345.942C345.733 168.189 344.447 171.977 342.084 175.175C339.79 178.373 336.731 180.875 332.907 182.683C329.154 184.421 324.913 185.29 320.186 185.29ZM382.797 185.29C378.835 185.29 375.185 184.56 371.848 183.1C368.511 181.64 365.592 179.589 363.089 176.948C360.656 174.306 358.744 171.247 357.354 167.771C356.033 164.296 355.373 160.542 355.373 156.51V154.633C355.373 150.671 356.033 146.951 357.354 143.476C358.675 140 360.517 136.941 362.881 134.3C365.314 131.658 368.164 129.607 371.431 128.147C374.768 126.618 378.452 125.853 382.484 125.853C386.725 125.853 390.583 126.757 394.059 128.564C397.534 130.302 400.384 133.048 402.609 136.802C404.833 140.556 406.085 145.422 406.363 151.4L402.192 144.727V107.293H412.202V183.413H404.277V158.7H407.197C406.919 165.026 405.598 170.17 403.235 174.132C400.871 178.025 397.882 180.875 394.267 182.683C390.722 184.421 386.898 185.29 382.797 185.29ZM384.152 176.531C387.559 176.531 390.652 175.766 393.433 174.236C396.214 172.707 398.438 170.517 400.106 167.667C401.775 164.748 402.609 161.341 402.609 157.448V152.652C402.609 148.828 401.74 145.596 400.002 142.954C398.334 140.243 396.074 138.192 393.224 136.802C390.444 135.342 387.385 134.612 384.048 134.612C380.364 134.612 377.097 135.481 374.246 137.219C371.466 138.957 369.276 141.39 367.677 144.518C366.148 147.647 365.383 151.331 365.383 155.571C365.383 159.812 366.183 163.531 367.781 166.729C369.38 169.857 371.605 172.29 374.455 174.028C377.305 175.696 380.538 176.531 384.152 176.531ZM455.106 185.29C450.24 185.29 446.034 184.455 442.489 182.787C438.944 181.119 436.059 178.929 433.834 176.218C431.61 173.437 429.941 170.344 428.829 166.937C427.786 163.531 427.265 160.055 427.265 156.51V154.633C427.265 151.018 427.786 147.508 428.829 144.101C429.941 140.695 431.61 137.636 433.834 134.925C436.059 132.145 438.874 129.955 442.28 128.356C445.756 126.688 449.823 125.853 454.48 125.853C460.528 125.853 465.499 127.174 469.392 129.816C473.354 132.388 476.274 135.725 478.151 139.826C480.097 143.927 481.07 148.307 481.07 152.965V157.448H431.644V149.941H473.771L471.477 154.007C471.477 150.045 470.851 146.639 469.6 143.788C468.349 140.869 466.472 138.61 463.969 137.011C461.467 135.412 458.304 134.612 454.48 134.612C450.518 134.612 447.216 135.516 444.574 137.323C442.002 139.131 440.056 141.599 438.735 144.727C437.484 147.855 436.858 151.47 436.858 155.571C436.858 159.534 437.484 163.114 438.735 166.312C440.056 169.44 442.072 171.942 444.783 173.819C447.494 175.627 450.935 176.531 455.106 176.531C459.486 176.531 463.031 175.557 465.742 173.611C468.523 171.664 470.191 169.405 470.747 166.833H480.132C479.367 170.656 477.838 173.958 475.544 176.739C473.25 179.52 470.365 181.64 466.889 183.1C463.413 184.56 459.486 185.29 455.106 185.29ZM496.743 183.413V124.915C496.743 118.728 498.377 114.175 501.644 111.255C504.911 108.335 509.708 106.875 516.034 106.875L522.916 106.875V115.217L514.365 115.217C511.793 115.217 509.812 115.947 508.422 117.407C507.032 118.797 506.336 120.744 506.336 123.246V183.413H496.743ZM489.027 135.864V128.356H523.959V135.864H489.027ZM555.449 205.102C552.877 205.102 550.271 204.997 547.629 204.789C545.057 204.58 542.589 204.302 540.225 203.955V195.508C542.728 195.856 545.335 196.134 548.046 196.343C550.827 196.621 553.434 196.76 555.867 196.76C560.941 196.76 564.973 196.065 567.962 194.674C571.021 193.353 573.211 191.233 574.532 188.313C575.922 185.463 576.617 181.779 576.617 177.26V166.624L579.954 158.7C579.745 164.33 578.564 169.023 576.409 172.777C574.254 176.461 571.438 179.242 567.962 181.119C564.556 182.926 560.767 183.83 556.596 183.83C552.704 183.83 549.124 183.1 545.856 181.64C542.659 180.111 539.878 178.025 537.514 175.383C535.22 172.742 533.413 169.718 532.092 166.312C530.841 162.836 530.215 159.186 530.215 155.363V153.486C530.215 149.593 530.876 145.978 532.196 142.641C533.517 139.235 535.359 136.281 537.723 133.778C540.086 131.276 542.902 129.329 546.169 127.939C549.506 126.548 553.155 125.853 557.118 125.853C561.775 125.853 565.877 126.861 569.422 128.877C572.968 130.824 575.748 133.709 577.764 137.532C579.85 141.286 580.997 145.909 581.205 151.4L578.285 151.505V127.73H586.21V176.843C586.21 183.517 585.168 188.904 583.082 193.006C581.066 197.177 577.799 200.235 573.28 202.182C568.831 204.128 562.888 205.102 555.449 205.102ZM558.473 174.654C561.81 174.654 564.834 173.924 567.545 172.464C570.326 171.004 572.516 168.919 574.115 166.207C575.783 163.427 576.617 160.125 576.617 156.301V151.505C576.617 147.751 575.748 144.588 574.01 142.016C572.342 139.444 570.152 137.497 567.441 136.176C564.73 134.856 561.775 134.195 558.578 134.195C554.963 134.195 551.765 135.029 548.984 136.698C546.204 138.366 544.049 140.73 542.519 143.788C540.99 146.778 540.225 150.323 540.225 154.424C540.225 158.526 540.99 162.106 542.519 165.165C544.118 168.223 546.273 170.587 548.984 172.255C551.765 173.854 554.928 174.654 558.473 174.654ZM223.55 287.413V211.293H233.56V256.756H231.057C231.057 251.264 231.753 246.537 233.143 242.575C234.603 238.543 236.827 235.449 239.816 233.294C242.806 231.139 246.629 230.062 251.287 230.062H251.704C258.377 230.062 263.417 232.286 266.823 236.735C270.23 241.115 271.933 247.406 271.933 255.609V287.413H261.923V253.524C261.923 249.005 260.636 245.494 258.064 242.992C255.562 240.489 252.295 239.238 248.263 239.238C243.814 239.238 240.234 240.733 237.522 243.722C234.881 246.641 233.56 250.5 233.56 255.296V287.413H223.55ZM292.96 287.413V231.73H302.97V287.413H292.96ZM284.409 239.655V231.73H302.97V239.655H284.409ZM295.775 222.763C293.55 222.763 291.882 222.172 290.77 220.99C289.727 219.808 289.206 218.314 289.206 216.506C289.206 214.699 289.727 213.204 290.77 212.022C291.882 210.841 293.55 210.25 295.775 210.25C297.999 210.25 299.633 210.841 300.676 212.022C301.788 213.204 302.344 214.699 302.344 216.506C302.344 218.314 301.788 219.808 300.676 220.99C299.633 222.172 297.999 222.763 295.775 222.763ZM312.523 308.685V299.717H318.362C321.004 299.717 323.02 298.987 324.41 297.527C325.87 296.067 326.6 294.051 326.6 291.479V231.73H336.193V290.019C336.193 294.677 335.533 298.361 334.212 301.072C332.961 303.784 330.91 305.73 328.06 306.912C325.279 308.094 321.56 308.685 316.903 308.685H312.523ZM317.841 239.655V231.73H336.193V239.655H317.841ZM328.998 221.928C326.774 221.928 325.106 221.338 323.993 220.156C322.951 218.974 322.429 217.479 322.429 215.672C322.429 213.865 322.951 212.37 323.993 211.188C325.106 210.006 326.774 209.416 328.998 209.416C331.223 209.416 332.857 210.006 333.899 211.188C335.012 212.37 335.568 213.865 335.568 215.672C335.568 217.479 335.012 218.974 333.899 220.156C332.857 221.338 331.223 221.928 328.998 221.928ZM393.793 287.413L372.833 261.448H363.657L389.204 231.73H399.736L376.587 258.529L377.317 253.211L405.367 287.413H393.793ZM355.42 287.413V211.293H365.43V287.413H355.42ZM415.514 287.413V211.293H425.524V287.413H415.514ZM407.798 219.217V211.293H425.524V219.217H407.798ZM444.725 287.413V231.73H452.65V255.609H451.398C451.398 250.187 452.093 245.599 453.484 241.845C454.944 238.021 457.099 235.102 459.949 233.086C462.799 231.07 466.414 230.062 470.793 230.062H471.21C475.59 230.062 479.205 231.07 482.055 233.086C484.974 235.102 487.129 238.021 488.52 241.845C489.91 245.599 490.605 250.187 490.605 255.609H487.686C487.686 250.187 488.416 245.599 489.875 241.845C491.335 238.021 493.49 235.102 496.34 233.086C499.26 231.07 502.91 230.062 507.289 230.062H507.706C512.086 230.062 515.735 231.07 518.655 233.086C521.575 235.102 523.73 238.021 525.12 241.845C526.58 245.599 527.31 250.187 527.31 255.609V287.413H517.299V253.419C517.299 248.901 516.187 245.425 513.963 242.992C511.738 240.489 508.645 239.238 504.682 239.238C500.581 239.238 497.279 240.559 494.776 243.2C492.274 245.772 491.022 249.387 491.022 254.045V287.413H481.012V253.419C481.012 248.901 479.9 245.425 477.675 242.992C475.451 240.489 472.357 239.238 468.395 239.238C464.293 239.238 460.991 240.559 458.489 243.2C455.986 245.772 454.735 249.387 454.735 254.045V287.413H444.725ZM172.584 391.413V335.73H180.509V359.609H179.257C179.257 354.117 179.987 349.494 181.447 345.741C182.976 341.917 185.27 339.032 188.329 337.086C191.388 335.07 195.246 334.062 199.904 334.062H200.321C207.342 334.062 212.521 336.252 215.857 340.631C219.264 345.011 220.967 351.337 220.967 359.609V391.413H210.957V357.524C210.957 353.214 209.74 349.772 207.307 347.2C204.874 344.559 201.537 343.238 197.297 343.238C192.917 343.238 189.372 344.594 186.661 347.305C183.95 350.016 182.594 353.631 182.594 358.149V391.413H172.584ZM264.934 393.29C260.068 393.29 255.792 392.455 252.108 390.787C248.424 389.119 245.296 386.929 242.723 384.218C240.221 381.437 238.309 378.344 236.988 374.937C235.737 371.531 235.111 368.055 235.111 364.51V362.633C235.111 359.088 235.772 355.612 237.093 352.206C238.413 348.73 240.36 345.636 242.932 342.925C245.504 340.145 248.632 337.955 252.317 336.356C256.001 334.688 260.207 333.853 264.934 333.853C269.661 333.853 273.867 334.688 277.551 336.356C281.235 337.955 284.364 340.145 286.936 342.925C289.508 345.636 291.454 348.73 292.775 352.206C294.096 355.612 294.756 359.088 294.756 362.633V364.51C294.756 368.055 294.096 371.531 292.775 374.937C291.524 378.344 289.612 381.437 287.04 384.218C284.537 386.929 281.444 389.119 277.76 390.787C274.075 392.455 269.8 393.29 264.934 393.29ZM264.934 384.322C269.105 384.322 272.65 383.418 275.57 381.611C278.559 379.734 280.818 377.231 282.348 374.103C283.946 370.975 284.746 367.464 284.746 363.571C284.746 359.609 283.946 356.064 282.348 352.935C280.749 349.807 278.455 347.339 275.466 345.532C272.546 343.725 269.035 342.821 264.934 342.821C260.902 342.821 257.391 343.725 254.402 345.532C251.413 347.339 249.119 349.807 247.52 352.935C245.921 356.064 245.122 359.609 245.122 363.571C245.122 367.464 245.886 370.975 247.416 374.103C249.015 377.231 251.274 379.734 254.194 381.611C257.183 383.418 260.763 384.322 264.934 384.322ZM309.749 412.267V335.73H317.674V359.818L315.797 359.609C316.144 353.631 317.396 348.765 319.551 345.011C321.775 341.187 324.66 338.372 328.205 336.564C331.751 334.757 335.609 333.853 339.78 333.853C343.812 333.853 347.461 334.618 350.729 336.147C354.065 337.677 356.915 339.762 359.279 342.404C361.643 345.045 363.45 348.104 364.701 351.58C365.953 355.056 366.578 358.74 366.578 362.633V364.51C366.578 368.403 365.918 372.087 364.597 375.563C363.276 379.039 361.399 382.097 358.966 384.739C356.603 387.381 353.753 389.466 350.416 390.996C347.148 392.525 343.534 393.29 339.571 393.29C335.609 393.29 331.82 392.421 328.205 390.683C324.591 388.945 321.601 386.129 319.238 382.236C316.874 378.344 315.519 373.234 315.171 366.908L319.759 375.25V412.267H309.749ZM338.007 384.531C341.761 384.531 345.028 383.662 347.809 381.924C350.59 380.116 352.745 377.648 354.274 374.52C355.803 371.322 356.568 367.673 356.568 363.571C356.568 359.4 355.803 355.751 354.274 352.623C352.745 349.494 350.59 347.061 347.809 345.323C345.028 343.516 341.761 342.612 338.007 342.612C334.67 342.612 331.577 343.377 328.727 344.906C325.877 346.366 323.583 348.521 321.845 351.371C320.176 354.152 319.342 357.524 319.342 361.486V366.283C319.342 370.106 320.211 373.373 321.949 376.084C323.687 378.795 325.981 380.881 328.831 382.341C331.681 383.801 334.74 384.531 338.007 384.531ZM424.289 412.267V374.833L428.251 366.908C428.043 372.956 426.826 377.926 424.602 381.819C422.377 385.712 419.492 388.597 415.947 390.474C412.471 392.351 408.648 393.29 404.477 393.29C400.515 393.29 396.865 392.525 393.528 390.996C390.261 389.466 387.411 387.346 384.978 384.635C382.614 381.924 380.772 378.83 379.451 375.354C378.13 371.809 377.47 368.055 377.47 364.093V362.216C377.47 358.253 378.13 354.569 379.451 351.163C380.772 347.757 382.649 344.767 385.082 342.195C387.515 339.554 390.4 337.503 393.737 336.043C397.073 334.583 400.793 333.853 404.894 333.853C409.621 333.853 413.757 334.861 417.303 336.877C420.917 338.893 423.768 341.813 425.853 345.636C427.939 349.46 429.086 354.117 429.294 359.609H426.374V335.73H434.299V412.267H424.289ZM406.25 384.113C409.656 384.113 412.749 383.349 415.53 381.819C418.311 380.29 420.535 378.1 422.204 375.25C423.872 372.33 424.706 368.924 424.706 365.031V360.235C424.706 356.411 423.837 353.179 422.099 350.537C420.431 347.826 418.172 345.775 415.321 344.385C412.541 342.925 409.517 342.195 406.25 342.195C402.496 342.195 399.194 343.064 396.344 344.802C393.563 346.54 391.373 349.008 389.774 352.206C388.245 355.334 387.48 358.983 387.48 363.154C387.48 367.325 388.28 371.01 389.879 374.207C391.477 377.336 393.702 379.769 396.552 381.507C399.402 383.244 402.635 384.113 406.25 384.113ZM453.533 391.413V335.73H461.458V358.671H461.041C461.041 350.537 462.813 344.594 466.359 340.84C469.974 337.016 475.361 335.105 482.521 335.105H484.398V344.072H480.853C475.291 344.072 471.016 345.567 468.027 348.556C465.038 351.476 463.543 355.716 463.543 361.277V391.413H453.533ZM514.55 393.081C507.25 393.081 501.585 391.517 497.553 388.389C493.591 385.26 491.54 380.985 491.401 375.563H500.785C500.924 377.718 502.002 379.769 504.018 381.715C506.103 383.592 509.614 384.531 514.55 384.531C518.999 384.531 522.405 383.662 524.768 381.924C527.132 380.116 528.314 377.926 528.314 375.354C528.314 373.06 527.445 371.288 525.707 370.036C523.969 368.716 521.154 367.847 517.261 367.43L511.213 366.804C505.93 366.248 501.62 364.684 498.283 362.112C494.946 359.47 493.278 355.786 493.278 351.059C493.278 347.513 494.181 344.489 495.989 341.987C497.796 339.415 500.299 337.468 503.497 336.147C506.694 334.757 510.379 334.062 514.55 334.062C520.806 334.062 525.881 335.452 529.774 338.233C533.667 341.013 535.682 345.15 535.822 350.641H526.437C526.367 348.417 525.325 346.54 523.309 345.011C521.362 343.412 518.443 342.612 514.55 342.612C510.657 342.612 507.702 343.412 505.686 345.011C503.67 346.61 502.662 348.625 502.662 351.059C502.662 353.144 503.358 354.812 504.748 356.064C506.208 357.315 508.571 358.114 511.838 358.462L517.886 359.088C523.865 359.713 528.661 361.382 532.276 364.093C535.891 366.734 537.698 370.488 537.698 375.354C537.698 378.83 536.69 381.924 534.674 384.635C532.728 387.276 530.017 389.362 526.541 390.891C523.065 392.351 519.068 393.081 514.55 393.081ZM573.895 392.038C569.724 392.038 566.11 391.447 563.051 390.266C560.062 389.084 557.733 387.068 556.065 384.218C554.466 381.298 553.666 377.37 553.666 372.435V318.838H563.259V373.686C563.259 376.675 564.059 379.004 565.658 380.672C567.326 382.271 569.655 383.071 572.644 383.071H582.446V392.038H573.895ZM544.073 343.238V335.73H582.446V343.238H544.073ZM214.99 497.081C208.386 497.081 203.311 494.926 199.766 490.616C196.221 486.306 194.448 480.084 194.448 471.951V439.626H204.458V473.932C204.458 478.312 205.64 481.753 208.003 484.255C210.367 486.688 213.565 487.905 217.597 487.905C221.768 487.905 225.174 486.584 227.816 483.942C230.457 481.231 231.778 477.547 231.778 472.889V439.626H241.788V495.413H233.863V471.534H235.115C235.115 477.026 234.385 481.683 232.925 485.507C231.465 489.26 229.275 492.145 226.356 494.161C223.506 496.108 219.856 497.081 215.407 497.081H214.99ZM273.063 495.413L254.085 439.73H264.513L283.073 495.413H273.063ZM275.566 495.413V487.488H287.662V495.413H275.566ZM280.362 495.413L296.525 439.73H306.327L289.851 495.413H280.362ZM335.689 495.413L346.951 441.607H360.507L373.645 495.413H365.095L351.956 441.816H355.293L343.927 495.413H335.689ZM330.58 495.413V487.488H342.154V495.413H330.58ZM328.286 495.413L312.541 439.73H322.134L337.462 495.413H328.286ZM367.18 495.413V487.488H378.755V495.413H367.18ZM371.873 495.413L385.22 439.73H394.292L380.632 495.413H371.873ZM401.138 495.413L421.054 466.112L420.741 468.197L402.076 439.73H413.129L426.581 460.689H428.04L440.762 439.73H451.085L433.463 467.467L433.776 465.59L454.63 495.413H443.577L427.936 472.785H426.476L411.461 495.413H401.138ZM462.406 517.102V508.134H470.435C472.799 508.134 474.78 507.821 476.379 507.196C478.047 506.639 479.403 505.666 480.445 504.276C481.558 502.886 482.461 501.043 483.157 498.749L500.675 439.73H510.476L491.916 501.356C490.803 505.041 489.239 508.03 487.223 510.324C485.207 512.687 482.739 514.39 479.82 515.433C476.97 516.545 473.633 517.102 469.81 517.102H462.406ZM479.403 494.161V485.819H491.499V494.161H479.403ZM478.36 494.161L458.444 439.73H468.663L487.745 494.161H478.36ZM519.028 495.413V484.255L549.372 447.864V449.532L547.704 447.029L549.059 447.655H518.611V439.73H558.236V450.888L527.892 487.279V485.819L529.769 488.426L528.309 487.488H559.904V495.413H519.028Z" fill="white"/>
<path d="M345.692 593.752C343.398 593.752 341.463 593.393 339.887 592.675C338.312 591.933 337.118 590.937 336.307 589.686C335.496 588.411 335.091 586.951 335.091 585.306H340.617C340.617 585.955 340.791 586.557 341.139 587.113C341.51 587.67 342.066 588.121 342.807 588.469C343.549 588.793 344.51 588.956 345.692 588.956C346.758 588.956 347.65 588.817 348.368 588.538C349.087 588.26 349.631 587.878 350.002 587.391C350.373 586.882 350.558 586.302 350.558 585.654C350.558 584.843 350.211 584.205 349.515 583.742C348.82 583.255 347.696 582.942 346.144 582.803L344.232 582.63C341.706 582.421 339.691 581.633 338.184 580.266C336.678 578.899 335.925 577.092 335.925 574.844C335.925 573.222 336.307 571.82 337.072 570.638C337.86 569.456 338.949 568.553 340.339 567.927C341.73 567.278 343.375 566.954 345.275 566.954C347.268 566.954 348.971 567.301 350.384 567.997C351.821 568.668 352.922 569.63 353.686 570.881C354.451 572.11 354.833 573.558 354.833 575.226H349.272C349.272 574.601 349.122 574.033 348.82 573.523C348.519 572.99 348.067 572.561 347.465 572.237C346.885 571.913 346.156 571.75 345.275 571.75C344.441 571.75 343.734 571.889 343.155 572.167C342.599 572.446 342.182 572.828 341.903 573.314C341.625 573.778 341.486 574.288 341.486 574.844C341.486 575.562 341.741 576.188 342.251 576.721C342.761 577.254 343.595 577.567 344.754 577.659L346.7 577.833C348.554 577.995 350.187 578.401 351.601 579.05C353.014 579.675 354.115 580.544 354.903 581.656C355.714 582.745 356.119 584.078 356.119 585.654C356.119 587.276 355.691 588.701 354.833 589.929C353.999 591.134 352.806 592.072 351.253 592.744C349.701 593.416 347.847 593.752 345.692 593.752ZM369.014 593.752C367.346 593.752 365.863 593.497 364.565 592.988C363.268 592.455 362.167 591.736 361.263 590.833C360.383 589.929 359.711 588.898 359.247 587.739C358.784 586.557 358.552 585.318 358.552 584.02V583.221C358.552 581.9 358.784 580.648 359.247 579.467C359.734 578.262 360.429 577.207 361.333 576.304C362.26 575.4 363.372 574.693 364.67 574.183C365.967 573.65 367.416 573.384 369.014 573.384C370.66 573.384 372.119 573.65 373.394 574.183C374.692 574.693 375.792 575.4 376.696 576.304C377.6 577.207 378.295 578.262 378.781 579.467C379.268 580.648 379.511 581.9 379.511 583.221V584.02C379.511 585.318 379.28 586.557 378.816 587.739C378.353 588.898 377.669 589.929 376.765 590.833C375.885 591.736 374.796 592.455 373.498 592.988C372.201 593.497 370.706 593.752 369.014 593.752ZM369.014 589.06C370.104 589.06 371.007 588.828 371.726 588.365C372.444 587.901 372.988 587.252 373.359 586.418C373.753 585.584 373.95 584.657 373.95 583.638C373.95 582.549 373.753 581.598 373.359 580.787C372.965 579.953 372.398 579.293 371.656 578.806C370.938 578.32 370.057 578.076 369.014 578.076C367.995 578.076 367.114 578.32 366.373 578.806C365.631 579.293 365.064 579.953 364.67 580.787C364.299 581.598 364.114 582.549 364.114 583.638C364.114 584.657 364.299 585.584 364.67 586.418C365.04 587.252 365.597 587.901 366.338 588.365C367.08 588.828 367.972 589.06 369.014 589.06ZM383.393 593.092V574.044H387.807V582.213H387.703C387.703 579.525 388.27 577.451 389.406 575.991C390.564 574.531 392.233 573.801 394.411 573.801H395.141V578.598H393.75C392.221 578.598 391.039 579.015 390.205 579.849C389.371 580.66 388.954 581.842 388.954 583.394V593.092H383.393ZM409.391 593.092V587.461H408.453V581.344C408.453 580.37 408.221 579.64 407.758 579.154C407.294 578.667 406.553 578.424 405.533 578.424C405.023 578.424 404.351 578.435 403.517 578.459C402.683 578.482 401.826 578.517 400.945 578.563C400.065 578.609 399.265 578.656 398.547 578.702V574.01C399.08 573.963 399.705 573.917 400.424 573.871C401.142 573.824 401.884 573.79 402.648 573.766C403.413 573.743 404.131 573.732 404.803 573.732C406.75 573.732 408.383 574.01 409.704 574.566C411.048 575.122 412.068 575.968 412.763 577.103C413.458 578.215 413.806 579.652 413.806 581.413V593.092H409.391ZM403.309 593.578C401.941 593.578 400.737 593.335 399.694 592.848C398.674 592.362 397.875 591.667 397.296 590.763C396.716 589.836 396.427 588.735 396.427 587.461C396.427 586.071 396.786 584.935 397.504 584.055C398.222 583.151 399.23 582.491 400.528 582.074C401.826 581.633 403.32 581.413 405.012 581.413H409.078V584.507H404.977C404.004 584.507 403.251 584.75 402.718 585.236C402.208 585.7 401.953 586.337 401.953 587.148C401.953 587.913 402.208 588.538 402.718 589.025C403.251 589.489 404.004 589.72 404.977 589.72C405.603 589.72 406.159 589.616 406.645 589.407C407.155 589.176 407.572 588.793 407.897 588.26C408.221 587.727 408.406 586.986 408.453 586.036L409.774 587.426C409.658 588.747 409.333 589.859 408.8 590.763C408.291 591.667 407.572 592.362 406.645 592.848C405.742 593.335 404.629 593.578 403.309 593.578Z" fill="white"/>
<path d="M131.694 643.587V640.98H136.966C138.24 640.98 139.37 640.777 140.355 640.371C141.359 639.947 142.209 639.367 142.904 638.634C143.618 637.9 144.159 637.04 144.526 636.056C144.893 635.071 145.076 634.009 145.076 632.87C145.076 631.672 144.893 630.591 144.526 629.625C144.159 628.641 143.618 627.791 142.904 627.077C142.209 626.343 141.359 625.783 140.355 625.397C139.37 625.01 138.24 624.817 136.966 624.817H131.694V622.21H136.676C138.588 622.21 140.249 622.51 141.658 623.108C143.068 623.688 144.236 624.479 145.163 625.483C146.109 626.468 146.814 627.579 147.278 628.814C147.741 630.031 147.973 631.276 147.973 632.551V633.188C147.973 634.424 147.741 635.66 147.278 636.896C146.814 638.131 146.109 639.251 145.163 640.256C144.236 641.26 143.068 642.071 141.658 642.689C140.249 643.287 138.588 643.587 136.676 643.587H131.694ZM129.435 643.587V622.21H132.274V643.587H129.435ZM158.516 643.992C157.165 643.992 155.996 643.76 155.012 643.297C154.027 642.833 153.225 642.225 152.608 641.472C151.99 640.7 151.526 639.84 151.217 638.894C150.928 637.948 150.783 636.983 150.783 635.998V635.476C150.783 634.472 150.928 633.497 151.217 632.551C151.526 631.605 151.99 630.755 152.608 630.002C153.225 629.23 154.008 628.621 154.954 628.177C155.919 627.714 157.049 627.482 158.343 627.482C160.023 627.482 161.403 627.849 162.485 628.583C163.585 629.297 164.396 630.224 164.918 631.363C165.458 632.503 165.729 633.719 165.729 635.013V636.258H151.999V634.173H163.701L163.064 635.303C163.064 634.202 162.89 633.256 162.543 632.464C162.195 631.653 161.674 631.025 160.978 630.581C160.283 630.137 159.405 629.915 158.343 629.915C157.242 629.915 156.325 630.166 155.591 630.668C154.876 631.17 154.336 631.856 153.969 632.725C153.621 633.594 153.448 634.598 153.448 635.737C153.448 636.838 153.621 637.832 153.969 638.72C154.336 639.589 154.896 640.285 155.649 640.806C156.402 641.308 157.358 641.559 158.516 641.559C159.733 641.559 160.718 641.289 161.471 640.748C162.243 640.207 162.707 639.58 162.861 638.865H165.468C165.256 639.927 164.831 640.845 164.194 641.617C163.556 642.389 162.755 642.978 161.789 643.384C160.824 643.789 159.733 643.992 158.516 643.992ZM174.746 643.934C172.718 643.934 171.144 643.5 170.024 642.631C168.924 641.762 168.354 640.574 168.315 639.068H170.922C170.961 639.667 171.26 640.236 171.82 640.777C172.399 641.298 173.375 641.559 174.746 641.559C175.981 641.559 176.928 641.318 177.584 640.835C178.241 640.333 178.569 639.725 178.569 639.01C178.569 638.373 178.328 637.88 177.845 637.533C177.362 637.166 176.58 636.925 175.499 636.809L173.819 636.635C172.351 636.48 171.154 636.046 170.227 635.332C169.3 634.598 168.837 633.574 168.837 632.261C168.837 631.276 169.088 630.436 169.59 629.741C170.092 629.027 170.787 628.486 171.675 628.119C172.564 627.733 173.587 627.54 174.746 627.54C176.484 627.54 177.893 627.926 178.975 628.699C180.056 629.471 180.616 630.62 180.655 632.145H178.048C178.028 631.527 177.739 631.006 177.179 630.581C176.638 630.137 175.827 629.915 174.746 629.915C173.664 629.915 172.844 630.137 172.284 630.581C171.724 631.025 171.444 631.585 171.444 632.261C171.444 632.841 171.637 633.304 172.023 633.652C172.428 633.999 173.085 634.221 173.993 634.318L175.673 634.492C177.333 634.665 178.666 635.129 179.67 635.882C180.674 636.616 181.176 637.658 181.176 639.01C181.176 639.976 180.896 640.835 180.336 641.588C179.795 642.322 179.042 642.901 178.077 643.326C177.111 643.731 176.001 643.934 174.746 643.934ZM185.959 643.471V628.003H188.74V643.471H185.959ZM183.584 630.205V628.003H188.74V630.205H183.584ZM186.741 625.512C186.123 625.512 185.66 625.348 185.351 625.02C185.061 624.692 184.916 624.277 184.916 623.774C184.916 623.272 185.061 622.857 185.351 622.529C185.66 622.201 186.123 622.037 186.741 622.037C187.359 622.037 187.813 622.201 188.102 622.529C188.411 622.857 188.566 623.272 188.566 623.774C188.566 624.277 188.411 624.692 188.102 625.02C187.813 625.348 187.359 625.512 186.741 625.512ZM199.967 649.495C199.252 649.495 198.528 649.466 197.795 649.409C197.08 649.351 196.395 649.273 195.738 649.177V646.831C196.433 646.927 197.157 647.004 197.91 647.062C198.683 647.14 199.407 647.178 200.083 647.178C201.492 647.178 202.612 646.985 203.443 646.599C204.292 646.232 204.901 645.643 205.268 644.832C205.654 644.04 205.847 643.017 205.847 641.762V638.807L206.774 636.606C206.716 638.17 206.388 639.474 205.789 640.516C205.19 641.54 204.408 642.312 203.443 642.833C202.497 643.336 201.444 643.587 200.286 643.587C199.204 643.587 198.21 643.384 197.302 642.978C196.414 642.553 195.641 641.974 194.985 641.24C194.348 640.507 193.846 639.667 193.479 638.72C193.131 637.755 192.957 636.741 192.957 635.679V635.158C192.957 634.076 193.141 633.072 193.508 632.145C193.875 631.199 194.386 630.379 195.043 629.683C195.699 628.988 196.481 628.448 197.389 628.061C198.316 627.675 199.33 627.482 200.43 627.482C201.724 627.482 202.863 627.762 203.848 628.322C204.833 628.863 205.605 629.664 206.165 630.726C206.745 631.769 207.063 633.053 207.121 634.578L206.31 634.607V628.003H208.512V641.646C208.512 643.5 208.222 644.996 207.643 646.135C207.083 647.294 206.175 648.144 204.92 648.684C203.684 649.225 202.033 649.495 199.967 649.495ZM200.807 641.038C201.734 641.038 202.574 640.835 203.327 640.429C204.099 640.024 204.708 639.445 205.152 638.691C205.615 637.919 205.847 637.002 205.847 635.94V634.607C205.847 633.565 205.605 632.686 205.123 631.972C204.659 631.257 204.051 630.716 203.298 630.35C202.545 629.983 201.724 629.799 200.836 629.799C199.832 629.799 198.943 630.031 198.171 630.494C197.399 630.958 196.8 631.614 196.375 632.464C195.95 633.294 195.738 634.279 195.738 635.418C195.738 636.558 195.95 637.552 196.375 638.402C196.819 639.251 197.418 639.908 198.171 640.371C198.943 640.816 199.822 641.038 200.807 641.038ZM213.662 643.471V628.003H215.863V634.636H215.515C215.515 633.111 215.718 631.827 216.124 630.784C216.549 629.722 217.186 628.921 218.035 628.38C218.885 627.82 219.957 627.54 221.251 627.54H221.366C223.317 627.54 224.755 628.148 225.682 629.365C226.628 630.581 227.101 632.338 227.101 634.636V643.471H224.321V634.057C224.321 632.86 223.983 631.904 223.307 631.19C222.631 630.456 221.704 630.089 220.526 630.089C219.31 630.089 218.325 630.465 217.572 631.219C216.819 631.972 216.442 632.976 216.442 634.231V643.471H213.662ZM238.764 643.992C237.412 643.992 236.244 643.76 235.259 643.297C234.275 642.833 233.473 642.225 232.855 641.472C232.237 640.7 231.774 639.84 231.465 638.894C231.175 637.948 231.031 636.983 231.031 635.998V635.476C231.031 634.472 231.175 633.497 231.465 632.551C231.774 631.605 232.237 630.755 232.855 630.002C233.473 629.23 234.255 628.621 235.202 628.177C236.167 627.714 237.297 627.482 238.59 627.482C240.27 627.482 241.651 627.849 242.732 628.583C243.833 629.297 244.644 630.224 245.165 631.363C245.706 632.503 245.976 633.719 245.976 635.013V636.258H232.247V634.173H243.949L243.312 635.303C243.312 634.202 243.138 633.256 242.79 632.464C242.443 631.653 241.921 631.025 241.226 630.581C240.531 630.137 239.652 629.915 238.59 629.915C237.49 629.915 236.573 630.166 235.839 630.668C235.124 631.17 234.584 631.856 234.217 632.725C233.869 633.594 233.695 634.598 233.695 635.737C233.695 636.838 233.869 637.832 234.217 638.72C234.584 639.589 235.144 640.285 235.897 640.806C236.65 641.308 237.606 641.559 238.764 641.559C239.981 641.559 240.966 641.289 241.719 640.748C242.491 640.207 242.954 639.58 243.109 638.865H245.716C245.503 639.927 245.079 640.845 244.441 641.617C243.804 642.389 243.003 642.978 242.037 643.384C241.072 643.789 239.981 643.992 238.764 643.992ZM256.384 643.992C255.283 643.992 254.269 643.789 253.342 643.384C252.416 642.978 251.605 642.409 250.909 641.675C250.234 640.941 249.702 640.091 249.316 639.126C248.949 638.16 248.766 637.118 248.766 635.998V635.476C248.766 634.376 248.949 633.343 249.316 632.377C249.683 631.412 250.195 630.562 250.851 629.828C251.527 629.094 252.319 628.525 253.227 628.119C254.153 627.694 255.177 627.482 256.297 627.482C257.475 627.482 258.546 627.733 259.512 628.235C260.477 628.718 261.269 629.481 261.887 630.523C262.505 631.566 262.853 632.918 262.93 634.578L261.771 632.725V622.326H264.552V643.471H262.351V636.606H263.162C263.084 638.363 262.717 639.792 262.061 640.893C261.404 641.974 260.574 642.766 259.57 643.268C258.585 643.751 257.523 643.992 256.384 643.992ZM256.76 641.559C257.706 641.559 258.566 641.347 259.338 640.922C260.111 640.497 260.729 639.889 261.192 639.097C261.655 638.286 261.887 637.34 261.887 636.258V634.926C261.887 633.864 261.646 632.966 261.163 632.232C260.7 631.479 260.072 630.91 259.28 630.523C258.508 630.118 257.658 629.915 256.731 629.915C255.708 629.915 254.8 630.156 254.009 630.639C253.236 631.122 252.628 631.798 252.184 632.667C251.759 633.536 251.547 634.559 251.547 635.737C251.547 636.915 251.769 637.948 252.213 638.836C252.657 639.705 253.275 640.381 254.067 640.864C254.858 641.327 255.756 641.559 256.76 641.559ZM284.653 643.992C283.379 643.992 282.24 643.712 281.236 643.152C280.251 642.592 279.469 641.781 278.889 640.719C278.31 639.638 277.991 638.344 277.933 636.838H278.687V643.471H276.485V622.326H279.266V632.609L278.281 634.723C278.358 633.043 278.696 631.672 279.295 630.61C279.893 629.548 280.676 628.766 281.641 628.264C282.626 627.743 283.707 627.482 284.885 627.482C285.986 627.482 286.99 627.694 287.897 628.119C288.805 628.525 289.587 629.094 290.244 629.828C290.9 630.543 291.402 631.383 291.75 632.348C292.097 633.294 292.271 634.318 292.271 635.418V635.94C292.271 637.04 292.088 638.074 291.721 639.039C291.373 640.005 290.862 640.864 290.186 641.617C289.51 642.351 288.699 642.93 287.753 643.355C286.826 643.78 285.793 643.992 284.653 643.992ZM284.335 641.559C285.378 641.559 286.285 641.308 287.057 640.806C287.83 640.304 288.428 639.618 288.853 638.749C289.278 637.861 289.491 636.838 289.491 635.679C289.491 634.521 289.268 633.507 288.824 632.638C288.4 631.769 287.801 631.103 287.029 630.639C286.256 630.156 285.358 629.915 284.335 629.915C283.408 629.915 282.549 630.127 281.757 630.552C280.965 630.958 280.328 631.556 279.845 632.348C279.382 633.121 279.15 634.057 279.15 635.158V636.49C279.15 637.552 279.391 638.46 279.874 639.213C280.357 639.966 280.994 640.545 281.786 640.951C282.578 641.356 283.427 641.559 284.335 641.559ZM295.13 649.495V647.004H297.36C298.017 647.004 298.567 646.918 299.011 646.744C299.474 646.589 299.851 646.319 300.141 645.933C300.45 645.547 300.701 645.035 300.894 644.398L305.76 628.003H308.483L303.327 645.122C303.018 646.145 302.583 646.975 302.023 647.613C301.463 648.269 300.778 648.742 299.967 649.032C299.175 649.341 298.248 649.495 297.186 649.495H295.13ZM299.851 643.123V640.806H303.211V643.123H299.851ZM299.561 643.123L294.029 628.003H296.868L302.168 643.123H299.561ZM324.396 643.992C323.025 643.992 321.78 643.702 320.66 643.123C319.54 642.544 318.652 641.685 317.995 640.545C317.358 639.406 317.039 637.987 317.039 636.287V635.563H319.878V636.809C319.878 638.257 320.303 639.387 321.152 640.198C322.002 640.989 323.083 641.385 324.396 641.385C325.709 641.385 326.791 640.989 327.64 640.198C328.49 639.387 328.915 638.257 328.915 636.809V624.296H331.753V636.287C331.753 637.987 331.425 639.406 330.769 640.545C330.131 641.685 329.253 642.544 328.133 643.123C327.032 643.702 325.787 643.992 324.396 643.992ZM319.82 624.875V622.326H331.753V624.875H319.82ZM344.256 643.992C342.904 643.992 341.717 643.76 340.693 643.297C339.67 642.833 338.801 642.225 338.087 641.472C337.391 640.7 336.86 639.84 336.494 638.894C336.146 637.948 335.972 636.983 335.972 635.998V635.476C335.972 634.492 336.156 633.526 336.522 632.58C336.889 631.614 337.43 630.755 338.145 630.002C338.859 629.23 339.728 628.621 340.751 628.177C341.775 627.714 342.943 627.482 344.256 627.482C345.569 627.482 346.737 627.714 347.761 628.177C348.784 628.621 349.653 629.23 350.368 630.002C351.082 630.755 351.623 631.614 351.99 632.58C352.357 633.526 352.54 634.492 352.54 635.476V635.998C352.54 636.983 352.357 637.948 351.99 638.894C351.642 639.84 351.111 640.7 350.397 641.472C349.702 642.225 348.842 642.833 347.819 643.297C346.795 643.76 345.608 643.992 344.256 643.992ZM344.256 641.501C345.415 641.501 346.4 641.25 347.211 640.748C348.041 640.227 348.668 639.531 349.093 638.663C349.537 637.794 349.759 636.818 349.759 635.737C349.759 634.636 349.537 633.652 349.093 632.783C348.649 631.914 348.012 631.228 347.182 630.726C346.371 630.224 345.395 629.973 344.256 629.973C343.136 629.973 342.161 630.224 341.331 630.726C340.5 631.228 339.863 631.914 339.419 632.783C338.975 633.652 338.753 634.636 338.753 635.737C338.753 636.818 338.965 637.794 339.39 638.663C339.834 639.531 340.462 640.227 341.273 640.748C342.103 641.25 343.098 641.501 344.256 641.501ZM356.705 643.471V628.003H358.906V634.636H358.559C358.559 633.111 358.761 631.827 359.167 630.784C359.592 629.722 360.229 628.921 361.078 628.38C361.928 627.82 363 627.54 364.294 627.54H364.409C366.36 627.54 367.798 628.148 368.725 629.365C369.671 630.581 370.145 632.338 370.145 634.636V643.471H367.364V634.057C367.364 632.86 367.026 631.904 366.35 631.19C365.674 630.456 364.747 630.089 363.569 630.089C362.353 630.089 361.368 630.465 360.615 631.219C359.862 631.972 359.485 632.976 359.485 634.231V643.471H356.705ZM384.588 643.471V638.836H384.124V633.478C384.124 632.416 383.844 631.614 383.284 631.074C382.744 630.533 381.942 630.263 380.88 630.263C380.282 630.263 379.664 630.272 379.027 630.292C378.389 630.311 377.781 630.33 377.202 630.35C376.622 630.369 376.12 630.398 375.696 630.436V628.003C376.12 627.965 376.565 627.936 377.028 627.916C377.511 627.878 378.003 627.859 378.505 627.859C379.007 627.839 379.49 627.83 379.953 627.83C381.537 627.83 382.831 628.023 383.835 628.409C384.839 628.776 385.582 629.384 386.065 630.234C386.548 631.083 386.789 632.232 386.789 633.681V643.471H384.588ZM379.519 643.876C378.36 643.876 377.356 643.683 376.507 643.297C375.676 642.891 375.029 642.312 374.566 641.559C374.122 640.806 373.9 639.898 373.9 638.836C373.9 637.736 374.141 636.818 374.624 636.085C375.126 635.351 375.85 634.801 376.796 634.434C377.742 634.047 378.882 633.854 380.214 633.854H384.414V635.94H380.098C378.978 635.94 378.119 636.21 377.52 636.751C376.922 637.292 376.622 637.987 376.622 638.836C376.622 639.686 376.922 640.371 377.52 640.893C378.119 641.414 378.978 641.675 380.098 641.675C380.755 641.675 381.382 641.559 381.981 641.327C382.58 641.076 383.072 640.671 383.458 640.111C383.864 639.531 384.086 638.74 384.124 637.736L384.878 638.836C384.781 639.937 384.511 640.864 384.066 641.617C383.642 642.351 383.043 642.911 382.271 643.297C381.518 643.683 380.6 643.876 379.519 643.876ZM397.917 643.644C396.759 643.644 395.755 643.48 394.905 643.152C394.075 642.824 393.428 642.264 392.964 641.472C392.52 640.661 392.298 639.57 392.298 638.199V623.311H394.963V638.547C394.963 639.377 395.185 640.024 395.629 640.487C396.093 640.931 396.739 641.154 397.57 641.154H400.293V643.644H397.917ZM389.633 630.089V628.003H400.293V630.089H389.633ZM404.225 643.471V622.326H407.006V634.955H406.311C406.311 633.429 406.504 632.116 406.89 631.016C407.296 629.896 407.914 629.036 408.744 628.438C409.574 627.839 410.636 627.54 411.93 627.54H412.046C413.9 627.54 415.3 628.158 416.246 629.394C417.192 630.61 417.665 632.358 417.665 634.636V643.471H414.885V634.057C414.885 632.802 414.527 631.827 413.813 631.132C413.118 630.436 412.21 630.089 411.09 630.089C409.854 630.089 408.86 630.504 408.107 631.334C407.373 632.145 407.006 633.217 407.006 634.549V643.471H404.225ZM432.109 643.471V638.836H431.645V633.478C431.645 632.416 431.365 631.614 430.805 631.074C430.265 630.533 429.463 630.263 428.401 630.263C427.802 630.263 427.185 630.272 426.547 630.292C425.91 630.311 425.302 630.33 424.723 630.35C424.143 630.369 423.641 630.398 423.216 630.436V628.003C423.641 627.965 424.085 627.936 424.549 627.916C425.031 627.878 425.524 627.859 426.026 627.859C426.528 627.839 427.011 627.83 427.474 627.83C429.058 627.83 430.351 628.023 431.356 628.409C432.36 628.776 433.103 629.384 433.586 630.234C434.069 631.083 434.31 632.232 434.31 633.681V643.471H432.109ZM427.04 643.876C425.881 643.876 424.877 643.683 424.027 643.297C423.197 642.891 422.55 642.312 422.087 641.559C421.643 640.806 421.421 639.898 421.421 638.836C421.421 637.736 421.662 636.818 422.145 636.085C422.647 635.351 423.371 634.801 424.317 634.434C425.263 634.047 426.403 633.854 427.735 633.854H431.935V635.94H427.619C426.499 635.94 425.64 636.21 425.041 636.751C424.443 637.292 424.143 637.987 424.143 638.836C424.143 639.686 424.443 640.371 425.041 640.893C425.64 641.414 426.499 641.675 427.619 641.675C428.276 641.675 428.903 641.559 429.502 641.327C430.1 641.076 430.593 640.671 430.979 640.111C431.384 639.531 431.607 638.74 431.645 637.736L432.398 638.836C432.302 639.937 432.031 640.864 431.587 641.617C431.162 642.351 430.564 642.911 429.791 643.297C429.038 643.683 428.121 643.876 427.04 643.876ZM439.413 643.471V628.003H441.615V634.636H441.267C441.267 633.111 441.47 631.827 441.875 630.784C442.3 629.722 442.938 628.921 443.787 628.38C444.637 627.82 445.709 627.54 447.002 627.54H447.118C449.068 627.54 450.507 628.148 451.434 629.365C452.38 630.581 452.853 632.338 452.853 634.636V643.471H450.073V634.057C450.073 632.86 449.735 631.904 449.059 631.19C448.383 630.456 447.456 630.089 446.278 630.089C445.062 630.089 444.077 630.465 443.324 631.219C442.571 631.972 442.194 632.976 442.194 634.231V643.471H439.413ZM467.196 643.587V641.096H473.105C474.244 641.096 475.123 640.777 475.741 640.14C476.378 639.483 476.697 638.614 476.697 637.533C476.697 636.432 476.388 635.573 475.77 634.955C475.152 634.318 474.264 633.999 473.105 633.999H467.196V632.145H472.7C474.051 632.145 475.239 632.31 476.262 632.638C477.305 632.966 478.116 633.516 478.695 634.289C479.294 635.042 479.593 636.075 479.593 637.388V637.794C479.593 639.029 479.342 640.082 478.84 640.951C478.338 641.8 477.575 642.457 476.552 642.92C475.529 643.364 474.244 643.587 472.7 643.587H467.196ZM464.937 643.587V622.21H467.776V643.587H464.937ZM467.196 633.478V631.624H472.323C473.52 631.624 474.399 631.305 474.959 630.668C475.538 630.012 475.828 629.181 475.828 628.177C475.828 627.154 475.538 626.323 474.959 625.686C474.399 625.03 473.52 624.701 472.323 624.701H467.196V622.21H471.831C474.148 622.21 475.876 622.703 477.015 623.688C478.155 624.653 478.724 626.053 478.724 627.888V628.293C478.724 629.587 478.435 630.62 477.855 631.392C477.276 632.145 476.465 632.686 475.422 633.014C474.399 633.323 473.202 633.478 471.831 633.478H467.196ZM493.574 643.471V638.836H493.111V633.478C493.111 632.416 492.831 631.614 492.271 631.074C491.73 630.533 490.929 630.263 489.867 630.263C489.268 630.263 488.65 630.272 488.013 630.292C487.376 630.311 486.768 630.33 486.188 630.35C485.609 630.369 485.107 630.398 484.682 630.436V628.003C485.107 627.965 485.551 627.936 486.015 627.916C486.497 627.878 486.99 627.859 487.492 627.859C487.994 627.839 488.477 627.83 488.94 627.83C490.523 627.83 491.817 628.023 492.821 628.409C493.825 628.776 494.569 629.384 495.052 630.234C495.534 631.083 495.776 632.232 495.776 633.681V643.471H493.574ZM488.505 643.876C487.347 643.876 486.343 643.683 485.493 643.297C484.663 642.891 484.016 642.312 483.552 641.559C483.108 640.806 482.886 639.898 482.886 638.836C482.886 637.736 483.128 636.818 483.61 636.085C484.112 635.351 484.837 634.801 485.783 634.434C486.729 634.047 487.868 633.854 489.201 633.854H493.401V635.94H489.085C487.965 635.94 487.106 636.21 486.507 636.751C485.908 637.292 485.609 637.987 485.609 638.836C485.609 639.686 485.908 640.371 486.507 640.893C487.106 641.414 487.965 641.675 489.085 641.675C489.741 641.675 490.369 641.559 490.968 641.327C491.566 641.076 492.059 640.671 492.445 640.111C492.85 639.531 493.072 638.74 493.111 637.736L493.864 638.836C493.767 639.937 493.497 640.864 493.053 641.617C492.628 642.351 492.03 642.911 491.257 643.297C490.504 643.683 489.587 643.876 488.505 643.876ZM500.879 643.471V628.003H503.081V634.376H502.965C502.965 632.116 503.457 630.465 504.442 629.423C505.446 628.361 506.943 627.83 508.931 627.83H509.453V630.321H508.468C506.923 630.321 505.736 630.736 504.905 631.566C504.075 632.377 503.66 633.555 503.66 635.1V643.471H500.879ZM512.759 643.471V628.003H514.961V634.636H514.613C514.613 633.111 514.816 631.827 515.221 630.784C515.646 629.722 516.283 628.921 517.133 628.38C517.983 627.82 519.054 627.54 520.348 627.54H520.464C522.414 627.54 523.853 628.148 524.78 629.365C525.726 630.581 526.199 632.338 526.199 634.636V643.471H523.419V634.057C523.419 632.86 523.081 631.904 522.405 631.19C521.729 630.456 520.802 630.089 519.624 630.089C518.408 630.089 517.423 630.465 516.67 631.219C515.917 631.972 515.54 632.976 515.54 634.231V643.471H512.759ZM539.455 643.992C538.181 643.992 537.041 643.712 536.037 643.152C535.052 642.592 534.27 641.781 533.691 640.719C533.112 639.638 532.793 638.344 532.735 636.838H533.488V643.471H531.287V622.326H534.067V632.609L533.083 634.723C533.16 633.043 533.498 631.672 534.096 630.61C534.695 629.548 535.477 628.766 536.443 628.264C537.427 627.743 538.509 627.482 539.687 627.482C540.787 627.482 541.791 627.694 542.699 628.119C543.607 628.525 544.389 629.094 545.045 629.828C545.702 630.543 546.204 631.383 546.551 632.348C546.899 633.294 547.073 634.318 547.073 635.418V635.94C547.073 637.04 546.889 638.074 546.522 639.039C546.175 640.005 545.663 640.864 544.987 641.617C544.311 642.351 543.5 642.93 542.554 643.355C541.627 643.78 540.594 643.992 539.455 643.992ZM539.136 641.559C540.179 641.559 541.087 641.308 541.859 640.806C542.631 640.304 543.23 639.618 543.655 638.749C544.08 637.861 544.292 636.838 544.292 635.679C544.292 634.521 544.07 633.507 543.626 632.638C543.201 631.769 542.603 631.103 541.83 630.639C541.058 630.156 540.16 629.915 539.136 629.915C538.209 629.915 537.35 630.127 536.558 630.552C535.767 630.958 535.13 631.556 534.647 632.348C534.183 633.121 533.952 634.057 533.952 635.158V636.49C533.952 637.552 534.193 638.46 534.676 639.213C535.159 639.966 535.796 640.545 536.587 640.951C537.379 641.356 538.229 641.559 539.136 641.559ZM551.257 643.471V628.003H553.458V634.376H553.342C553.342 632.116 553.835 630.465 554.82 629.423C555.824 628.361 557.32 627.83 559.309 627.83H559.83V630.321H558.846C557.301 630.321 556.113 630.736 555.283 631.566C554.453 632.377 554.037 633.555 554.037 635.1V643.471H551.257ZM570.093 643.992C568.741 643.992 567.553 643.76 566.53 643.297C565.507 642.833 564.638 642.225 563.923 641.472C563.228 640.7 562.697 639.84 562.33 638.894C561.983 637.948 561.809 636.983 561.809 635.998V635.476C561.809 634.492 561.992 633.526 562.359 632.58C562.726 631.614 563.267 630.755 563.981 630.002C564.696 629.23 565.565 628.621 566.588 628.177C567.611 627.714 568.78 627.482 570.093 627.482C571.406 627.482 572.574 627.714 573.597 628.177C574.621 628.621 575.49 629.23 576.204 630.002C576.919 630.755 577.459 631.614 577.826 632.58C578.193 633.526 578.377 634.492 578.377 635.476V635.998C578.377 636.983 578.193 637.948 577.826 638.894C577.479 639.84 576.948 640.7 576.233 641.472C575.538 642.225 574.679 642.833 573.655 643.297C572.632 643.76 571.444 643.992 570.093 643.992ZM570.093 641.501C571.251 641.501 572.236 641.25 573.047 640.748C573.877 640.227 574.505 639.531 574.93 638.663C575.374 637.794 575.596 636.818 575.596 635.737C575.596 634.636 575.374 633.652 574.93 632.783C574.486 631.914 573.849 631.228 573.018 630.726C572.207 630.224 571.232 629.973 570.093 629.973C568.973 629.973 567.998 630.224 567.167 630.726C566.337 631.228 565.7 631.914 565.256 632.783C564.811 633.652 564.589 634.636 564.589 635.737C564.589 636.818 564.802 637.794 565.227 638.663C565.671 639.531 566.298 640.227 567.109 640.748C567.94 641.25 568.934 641.501 570.093 641.501ZM589.667 643.992C588.315 643.992 587.127 643.76 586.104 643.297C585.081 642.833 584.212 642.225 583.497 641.472C582.802 640.7 582.271 639.84 581.904 638.894C581.556 637.948 581.383 636.983 581.383 635.998V635.476C581.383 634.492 581.566 633.526 581.933 632.58C582.3 631.614 582.841 630.755 583.555 630.002C584.27 629.23 585.139 628.621 586.162 628.177C587.185 627.714 588.354 627.482 589.667 627.482C590.98 627.482 592.148 627.714 593.171 628.177C594.195 628.621 595.064 629.23 595.778 630.002C596.493 630.755 597.033 631.614 597.4 632.58C597.767 633.526 597.951 634.492 597.951 635.476V635.998C597.951 636.983 597.767 637.948 597.4 638.894C597.053 639.84 596.522 640.7 595.807 641.472C595.112 642.225 594.253 642.833 593.229 643.297C592.206 643.76 591.018 643.992 589.667 643.992ZM589.667 641.501C590.825 641.501 591.81 641.25 592.621 640.748C593.451 640.227 594.079 639.531 594.504 638.663C594.948 637.794 595.17 636.818 595.17 635.737C595.17 634.636 594.948 633.652 594.504 632.783C594.06 631.914 593.422 631.228 592.592 630.726C591.781 630.224 590.806 629.973 589.667 629.973C588.547 629.973 587.572 630.224 586.741 630.726C585.911 631.228 585.274 631.914 584.83 632.783C584.385 633.652 584.163 634.636 584.163 635.737C584.163 636.818 584.376 637.794 584.801 638.663C585.245 639.531 585.872 640.227 586.683 640.748C587.514 641.25 588.508 641.501 589.667 641.501ZM612.774 643.471L606.952 636.258H604.404L611.5 628.003H614.425L607.995 635.447L608.198 633.97L615.99 643.471H612.774ZM602.115 643.471V622.326H604.896V643.471H602.115ZM619.038 648.018L616.808 647.178L619.501 639.705L621.79 640.574L619.038 648.018ZM267.81 678.992C266.439 678.992 265.193 678.702 264.073 678.123C262.953 677.544 262.065 676.685 261.409 675.545C260.771 674.406 260.453 672.987 260.453 671.287V670.563H263.291V671.809C263.291 673.257 263.716 674.387 264.566 675.198C265.415 675.989 266.497 676.385 267.81 676.385C269.123 676.385 270.204 675.989 271.054 675.198C271.904 674.387 272.328 673.257 272.328 671.809V659.296H275.167V671.287C275.167 672.987 274.839 674.406 274.182 675.545C273.545 676.685 272.666 677.544 271.546 678.123C270.446 678.702 269.2 678.992 267.81 678.992ZM263.233 659.875V657.326H275.167V659.875H263.233ZM285.903 678.934C284.068 678.934 282.659 678.336 281.674 677.138C280.689 675.941 280.197 674.213 280.197 671.954V662.974H282.977V672.504C282.977 673.72 283.306 674.676 283.962 675.371C284.619 676.047 285.507 676.385 286.627 676.385C287.786 676.385 288.732 676.018 289.466 675.285C290.199 674.531 290.566 673.508 290.566 672.214V662.974H293.347V678.471H291.145V671.838H291.493C291.493 673.363 291.29 674.657 290.885 675.719C290.479 676.762 289.871 677.563 289.06 678.123C288.268 678.664 287.255 678.934 286.019 678.934H285.903ZM298.906 678.471V657.326H301.687V678.471H298.906ZM296.763 659.528V657.326H301.687V659.528H296.763ZM307.773 678.471V663.003H310.554V678.471H307.773ZM305.398 665.205V663.003H310.554V665.205H305.398ZM308.555 660.512C307.937 660.512 307.474 660.348 307.165 660.02C306.875 659.692 306.73 659.277 306.73 658.774C306.73 658.272 306.875 657.857 307.165 657.529C307.474 657.201 307.937 657.037 308.555 657.037C309.173 657.037 309.627 657.201 309.917 657.529C310.226 657.857 310.38 658.272 310.38 658.774C310.38 659.277 310.226 659.692 309.917 660.02C309.627 660.348 309.173 660.512 308.555 660.512ZM325.286 678.471V673.836H324.823V668.478C324.823 667.416 324.543 666.614 323.983 666.074C323.442 665.533 322.64 665.263 321.578 665.263C320.98 665.263 320.362 665.272 319.725 665.292C319.087 665.311 318.479 665.33 317.9 665.35C317.321 665.369 316.819 665.398 316.394 665.436V663.003C316.819 662.965 317.263 662.936 317.726 662.916C318.209 662.878 318.701 662.859 319.203 662.859C319.705 662.839 320.188 662.83 320.652 662.83C322.235 662.83 323.529 663.023 324.533 663.409C325.537 663.776 326.28 664.384 326.763 665.234C327.246 666.083 327.487 667.232 327.487 668.681V678.471H325.286ZM320.217 678.876C319.058 678.876 318.054 678.683 317.205 678.297C316.374 677.891 315.728 677.312 315.264 676.559C314.82 675.806 314.598 674.898 314.598 673.836C314.598 672.736 314.839 671.818 315.322 671.085C315.824 670.351 316.548 669.801 317.494 669.434C318.441 669.047 319.58 668.854 320.912 668.854H325.112V670.94H320.796C319.676 670.94 318.817 671.21 318.219 671.751C317.62 672.292 317.321 672.987 317.321 673.836C317.321 674.686 317.62 675.371 318.219 675.893C318.817 676.414 319.676 676.675 320.796 676.675C321.453 676.675 322.081 676.559 322.679 676.327C323.278 676.076 323.77 675.671 324.156 675.111C324.562 674.531 324.784 673.74 324.823 672.736L325.576 673.836C325.479 674.937 325.209 675.864 324.765 676.617C324.34 677.351 323.741 677.911 322.969 678.297C322.216 678.683 321.298 678.876 320.217 678.876ZM332.591 678.471V663.003H334.792V669.636H334.445C334.445 668.111 334.647 666.827 335.053 665.784C335.478 664.722 336.115 663.921 336.965 663.38C337.814 662.82 338.886 662.54 340.18 662.54H340.295C342.246 662.54 343.684 663.148 344.611 664.365C345.557 665.581 346.031 667.338 346.031 669.636V678.471H343.25V669.057C343.25 667.86 342.912 666.904 342.236 666.19C341.56 665.456 340.633 665.089 339.456 665.089C338.239 665.089 337.254 665.465 336.501 666.219C335.748 666.972 335.371 667.976 335.371 669.231V678.471H332.591ZM358.114 678.471V657.326H361.88L368.136 671.432H368.6L374.827 657.326H378.622V678.471H375.783V660.426L375.986 660.483L369.99 674.097H366.514L360.49 660.483L360.721 660.426V678.471H358.114ZM391.48 678.992C390.128 678.992 388.941 678.76 387.917 678.297C386.894 677.833 386.025 677.225 385.31 676.472C384.615 675.7 384.084 674.84 383.717 673.894C383.37 672.948 383.196 671.983 383.196 670.998V670.476C383.196 669.492 383.379 668.526 383.746 667.58C384.113 666.614 384.654 665.755 385.368 665.002C386.083 664.23 386.952 663.621 387.975 663.177C388.999 662.714 390.167 662.482 391.48 662.482C392.793 662.482 393.961 662.714 394.985 663.177C396.008 663.621 396.877 664.23 397.591 665.002C398.306 665.755 398.847 666.614 399.213 667.58C399.58 668.526 399.764 669.492 399.764 670.476V670.998C399.764 671.983 399.58 672.948 399.213 673.894C398.866 674.84 398.335 675.7 397.62 676.472C396.925 677.225 396.066 677.833 395.043 678.297C394.019 678.76 392.832 678.992 391.48 678.992ZM391.48 676.501C392.638 676.501 393.623 676.25 394.434 675.748C395.265 675.227 395.892 674.531 396.317 673.663C396.761 672.794 396.983 671.818 396.983 670.737C396.983 669.636 396.761 668.652 396.317 667.783C395.873 666.914 395.236 666.228 394.405 665.726C393.594 665.224 392.619 664.973 391.48 664.973C390.36 664.973 389.385 665.224 388.554 665.726C387.724 666.228 387.087 666.914 386.643 667.783C386.199 668.652 385.976 669.636 385.976 670.737C385.976 671.818 386.189 672.794 386.614 673.663C387.058 674.531 387.685 675.227 388.496 675.748C389.327 676.25 390.321 676.501 391.48 676.501ZM403.928 678.471V663.003H406.13V669.636H405.782C405.782 668.111 405.985 666.827 406.39 665.784C406.815 664.722 407.453 663.921 408.302 663.38C409.152 662.82 410.224 662.54 411.517 662.54H411.633C413.583 662.54 415.022 663.148 415.949 664.365C416.895 665.581 417.368 667.338 417.368 669.636V678.471H414.588V669.057C414.588 667.86 414.25 666.904 413.574 666.19C412.898 665.456 411.971 665.089 410.793 665.089C409.577 665.089 408.592 665.465 407.839 666.219C407.086 666.972 406.709 667.976 406.709 669.231V678.471H403.928ZM429.089 678.992C427.756 678.992 426.598 678.76 425.613 678.297C424.648 677.833 423.846 677.216 423.209 676.443C422.572 675.651 422.089 674.782 421.761 673.836C421.452 672.89 421.297 671.944 421.297 670.998V670.476C421.297 669.492 421.452 668.526 421.761 667.58C422.089 666.634 422.572 665.784 423.209 665.031C423.866 664.259 424.677 663.641 425.642 663.177C426.608 662.714 427.737 662.482 429.031 662.482C430.325 662.482 431.483 662.723 432.507 663.206C433.549 663.689 434.38 664.374 434.998 665.263C435.635 666.132 435.992 667.165 436.069 668.362H433.405C433.269 667.396 432.825 666.595 432.072 665.958C431.319 665.301 430.305 664.973 429.031 664.973C427.93 664.973 427.013 665.224 426.279 665.726C425.545 666.228 424.995 666.914 424.628 667.783C424.261 668.652 424.078 669.636 424.078 670.737C424.078 671.799 424.261 672.774 424.628 673.663C424.995 674.531 425.545 675.227 426.279 675.748C427.032 676.25 427.969 676.501 429.089 676.501C429.958 676.501 430.711 676.347 431.348 676.038C431.985 675.729 432.497 675.314 432.883 674.792C433.269 674.271 433.501 673.682 433.578 673.025H436.243C436.185 674.242 435.828 675.294 435.172 676.182C434.534 677.071 433.685 677.766 432.623 678.268C431.58 678.751 430.402 678.992 429.089 678.992ZM449.377 678.471V673.836H448.914V668.478C448.914 667.416 448.634 666.614 448.074 666.074C447.533 665.533 446.732 665.263 445.67 665.263C445.071 665.263 444.453 665.272 443.816 665.292C443.179 665.311 442.571 665.33 441.991 665.35C441.412 665.369 440.91 665.398 440.485 665.436V663.003C440.91 662.965 441.354 662.936 441.817 662.916C442.3 662.878 442.793 662.859 443.295 662.859C443.797 662.839 444.279 662.83 444.743 662.83C446.326 662.83 447.62 663.023 448.624 663.409C449.628 663.776 450.372 664.384 450.855 665.234C451.337 666.083 451.579 667.232 451.579 668.681V678.471H449.377ZM444.308 678.876C443.15 678.876 442.146 678.683 441.296 678.297C440.466 677.891 439.819 677.312 439.355 676.559C438.911 675.806 438.689 674.898 438.689 673.836C438.689 672.736 438.931 671.818 439.413 671.085C439.915 670.351 440.64 669.801 441.586 669.434C442.532 669.047 443.671 668.854 445.004 668.854H449.204V670.94H444.888C443.768 670.94 442.908 671.21 442.31 671.751C441.711 672.292 441.412 672.987 441.412 673.836C441.412 674.686 441.711 675.371 442.31 675.893C442.908 676.414 443.768 676.675 444.888 676.675C445.544 676.675 446.172 676.559 446.77 676.327C447.369 676.076 447.861 675.671 448.248 675.111C448.653 674.531 448.875 673.74 448.914 672.736L449.667 673.836C449.57 674.937 449.3 675.864 448.856 676.617C448.431 677.351 447.832 677.911 447.06 678.297C446.307 678.683 445.39 678.876 444.308 678.876ZM463.141 678.992C462.041 678.992 461.027 678.789 460.1 678.384C459.173 677.978 458.362 677.409 457.667 676.675C456.991 675.941 456.46 675.091 456.074 674.126C455.707 673.16 455.524 672.118 455.524 670.998V670.476C455.524 669.376 455.707 668.343 456.074 667.377C456.441 666.412 456.952 665.562 457.609 664.828C458.285 664.094 459.077 663.525 459.984 663.119C460.911 662.694 461.934 662.482 463.054 662.482C464.232 662.482 465.304 662.733 466.27 663.235C467.235 663.718 468.027 664.481 468.645 665.523C469.263 666.566 469.61 667.918 469.687 669.578L468.529 667.725V657.326H471.309V678.471H469.108V671.606H469.919C469.842 673.363 469.475 674.792 468.818 675.893C468.162 676.974 467.332 677.766 466.327 678.268C465.343 678.751 464.281 678.992 463.141 678.992ZM463.518 676.559C464.464 676.559 465.323 676.347 466.096 675.922C466.868 675.497 467.486 674.889 467.95 674.097C468.413 673.286 468.645 672.34 468.645 671.258V669.926C468.645 668.864 468.403 667.966 467.921 667.232C467.457 666.479 466.83 665.91 466.038 665.523C465.265 665.118 464.416 664.915 463.489 664.915C462.465 664.915 461.558 665.156 460.766 665.639C459.994 666.122 459.386 666.798 458.941 667.667C458.517 668.536 458.304 669.559 458.304 670.737C458.304 671.915 458.526 672.948 458.97 673.836C459.414 674.705 460.032 675.381 460.824 675.864C461.616 676.327 462.514 676.559 463.518 676.559ZM486.008 678.471V673.836H485.544V668.478C485.544 667.416 485.264 666.614 484.704 666.074C484.164 665.533 483.362 665.263 482.3 665.263C481.702 665.263 481.084 665.272 480.447 665.292C479.809 665.311 479.201 665.33 478.622 665.35C478.042 665.369 477.54 665.398 477.116 665.436V663.003C477.54 662.965 477.985 662.936 478.448 662.916C478.931 662.878 479.423 662.859 479.925 662.859C480.427 662.839 480.91 662.83 481.373 662.83C482.957 662.83 484.251 663.023 485.255 663.409C486.259 663.776 487.002 664.384 487.485 665.234C487.968 666.083 488.209 667.232 488.209 668.681V678.471H486.008ZM480.939 678.876C479.78 678.876 478.776 678.683 477.927 678.297C477.096 677.891 476.449 677.312 475.986 676.559C475.542 675.806 475.32 674.898 475.32 673.836C475.32 672.736 475.561 671.818 476.044 671.085C476.546 670.351 477.27 669.801 478.216 669.434C479.162 669.047 480.302 668.854 481.634 668.854H485.834V670.94H481.518C480.398 670.94 479.539 671.21 478.94 671.751C478.342 672.292 478.042 672.987 478.042 673.836C478.042 674.686 478.342 675.371 478.94 675.893C479.539 676.414 480.398 676.675 481.518 676.675C482.175 676.675 482.802 676.559 483.401 676.327C484 676.076 484.492 675.671 484.878 675.111C485.284 674.531 485.506 673.74 485.544 672.736L486.297 673.836C486.201 674.937 485.931 675.864 485.486 676.617C485.062 677.351 484.463 677.911 483.691 678.297C482.938 678.683 482.02 678.876 480.939 678.876Z" fill="#A1A6AA"/>
</svg>
