<svg width="268" height="126" viewBox="0 0 268 126" fill="none" xmlns="http://www.w3.org/2000/svg">
<g clip-path="url(#clip0_2521_8459)">
<path d="M52.9737 70.2972C51.0827 68.9042 48.8091 69.3347 47.2066 71.2493C45.7083 73.0396 43.9823 76.7864 46.4901 77.5355C48.0941 78.0147 51.7174 73.4013 54.121 70.013C54.2448 69.8385 54.3256 69.8919 54.2272 70.0818C52.0492 74.2906 51.9066 77.9189 54.8053 77.2951C56.3141 76.9015 59.8031 72.3194 61.9335 69.3501C62.0563 69.1787 62.4507 69.4107 62.3654 69.6035C61.1047 72.4473 59.6437 76.4765 61.4078 76.6236C63.0517 76.7606 65.6657 73.5898 67.4907 71.0367C67.5539 70.9482 67.9924 71.1982 67.9505 71.2987C67.124 73.2862 66.4602 75.5094 67.3452 76.0294C68.3558 76.623 73.6365 71.975 80.6594 62.7935M80.6594 62.7935C85.3141 56.7083 90.7342 48.6316 96.1835 38.7695C100.999 30.0554 107.313 16.3978 104.92 14.8192C102.527 13.2405 93.4491 30.7185 88.1347 42.0087C85.2939 48.0436 82.6379 56.106 80.6594 62.7935ZM80.6594 62.7935C78.5722 69.849 77.2392 75.3743 77.2392 75.3743M88.8684 68.9214C88.8684 68.9214 86.3916 71.7921 87.775 73.4831C89.754 75.9025 95.9833 72.7957 94.7106 69.9408C92.7528 65.5498 84.1581 68.7104 82.779 72.1904M45.1249 22.9335L28.363 66.3902M28.363 66.3902L18.1556 92.8539M28.363 66.3902C18.4179 70.0059 10.9919 70.4302 10.9919 65.942M28.363 66.3902C47.2883 59.5095 75.336 41.071 78.6882 22.9335C83.8019 -4.73508 52.1614 -1.26109 32.1644 5.91321C12.1676 13.0875 -6.39414 37.7466 4.29528 55.7148M110.707 41.3271C120.932 40.4324 144.758 36.5041 156.531 33.2133M156.531 33.2133C160.138 32.2053 162.614 31.2568 163.221 30.4739C165.809 27.1351 160.216 27.6347 158.379 30.4742C157.997 31.0641 157.371 31.9708 156.531 33.2133ZM156.531 33.2133C153.787 38.405 149.946 48.1732 146.189 56.1882C142.432 64.2031 132.831 79.5651 126.693 85.0607M126.693 85.0607C104.92 102.107 91.8381 111.374 60.6966 119.975C29.5552 128.576 0.834961 124.315 0.834961 117.553C0.834961 110.79 23.7111 99.867 52.9737 92.8539C82.2362 85.8408 99.2745 87.3072 126.693 85.0607ZM126.693 85.0607C147.857 83.3266 169.757 82.1035 192.192 80.4835C224.419 78.1563 242.536 76.309 267.165 71.5502M157.377 69.129C157.365 69.1158 157.352 69.1028 157.34 69.0897M157.34 69.0897C154.928 66.546 152.18 67.0591 148.193 70.4648C144.186 73.8879 144.186 77.4779 148.778 76.309C152.03 75.481 155.409 71.3436 157.34 69.0897ZM157.34 69.0897C158.135 68.1618 158.685 67.5532 158.88 67.6262C159.548 67.8766 151.783 75.1402 154.288 76.643C156.793 78.1458 165.475 70.1309 166.31 70.7153C167.145 71.2997 165.308 74.3053 166.31 74.7228C167.312 75.1402 167.808 71.798 169.566 71.5502C171.545 71.2713 170.735 74.1383 173.824 74.3888C174.322 74.4292 174.983 74.3611 175.74 74.2185M175.74 74.2185C179.684 73.4764 186.264 70.7153 186.264 70.7153C186.264 70.7153 181.422 66.9583 177.164 70.1309C174.352 72.2259 174.198 73.5564 175.74 74.2185ZM175.74 74.2185C176.533 74.5591 177.775 74.7228 179.335 74.7228C183.927 74.7228 194.112 67.2922 194.613 67.9601C195.114 68.628 190.522 70.9657 192.192 72.1346C193.862 73.3034 203.713 66.9583 204.381 67.2922C205.049 67.6262 201.292 72.9695 204.381 74.1383C207.47 75.3072 209.474 71.8006 209.474 71.8006M206.803 54.8523L207.804 56.1882" stroke="#A1A6AA" stroke-width="1.66978" stroke-linecap="round"/>
</g>
<defs>
<clipPath id="clip0_2521_8459">
<rect width="268" height="125.735" fill="white"/>
</clipPath>
</defs>
</svg>
