<svg width="56" height="56" viewBox="0 0 56 56" fill="none" xmlns="http://www.w3.org/2000/svg">
<mask id="mask0_2436_1721" style="mask-type:luminance" maskUnits="userSpaceOnUse" x="0" y="0" width="56" height="56">
<path d="M56 0H0V56H56V0Z" fill="white"/>
</mask>
<g mask="url(#mask0_2436_1721)">
<path fill-rule="evenodd" clip-rule="evenodd" d="M8.16998 0C3.65782 0 0 3.65782 0 8.16998V47.83C0 52.3419 3.65782 56 8.16998 56H47.83C52.3419 56 56 52.3419 56 47.83V8.16998C56 3.65782 52.3419 0 47.83 0H8.16998Z" fill="#4960D4"/>
<path d="M35.706 14.5337V21.7347H42.9072C44.498 21.7347 45.7876 23.0242 45.7876 24.615V41.4652C45.7876 43.0561 44.498 44.3456 42.9072 44.3456H38.5867C36.9959 44.3456 35.706 43.0561 35.706 41.4652V21.7347H23.1766C21.5858 21.7347 20.2962 23.0242 20.2962 24.615V41.4652C20.2962 43.0561 19.0066 44.3456 17.4158 44.3456H13.0952C11.5044 44.3456 10.2148 43.0561 10.2148 41.4652V22.8658C10.2148 22.1387 10.4898 21.4386 10.9845 20.9058L18.7214 12.5737C19.2664 11.9868 20.0312 11.6533 20.8321 11.6533H32.826C34.4165 11.6533 35.706 12.9429 35.706 14.5337Z" fill="#F4F6FF"/>
</g>
</svg>
