<svg width="28" height="28" viewBox="0 0 28 28" fill="none" xmlns="http://www.w3.org/2000/svg">
<mask id="mask0_6132_364" style="mask-type:luminance" maskUnits="userSpaceOnUse" x="0" y="0" width="28" height="28">
<path d="M28 0H0V28H28V0Z" fill="white"/>
</mask>
<g mask="url(#mask0_6132_364)">
<path fill-rule="evenodd" clip-rule="evenodd" d="M4.08499 0C1.82891 0 0 1.82891 0 4.08499V23.915C0 26.171 1.82891 28 4.08499 28H23.915C26.171 28 28 26.171 28 23.915V4.08499C28 1.82891 26.171 0 23.915 0H4.08499Z" fill="#3C4EDD"/>
<path d="M17.8525 7.26707V10.8676H21.4531C22.2485 10.8676 22.8933 11.5123 22.8933 12.3077V20.7328C22.8933 21.5283 22.2485 22.173 21.4531 22.173H19.2929C18.4974 22.173 17.8525 21.5283 17.8525 20.7328V10.8676H11.5878C10.7924 10.8676 10.1476 11.5123 10.1476 12.3077V20.7328C10.1476 21.5283 9.5028 22.173 8.7074 22.173H6.54713C5.75173 22.173 5.10693 21.5283 5.10693 20.7328V11.4331C5.10693 11.0696 5.24439 10.7195 5.49175 10.4531L9.36021 6.28708C9.63271 5.99362 10.0151 5.82687 10.4156 5.82687H16.4125C17.2078 5.82687 17.8525 6.47167 17.8525 7.26707Z" fill="white"/>
</g>
</svg>
