<svg width="104" height="52" viewBox="0 0 104 52" fill="none" xmlns="http://www.w3.org/2000/svg">
<rect x="16" y="16" width="88" height="36" rx="10" fill="#00AAFF"/>
<path d="M30.9826 39.07V37.474H33.5446C34.0113 37.474 34.366 37.348 34.6086 37.096C34.8513 36.8347 34.9726 36.48 34.9726 36.032C34.9726 35.584 34.8513 35.2387 34.6086 34.996C34.366 34.744 34.0113 34.618 33.5446 34.618H30.9826V33.4H33.4046C34.086 33.4 34.6926 33.484 35.2246 33.652C35.766 33.8107 36.186 34.0813 36.4846 34.464C36.7926 34.8467 36.9466 35.36 36.9466 36.004V36.2C36.9466 36.8067 36.8113 37.3247 36.5406 37.754C36.2793 38.174 35.8826 38.5007 35.3506 38.734C34.828 38.958 34.1793 39.07 33.4046 39.07H30.9826ZM29.3166 39.07V28.71H31.2626V39.07H29.3166ZM30.9826 34.296V33.078H33.1666C33.6426 33.078 33.9926 32.952 34.2166 32.7C34.4406 32.448 34.5526 32.112 34.5526 31.692C34.5526 31.272 34.4406 30.936 34.2166 30.684C33.9926 30.432 33.6426 30.306 33.1666 30.306H30.9826V28.71H32.9846C34.142 28.71 35.0193 28.9527 35.6166 29.438C36.2233 29.9233 36.5266 30.6187 36.5266 31.524V31.72C36.5266 32.3547 36.3726 32.8633 36.0646 33.246C35.766 33.6193 35.3506 33.89 34.8186 34.058C34.2866 34.2167 33.6753 34.296 32.9846 34.296H30.9826ZM41.3913 39.238C40.514 39.238 39.8326 38.9487 39.3473 38.37C38.8713 37.7913 38.6333 36.9327 38.6333 35.794V31.384H40.5793V35.962C40.5793 36.4287 40.71 36.802 40.9713 37.082C41.2326 37.3527 41.5873 37.488 42.0353 37.488C42.4833 37.488 42.8473 37.3433 43.1273 37.054C43.4166 36.7647 43.5613 36.3727 43.5613 35.878V31.384H45.5073V39H43.9673V35.766H44.1213C44.1213 36.5313 44.0233 37.1707 43.8273 37.684C43.6313 38.1973 43.3373 38.5847 42.9453 38.846C42.5533 39.1073 42.0633 39.238 41.4753 39.238H41.3913ZM50.5007 39.238C49.4554 39.238 48.6341 39.0187 48.0367 38.58C47.4487 38.132 47.1407 37.516 47.1127 36.732H48.8627C48.8907 36.9933 49.0354 37.2313 49.2967 37.446C49.5581 37.6607 49.9687 37.768 50.5287 37.768C50.9954 37.768 51.3641 37.684 51.6347 37.516C51.9147 37.348 52.0547 37.1193 52.0547 36.83C52.0547 36.578 51.9474 36.3773 51.7327 36.228C51.5274 36.0787 51.1727 35.9807 50.6687 35.934L49.9967 35.864C49.1474 35.7707 48.4941 35.528 48.0367 35.136C47.5794 34.744 47.3507 34.2213 47.3507 33.568C47.3507 33.0453 47.4814 32.6067 47.7427 32.252C48.0041 31.8973 48.3634 31.6313 48.8207 31.454C49.2874 31.2673 49.8194 31.174 50.4167 31.174C51.3501 31.174 52.1061 31.3793 52.6847 31.79C53.2634 32.2007 53.5667 32.8027 53.5947 33.596H51.8447C51.8261 33.3347 51.6954 33.1107 51.4527 32.924C51.2101 32.7373 50.8601 32.644 50.4027 32.644C49.9921 32.644 49.6747 32.7233 49.4507 32.882C49.2267 33.0407 49.1147 33.246 49.1147 33.498C49.1147 33.7407 49.2034 33.9273 49.3807 34.058C49.5674 34.1887 49.8661 34.2773 50.2767 34.324L50.9487 34.394C51.8447 34.4873 52.5447 34.7347 53.0487 35.136C53.5621 35.5373 53.8187 36.0787 53.8187 36.76C53.8187 37.264 53.6787 37.7027 53.3987 38.076C53.1281 38.44 52.7454 38.7247 52.2507 38.93C51.7561 39.1353 51.1727 39.238 50.5007 39.238ZM55.7903 39V31.398H57.7363V39H55.7903ZM54.7263 32.854V31.398H57.7363V32.854H54.7263ZM56.5043 30.488C56.1216 30.488 55.837 30.39 55.6503 30.194C55.473 29.9887 55.3843 29.7367 55.3843 29.438C55.3843 29.1207 55.473 28.864 55.6503 28.668C55.837 28.472 56.1216 28.374 56.5043 28.374C56.887 28.374 57.167 28.472 57.3443 28.668C57.5216 28.864 57.6103 29.1207 57.6103 29.438C57.6103 29.7367 57.5216 29.9887 57.3443 30.194C57.167 30.39 56.887 30.488 56.5043 30.488ZM59.979 39V31.398H61.519V34.66H61.379C61.379 33.8853 61.4817 33.2413 61.687 32.728C61.8924 32.2053 62.1957 31.8133 62.597 31.552C63.0077 31.2907 63.5164 31.16 64.123 31.16H64.207C65.1124 31.16 65.7984 31.454 66.265 32.042C66.7317 32.6207 66.965 33.4887 66.965 34.646V39H65.019V34.478C65.019 34.0113 64.8837 33.6333 64.613 33.344C64.3517 33.0547 63.9877 32.91 63.521 32.91C63.045 32.91 62.6577 33.0593 62.359 33.358C62.0697 33.6473 61.925 34.0393 61.925 34.534V39H59.979ZM72.4592 39.266C71.8058 39.266 71.2318 39.154 70.7372 38.93C70.2518 38.706 69.8458 38.4073 69.5192 38.034C69.2018 37.6513 68.9592 37.2267 68.7912 36.76C68.6325 36.2933 68.5532 35.8173 68.5532 35.332V35.066C68.5532 34.562 68.6325 34.0767 68.7912 33.61C68.9592 33.134 69.2018 32.714 69.5192 32.35C69.8458 31.9767 70.2472 31.6827 70.7232 31.468C71.1992 31.244 71.7498 31.132 72.3752 31.132C73.1965 31.132 73.8825 31.314 74.4332 31.678C74.9932 32.0327 75.4132 32.504 75.6932 33.092C75.9732 33.6707 76.1132 34.296 76.1132 34.968V35.668H69.3792V34.478H74.8952L74.2932 35.066C74.2932 34.5807 74.2232 34.1653 74.0832 33.82C73.9432 33.4747 73.7285 33.2087 73.4392 33.022C73.1592 32.8353 72.8045 32.742 72.3752 32.742C71.9458 32.742 71.5818 32.84 71.2832 33.036C70.9845 33.232 70.7558 33.5167 70.5972 33.89C70.4478 34.254 70.3732 34.6927 70.3732 35.206C70.3732 35.682 70.4478 36.1067 70.5972 36.48C70.7465 36.844 70.9752 37.1333 71.2832 37.348C71.5912 37.5533 71.9832 37.656 72.4592 37.656C72.9352 37.656 73.3225 37.5627 73.6212 37.376C73.9198 37.18 74.1112 36.942 74.1952 36.662H75.9872C75.8752 37.1847 75.6605 37.642 75.3432 38.034C75.0258 38.426 74.6198 38.7293 74.1252 38.944C73.6398 39.1587 73.0845 39.266 72.4592 39.266ZM80.4968 39.238C79.4515 39.238 78.6301 39.0187 78.0328 38.58C77.4448 38.132 77.1368 37.516 77.1088 36.732H78.8588C78.8868 36.9933 79.0315 37.2313 79.2928 37.446C79.5541 37.6607 79.9648 37.768 80.5248 37.768C80.9915 37.768 81.3601 37.684 81.6308 37.516C81.9108 37.348 82.0508 37.1193 82.0508 36.83C82.0508 36.578 81.9435 36.3773 81.7288 36.228C81.5235 36.0787 81.1688 35.9807 80.6648 35.934L79.9928 35.864C79.1435 35.7707 78.4901 35.528 78.0328 35.136C77.5755 34.744 77.3468 34.2213 77.3468 33.568C77.3468 33.0453 77.4775 32.6067 77.7388 32.252C78.0001 31.8973 78.3595 31.6313 78.8168 31.454C79.2835 31.2673 79.8155 31.174 80.4128 31.174C81.3461 31.174 82.1021 31.3793 82.6808 31.79C83.2595 32.2007 83.5628 32.8027 83.5908 33.596H81.8408C81.8221 33.3347 81.6915 33.1107 81.4488 32.924C81.2061 32.7373 80.8561 32.644 80.3988 32.644C79.9881 32.644 79.6708 32.7233 79.4468 32.882C79.2228 33.0407 79.1108 33.246 79.1108 33.498C79.1108 33.7407 79.1995 33.9273 79.3768 34.058C79.5635 34.1887 79.8621 34.2773 80.2728 34.324L80.9448 34.394C81.8408 34.4873 82.5408 34.7347 83.0448 35.136C83.5581 35.5373 83.8148 36.0787 83.8148 36.76C83.8148 37.264 83.6748 37.7027 83.3948 38.076C83.1241 38.44 82.7415 38.7247 82.2468 38.93C81.7521 39.1353 81.1688 39.238 80.4968 39.238ZM88.1804 39.238C87.1351 39.238 86.3137 39.0187 85.7164 38.58C85.1284 38.132 84.8204 37.516 84.7924 36.732H86.5424C86.5704 36.9933 86.7151 37.2313 86.9764 37.446C87.2377 37.6607 87.6484 37.768 88.2084 37.768C88.6751 37.768 89.0437 37.684 89.3144 37.516C89.5944 37.348 89.7344 37.1193 89.7344 36.83C89.7344 36.578 89.6271 36.3773 89.4124 36.228C89.2071 36.0787 88.8524 35.9807 88.3484 35.934L87.6764 35.864C86.8271 35.7707 86.1737 35.528 85.7164 35.136C85.2591 34.744 85.0304 34.2213 85.0304 33.568C85.0304 33.0453 85.1611 32.6067 85.4224 32.252C85.6837 31.8973 86.0431 31.6313 86.5004 31.454C86.9671 31.2673 87.4991 31.174 88.0964 31.174C89.0297 31.174 89.7857 31.3793 90.3644 31.79C90.9431 32.2007 91.2464 32.8027 91.2744 33.596H89.5244C89.5057 33.3347 89.3751 33.1107 89.1324 32.924C88.8897 32.7373 88.5397 32.644 88.0824 32.644C87.6717 32.644 87.3544 32.7233 87.1304 32.882C86.9064 33.0407 86.7944 33.246 86.7944 33.498C86.7944 33.7407 86.8831 33.9273 87.0604 34.058C87.2471 34.1887 87.5457 34.2773 87.9564 34.324L88.6284 34.394C89.5244 34.4873 90.2244 34.7347 90.7284 35.136C91.2417 35.5373 91.4984 36.0787 91.4984 36.76C91.4984 37.264 91.3584 37.7027 91.0784 38.076C90.8077 38.44 90.4251 38.7247 89.9304 38.93C89.4357 39.1353 88.8524 39.238 88.1804 39.238Z" fill="#0C0F14"/>
<path d="M17.6936 8.89977C19.1734 8.52981 19.2208 6.44401 17.7592 6.00733L3.66198 1.79535C2.51884 1.4538 1.4538 2.51885 1.79535 3.66198L6.00733 17.7592C6.44401 19.2208 8.52981 19.1734 8.89977 17.6936L10.4403 11.5317C10.5746 10.9942 10.9942 10.5746 11.5317 10.4403L17.6936 8.89977Z" fill="#00AAFF"/>
</svg>
