<svg width="128" height="52" viewBox="0 0 128 52" fill="none" xmlns="http://www.w3.org/2000/svg">
<rect x="16.7158" y="16" width="111" height="36" rx="10" fill="#1C1E22"/>
<path d="M31.7717 35.864V34.142H33.7597C34.161 34.142 34.497 34.0627 34.7677 33.904C35.0477 33.7453 35.2577 33.526 35.3977 33.246C35.547 32.966 35.6217 32.644 35.6217 32.28C35.6217 31.916 35.547 31.594 35.3977 31.314C35.2577 31.034 35.0477 30.8193 34.7677 30.67C34.497 30.5113 34.161 30.432 33.7597 30.432H31.7717V28.71H33.5917C34.4504 28.71 35.1784 28.85 35.7757 29.13C36.3824 29.41 36.8444 29.8113 37.1617 30.334C37.479 30.8473 37.6377 31.4587 37.6377 32.168V32.392C37.6377 33.1013 37.479 33.7173 37.1617 34.24C36.8444 34.7533 36.3824 35.1547 35.7757 35.444C35.1784 35.724 34.4504 35.864 33.5917 35.864H31.7717ZM30.0637 39V28.71H32.0517V39H30.0637ZM39.1792 39V31.398H40.7192V34.618H40.6772C40.6772 33.526 40.9106 32.7 41.3772 32.14C41.8439 31.58 42.5299 31.3 43.4352 31.3H43.7152V32.994H43.1832C42.5299 32.994 42.0212 33.1713 41.6572 33.526C41.3026 33.8713 41.1252 34.3753 41.1252 35.038V39H39.1792ZM48.6164 39.266C47.9444 39.266 47.3518 39.1587 46.8384 38.944C46.3251 38.7293 45.8911 38.44 45.5364 38.076C45.1818 37.7027 44.9111 37.2827 44.7244 36.816C44.5471 36.3493 44.4584 35.864 44.4584 35.36V35.066C44.4584 34.5433 44.5518 34.0487 44.7384 33.582C44.9344 33.106 45.2098 32.686 45.5644 32.322C45.9284 31.9487 46.3671 31.6593 46.8804 31.454C47.3938 31.2393 47.9724 31.132 48.6164 31.132C49.2604 31.132 49.8391 31.2393 50.3524 31.454C50.8658 31.6593 51.2998 31.9487 51.6544 32.322C52.0184 32.686 52.2938 33.106 52.4804 33.582C52.6671 34.0487 52.7604 34.5433 52.7604 35.066V35.36C52.7604 35.864 52.6671 36.3493 52.4804 36.816C52.3031 37.2827 52.0371 37.7027 51.6824 38.076C51.3278 38.44 50.8938 38.7293 50.3804 38.944C49.8671 39.1587 49.2791 39.266 48.6164 39.266ZM48.6164 37.6C49.0924 37.6 49.4938 37.4973 49.8204 37.292C50.1471 37.0773 50.3944 36.7927 50.5624 36.438C50.7304 36.074 50.8144 35.6633 50.8144 35.206C50.8144 34.7393 50.7258 34.3287 50.5484 33.974C50.3804 33.61 50.1284 33.3253 49.7924 33.12C49.4658 32.9053 49.0738 32.798 48.6164 32.798C48.1591 32.798 47.7624 32.9053 47.4264 33.12C47.0998 33.3253 46.8478 33.61 46.6704 33.974C46.4931 34.3287 46.4044 34.7393 46.4044 35.206C46.4044 35.6633 46.4884 36.074 46.6564 36.438C46.8338 36.7927 47.0858 37.0773 47.4124 37.292C47.7391 37.4973 48.1404 37.6 48.6164 37.6ZM57.7684 39.098C57.0684 39.098 56.4897 39.0093 56.0324 38.832C55.5844 38.6453 55.2484 38.3373 55.0244 37.908C54.8004 37.4693 54.6884 36.8813 54.6884 36.144L54.7024 29.256H56.5224L56.5084 36.27C56.5084 36.6433 56.6064 36.9327 56.8024 37.138C57.0077 37.334 57.2971 37.432 57.6704 37.432H58.8604V39.098H57.7684ZM53.4844 32.826V31.398H58.8604V32.826H53.4844ZM64.1067 39.266C63.4347 39.266 62.842 39.1587 62.3287 38.944C61.8153 38.7293 61.3813 38.44 61.0267 38.076C60.672 37.7027 60.4013 37.2827 60.2147 36.816C60.0373 36.3493 59.9487 35.864 59.9487 35.36V35.066C59.9487 34.5433 60.042 34.0487 60.2287 33.582C60.4247 33.106 60.7 32.686 61.0547 32.322C61.4187 31.9487 61.8573 31.6593 62.3707 31.454C62.884 31.2393 63.4627 31.132 64.1067 31.132C64.7507 31.132 65.3293 31.2393 65.8427 31.454C66.356 31.6593 66.79 31.9487 67.1447 32.322C67.5087 32.686 67.784 33.106 67.9707 33.582C68.1573 34.0487 68.2507 34.5433 68.2507 35.066V35.36C68.2507 35.864 68.1573 36.3493 67.9707 36.816C67.7933 37.2827 67.5273 37.7027 67.1727 38.076C66.818 38.44 66.384 38.7293 65.8707 38.944C65.3573 39.1587 64.7693 39.266 64.1067 39.266ZM64.1067 37.6C64.5827 37.6 64.984 37.4973 65.3107 37.292C65.6373 37.0773 65.8847 36.7927 66.0527 36.438C66.2207 36.074 66.3047 35.6633 66.3047 35.206C66.3047 34.7393 66.216 34.3287 66.0387 33.974C65.8707 33.61 65.6187 33.3253 65.2827 33.12C64.956 32.9053 64.564 32.798 64.1067 32.798C63.6493 32.798 63.2527 32.9053 62.9167 33.12C62.59 33.3253 62.338 33.61 62.1607 33.974C61.9833 34.3287 61.8947 34.7393 61.8947 35.206C61.8947 35.6633 61.9787 36.074 62.1467 36.438C62.324 36.7927 62.576 37.0773 62.9027 37.292C63.2293 37.4973 63.6307 37.6 64.1067 37.6ZM73.2586 39.098C72.5586 39.098 71.98 39.0093 71.5226 38.832C71.0746 38.6453 70.7386 38.3373 70.5146 37.908C70.2906 37.4693 70.1786 36.8813 70.1786 36.144L70.1926 29.256H72.0126L71.9986 36.27C71.9986 36.6433 72.0966 36.9327 72.2926 37.138C72.498 37.334 72.7873 37.432 73.1606 37.432H74.3506V39.098H73.2586ZM68.9746 32.826V31.398H74.3506V32.826H68.9746ZM75.7599 41.996V40.33H77.1879C77.4586 40.33 77.6826 40.2927 77.8599 40.218C78.0466 40.1527 78.2006 40.0407 78.3219 39.882C78.4433 39.7327 78.5366 39.5227 78.6019 39.252L80.6459 31.398H82.5079L80.2539 39.672C80.1046 40.2413 79.8946 40.694 79.6239 41.03C79.3533 41.3753 79.0033 41.6227 78.5739 41.772C78.1539 41.9213 77.6313 41.996 77.0059 41.996H75.7599ZM78.1259 38.832V37.292H79.7499V38.832H78.1259ZM77.4679 38.832L75.0039 31.398H76.9639L79.3019 38.832H77.4679ZM83.8453 41.8V31.398H85.3853V34.674L85.1473 34.66C85.1846 33.8853 85.3433 33.2367 85.6233 32.714C85.9126 32.1913 86.2953 31.804 86.7713 31.552C87.2473 31.2907 87.7793 31.16 88.3673 31.16C88.9086 31.16 89.3939 31.258 89.8233 31.454C90.2619 31.65 90.6353 31.9253 90.9433 32.28C91.2606 32.6347 91.5033 33.05 91.6713 33.526C91.8393 33.9927 91.9233 34.4967 91.9233 35.038V35.332C91.9233 35.8827 91.8393 36.396 91.6713 36.872C91.5126 37.3387 91.2746 37.754 90.9573 38.118C90.6493 38.4727 90.2759 38.7527 89.8373 38.958C89.3986 39.154 88.9086 39.252 88.3673 39.252C87.7979 39.252 87.2753 39.1353 86.7993 38.902C86.3326 38.6593 85.9546 38.2907 85.6653 37.796C85.3759 37.292 85.2126 36.6433 85.1753 35.85L85.7913 36.788V41.8H83.8453ZM87.8773 37.614C88.2973 37.614 88.6613 37.5113 88.9693 37.306C89.2866 37.1007 89.5339 36.816 89.7113 36.452C89.8886 36.0787 89.9773 35.6587 89.9773 35.192C89.9773 34.7067 89.8886 34.2867 89.7113 33.932C89.5339 33.5773 89.2866 33.302 88.9693 33.106C88.6613 32.9007 88.2973 32.798 87.8773 32.798C87.4946 32.798 87.1399 32.882 86.8133 33.05C86.4959 33.218 86.2346 33.4653 86.0293 33.792C85.8333 34.1187 85.7353 34.5107 85.7353 34.968V35.528C85.7353 35.9667 85.8379 36.34 86.0433 36.648C86.2486 36.956 86.5146 37.194 86.8413 37.362C87.1679 37.53 87.5133 37.614 87.8773 37.614ZM93.9983 39V31.398H95.9443V39H93.9983ZM92.9343 32.854V31.398H95.9443V32.854H92.9343ZM94.7123 30.488C94.3297 30.488 94.045 30.39 93.8583 30.194C93.681 29.9887 93.5923 29.7367 93.5923 29.438C93.5923 29.1207 93.681 28.864 93.8583 28.668C94.045 28.472 94.3297 28.374 94.7123 28.374C95.095 28.374 95.375 28.472 95.5523 28.668C95.7297 28.864 95.8183 29.1207 95.8183 29.438C95.8183 29.7367 95.7297 29.9887 95.5523 30.194C95.375 30.39 95.095 30.488 94.7123 30.488ZM98.1871 39V31.398H99.7271V34.66H99.5871C99.5871 33.8853 99.6897 33.2413 99.8951 32.728C100.1 32.2053 100.404 31.8133 100.805 31.552C101.216 31.2907 101.724 31.16 102.331 31.16H102.415C103.32 31.16 104.006 31.454 104.473 32.042C104.94 32.6207 105.173 33.4887 105.173 34.646V39H103.227V34.478C103.227 34.0113 103.092 33.6333 102.821 33.344C102.56 33.0547 102.196 32.91 101.729 32.91C101.253 32.91 100.866 33.0593 100.567 33.358C100.278 33.6473 100.133 34.0393 100.133 34.534V39H98.1871ZM110.233 41.996C109.869 41.996 109.496 41.982 109.113 41.954C108.74 41.926 108.39 41.8887 108.063 41.842V40.218C108.399 40.2553 108.759 40.288 109.141 40.316C109.524 40.3533 109.883 40.372 110.219 40.372C110.845 40.372 111.349 40.2973 111.731 40.148C112.123 39.9987 112.408 39.7607 112.585 39.434C112.772 39.1167 112.865 38.7107 112.865 38.216V36.718L113.285 35.766C113.257 36.466 113.113 37.0633 112.851 37.558C112.59 38.0433 112.235 38.4167 111.787 38.678C111.339 38.93 110.821 39.056 110.233 39.056C109.711 39.056 109.235 38.958 108.805 38.762C108.385 38.566 108.021 38.2953 107.713 37.95C107.415 37.6047 107.181 37.1987 107.013 36.732C106.845 36.2653 106.761 35.766 106.761 35.234V34.94C106.761 34.408 106.845 33.9133 107.013 33.456C107.191 32.9893 107.438 32.5833 107.755 32.238C108.073 31.8927 108.451 31.6267 108.889 31.44C109.328 31.2533 109.813 31.16 110.345 31.16C110.971 31.16 111.512 31.2953 111.969 31.566C112.436 31.8367 112.8 32.2287 113.061 32.742C113.323 33.2553 113.467 33.8853 113.495 34.632L113.159 34.688V31.398H114.699V38.104C114.699 39.028 114.541 39.7747 114.223 40.344C113.906 40.9133 113.416 41.3287 112.753 41.59C112.1 41.8607 111.26 41.996 110.233 41.996ZM110.793 37.39C111.167 37.39 111.507 37.306 111.815 37.138C112.123 36.97 112.371 36.7273 112.557 36.41C112.744 36.0927 112.837 35.71 112.837 35.262V34.772C112.837 34.3427 112.739 33.9787 112.543 33.68C112.357 33.3813 112.109 33.1573 111.801 33.008C111.493 32.8493 111.157 32.77 110.793 32.77C110.383 32.77 110.019 32.868 109.701 33.064C109.393 33.2507 109.151 33.5167 108.973 33.862C108.796 34.2073 108.707 34.618 108.707 35.094C108.707 35.5607 108.796 35.9667 108.973 36.312C109.151 36.6573 109.393 36.9233 109.701 37.11C110.019 37.2967 110.383 37.39 110.793 37.39Z" fill="white"/>
<path d="M18.4094 8.89977C19.8893 8.52981 19.9366 6.44401 18.4751 6.00733L4.3778 1.79535C3.23466 1.4538 2.16962 2.51885 2.51117 3.66198L6.72315 17.7592C7.15983 19.2208 9.24563 19.1734 9.61559 17.6936L11.1561 11.5317C11.2904 10.9942 11.7101 10.5746 12.2475 10.4403L18.4094 8.89977Z" fill="#1C1E22"/>
</svg>
