<svg width="159" height="52" viewBox="0 0 159 52" fill="none" xmlns="http://www.w3.org/2000/svg">
<rect x="16" y="16" width="143" height="36" rx="10" fill="#A54CFE"/>
<path d="M29.7665 39V28.78H31.7545V39H29.7665ZM34.1509 39V31.398H35.6909V34.66H35.5509C35.5509 33.8853 35.6536 33.2413 35.8589 32.728C36.0643 32.2053 36.3676 31.8133 36.7689 31.552C37.1796 31.2907 37.6883 31.16 38.2949 31.16H38.3789C39.2843 31.16 39.9703 31.454 40.4369 32.042C40.9036 32.6207 41.1369 33.4887 41.1369 34.646V39H39.1909V34.478C39.1909 34.0113 39.0556 33.6333 38.7849 33.344C38.5236 33.0547 38.1596 32.91 37.6929 32.91C37.2169 32.91 36.8296 33.0593 36.5309 33.358C36.2416 33.6473 36.0969 34.0393 36.0969 34.534V39H34.1509ZM46.533 39.098C45.833 39.098 45.2544 39.0093 44.797 38.832C44.349 38.6453 44.013 38.3373 43.789 37.908C43.565 37.4693 43.453 36.8813 43.453 36.144L43.467 29.256H45.287L45.273 36.27C45.273 36.6433 45.371 36.9327 45.567 37.138C45.7724 37.334 46.0617 37.432 46.435 37.432H47.625V39.098H46.533ZM42.249 32.826V31.398H47.625V32.826H42.249ZM52.6193 39.266C51.966 39.266 51.392 39.154 50.8973 38.93C50.412 38.706 50.006 38.4073 49.6793 38.034C49.362 37.6513 49.1193 37.2267 48.9513 36.76C48.7927 36.2933 48.7133 35.8173 48.7133 35.332V35.066C48.7133 34.562 48.7927 34.0767 48.9513 33.61C49.1193 33.134 49.362 32.714 49.6793 32.35C50.006 31.9767 50.4073 31.6827 50.8833 31.468C51.3593 31.244 51.91 31.132 52.5353 31.132C53.3567 31.132 54.0427 31.314 54.5933 31.678C55.1533 32.0327 55.5733 32.504 55.8533 33.092C56.1333 33.6707 56.2733 34.296 56.2733 34.968V35.668H49.5393V34.478H55.0553L54.4533 35.066C54.4533 34.5807 54.3833 34.1653 54.2433 33.82C54.1033 33.4747 53.8887 33.2087 53.5993 33.022C53.3193 32.8353 52.9647 32.742 52.5353 32.742C52.106 32.742 51.742 32.84 51.4433 33.036C51.1447 33.232 50.916 33.5167 50.7573 33.89C50.608 34.254 50.5333 34.6927 50.5333 35.206C50.5333 35.682 50.608 36.1067 50.7573 36.48C50.9067 36.844 51.1353 37.1333 51.4433 37.348C51.7513 37.5533 52.1433 37.656 52.6193 37.656C53.0953 37.656 53.4827 37.5627 53.7813 37.376C54.08 37.18 54.2713 36.942 54.3553 36.662H56.1473C56.0353 37.1847 55.8207 37.642 55.5033 38.034C55.186 38.426 54.78 38.7293 54.2853 38.944C53.8 39.1587 53.2447 39.266 52.6193 39.266ZM57.899 39V31.398H59.439V34.618H59.397C59.397 33.526 59.6303 32.7 60.097 32.14C60.5636 31.58 61.2496 31.3 62.155 31.3H62.435V32.994H61.903C61.2496 32.994 60.741 33.1713 60.377 33.526C60.0223 33.8713 59.845 34.3753 59.845 35.038V39H57.899ZM63.9599 39V31.216C63.9599 30.348 64.1979 29.7087 64.6739 29.298C65.1592 28.878 65.8732 28.668 66.8159 28.668H67.7679V30.166H66.6759C66.3865 30.166 66.1625 30.2453 66.0039 30.404C65.8545 30.5533 65.7799 30.768 65.7799 31.048V39H63.9599ZM63.0079 32.952V31.524H67.8939V32.952H63.0079ZM73.6886 39V36.746H73.3666V34.24C73.3666 33.8013 73.2592 33.4747 73.0446 33.26C72.8299 33.0453 72.4986 32.938 72.0506 32.938C71.8172 32.938 71.5372 32.9427 71.2106 32.952C70.8839 32.9613 70.5526 32.9753 70.2166 32.994C69.8899 33.0033 69.5959 33.0173 69.3346 33.036V31.384C69.5492 31.3653 69.7919 31.3467 70.0626 31.328C70.3332 31.3093 70.6086 31.3 70.8886 31.3C71.1779 31.2907 71.4486 31.286 71.7006 31.286C72.4846 31.286 73.1332 31.3887 73.6466 31.594C74.1692 31.7993 74.5612 32.1213 74.8226 32.56C75.0932 32.9987 75.2286 33.5727 75.2286 34.282V39H73.6886ZM71.2386 39.196C70.6879 39.196 70.2026 39.098 69.7826 38.902C69.3719 38.706 69.0499 38.426 68.8166 38.062C68.5926 37.698 68.4806 37.2593 68.4806 36.746C68.4806 36.186 68.6159 35.7287 68.8866 35.374C69.1666 35.0193 69.5539 34.7533 70.0486 34.576C70.5526 34.3987 71.1406 34.31 71.8126 34.31H73.5766V35.472H71.7846C71.3366 35.472 70.9912 35.584 70.7486 35.808C70.5152 36.0227 70.3986 36.3027 70.3986 36.648C70.3986 36.9933 70.5152 37.2733 70.7486 37.488C70.9912 37.7027 71.3366 37.81 71.7846 37.81C72.0552 37.81 72.3026 37.7633 72.5266 37.67C72.7599 37.5673 72.9512 37.3993 73.1006 37.166C73.2592 36.9233 73.3479 36.5967 73.3666 36.186L73.8426 36.732C73.7959 37.264 73.6652 37.712 73.4506 38.076C73.2452 38.44 72.9559 38.72 72.5826 38.916C72.2186 39.1027 71.7706 39.196 71.2386 39.196ZM80.687 39.266C80.0244 39.266 79.4504 39.154 78.965 38.93C78.489 38.706 78.0877 38.4073 77.761 38.034C77.4437 37.6607 77.2057 37.2407 77.047 36.774C76.8884 36.3073 76.809 35.8313 76.809 35.346V35.08C76.809 34.5667 76.8884 34.0767 77.047 33.61C77.215 33.134 77.4624 32.714 77.789 32.35C78.1157 31.9767 78.517 31.6827 78.993 31.468C79.4784 31.244 80.0384 31.132 80.673 31.132C81.3357 31.132 81.9284 31.2627 82.451 31.524C82.9737 31.776 83.389 32.1307 83.697 32.588C84.0144 33.0453 84.1917 33.5773 84.229 34.184H82.339C82.2924 33.792 82.1244 33.4653 81.835 33.204C81.555 32.9427 81.1677 32.812 80.673 32.812C80.2437 32.812 79.8844 32.9147 79.595 33.12C79.315 33.3253 79.105 33.61 78.965 33.974C78.825 34.3287 78.755 34.7393 78.755 35.206C78.755 35.654 78.8204 36.06 78.951 36.424C79.091 36.788 79.301 37.0727 79.581 37.278C79.8704 37.4833 80.239 37.586 80.687 37.586C81.023 37.586 81.3124 37.5253 81.555 37.404C81.7977 37.2827 81.989 37.1147 82.129 36.9C82.2784 36.6853 82.3717 36.4427 82.409 36.172H84.299C84.2617 36.788 84.0797 37.3293 83.753 37.796C83.4357 38.2533 83.011 38.6127 82.479 38.874C81.9564 39.1353 81.359 39.266 80.687 39.266ZM89.26 39.266C88.6066 39.266 88.0326 39.154 87.538 38.93C87.0526 38.706 86.6466 38.4073 86.32 38.034C86.0026 37.6513 85.76 37.2267 85.592 36.76C85.4333 36.2933 85.354 35.8173 85.354 35.332V35.066C85.354 34.562 85.4333 34.0767 85.592 33.61C85.76 33.134 86.0026 32.714 86.32 32.35C86.6466 31.9767 87.048 31.6827 87.524 31.468C88 31.244 88.5506 31.132 89.176 31.132C89.9973 31.132 90.6833 31.314 91.234 31.678C91.794 32.0327 92.214 32.504 92.494 33.092C92.774 33.6707 92.914 34.296 92.914 34.968V35.668H86.18V34.478H91.696L91.094 35.066C91.094 34.5807 91.024 34.1653 90.884 33.82C90.744 33.4747 90.5293 33.2087 90.24 33.022C89.96 32.8353 89.6053 32.742 89.176 32.742C88.7466 32.742 88.3826 32.84 88.084 33.036C87.7853 33.232 87.5566 33.5167 87.398 33.89C87.2486 34.254 87.174 34.6927 87.174 35.206C87.174 35.682 87.2486 36.1067 87.398 36.48C87.5473 36.844 87.776 37.1333 88.084 37.348C88.392 37.5533 88.784 37.656 89.26 37.656C89.736 37.656 90.1233 37.5627 90.422 37.376C90.7206 37.18 90.912 36.942 90.996 36.662H92.788C92.676 37.1847 92.4613 37.642 92.144 38.034C91.8266 38.426 91.4206 38.7293 90.926 38.944C90.4406 39.1587 89.8853 39.266 89.26 39.266ZM99.4231 39.056V37.208H101.537C102.069 37.208 102.54 37.1287 102.951 36.97C103.371 36.802 103.726 36.5687 104.015 36.27C104.304 35.9713 104.524 35.6213 104.673 35.22C104.832 34.8093 104.911 34.3567 104.911 33.862C104.911 33.3487 104.832 32.8913 104.673 32.49C104.524 32.0793 104.304 31.7293 104.015 31.44C103.726 31.1507 103.371 30.9313 102.951 30.782C102.54 30.6327 102.069 30.558 101.537 30.558H99.4231V28.71H101.411C102.335 28.71 103.142 28.8453 103.833 29.116C104.524 29.3867 105.098 29.76 105.555 30.236C106.012 30.7027 106.353 31.2393 106.577 31.846C106.81 32.4433 106.927 33.064 106.927 33.708V34.016C106.927 34.632 106.81 35.2387 106.577 35.836C106.353 36.4333 106.012 36.9747 105.555 37.46C105.098 37.9453 104.524 38.3327 103.833 38.622C103.142 38.9113 102.335 39.056 101.411 39.056H99.4231ZM97.7151 39.056V28.71H99.7031V39.056H97.7151ZM111.955 39.266C111.302 39.266 110.728 39.154 110.233 38.93C109.748 38.706 109.342 38.4073 109.015 38.034C108.698 37.6513 108.455 37.2267 108.287 36.76C108.129 36.2933 108.049 35.8173 108.049 35.332V35.066C108.049 34.562 108.129 34.0767 108.287 33.61C108.455 33.134 108.698 32.714 109.015 32.35C109.342 31.9767 109.743 31.6827 110.219 31.468C110.695 31.244 111.246 31.132 111.871 31.132C112.693 31.132 113.379 31.314 113.929 31.678C114.489 32.0327 114.909 32.504 115.189 33.092C115.469 33.6707 115.609 34.296 115.609 34.968V35.668H108.875V34.478H114.391L113.789 35.066C113.789 34.5807 113.719 34.1653 113.579 33.82C113.439 33.4747 113.225 33.2087 112.935 33.022C112.655 32.8353 112.301 32.742 111.871 32.742C111.442 32.742 111.078 32.84 110.779 33.036C110.481 33.232 110.252 33.5167 110.093 33.89C109.944 34.254 109.869 34.6927 109.869 35.206C109.869 35.682 109.944 36.1067 110.093 36.48C110.243 36.844 110.471 37.1333 110.779 37.348C111.087 37.5533 111.479 37.656 111.955 37.656C112.431 37.656 112.819 37.5627 113.117 37.376C113.416 37.18 113.607 36.942 113.691 36.662H115.483C115.371 37.1847 115.157 37.642 114.839 38.034C114.522 38.426 114.116 38.7293 113.621 38.944C113.136 39.1587 112.581 39.266 111.955 39.266ZM119.993 39.238C118.948 39.238 118.126 39.0187 117.529 38.58C116.941 38.132 116.633 37.516 116.605 36.732H118.355C118.383 36.9933 118.528 37.2313 118.789 37.446C119.05 37.6607 119.461 37.768 120.021 37.768C120.488 37.768 120.856 37.684 121.127 37.516C121.407 37.348 121.547 37.1193 121.547 36.83C121.547 36.578 121.44 36.3773 121.225 36.228C121.02 36.0787 120.665 35.9807 120.161 35.934L119.489 35.864C118.64 35.7707 117.986 35.528 117.529 35.136C117.072 34.744 116.843 34.2213 116.843 33.568C116.843 33.0453 116.974 32.6067 117.235 32.252C117.496 31.8973 117.856 31.6313 118.313 31.454C118.78 31.2673 119.312 31.174 119.909 31.174C120.842 31.174 121.598 31.3793 122.177 31.79C122.756 32.2007 123.059 32.8027 123.087 33.596H121.337C121.318 33.3347 121.188 33.1107 120.945 32.924C120.702 32.7373 120.352 32.644 119.895 32.644C119.484 32.644 119.167 32.7233 118.943 32.882C118.719 33.0407 118.607 33.246 118.607 33.498C118.607 33.7407 118.696 33.9273 118.873 34.058C119.06 34.1887 119.358 34.2773 119.769 34.324L120.441 34.394C121.337 34.4873 122.037 34.7347 122.541 35.136C123.054 35.5373 123.311 36.0787 123.311 36.76C123.311 37.264 123.171 37.7027 122.891 38.076C122.62 38.44 122.238 38.7247 121.743 38.93C121.248 39.1353 120.665 39.238 119.993 39.238ZM125.283 39V31.398H127.229V39H125.283ZM124.219 32.854V31.398H127.229V32.854H124.219ZM125.997 30.488C125.614 30.488 125.329 30.39 125.143 30.194C124.965 29.9887 124.877 29.7367 124.877 29.438C124.877 29.1207 124.965 28.864 125.143 28.668C125.329 28.472 125.614 28.374 125.997 28.374C126.379 28.374 126.659 28.472 126.837 28.668C127.014 28.864 127.103 29.1207 127.103 29.438C127.103 29.7367 127.014 29.9887 126.837 30.194C126.659 30.39 126.379 30.488 125.997 30.488ZM132.439 41.996C132.075 41.996 131.702 41.982 131.319 41.954C130.946 41.926 130.596 41.8887 130.269 41.842V40.218C130.605 40.2553 130.965 40.288 131.347 40.316C131.73 40.3533 132.089 40.372 132.425 40.372C133.051 40.372 133.555 40.2973 133.937 40.148C134.329 39.9987 134.614 39.7607 134.791 39.434C134.978 39.1167 135.071 38.7107 135.071 38.216V36.718L135.491 35.766C135.463 36.466 135.319 37.0633 135.057 37.558C134.796 38.0433 134.441 38.4167 133.993 38.678C133.545 38.93 133.027 39.056 132.439 39.056C131.917 39.056 131.441 38.958 131.011 38.762C130.591 38.566 130.227 38.2953 129.919 37.95C129.621 37.6047 129.387 37.1987 129.219 36.732C129.051 36.2653 128.967 35.766 128.967 35.234V34.94C128.967 34.408 129.051 33.9133 129.219 33.456C129.397 32.9893 129.644 32.5833 129.961 32.238C130.279 31.8927 130.657 31.6267 131.095 31.44C131.534 31.2533 132.019 31.16 132.551 31.16C133.177 31.16 133.718 31.2953 134.175 31.566C134.642 31.8367 135.006 32.2287 135.267 32.742C135.529 33.2553 135.673 33.8853 135.701 34.632L135.365 34.688V31.398H136.905V38.104C136.905 39.028 136.747 39.7747 136.429 40.344C136.112 40.9133 135.622 41.3287 134.959 41.59C134.306 41.8607 133.466 41.996 132.439 41.996ZM132.999 37.39C133.373 37.39 133.713 37.306 134.021 37.138C134.329 36.97 134.577 36.7273 134.763 36.41C134.95 36.0927 135.043 35.71 135.043 35.262V34.772C135.043 34.3427 134.945 33.9787 134.749 33.68C134.563 33.3813 134.315 33.1573 134.007 33.008C133.699 32.8493 133.363 32.77 132.999 32.77C132.589 32.77 132.225 32.868 131.907 33.064C131.599 33.2507 131.357 33.5167 131.179 33.862C131.002 34.2073 130.913 34.618 130.913 35.094C130.913 35.5607 131.002 35.9667 131.179 36.312C131.357 36.6573 131.599 36.9233 131.907 37.11C132.225 37.2967 132.589 37.39 132.999 37.39ZM139.028 39V31.398H140.568V34.66H140.428C140.428 33.8853 140.531 33.2413 140.736 32.728C140.941 32.2053 141.245 31.8133 141.646 31.552C142.057 31.2907 142.565 31.16 143.172 31.16H143.256C144.161 31.16 144.847 31.454 145.314 32.042C145.781 32.6207 146.014 33.4887 146.014 34.646V39H144.068V34.478C144.068 34.0113 143.933 33.6333 143.662 33.344C143.401 33.0547 143.037 32.91 142.57 32.91C142.094 32.91 141.707 33.0593 141.408 33.358C141.119 33.6473 140.974 34.0393 140.974 34.534V39H139.028Z" fill="#0C0F14"/>
<path d="M17.6936 8.89977C19.1734 8.52981 19.2208 6.44401 17.7592 6.00733L3.66198 1.79535C2.51884 1.4538 1.4538 2.51885 1.79535 3.66198L6.00733 17.7592C6.44401 19.2208 8.52981 19.1734 8.89977 17.6936L10.4403 11.5317C10.5746 10.9942 10.9942 10.5746 11.5317 10.4403L17.6936 8.89977Z" fill="#A54CFE"/>
</svg>
