<svg width="106" height="52" viewBox="0 0 106 52" fill="none" xmlns="http://www.w3.org/2000/svg">
<rect x="16" y="16" width="90" height="36" rx="10" fill="#00AAFF"/>
<path d="M31.9035 39.056V37.208H34.0175C34.5495 37.208 35.0209 37.1287 35.4315 36.97C35.8515 36.802 36.2062 36.5687 36.4955 36.27C36.7849 35.9713 37.0042 35.6213 37.1535 35.22C37.3122 34.8093 37.3915 34.3567 37.3915 33.862C37.3915 33.3487 37.3122 32.8913 37.1535 32.49C37.0042 32.0793 36.7849 31.7293 36.4955 31.44C36.2062 31.1507 35.8515 30.9313 35.4315 30.782C35.0209 30.6327 34.5495 30.558 34.0175 30.558H31.9035V28.71H33.8915C34.8155 28.71 35.6229 28.8453 36.3135 29.116C37.0042 29.3867 37.5782 29.76 38.0355 30.236C38.4929 30.7027 38.8335 31.2393 39.0575 31.846C39.2909 32.4433 39.4075 33.064 39.4075 33.708V34.016C39.4075 34.632 39.2909 35.2387 39.0575 35.836C38.8335 36.4333 38.4929 36.9747 38.0355 37.46C37.5782 37.9453 37.0042 38.3327 36.3135 38.622C35.6229 38.9113 34.8155 39.056 33.8915 39.056H31.9035ZM30.1955 39.056V28.71H32.1835V39.056H30.1955ZM44.4357 39.266C43.7824 39.266 43.2084 39.154 42.7137 38.93C42.2284 38.706 41.8224 38.4073 41.4957 38.034C41.1784 37.6513 40.9357 37.2267 40.7677 36.76C40.6091 36.2933 40.5297 35.8173 40.5297 35.332V35.066C40.5297 34.562 40.6091 34.0767 40.7677 33.61C40.9357 33.134 41.1784 32.714 41.4957 32.35C41.8224 31.9767 42.2237 31.6827 42.6997 31.468C43.1757 31.244 43.7264 31.132 44.3517 31.132C45.1731 31.132 45.8591 31.314 46.4097 31.678C46.9697 32.0327 47.3897 32.504 47.6697 33.092C47.9497 33.6707 48.0897 34.296 48.0897 34.968V35.668H41.3557V34.478H46.8717L46.2697 35.066C46.2697 34.5807 46.1997 34.1653 46.0597 33.82C45.9197 33.4747 45.7051 33.2087 45.4157 33.022C45.1357 32.8353 44.7811 32.742 44.3517 32.742C43.9224 32.742 43.5584 32.84 43.2597 33.036C42.9611 33.232 42.7324 33.5167 42.5737 33.89C42.4244 34.254 42.3497 34.6927 42.3497 35.206C42.3497 35.682 42.4244 36.1067 42.5737 36.48C42.7231 36.844 42.9517 37.1333 43.2597 37.348C43.5677 37.5533 43.9597 37.656 44.4357 37.656C44.9117 37.656 45.2991 37.5627 45.5977 37.376C45.8964 37.18 46.0877 36.942 46.1717 36.662H47.9637C47.8517 37.1847 47.6371 37.642 47.3197 38.034C47.0024 38.426 46.5964 38.7293 46.1017 38.944C45.6164 39.1587 45.0611 39.266 44.4357 39.266ZM52.4734 39.238C51.428 39.238 50.6067 39.0187 50.0094 38.58C49.4214 38.132 49.1134 37.516 49.0854 36.732H50.8354C50.8634 36.9933 51.008 37.2313 51.2694 37.446C51.5307 37.6607 51.9414 37.768 52.5014 37.768C52.968 37.768 53.3367 37.684 53.6074 37.516C53.8874 37.348 54.0274 37.1193 54.0274 36.83C54.0274 36.578 53.92 36.3773 53.7054 36.228C53.5 36.0787 53.1454 35.9807 52.6414 35.934L51.9694 35.864C51.12 35.7707 50.4667 35.528 50.0094 35.136C49.552 34.744 49.3234 34.2213 49.3234 33.568C49.3234 33.0453 49.454 32.6067 49.7154 32.252C49.9767 31.8973 50.336 31.6313 50.7934 31.454C51.26 31.2673 51.792 31.174 52.3894 31.174C53.3227 31.174 54.0787 31.3793 54.6574 31.79C55.236 32.2007 55.5394 32.8027 55.5674 33.596H53.8174C53.7987 33.3347 53.668 33.1107 53.4254 32.924C53.1827 32.7373 52.8327 32.644 52.3754 32.644C51.9647 32.644 51.6474 32.7233 51.4234 32.882C51.1994 33.0407 51.0874 33.246 51.0874 33.498C51.0874 33.7407 51.176 33.9273 51.3534 34.058C51.54 34.1887 51.8387 34.2773 52.2494 34.324L52.9214 34.394C53.8174 34.4873 54.5174 34.7347 55.0214 35.136C55.5347 35.5373 55.7914 36.0787 55.7914 36.76C55.7914 37.264 55.6514 37.7027 55.3714 38.076C55.1007 38.44 54.718 38.7247 54.2234 38.93C53.7287 39.1353 53.1454 39.238 52.4734 39.238ZM57.763 39V31.398H59.709V39H57.763ZM56.699 32.854V31.398H59.709V32.854H56.699ZM58.477 30.488C58.0943 30.488 57.8096 30.39 57.623 30.194C57.4456 29.9887 57.357 29.7367 57.357 29.438C57.357 29.1207 57.4456 28.864 57.623 28.668C57.8096 28.472 58.0943 28.374 58.477 28.374C58.8596 28.374 59.1396 28.472 59.317 28.668C59.4943 28.864 59.583 29.1207 59.583 29.438C59.583 29.7367 59.4943 29.9887 59.317 30.194C59.1396 30.39 58.8596 30.488 58.477 30.488ZM64.9197 41.996C64.5557 41.996 64.1824 41.982 63.7997 41.954C63.4264 41.926 63.0764 41.8887 62.7497 41.842V40.218C63.0857 40.2553 63.445 40.288 63.8277 40.316C64.2104 40.3533 64.5697 40.372 64.9057 40.372C65.531 40.372 66.035 40.2973 66.4177 40.148C66.8097 39.9987 67.0944 39.7607 67.2717 39.434C67.4584 39.1167 67.5517 38.7107 67.5517 38.216V36.718L67.9717 35.766C67.9437 36.466 67.799 37.0633 67.5377 37.558C67.2764 38.0433 66.9217 38.4167 66.4737 38.678C66.0257 38.93 65.5077 39.056 64.9197 39.056C64.397 39.056 63.921 38.958 63.4917 38.762C63.0717 38.566 62.7077 38.2953 62.3997 37.95C62.101 37.6047 61.8677 37.1987 61.6997 36.732C61.5317 36.2653 61.4477 35.766 61.4477 35.234V34.94C61.4477 34.408 61.5317 33.9133 61.6997 33.456C61.877 32.9893 62.1244 32.5833 62.4417 32.238C62.759 31.8927 63.137 31.6267 63.5757 31.44C64.0144 31.2533 64.4997 31.16 65.0317 31.16C65.657 31.16 66.1984 31.2953 66.6557 31.566C67.1224 31.8367 67.4864 32.2287 67.7477 32.742C68.009 33.2553 68.1537 33.8853 68.1817 34.632L67.8457 34.688V31.398H69.3857V38.104C69.3857 39.028 69.227 39.7747 68.9097 40.344C68.5924 40.9133 68.1024 41.3287 67.4397 41.59C66.7864 41.8607 65.9464 41.996 64.9197 41.996ZM65.4797 37.39C65.853 37.39 66.1937 37.306 66.5017 37.138C66.8097 36.97 67.057 36.7273 67.2437 36.41C67.4304 36.0927 67.5237 35.71 67.5237 35.262V34.772C67.5237 34.3427 67.4257 33.9787 67.2297 33.68C67.043 33.3813 66.7957 33.1573 66.4877 33.008C66.1797 32.8493 65.8437 32.77 65.4797 32.77C65.069 32.77 64.705 32.868 64.3877 33.064C64.0797 33.2507 63.837 33.5167 63.6597 33.862C63.4824 34.2073 63.3937 34.618 63.3937 35.094C63.3937 35.5607 63.4824 35.9667 63.6597 36.312C63.837 36.6573 64.0797 36.9233 64.3877 37.11C64.705 37.2967 65.069 37.39 65.4797 37.39ZM71.5083 39V31.398H73.0483V34.66H72.9083C72.9083 33.8853 73.011 33.2413 73.2163 32.728C73.4217 32.2053 73.725 31.8133 74.1263 31.552C74.537 31.2907 75.0457 31.16 75.6523 31.16H75.7363C76.6417 31.16 77.3277 31.454 77.7943 32.042C78.261 32.6207 78.4943 33.4887 78.4943 34.646V39H76.5483V34.478C76.5483 34.0113 76.413 33.6333 76.1423 33.344C75.881 33.0547 75.517 32.91 75.0503 32.91C74.5743 32.91 74.187 33.0593 73.8883 33.358C73.599 33.6473 73.4543 34.0393 73.4543 34.534V39H71.5083ZM83.9885 39.266C83.3351 39.266 82.7611 39.154 82.2665 38.93C81.7811 38.706 81.3751 38.4073 81.0485 38.034C80.7311 37.6513 80.4885 37.2267 80.3205 36.76C80.1618 36.2933 80.0825 35.8173 80.0825 35.332V35.066C80.0825 34.562 80.1618 34.0767 80.3205 33.61C80.4885 33.134 80.7311 32.714 81.0485 32.35C81.3751 31.9767 81.7765 31.6827 82.2525 31.468C82.7285 31.244 83.2791 31.132 83.9045 31.132C84.7258 31.132 85.4118 31.314 85.9625 31.678C86.5225 32.0327 86.9425 32.504 87.2225 33.092C87.5025 33.6707 87.6425 34.296 87.6425 34.968V35.668H80.9085V34.478H86.4245L85.8225 35.066C85.8225 34.5807 85.7525 34.1653 85.6125 33.82C85.4725 33.4747 85.2578 33.2087 84.9685 33.022C84.6885 32.8353 84.3338 32.742 83.9045 32.742C83.4751 32.742 83.1111 32.84 82.8125 33.036C82.5138 33.232 82.2851 33.5167 82.1265 33.89C81.9771 34.254 81.9025 34.6927 81.9025 35.206C81.9025 35.682 81.9771 36.1067 82.1265 36.48C82.2758 36.844 82.5045 37.1333 82.8125 37.348C83.1205 37.5533 83.5125 37.656 83.9885 37.656C84.4645 37.656 84.8518 37.5627 85.1505 37.376C85.4491 37.18 85.6405 36.942 85.7245 36.662H87.5165C87.4045 37.1847 87.1898 37.642 86.8725 38.034C86.5551 38.426 86.1491 38.7293 85.6545 38.944C85.1691 39.1587 84.6138 39.266 83.9885 39.266ZM89.2681 39V31.398H90.8081V34.618H90.7661C90.7661 33.526 90.9994 32.7 91.4661 32.14C91.9328 31.58 92.6188 31.3 93.5241 31.3H93.8041V32.994H93.2721C92.6188 32.994 92.1101 33.1713 91.7461 33.526C91.3914 33.8713 91.2141 34.3753 91.2141 35.038V39H89.2681Z" fill="#14161A"/>
<path d="M17.6936 8.8997C19.1734 8.52975 19.2208 6.44395 17.7592 6.00727L3.66198 1.79529C2.51884 1.45374 1.4538 2.51878 1.79535 3.66192L6.00733 17.7592C6.44401 19.2207 8.52981 19.1734 8.89977 17.6936L10.4403 11.5316C10.5746 10.9942 10.9942 10.5746 11.5317 10.4402L17.6936 8.8997Z" fill="#00AAFF"/>
</svg>
