<svg width="184" height="52" viewBox="0 0 184 52" fill="none" xmlns="http://www.w3.org/2000/svg">
<rect x="16" y="16" width="168" height="36" rx="10" fill="#00E599"/>
<path d="M30.2248 39V28.78H32.2128V39H30.2248ZM31.9328 34.744V33.064L36.0208 33.05V34.73L31.9328 34.744ZM31.9328 30.46V28.78H36.2168V30.46H31.9328ZM37.8091 39V31.398H39.3491V34.618H39.3071C39.3071 33.526 39.5405 32.7 40.0071 32.14C40.4738 31.58 41.1598 31.3 42.0651 31.3H42.3451V32.994H41.8131C41.1598 32.994 40.6511 33.1713 40.2871 33.526C39.9325 33.8713 39.7551 34.3753 39.7551 35.038V39H37.8091ZM47.2463 39.266C46.5743 39.266 45.9817 39.1587 45.4683 38.944C44.955 38.7293 44.521 38.44 44.1663 38.076C43.8117 37.7027 43.541 37.2827 43.3543 36.816C43.177 36.3493 43.0883 35.864 43.0883 35.36V35.066C43.0883 34.5433 43.1817 34.0487 43.3683 33.582C43.5643 33.106 43.8397 32.686 44.1943 32.322C44.5583 31.9487 44.997 31.6593 45.5103 31.454C46.0237 31.2393 46.6023 31.132 47.2463 31.132C47.8903 31.132 48.469 31.2393 48.9823 31.454C49.4957 31.6593 49.9297 31.9487 50.2843 32.322C50.6483 32.686 50.9237 33.106 51.1103 33.582C51.297 34.0487 51.3903 34.5433 51.3903 35.066V35.36C51.3903 35.864 51.297 36.3493 51.1103 36.816C50.933 37.2827 50.667 37.7027 50.3123 38.076C49.9577 38.44 49.5237 38.7293 49.0103 38.944C48.497 39.1587 47.909 39.266 47.2463 39.266ZM47.2463 37.6C47.7223 37.6 48.1237 37.4973 48.4503 37.292C48.777 37.0773 49.0243 36.7927 49.1923 36.438C49.3603 36.074 49.4443 35.6633 49.4443 35.206C49.4443 34.7393 49.3557 34.3287 49.1783 33.974C49.0103 33.61 48.7583 33.3253 48.4223 33.12C48.0957 32.9053 47.7037 32.798 47.2463 32.798C46.789 32.798 46.3923 32.9053 46.0563 33.12C45.7297 33.3253 45.4777 33.61 45.3003 33.974C45.123 34.3287 45.0343 34.7393 45.0343 35.206C45.0343 35.6633 45.1183 36.074 45.2863 36.438C45.4637 36.7927 45.7157 37.0773 46.0423 37.292C46.369 37.4973 46.7703 37.6 47.2463 37.6ZM53.0943 39V31.398H54.6343V34.66H54.4943C54.4943 33.8853 54.5969 33.2413 54.8023 32.728C55.0076 32.2053 55.3109 31.8133 55.7123 31.552C56.1229 31.2907 56.6316 31.16 57.2383 31.16H57.3223C58.2276 31.16 58.9136 31.454 59.3803 32.042C59.8469 32.6207 60.0803 33.4887 60.0803 34.646V39H58.1343V34.478C58.1343 34.0113 57.9989 33.6333 57.7283 33.344C57.4669 33.0547 57.1029 32.91 56.6363 32.91C56.1603 32.91 55.7729 33.0593 55.4743 33.358C55.1849 33.6473 55.0403 34.0393 55.0403 34.534V39H53.0943ZM65.4764 39.098C64.7764 39.098 64.1977 39.0093 63.7404 38.832C63.2924 38.6453 62.9564 38.3373 62.7324 37.908C62.5084 37.4693 62.3964 36.8813 62.3964 36.144L62.4104 29.256H64.2304L64.2164 36.27C64.2164 36.6433 64.3144 36.9327 64.5104 37.138C64.7157 37.334 65.0051 37.432 65.3784 37.432H66.5684V39.098H65.4764ZM61.1924 32.826V31.398H66.5684V32.826H61.1924ZM71.5627 39.266C70.9094 39.266 70.3354 39.154 69.8407 38.93C69.3554 38.706 68.9494 38.4073 68.6227 38.034C68.3054 37.6513 68.0627 37.2267 67.8947 36.76C67.736 36.2933 67.6567 35.8173 67.6567 35.332V35.066C67.6567 34.562 67.736 34.0767 67.8947 33.61C68.0627 33.134 68.3054 32.714 68.6227 32.35C68.9494 31.9767 69.3507 31.6827 69.8267 31.468C70.3027 31.244 70.8534 31.132 71.4787 31.132C72.3 31.132 72.986 31.314 73.5367 31.678C74.0967 32.0327 74.5167 32.504 74.7967 33.092C75.0767 33.6707 75.2167 34.296 75.2167 34.968V35.668H68.4827V34.478H73.9987L73.3967 35.066C73.3967 34.5807 73.3267 34.1653 73.1867 33.82C73.0467 33.4747 72.832 33.2087 72.5427 33.022C72.2627 32.8353 71.908 32.742 71.4787 32.742C71.0494 32.742 70.6854 32.84 70.3867 33.036C70.088 33.232 69.8594 33.5167 69.7007 33.89C69.5514 34.254 69.4767 34.6927 69.4767 35.206C69.4767 35.682 69.5514 36.1067 69.7007 36.48C69.85 36.844 70.0787 37.1333 70.3867 37.348C70.6947 37.5533 71.0867 37.656 71.5627 37.656C72.0387 37.656 72.426 37.5627 72.7247 37.376C73.0234 37.18 73.2147 36.942 73.2987 36.662H75.0907C74.9787 37.1847 74.764 37.642 74.4467 38.034C74.1294 38.426 73.7234 38.7293 73.2287 38.944C72.7434 39.1587 72.188 39.266 71.5627 39.266ZM76.8423 39V31.398H78.3823V34.66H78.2423C78.2423 33.8853 78.345 33.2413 78.5503 32.728C78.7557 32.2053 79.059 31.8133 79.4603 31.552C79.871 31.2907 80.3797 31.16 80.9863 31.16H81.0703C81.9757 31.16 82.6617 31.454 83.1283 32.042C83.595 32.6207 83.8283 33.4887 83.8283 34.646V39H81.8823V34.478C81.8823 34.0113 81.747 33.6333 81.4763 33.344C81.215 33.0547 80.851 32.91 80.3843 32.91C79.9083 32.91 79.521 33.0593 79.2223 33.358C78.933 33.6473 78.7883 34.0393 78.7883 34.534V39H76.8423ZM89.0705 39.252C88.5385 39.252 88.0485 39.154 87.6005 38.958C87.1525 38.762 86.7651 38.4867 86.4385 38.132C86.1118 37.7773 85.8598 37.3667 85.6825 36.9C85.5051 36.424 85.4165 35.9107 85.4165 35.36V35.066C85.4165 34.5247 85.5005 34.016 85.6685 33.54C85.8458 33.064 86.0885 32.6487 86.3965 32.294C86.7138 31.9393 87.0918 31.664 87.5305 31.468C87.9785 31.2627 88.4731 31.16 89.0145 31.16C89.6118 31.16 90.1345 31.2907 90.5825 31.552C91.0398 31.804 91.4038 32.1867 91.6745 32.7C91.9451 33.2133 92.0945 33.8573 92.1225 34.632L91.5485 33.96V28.78H93.4945V39H91.9545V35.766H92.2905C92.2625 36.5407 92.1038 37.1893 91.8145 37.712C91.5251 38.2253 91.1425 38.6127 90.6665 38.874C90.1998 39.126 89.6678 39.252 89.0705 39.252ZM89.5045 37.614C89.8871 37.614 90.2371 37.53 90.5545 37.362C90.8718 37.1847 91.1238 36.9327 91.3105 36.606C91.5065 36.27 91.6045 35.878 91.6045 35.43V34.87C91.6045 34.422 91.5065 34.0487 91.3105 33.75C91.1145 33.442 90.8578 33.2087 90.5405 33.05C90.2231 32.882 89.8778 32.798 89.5045 32.798C89.0845 32.798 88.7111 32.9007 88.3845 33.106C88.0671 33.302 87.8151 33.582 87.6285 33.946C87.4511 34.31 87.3625 34.7347 87.3625 35.22C87.3625 35.7053 87.4558 36.13 87.6425 36.494C87.8291 36.8487 88.0811 37.124 88.3985 37.32C88.7251 37.516 89.0938 37.614 89.5045 37.614ZM100.593 39.056V37.208H102.707C103.239 37.208 103.71 37.1287 104.121 36.97C104.541 36.802 104.896 36.5687 105.185 36.27C105.474 35.9713 105.694 35.6213 105.843 35.22C106.002 34.8093 106.081 34.3567 106.081 33.862C106.081 33.3487 106.002 32.8913 105.843 32.49C105.694 32.0793 105.474 31.7293 105.185 31.44C104.896 31.1507 104.541 30.9313 104.121 30.782C103.71 30.6327 103.239 30.558 102.707 30.558H100.593V28.71H102.581C103.505 28.71 104.312 28.8453 105.003 29.116C105.694 29.3867 106.268 29.76 106.725 30.236C107.182 30.7027 107.523 31.2393 107.747 31.846C107.98 32.4433 108.097 33.064 108.097 33.708V34.016C108.097 34.632 107.98 35.2387 107.747 35.836C107.523 36.4333 107.182 36.9747 106.725 37.46C106.268 37.9453 105.694 38.3327 105.003 38.622C104.312 38.9113 103.505 39.056 102.581 39.056H100.593ZM98.885 39.056V28.71H100.873V39.056H98.885ZM113.125 39.266C112.472 39.266 111.898 39.154 111.403 38.93C110.918 38.706 110.512 38.4073 110.185 38.034C109.868 37.6513 109.625 37.2267 109.457 36.76C109.299 36.2933 109.219 35.8173 109.219 35.332V35.066C109.219 34.562 109.299 34.0767 109.457 33.61C109.625 33.134 109.868 32.714 110.185 32.35C110.512 31.9767 110.913 31.6827 111.389 31.468C111.865 31.244 112.416 31.132 113.041 31.132C113.863 31.132 114.549 31.314 115.099 31.678C115.659 32.0327 116.079 32.504 116.359 33.092C116.639 33.6707 116.779 34.296 116.779 34.968V35.668H110.045V34.478H115.561L114.959 35.066C114.959 34.5807 114.889 34.1653 114.749 33.82C114.609 33.4747 114.395 33.2087 114.105 33.022C113.825 32.8353 113.471 32.742 113.041 32.742C112.612 32.742 112.248 32.84 111.949 33.036C111.651 33.232 111.422 33.5167 111.263 33.89C111.114 34.254 111.039 34.6927 111.039 35.206C111.039 35.682 111.114 36.1067 111.263 36.48C111.413 36.844 111.641 37.1333 111.949 37.348C112.257 37.5533 112.649 37.656 113.125 37.656C113.601 37.656 113.989 37.5627 114.287 37.376C114.586 37.18 114.777 36.942 114.861 36.662H116.653C116.541 37.1847 116.327 37.642 116.009 38.034C115.692 38.426 115.286 38.7293 114.791 38.944C114.306 39.1587 113.751 39.266 113.125 39.266ZM119.862 39L117.482 31.398H119.484L121.766 39H119.862ZM120.436 39V37.404H122.494V39H120.436ZM121.206 39L123.166 31.398H125.042L122.984 39H121.206ZM129.75 39.266C129.097 39.266 128.523 39.154 128.028 38.93C127.543 38.706 127.137 38.4073 126.81 38.034C126.493 37.6513 126.25 37.2267 126.082 36.76C125.924 36.2933 125.844 35.8173 125.844 35.332V35.066C125.844 34.562 125.924 34.0767 126.082 33.61C126.25 33.134 126.493 32.714 126.81 32.35C127.137 31.9767 127.538 31.6827 128.014 31.468C128.49 31.244 129.041 31.132 129.666 31.132C130.488 31.132 131.174 31.314 131.724 31.678C132.284 32.0327 132.704 32.504 132.984 33.092C133.264 33.6707 133.404 34.296 133.404 34.968V35.668H126.67V34.478H132.186L131.584 35.066C131.584 34.5807 131.514 34.1653 131.374 33.82C131.234 33.4747 131.02 33.2087 130.73 33.022C130.45 32.8353 130.096 32.742 129.666 32.742C129.237 32.742 128.873 32.84 128.574 33.036C128.276 33.232 128.047 33.5167 127.888 33.89C127.739 34.254 127.664 34.6927 127.664 35.206C127.664 35.682 127.739 36.1067 127.888 36.48C128.038 36.844 128.266 37.1333 128.574 37.348C128.882 37.5533 129.274 37.656 129.75 37.656C130.226 37.656 130.614 37.5627 130.912 37.376C131.211 37.18 131.402 36.942 131.486 36.662H133.278C133.166 37.1847 132.952 37.642 132.634 38.034C132.317 38.426 131.911 38.7293 131.416 38.944C130.931 39.1587 130.376 39.266 129.75 39.266ZM135.128 39V28.78H137.074V39H135.128ZM134.176 30.236V28.78H137.074V30.236H134.176ZM142.949 39.266C142.277 39.266 141.685 39.1587 141.171 38.944C140.658 38.7293 140.224 38.44 139.869 38.076C139.515 37.7027 139.244 37.2827 139.057 36.816C138.88 36.3493 138.791 35.864 138.791 35.36V35.066C138.791 34.5433 138.885 34.0487 139.071 33.582C139.267 33.106 139.543 32.686 139.897 32.322C140.261 31.9487 140.7 31.6593 141.213 31.454C141.727 31.2393 142.305 31.132 142.949 31.132C143.593 31.132 144.172 31.2393 144.685 31.454C145.199 31.6593 145.633 31.9487 145.987 32.322C146.351 32.686 146.627 33.106 146.813 33.582C147 34.0487 147.093 34.5433 147.093 35.066V35.36C147.093 35.864 147 36.3493 146.813 36.816C146.636 37.2827 146.37 37.7027 146.015 38.076C145.661 38.44 145.227 38.7293 144.713 38.944C144.2 39.1587 143.612 39.266 142.949 39.266ZM142.949 37.6C143.425 37.6 143.827 37.4973 144.153 37.292C144.48 37.0773 144.727 36.7927 144.895 36.438C145.063 36.074 145.147 35.6633 145.147 35.206C145.147 34.7393 145.059 34.3287 144.881 33.974C144.713 33.61 144.461 33.3253 144.125 33.12C143.799 32.9053 143.407 32.798 142.949 32.798C142.492 32.798 142.095 32.9053 141.759 33.12C141.433 33.3253 141.181 33.61 141.003 33.974C140.826 34.3287 140.737 34.7393 140.737 35.206C140.737 35.6633 140.821 36.074 140.989 36.438C141.167 36.7927 141.419 37.0773 141.745 37.292C142.072 37.4973 142.473 37.6 142.949 37.6ZM148.797 41.8V31.398H150.337V34.674L150.099 34.66C150.137 33.8853 150.295 33.2367 150.575 32.714C150.865 32.1913 151.247 31.804 151.723 31.552C152.199 31.2907 152.731 31.16 153.319 31.16C153.861 31.16 154.346 31.258 154.775 31.454C155.214 31.65 155.587 31.9253 155.895 32.28C156.213 32.6347 156.455 33.05 156.623 33.526C156.791 33.9927 156.875 34.4967 156.875 35.038V35.332C156.875 35.8827 156.791 36.396 156.623 36.872C156.465 37.3387 156.227 37.754 155.909 38.118C155.601 38.4727 155.228 38.7527 154.789 38.958C154.351 39.154 153.861 39.252 153.319 39.252C152.75 39.252 152.227 39.1353 151.751 38.902C151.285 38.6593 150.907 38.2907 150.617 37.796C150.328 37.292 150.165 36.6433 150.127 35.85L150.743 36.788V41.8H148.797ZM152.829 37.614C153.249 37.614 153.613 37.5113 153.921 37.306C154.239 37.1007 154.486 36.816 154.663 36.452C154.841 36.0787 154.929 35.6587 154.929 35.192C154.929 34.7067 154.841 34.2867 154.663 33.932C154.486 33.5773 154.239 33.302 153.921 33.106C153.613 32.9007 153.249 32.798 152.829 32.798C152.447 32.798 152.092 32.882 151.765 33.05C151.448 33.218 151.187 33.4653 150.981 33.792C150.785 34.1187 150.687 34.5107 150.687 34.968V35.528C150.687 35.9667 150.79 36.34 150.995 36.648C151.201 36.956 151.467 37.194 151.793 37.362C152.12 37.53 152.465 37.614 152.829 37.614ZM161.988 39.266C161.335 39.266 160.761 39.154 160.266 38.93C159.781 38.706 159.375 38.4073 159.048 38.034C158.731 37.6513 158.488 37.2267 158.32 36.76C158.162 36.2933 158.082 35.8173 158.082 35.332V35.066C158.082 34.562 158.162 34.0767 158.32 33.61C158.488 33.134 158.731 32.714 159.048 32.35C159.375 31.9767 159.776 31.6827 160.252 31.468C160.728 31.244 161.279 31.132 161.904 31.132C162.726 31.132 163.412 31.314 163.962 31.678C164.522 32.0327 164.942 32.504 165.222 33.092C165.502 33.6707 165.642 34.296 165.642 34.968V35.668H158.908V34.478H164.424L163.822 35.066C163.822 34.5807 163.752 34.1653 163.612 33.82C163.472 33.4747 163.258 33.2087 162.968 33.022C162.688 32.8353 162.334 32.742 161.904 32.742C161.475 32.742 161.111 32.84 160.812 33.036C160.514 33.232 160.285 33.5167 160.126 33.89C159.977 34.254 159.902 34.6927 159.902 35.206C159.902 35.682 159.977 36.1067 160.126 36.48C160.276 36.844 160.504 37.1333 160.812 37.348C161.12 37.5533 161.512 37.656 161.988 37.656C162.464 37.656 162.852 37.5627 163.15 37.376C163.449 37.18 163.64 36.942 163.724 36.662H165.516C165.404 37.1847 165.19 37.642 164.872 38.034C164.555 38.426 164.149 38.7293 163.654 38.944C163.169 39.1587 162.614 39.266 161.988 39.266ZM167.268 39V31.398H168.808V34.618H168.766C168.766 33.526 168.999 32.7 169.466 32.14C169.933 31.58 170.619 31.3 171.524 31.3H171.804V32.994H171.272C170.619 32.994 170.11 33.1713 169.746 33.526C169.391 33.8713 169.214 34.3753 169.214 35.038V39H167.268Z" fill="#0C0F14"/>
<path d="M17.6936 8.89977C19.1734 8.52981 19.2208 6.44401 17.7592 6.00733L3.66198 1.79535C2.51884 1.4538 1.4538 2.51885 1.79535 3.66198L6.00733 17.7592C6.44401 19.2208 8.52981 19.1734 8.89977 17.6936L10.4403 11.5317C10.5746 10.9942 10.9942 10.5746 11.5317 10.4403L17.6936 8.89977Z" fill="#00E599"/>
</svg>
