<svg width="171" height="52" viewBox="0 0 171 52" fill="none" xmlns="http://www.w3.org/2000/svg">
<rect x="16.7158" y="16" width="154" height="36" rx="10" fill="#1C1E22"/>
<path d="M30.5168 39V28.78H33.2328L35.7948 34.884H36.0468L38.5948 28.78H41.3528V39H39.3788V30.278L39.6308 30.306L36.8728 36.914H34.8428L32.0708 30.306L32.3368 30.278V39H30.5168ZM44.0843 39V31.398H46.0303V39H44.0843ZM43.0203 32.854V31.398H46.0303V32.854H43.0203ZM44.7983 30.488C44.4156 30.488 44.1309 30.39 43.9443 30.194C43.7669 29.9887 43.6783 29.7367 43.6783 29.438C43.6783 29.1207 43.7669 28.864 43.9443 28.668C44.1309 28.472 44.4156 28.374 44.7983 28.374C45.1809 28.374 45.4609 28.472 45.6383 28.668C45.8156 28.864 45.9043 29.1207 45.9043 29.438C45.9043 29.7367 45.8156 29.9887 45.6383 30.194C45.4609 30.39 45.1809 30.488 44.7983 30.488ZM51.647 39.266C50.9843 39.266 50.4103 39.154 49.925 38.93C49.449 38.706 49.0477 38.4073 48.721 38.034C48.4037 37.6607 48.1657 37.2407 48.007 36.774C47.8483 36.3073 47.769 35.8313 47.769 35.346V35.08C47.769 34.5667 47.8483 34.0767 48.007 33.61C48.175 33.134 48.4223 32.714 48.749 32.35C49.0757 31.9767 49.477 31.6827 49.953 31.468C50.4383 31.244 50.9983 31.132 51.633 31.132C52.2957 31.132 52.8883 31.2627 53.411 31.524C53.9337 31.776 54.349 32.1307 54.657 32.588C54.9743 33.0453 55.1517 33.5773 55.189 34.184H53.299C53.2523 33.792 53.0843 33.4653 52.795 33.204C52.515 32.9427 52.1277 32.812 51.633 32.812C51.2037 32.812 50.8443 32.9147 50.555 33.12C50.275 33.3253 50.065 33.61 49.925 33.974C49.785 34.3287 49.715 34.7393 49.715 35.206C49.715 35.654 49.7803 36.06 49.911 36.424C50.051 36.788 50.261 37.0727 50.541 37.278C50.8303 37.4833 51.199 37.586 51.647 37.586C51.983 37.586 52.2723 37.5253 52.515 37.404C52.7577 37.2827 52.949 37.1147 53.089 36.9C53.2383 36.6853 53.3317 36.4427 53.369 36.172H55.259C55.2217 36.788 55.0397 37.3293 54.713 37.796C54.3957 38.2533 53.971 38.6127 53.439 38.874C52.9163 39.1353 52.319 39.266 51.647 39.266ZM56.8179 39V31.398H58.3579V34.618H58.3159C58.3159 33.526 58.5492 32.7 59.0159 32.14C59.4826 31.58 60.1686 31.3 61.0739 31.3H61.3539V32.994H60.8219C60.1686 32.994 59.6599 33.1713 59.2959 33.526C58.9412 33.8713 58.7639 34.3753 58.7639 35.038V39H56.8179ZM66.2551 39.266C65.5831 39.266 64.9905 39.1587 64.4771 38.944C63.9638 38.7293 63.5298 38.44 63.1751 38.076C62.8205 37.7027 62.5498 37.2827 62.3631 36.816C62.1858 36.3493 62.0971 35.864 62.0971 35.36V35.066C62.0971 34.5433 62.1905 34.0487 62.3771 33.582C62.5731 33.106 62.8485 32.686 63.2031 32.322C63.5671 31.9487 64.0058 31.6593 64.5191 31.454C65.0325 31.2393 65.6111 31.132 66.2551 31.132C66.8991 31.132 67.4778 31.2393 67.9911 31.454C68.5045 31.6593 68.9385 31.9487 69.2931 32.322C69.6571 32.686 69.9325 33.106 70.1191 33.582C70.3058 34.0487 70.3991 34.5433 70.3991 35.066V35.36C70.3991 35.864 70.3058 36.3493 70.1191 36.816C69.9418 37.2827 69.6758 37.7027 69.3211 38.076C68.9665 38.44 68.5325 38.7293 68.0191 38.944C67.5058 39.1587 66.9178 39.266 66.2551 39.266ZM66.2551 37.6C66.7311 37.6 67.1325 37.4973 67.4591 37.292C67.7858 37.0773 68.0331 36.7927 68.2011 36.438C68.3691 36.074 68.4531 35.6633 68.4531 35.206C68.4531 34.7393 68.3645 34.3287 68.1871 33.974C68.0191 33.61 67.7671 33.3253 67.4311 33.12C67.1045 32.9053 66.7125 32.798 66.2551 32.798C65.7978 32.798 65.4011 32.9053 65.0651 33.12C64.7385 33.3253 64.4865 33.61 64.3091 33.974C64.1318 34.3287 64.0431 34.7393 64.0431 35.206C64.0431 35.6633 64.1271 36.074 64.2951 36.438C64.4725 36.7927 64.7245 37.0773 65.0511 37.292C65.3778 37.4973 65.7791 37.6 66.2551 37.6ZM72.4671 39V31.398H74.4131V39H72.4671ZM71.4031 32.854V31.398H74.4131V32.854H71.4031ZM73.1811 30.488C72.7984 30.488 72.5137 30.39 72.3271 30.194C72.1497 29.9887 72.0611 29.7367 72.0611 29.438C72.0611 29.1207 72.1497 28.864 72.3271 28.668C72.5137 28.472 72.7984 28.374 73.1811 28.374C73.5637 28.374 73.8437 28.472 74.0211 28.668C74.1984 28.864 74.2871 29.1207 74.2871 29.438C74.2871 29.7367 74.1984 29.9887 74.0211 30.194C73.8437 30.39 73.5637 30.488 73.1811 30.488ZM76.6558 39V31.398H78.1958V34.66H78.0558C78.0558 33.8853 78.1585 33.2413 78.3638 32.728C78.5691 32.2053 78.8725 31.8133 79.2738 31.552C79.6845 31.2907 80.1931 31.16 80.7998 31.16H80.8838C81.7891 31.16 82.4751 31.454 82.9418 32.042C83.4085 32.6207 83.6418 33.4887 83.6418 34.646V39H81.6958V34.478C81.6958 34.0113 81.5605 33.6333 81.2898 33.344C81.0285 33.0547 80.6645 32.91 80.1978 32.91C79.7218 32.91 79.3345 33.0593 79.0358 33.358C78.7465 33.6473 78.6018 34.0393 78.6018 34.534V39H76.6558ZM89.0379 39.098C88.3379 39.098 87.7593 39.0093 87.3019 38.832C86.8539 38.6453 86.5179 38.3373 86.2939 37.908C86.0699 37.4693 85.9579 36.8813 85.9579 36.144L85.9719 29.256H87.7919L87.7779 36.27C87.7779 36.6433 87.8759 36.9327 88.0719 37.138C88.2773 37.334 88.5666 37.432 88.9399 37.432H90.1299V39.098H89.0379ZM84.7539 32.826V31.398H90.1299V32.826H84.7539ZM95.1242 39.266C94.4709 39.266 93.8969 39.154 93.4022 38.93C92.9169 38.706 92.5109 38.4073 92.1842 38.034C91.8669 37.6513 91.6242 37.2267 91.4562 36.76C91.2975 36.2933 91.2182 35.8173 91.2182 35.332V35.066C91.2182 34.562 91.2975 34.0767 91.4562 33.61C91.6242 33.134 91.8669 32.714 92.1842 32.35C92.5109 31.9767 92.9122 31.6827 93.3882 31.468C93.8642 31.244 94.4149 31.132 95.0402 31.132C95.8615 31.132 96.5475 31.314 97.0982 31.678C97.6582 32.0327 98.0782 32.504 98.3582 33.092C98.6382 33.6707 98.7782 34.296 98.7782 34.968V35.668H92.0442V34.478H97.5602L96.9582 35.066C96.9582 34.5807 96.8882 34.1653 96.7482 33.82C96.6082 33.4747 96.3935 33.2087 96.1042 33.022C95.8242 32.8353 95.4695 32.742 95.0402 32.742C94.6109 32.742 94.2469 32.84 93.9482 33.036C93.6495 33.232 93.4209 33.5167 93.2622 33.89C93.1129 34.254 93.0382 34.6927 93.0382 35.206C93.0382 35.682 93.1129 36.1067 93.2622 36.48C93.4115 36.844 93.6402 37.1333 93.9482 37.348C94.2562 37.5533 94.6482 37.656 95.1242 37.656C95.6002 37.656 95.9875 37.5627 96.2862 37.376C96.5849 37.18 96.7762 36.942 96.8602 36.662H98.6522C98.5402 37.1847 98.3255 37.642 98.0082 38.034C97.6909 38.426 97.2849 38.7293 96.7902 38.944C96.3049 39.1587 95.7495 39.266 95.1242 39.266ZM100.404 39V31.398H101.944V34.618H101.902C101.902 33.526 102.135 32.7 102.602 32.14C103.069 31.58 103.755 31.3 104.66 31.3H104.94V32.994H104.408C103.755 32.994 103.246 33.1713 102.882 33.526C102.527 33.8713 102.35 34.3753 102.35 35.038V39H100.404ZM110.807 39V36.746H110.485V34.24C110.485 33.8013 110.377 33.4747 110.163 33.26C109.948 33.0453 109.617 32.938 109.169 32.938C108.935 32.938 108.655 32.9427 108.329 32.952C108.002 32.9613 107.671 32.9753 107.335 32.994C107.008 33.0033 106.714 33.0173 106.453 33.036V31.384C106.667 31.3653 106.91 31.3467 107.181 31.328C107.451 31.3093 107.727 31.3 108.007 31.3C108.296 31.2907 108.567 31.286 108.819 31.286C109.603 31.286 110.251 31.3887 110.765 31.594C111.287 31.7993 111.679 32.1213 111.941 32.56C112.211 32.9987 112.347 33.5727 112.347 34.282V39H110.807ZM108.357 39.196C107.806 39.196 107.321 39.098 106.901 38.902C106.49 38.706 106.168 38.426 105.935 38.062C105.711 37.698 105.599 37.2593 105.599 36.746C105.599 36.186 105.734 35.7287 106.005 35.374C106.285 35.0193 106.672 34.7533 107.167 34.576C107.671 34.3987 108.259 34.31 108.931 34.31H110.695V35.472H108.903C108.455 35.472 108.109 35.584 107.867 35.808C107.633 36.0227 107.517 36.3027 107.517 36.648C107.517 36.9933 107.633 37.2733 107.867 37.488C108.109 37.7027 108.455 37.81 108.903 37.81C109.173 37.81 109.421 37.7633 109.645 37.67C109.878 37.5673 110.069 37.3993 110.219 37.166C110.377 36.9233 110.466 36.5967 110.485 36.186L110.961 36.732C110.914 37.264 110.783 37.712 110.569 38.076C110.363 38.44 110.074 38.72 109.701 38.916C109.337 39.1027 108.889 39.196 108.357 39.196ZM117.805 39.266C117.143 39.266 116.569 39.154 116.083 38.93C115.607 38.706 115.206 38.4073 114.879 38.034C114.562 37.6607 114.324 37.2407 114.165 36.774C114.007 36.3073 113.927 35.8313 113.927 35.346V35.08C113.927 34.5667 114.007 34.0767 114.165 33.61C114.333 33.134 114.581 32.714 114.907 32.35C115.234 31.9767 115.635 31.6827 116.111 31.468C116.597 31.244 117.157 31.132 117.791 31.132C118.454 31.132 119.047 31.2627 119.569 31.524C120.092 31.776 120.507 32.1307 120.815 32.588C121.133 33.0453 121.31 33.5773 121.347 34.184H119.457C119.411 33.792 119.243 33.4653 118.953 33.204C118.673 32.9427 118.286 32.812 117.791 32.812C117.362 32.812 117.003 32.9147 116.713 33.12C116.433 33.3253 116.223 33.61 116.083 33.974C115.943 34.3287 115.873 34.7393 115.873 35.206C115.873 35.654 115.939 36.06 116.069 36.424C116.209 36.788 116.419 37.0727 116.699 37.278C116.989 37.4833 117.357 37.586 117.805 37.586C118.141 37.586 118.431 37.5253 118.673 37.404C118.916 37.2827 119.107 37.1147 119.247 36.9C119.397 36.6853 119.49 36.4427 119.527 36.172H121.417C121.38 36.788 121.198 37.3293 120.871 37.796C120.554 38.2533 120.129 38.6127 119.597 38.874C119.075 39.1353 118.477 39.266 117.805 39.266ZM126.28 39.098C125.58 39.098 125.001 39.0093 124.544 38.832C124.096 38.6453 123.76 38.3373 123.536 37.908C123.312 37.4693 123.2 36.8813 123.2 36.144L123.214 29.256H125.034L125.02 36.27C125.02 36.6433 125.118 36.9327 125.314 37.138C125.519 37.334 125.809 37.432 126.182 37.432H127.372V39.098H126.28ZM121.996 32.826V31.398H127.372V32.826H121.996ZM129.369 39V31.398H131.315V39H129.369ZM128.305 32.854V31.398H131.315V32.854H128.305ZM130.083 30.488C129.701 30.488 129.416 30.39 129.229 30.194C129.052 29.9887 128.963 29.7367 128.963 29.438C128.963 29.1207 129.052 28.864 129.229 28.668C129.416 28.472 129.701 28.374 130.083 28.374C130.466 28.374 130.746 28.472 130.923 28.668C131.101 28.864 131.189 29.1207 131.189 29.438C131.189 29.7367 131.101 29.9887 130.923 30.194C130.746 30.39 130.466 30.488 130.083 30.488ZM137.212 39.266C136.54 39.266 135.947 39.1587 135.434 38.944C134.921 38.7293 134.487 38.44 134.132 38.076C133.777 37.7027 133.507 37.2827 133.32 36.816C133.143 36.3493 133.054 35.864 133.054 35.36V35.066C133.054 34.5433 133.147 34.0487 133.334 33.582C133.53 33.106 133.805 32.686 134.16 32.322C134.524 31.9487 134.963 31.6593 135.476 31.454C135.989 31.2393 136.568 31.132 137.212 31.132C137.856 31.132 138.435 31.2393 138.948 31.454C139.461 31.6593 139.895 31.9487 140.25 32.322C140.614 32.686 140.889 33.106 141.076 33.582C141.263 34.0487 141.356 34.5433 141.356 35.066V35.36C141.356 35.864 141.263 36.3493 141.076 36.816C140.899 37.2827 140.633 37.7027 140.278 38.076C139.923 38.44 139.489 38.7293 138.976 38.944C138.463 39.1587 137.875 39.266 137.212 39.266ZM137.212 37.6C137.688 37.6 138.089 37.4973 138.416 37.292C138.743 37.0773 138.99 36.7927 139.158 36.438C139.326 36.074 139.41 35.6633 139.41 35.206C139.41 34.7393 139.321 34.3287 139.144 33.974C138.976 33.61 138.724 33.3253 138.388 33.12C138.061 32.9053 137.669 32.798 137.212 32.798C136.755 32.798 136.358 32.9053 136.022 33.12C135.695 33.3253 135.443 33.61 135.266 33.974C135.089 34.3287 135 34.7393 135 35.206C135 35.6633 135.084 36.074 135.252 36.438C135.429 36.7927 135.681 37.0773 136.008 37.292C136.335 37.4973 136.736 37.6 137.212 37.6ZM143.06 39V31.398H144.6V34.66H144.46C144.46 33.8853 144.563 33.2413 144.768 32.728C144.973 32.2053 145.277 31.8133 145.678 31.552C146.089 31.2907 146.597 31.16 147.204 31.16H147.288C148.193 31.16 148.879 31.454 149.346 32.042C149.813 32.6207 150.046 33.4887 150.046 34.646V39H148.1V34.478C148.1 34.0113 147.965 33.6333 147.694 33.344C147.433 33.0547 147.069 32.91 146.602 32.91C146.126 32.91 145.739 33.0593 145.44 33.358C145.151 33.6473 145.006 34.0393 145.006 34.534V39H143.06ZM154.896 39.238C153.851 39.238 153.03 39.0187 152.432 38.58C151.844 38.132 151.536 37.516 151.508 36.732H153.258C153.286 36.9933 153.431 37.2313 153.692 37.446C153.954 37.6607 154.364 37.768 154.924 37.768C155.391 37.768 155.76 37.684 156.03 37.516C156.31 37.348 156.45 37.1193 156.45 36.83C156.45 36.578 156.343 36.3773 156.128 36.228C155.923 36.0787 155.568 35.9807 155.064 35.934L154.392 35.864C153.543 35.7707 152.89 35.528 152.432 35.136C151.975 34.744 151.746 34.2213 151.746 33.568C151.746 33.0453 151.877 32.6067 152.138 32.252C152.4 31.8973 152.759 31.6313 153.216 31.454C153.683 31.2673 154.215 31.174 154.812 31.174C155.746 31.174 156.502 31.3793 157.08 31.79C157.659 32.2007 157.962 32.8027 157.99 33.596H156.24C156.222 33.3347 156.091 33.1107 155.848 32.924C155.606 32.7373 155.256 32.644 154.798 32.644C154.388 32.644 154.07 32.7233 153.846 32.882C153.622 33.0407 153.51 33.246 153.51 33.498C153.51 33.7407 153.599 33.9273 153.776 34.058C153.963 34.1887 154.262 34.2773 154.672 34.324L155.344 34.394C156.24 34.4873 156.94 34.7347 157.444 35.136C157.958 35.5373 158.214 36.0787 158.214 36.76C158.214 37.264 158.074 37.7027 157.794 38.076C157.524 38.44 157.141 38.7247 156.646 38.93C156.152 39.1353 155.568 39.238 154.896 39.238Z" fill="white"/>
<path d="M18.4094 8.89971C19.8893 8.52975 19.9366 6.44395 18.4751 6.00727L4.3778 1.79529C3.23466 1.45374 2.16962 2.51879 2.51117 3.66192L6.72315 17.7592C7.15983 19.2207 9.24563 19.1734 9.61559 17.6936L11.1561 11.5316C11.2904 10.9942 11.7101 10.5746 12.2475 10.4402L18.4094 8.89971Z" fill="#1C1E22"/>
</svg>
