<svg width="127" height="52" viewBox="0 0 127 52" fill="none" xmlns="http://www.w3.org/2000/svg">
<rect x="16" y="16" width="111" height="36" rx="10" fill="#FF7733"/>
<path d="M31.0559 35.864V34.142H33.0439C33.4452 34.142 33.7812 34.0627 34.0519 33.904C34.3319 33.7453 34.5419 33.526 34.6819 33.246C34.8312 32.966 34.9059 32.644 34.9059 32.28C34.9059 31.916 34.8312 31.594 34.6819 31.314C34.5419 31.034 34.3319 30.8193 34.0519 30.67C33.7812 30.5113 33.4452 30.432 33.0439 30.432H31.0559V28.71H32.8759C33.7346 28.71 34.4626 28.85 35.0599 29.13C35.6666 29.41 36.1286 29.8113 36.4459 30.334C36.7632 30.8473 36.9219 31.4587 36.9219 32.168V32.392C36.9219 33.1013 36.7632 33.7173 36.4459 34.24C36.1286 34.7533 35.6666 35.1547 35.0599 35.444C34.4626 35.724 33.7346 35.864 32.8759 35.864H31.0559ZM29.3479 39V28.71H31.3359V39H29.3479ZM38.4634 39V31.398H40.0034V34.618H39.9614C39.9614 33.526 40.1948 32.7 40.6614 32.14C41.1281 31.58 41.8141 31.3 42.7194 31.3H42.9994V32.994H42.4674C41.8141 32.994 41.3054 33.1713 40.9414 33.526C40.5868 33.8713 40.4094 34.3753 40.4094 35.038V39H38.4634ZM47.9006 39.266C47.2286 39.266 46.636 39.1587 46.1226 38.944C45.6093 38.7293 45.1753 38.44 44.8206 38.076C44.466 37.7027 44.1953 37.2827 44.0086 36.816C43.8313 36.3493 43.7426 35.864 43.7426 35.36V35.066C43.7426 34.5433 43.836 34.0487 44.0226 33.582C44.2186 33.106 44.494 32.686 44.8486 32.322C45.2126 31.9487 45.6513 31.6593 46.1646 31.454C46.678 31.2393 47.2566 31.132 47.9006 31.132C48.5446 31.132 49.1233 31.2393 49.6366 31.454C50.15 31.6593 50.584 31.9487 50.9386 32.322C51.3026 32.686 51.578 33.106 51.7646 33.582C51.9513 34.0487 52.0446 34.5433 52.0446 35.066V35.36C52.0446 35.864 51.9513 36.3493 51.7646 36.816C51.5873 37.2827 51.3213 37.7027 50.9666 38.076C50.612 38.44 50.178 38.7293 49.6646 38.944C49.1513 39.1587 48.5633 39.266 47.9006 39.266ZM47.9006 37.6C48.3766 37.6 48.778 37.4973 49.1046 37.292C49.4313 37.0773 49.6786 36.7927 49.8466 36.438C50.0146 36.074 50.0986 35.6633 50.0986 35.206C50.0986 34.7393 50.01 34.3287 49.8326 33.974C49.6646 33.61 49.4126 33.3253 49.0766 33.12C48.75 32.9053 48.358 32.798 47.9006 32.798C47.4433 32.798 47.0466 32.9053 46.7106 33.12C46.384 33.3253 46.132 33.61 45.9546 33.974C45.7773 34.3287 45.6886 34.7393 45.6886 35.206C45.6886 35.6633 45.7726 36.074 45.9406 36.438C46.118 36.7927 46.37 37.0773 46.6966 37.292C47.0233 37.4973 47.4246 37.6 47.9006 37.6ZM57.0526 39.098C56.3526 39.098 55.7739 39.0093 55.3166 38.832C54.8686 38.6453 54.5326 38.3373 54.3086 37.908C54.0846 37.4693 53.9726 36.8813 53.9726 36.144L53.9866 29.256H55.8066L55.7926 36.27C55.7926 36.6433 55.8906 36.9327 56.0866 37.138C56.2919 37.334 56.5812 37.432 56.9546 37.432H58.1446V39.098H57.0526ZM52.7686 32.826V31.398H58.1446V32.826H52.7686ZM63.3909 39.266C62.7189 39.266 62.1262 39.1587 61.6129 38.944C61.0995 38.7293 60.6655 38.44 60.3109 38.076C59.9562 37.7027 59.6855 37.2827 59.4989 36.816C59.3215 36.3493 59.2329 35.864 59.2329 35.36V35.066C59.2329 34.5433 59.3262 34.0487 59.5129 33.582C59.7089 33.106 59.9842 32.686 60.3389 32.322C60.7029 31.9487 61.1415 31.6593 61.6549 31.454C62.1682 31.2393 62.7469 31.132 63.3909 31.132C64.0349 31.132 64.6135 31.2393 65.1269 31.454C65.6402 31.6593 66.0742 31.9487 66.4289 32.322C66.7929 32.686 67.0682 33.106 67.2549 33.582C67.4415 34.0487 67.5349 34.5433 67.5349 35.066V35.36C67.5349 35.864 67.4415 36.3493 67.2549 36.816C67.0775 37.2827 66.8115 37.7027 66.4569 38.076C66.1022 38.44 65.6682 38.7293 65.1549 38.944C64.6415 39.1587 64.0535 39.266 63.3909 39.266ZM63.3909 37.6C63.8669 37.6 64.2682 37.4973 64.5949 37.292C64.9215 37.0773 65.1689 36.7927 65.3369 36.438C65.5049 36.074 65.5889 35.6633 65.5889 35.206C65.5889 34.7393 65.5002 34.3287 65.3229 33.974C65.1549 33.61 64.9029 33.3253 64.5669 33.12C64.2402 32.9053 63.8482 32.798 63.3909 32.798C62.9335 32.798 62.5369 32.9053 62.2009 33.12C61.8742 33.3253 61.6222 33.61 61.4449 33.974C61.2675 34.3287 61.1789 34.7393 61.1789 35.206C61.1789 35.6633 61.2629 36.074 61.4309 36.438C61.6082 36.7927 61.8602 37.0773 62.1869 37.292C62.5135 37.4973 62.9149 37.6 63.3909 37.6ZM72.5428 39.098C71.8428 39.098 71.2641 39.0093 70.8068 38.832C70.3588 38.6453 70.0228 38.3373 69.7988 37.908C69.5748 37.4693 69.4628 36.8813 69.4628 36.144L69.4768 29.256H71.2968L71.2828 36.27C71.2828 36.6433 71.3808 36.9327 71.5768 37.138C71.7821 37.334 72.0715 37.432 72.4448 37.432H73.6348V39.098H72.5428ZM68.2588 32.826V31.398H73.6348V32.826H68.2588ZM75.0441 41.996V40.33H76.4721C76.7428 40.33 76.9668 40.2927 77.1441 40.218C77.3308 40.1527 77.4848 40.0407 77.6061 39.882C77.7274 39.7327 77.8208 39.5227 77.8861 39.252L79.9301 31.398H81.7921L79.5381 39.672C79.3888 40.2413 79.1788 40.694 78.9081 41.03C78.6374 41.3753 78.2874 41.6227 77.8581 41.772C77.4381 41.9213 76.9154 41.996 76.2901 41.996H75.0441ZM77.4101 38.832V37.292H79.0341V38.832H77.4101ZM76.7521 38.832L74.2881 31.398H76.2481L78.5861 38.832H76.7521ZM83.1294 41.8V31.398H84.6694V34.674L84.4314 34.66C84.4688 33.8853 84.6274 33.2367 84.9074 32.714C85.1968 32.1913 85.5794 31.804 86.0554 31.552C86.5314 31.2907 87.0634 31.16 87.6514 31.16C88.1928 31.16 88.6781 31.258 89.1074 31.454C89.5461 31.65 89.9194 31.9253 90.2274 32.28C90.5448 32.6347 90.7874 33.05 90.9554 33.526C91.1234 33.9927 91.2074 34.4967 91.2074 35.038V35.332C91.2074 35.8827 91.1234 36.396 90.9554 36.872C90.7968 37.3387 90.5588 37.754 90.2414 38.118C89.9334 38.4727 89.5601 38.7527 89.1214 38.958C88.6828 39.154 88.1928 39.252 87.6514 39.252C87.0821 39.252 86.5594 39.1353 86.0834 38.902C85.6168 38.6593 85.2388 38.2907 84.9494 37.796C84.6601 37.292 84.4968 36.6433 84.4594 35.85L85.0754 36.788V41.8H83.1294ZM87.1614 37.614C87.5814 37.614 87.9454 37.5113 88.2534 37.306C88.5708 37.1007 88.8181 36.816 88.9954 36.452C89.1728 36.0787 89.2614 35.6587 89.2614 35.192C89.2614 34.7067 89.1728 34.2867 88.9954 33.932C88.8181 33.5773 88.5708 33.302 88.2534 33.106C87.9454 32.9007 87.5814 32.798 87.1614 32.798C86.7788 32.798 86.4241 32.882 86.0974 33.05C85.7801 33.218 85.5188 33.4653 85.3134 33.792C85.1174 34.1187 85.0194 34.5107 85.0194 34.968V35.528C85.0194 35.9667 85.1221 36.34 85.3274 36.648C85.5328 36.956 85.7988 37.194 86.1254 37.362C86.4521 37.53 86.7974 37.614 87.1614 37.614ZM93.2825 39V31.398H95.2285V39H93.2825ZM92.2185 32.854V31.398H95.2285V32.854H92.2185ZM93.9965 30.488C93.6138 30.488 93.3292 30.39 93.1425 30.194C92.9652 29.9887 92.8765 29.7367 92.8765 29.438C92.8765 29.1207 92.9652 28.864 93.1425 28.668C93.3292 28.472 93.6138 28.374 93.9965 28.374C94.3792 28.374 94.6592 28.472 94.8365 28.668C95.0138 28.864 95.1025 29.1207 95.1025 29.438C95.1025 29.7367 95.0138 29.9887 94.8365 30.194C94.6592 30.39 94.3792 30.488 93.9965 30.488ZM97.4712 39V31.398H99.0112V34.66H98.8712C98.8712 33.8853 98.9739 33.2413 99.1792 32.728C99.3846 32.2053 99.6879 31.8133 100.089 31.552C100.5 31.2907 101.009 31.16 101.615 31.16H101.699C102.605 31.16 103.291 31.454 103.757 32.042C104.224 32.6207 104.457 33.4887 104.457 34.646V39H102.511V34.478C102.511 34.0113 102.376 33.6333 102.105 33.344C101.844 33.0547 101.48 32.91 101.013 32.91C100.537 32.91 100.15 33.0593 99.8512 33.358C99.5619 33.6473 99.4172 34.0393 99.4172 34.534V39H97.4712ZM109.517 41.996C109.153 41.996 108.78 41.982 108.397 41.954C108.024 41.926 107.674 41.8887 107.347 41.842V40.218C107.683 40.2553 108.043 40.288 108.425 40.316C108.808 40.3533 109.167 40.372 109.503 40.372C110.129 40.372 110.633 40.2973 111.015 40.148C111.407 39.9987 111.692 39.7607 111.869 39.434C112.056 39.1167 112.149 38.7107 112.149 38.216V36.718L112.569 35.766C112.541 36.466 112.397 37.0633 112.135 37.558C111.874 38.0433 111.519 38.4167 111.071 38.678C110.623 38.93 110.105 39.056 109.517 39.056C108.995 39.056 108.519 38.958 108.089 38.762C107.669 38.566 107.305 38.2953 106.997 37.95C106.699 37.6047 106.465 37.1987 106.297 36.732C106.129 36.2653 106.045 35.766 106.045 35.234V34.94C106.045 34.408 106.129 33.9133 106.297 33.456C106.475 32.9893 106.722 32.5833 107.039 32.238C107.357 31.8927 107.735 31.6267 108.173 31.44C108.612 31.2533 109.097 31.16 109.629 31.16C110.255 31.16 110.796 31.2953 111.253 31.566C111.72 31.8367 112.084 32.2287 112.345 32.742C112.607 33.2553 112.751 33.8853 112.779 34.632L112.443 34.688V31.398H113.983V38.104C113.983 39.028 113.825 39.7747 113.507 40.344C113.19 40.9133 112.7 41.3287 112.037 41.59C111.384 41.8607 110.544 41.996 109.517 41.996ZM110.077 37.39C110.451 37.39 110.791 37.306 111.099 37.138C111.407 36.97 111.655 36.7273 111.841 36.41C112.028 36.0927 112.121 35.71 112.121 35.262V34.772C112.121 34.3427 112.023 33.9787 111.827 33.68C111.641 33.3813 111.393 33.1573 111.085 33.008C110.777 32.8493 110.441 32.77 110.077 32.77C109.667 32.77 109.303 32.868 108.985 33.064C108.677 33.2507 108.435 33.5167 108.257 33.862C108.08 34.2073 107.991 34.618 107.991 35.094C107.991 35.5607 108.08 35.9667 108.257 36.312C108.435 36.6573 108.677 36.9233 108.985 37.11C109.303 37.2967 109.667 37.39 110.077 37.39Z" fill="#0C0F14"/>
<path d="M17.6936 8.89977C19.1734 8.52981 19.2208 6.44401 17.7592 6.00733L3.66198 1.79535C2.51884 1.4538 1.4538 2.51885 1.79535 3.66198L6.00733 17.7592C6.44401 19.2208 8.52981 19.1734 8.89977 17.6936L10.4403 11.5317C10.5746 10.9942 10.9942 10.5746 11.5317 10.4403L17.6936 8.89977Z" fill="#FF7733"/>
</svg>
