<svg width="185" height="52" viewBox="0 0 185 52" fill="none" xmlns="http://www.w3.org/2000/svg">
<rect x="16.7158" y="16" width="168" height="36" rx="10" fill="#1C1E22"/>
<path d="M30.9407 39V28.78H32.9287V39H30.9407ZM32.6487 34.744V33.064L36.7367 33.05V34.73L32.6487 34.744ZM32.6487 30.46V28.78H36.9327V30.46H32.6487ZM38.5249 39V31.398H40.0649V34.618H40.0229C40.0229 33.526 40.2563 32.7 40.7229 32.14C41.1896 31.58 41.8756 31.3 42.7809 31.3H43.0609V32.994H42.5289C41.8756 32.994 41.3669 33.1713 41.0029 33.526C40.6483 33.8713 40.4709 34.3753 40.4709 35.038V39H38.5249ZM47.9621 39.266C47.2901 39.266 46.6975 39.1587 46.1841 38.944C45.6708 38.7293 45.2368 38.44 44.8821 38.076C44.5275 37.7027 44.2568 37.2827 44.0701 36.816C43.8928 36.3493 43.8041 35.864 43.8041 35.36V35.066C43.8041 34.5433 43.8975 34.0487 44.0841 33.582C44.2801 33.106 44.5555 32.686 44.9101 32.322C45.2741 31.9487 45.7128 31.6593 46.2261 31.454C46.7395 31.2393 47.3181 31.132 47.9621 31.132C48.6061 31.132 49.1848 31.2393 49.6981 31.454C50.2115 31.6593 50.6455 31.9487 51.0001 32.322C51.3641 32.686 51.6395 33.106 51.8261 33.582C52.0128 34.0487 52.1061 34.5433 52.1061 35.066V35.36C52.1061 35.864 52.0128 36.3493 51.8261 36.816C51.6488 37.2827 51.3828 37.7027 51.0281 38.076C50.6735 38.44 50.2395 38.7293 49.7261 38.944C49.2128 39.1587 48.6248 39.266 47.9621 39.266ZM47.9621 37.6C48.4381 37.6 48.8395 37.4973 49.1661 37.292C49.4928 37.0773 49.7401 36.7927 49.9081 36.438C50.0761 36.074 50.1601 35.6633 50.1601 35.206C50.1601 34.7393 50.0715 34.3287 49.8941 33.974C49.7261 33.61 49.4741 33.3253 49.1381 33.12C48.8115 32.9053 48.4195 32.798 47.9621 32.798C47.5048 32.798 47.1081 32.9053 46.7721 33.12C46.4455 33.3253 46.1935 33.61 46.0161 33.974C45.8388 34.3287 45.7501 34.7393 45.7501 35.206C45.7501 35.6633 45.8341 36.074 46.0021 36.438C46.1795 36.7927 46.4315 37.0773 46.7581 37.292C47.0848 37.4973 47.4861 37.6 47.9621 37.6ZM53.8101 39V31.398H55.3501V34.66H55.2101C55.2101 33.8853 55.3128 33.2413 55.5181 32.728C55.7234 32.2053 56.0268 31.8133 56.4281 31.552C56.8388 31.2907 57.3474 31.16 57.9541 31.16H58.0381C58.9434 31.16 59.6294 31.454 60.0961 32.042C60.5628 32.6207 60.7961 33.4887 60.7961 34.646V39H58.8501V34.478C58.8501 34.0113 58.7148 33.6333 58.4441 33.344C58.1828 33.0547 57.8188 32.91 57.3521 32.91C56.8761 32.91 56.4888 33.0593 56.1901 33.358C55.9008 33.6473 55.7561 34.0393 55.7561 34.534V39H53.8101ZM66.1922 39.098C65.4922 39.098 64.9136 39.0093 64.4562 38.832C64.0082 38.6453 63.6722 38.3373 63.4482 37.908C63.2242 37.4693 63.1122 36.8813 63.1122 36.144L63.1262 29.256H64.9462L64.9322 36.27C64.9322 36.6433 65.0302 36.9327 65.2262 37.138C65.4316 37.334 65.7209 37.432 66.0942 37.432H67.2842V39.098H66.1922ZM61.9082 32.826V31.398H67.2842V32.826H61.9082ZM72.2785 39.266C71.6252 39.266 71.0512 39.154 70.5565 38.93C70.0712 38.706 69.6652 38.4073 69.3385 38.034C69.0212 37.6513 68.7785 37.2267 68.6105 36.76C68.4518 36.2933 68.3725 35.8173 68.3725 35.332V35.066C68.3725 34.562 68.4518 34.0767 68.6105 33.61C68.7785 33.134 69.0212 32.714 69.3385 32.35C69.6652 31.9767 70.0665 31.6827 70.5425 31.468C71.0185 31.244 71.5692 31.132 72.1945 31.132C73.0158 31.132 73.7018 31.314 74.2525 31.678C74.8125 32.0327 75.2325 32.504 75.5125 33.092C75.7925 33.6707 75.9325 34.296 75.9325 34.968V35.668H69.1985V34.478H74.7145L74.1125 35.066C74.1125 34.5807 74.0425 34.1653 73.9025 33.82C73.7625 33.4747 73.5478 33.2087 73.2585 33.022C72.9785 32.8353 72.6238 32.742 72.1945 32.742C71.7652 32.742 71.4012 32.84 71.1025 33.036C70.8038 33.232 70.5752 33.5167 70.4165 33.89C70.2672 34.254 70.1925 34.6927 70.1925 35.206C70.1925 35.682 70.2672 36.1067 70.4165 36.48C70.5658 36.844 70.7945 37.1333 71.1025 37.348C71.4105 37.5533 71.8025 37.656 72.2785 37.656C72.7545 37.656 73.1418 37.5627 73.4405 37.376C73.7392 37.18 73.9305 36.942 74.0145 36.662H75.8065C75.6945 37.1847 75.4798 37.642 75.1625 38.034C74.8452 38.426 74.4392 38.7293 73.9445 38.944C73.4592 39.1587 72.9038 39.266 72.2785 39.266ZM77.5581 39V31.398H79.0981V34.66H78.9581C78.9581 33.8853 79.0608 33.2413 79.2661 32.728C79.4715 32.2053 79.7748 31.8133 80.1761 31.552C80.5868 31.2907 81.0955 31.16 81.7021 31.16H81.7861C82.6915 31.16 83.3775 31.454 83.8441 32.042C84.3108 32.6207 84.5441 33.4887 84.5441 34.646V39H82.5981V34.478C82.5981 34.0113 82.4628 33.6333 82.1921 33.344C81.9308 33.0547 81.5668 32.91 81.1001 32.91C80.6241 32.91 80.2368 33.0593 79.9381 33.358C79.6488 33.6473 79.5041 34.0393 79.5041 34.534V39H77.5581ZM89.7863 39.252C89.2543 39.252 88.7643 39.154 88.3163 38.958C87.8683 38.762 87.4809 38.4867 87.1543 38.132C86.8276 37.7773 86.5756 37.3667 86.3983 36.9C86.2209 36.424 86.1323 35.9107 86.1323 35.36V35.066C86.1323 34.5247 86.2163 34.016 86.3843 33.54C86.5616 33.064 86.8043 32.6487 87.1123 32.294C87.4296 31.9393 87.8076 31.664 88.2463 31.468C88.6943 31.2627 89.1889 31.16 89.7303 31.16C90.3276 31.16 90.8503 31.2907 91.2983 31.552C91.7556 31.804 92.1196 32.1867 92.3903 32.7C92.6609 33.2133 92.8103 33.8573 92.8383 34.632L92.2643 33.96V28.78H94.2103V39H92.6703V35.766H93.0063C92.9783 36.5407 92.8196 37.1893 92.5303 37.712C92.2409 38.2253 91.8583 38.6127 91.3823 38.874C90.9156 39.126 90.3836 39.252 89.7863 39.252ZM90.2203 37.614C90.6029 37.614 90.9529 37.53 91.2703 37.362C91.5876 37.1847 91.8396 36.9327 92.0263 36.606C92.2223 36.27 92.3203 35.878 92.3203 35.43V34.87C92.3203 34.422 92.2223 34.0487 92.0263 33.75C91.8303 33.442 91.5736 33.2087 91.2563 33.05C90.9389 32.882 90.5936 32.798 90.2203 32.798C89.8003 32.798 89.4269 32.9007 89.1003 33.106C88.7829 33.302 88.5309 33.582 88.3443 33.946C88.1669 34.31 88.0783 34.7347 88.0783 35.22C88.0783 35.7053 88.1716 36.13 88.3583 36.494C88.5449 36.8487 88.7969 37.124 89.1143 37.32C89.4409 37.516 89.8096 37.614 90.2203 37.614ZM101.309 39.056V37.208H103.423C103.955 37.208 104.426 37.1287 104.837 36.97C105.257 36.802 105.611 36.5687 105.901 36.27C106.19 35.9713 106.409 35.6213 106.559 35.22C106.717 34.8093 106.797 34.3567 106.797 33.862C106.797 33.3487 106.717 32.8913 106.559 32.49C106.409 32.0793 106.19 31.7293 105.901 31.44C105.611 31.1507 105.257 30.9313 104.837 30.782C104.426 30.6327 103.955 30.558 103.423 30.558H101.309V28.71H103.297C104.221 28.71 105.028 28.8453 105.719 29.116C106.409 29.3867 106.983 29.76 107.441 30.236C107.898 30.7027 108.239 31.2393 108.463 31.846C108.696 32.4433 108.813 33.064 108.813 33.708V34.016C108.813 34.632 108.696 35.2387 108.463 35.836C108.239 36.4333 107.898 36.9747 107.441 37.46C106.983 37.9453 106.409 38.3327 105.719 38.622C105.028 38.9113 104.221 39.056 103.297 39.056H101.309ZM99.6008 39.056V28.71H101.589V39.056H99.6008ZM113.841 39.266C113.188 39.266 112.614 39.154 112.119 38.93C111.634 38.706 111.228 38.4073 110.901 38.034C110.584 37.6513 110.341 37.2267 110.173 36.76C110.014 36.2933 109.935 35.8173 109.935 35.332V35.066C109.935 34.562 110.014 34.0767 110.173 33.61C110.341 33.134 110.584 32.714 110.901 32.35C111.228 31.9767 111.629 31.6827 112.105 31.468C112.581 31.244 113.132 31.132 113.757 31.132C114.578 31.132 115.264 31.314 115.815 31.678C116.375 32.0327 116.795 32.504 117.075 33.092C117.355 33.6707 117.495 34.296 117.495 34.968V35.668H110.761V34.478H116.277L115.675 35.066C115.675 34.5807 115.605 34.1653 115.465 33.82C115.325 33.4747 115.11 33.2087 114.821 33.022C114.541 32.8353 114.186 32.742 113.757 32.742C113.328 32.742 112.964 32.84 112.665 33.036C112.366 33.232 112.138 33.5167 111.979 33.89C111.83 34.254 111.755 34.6927 111.755 35.206C111.755 35.682 111.83 36.1067 111.979 36.48C112.128 36.844 112.357 37.1333 112.665 37.348C112.973 37.5533 113.365 37.656 113.841 37.656C114.317 37.656 114.704 37.5627 115.003 37.376C115.302 37.18 115.493 36.942 115.577 36.662H117.369C117.257 37.1847 117.042 37.642 116.725 38.034C116.408 38.426 116.002 38.7293 115.507 38.944C115.022 39.1587 114.466 39.266 113.841 39.266ZM120.578 39L118.198 31.398H120.2L122.482 39H120.578ZM121.152 39V37.404H123.21V39H121.152ZM121.922 39L123.882 31.398H125.758L123.7 39H121.922ZM130.466 39.266C129.813 39.266 129.239 39.154 128.744 38.93C128.259 38.706 127.853 38.4073 127.526 38.034C127.209 37.6513 126.966 37.2267 126.798 36.76C126.639 36.2933 126.56 35.8173 126.56 35.332V35.066C126.56 34.562 126.639 34.0767 126.798 33.61C126.966 33.134 127.209 32.714 127.526 32.35C127.853 31.9767 128.254 31.6827 128.73 31.468C129.206 31.244 129.757 31.132 130.382 31.132C131.203 31.132 131.889 31.314 132.44 31.678C133 32.0327 133.42 32.504 133.7 33.092C133.98 33.6707 134.12 34.296 134.12 34.968V35.668H127.386V34.478H132.902L132.3 35.066C132.3 34.5807 132.23 34.1653 132.09 33.82C131.95 33.4747 131.735 33.2087 131.446 33.022C131.166 32.8353 130.811 32.742 130.382 32.742C129.953 32.742 129.589 32.84 129.29 33.036C128.991 33.232 128.763 33.5167 128.604 33.89C128.455 34.254 128.38 34.6927 128.38 35.206C128.38 35.682 128.455 36.1067 128.604 36.48C128.753 36.844 128.982 37.1333 129.29 37.348C129.598 37.5533 129.99 37.656 130.466 37.656C130.942 37.656 131.329 37.5627 131.628 37.376C131.927 37.18 132.118 36.942 132.202 36.662H133.994C133.882 37.1847 133.667 37.642 133.35 38.034C133.033 38.426 132.627 38.7293 132.132 38.944C131.647 39.1587 131.091 39.266 130.466 39.266ZM135.844 39V28.78H137.79V39H135.844ZM134.892 30.236V28.78H137.79V30.236H134.892ZM143.665 39.266C142.993 39.266 142.401 39.1587 141.887 38.944C141.374 38.7293 140.94 38.44 140.585 38.076C140.231 37.7027 139.96 37.2827 139.773 36.816C139.596 36.3493 139.507 35.864 139.507 35.36V35.066C139.507 34.5433 139.601 34.0487 139.787 33.582C139.983 33.106 140.259 32.686 140.613 32.322C140.977 31.9487 141.416 31.6593 141.929 31.454C142.443 31.2393 143.021 31.132 143.665 31.132C144.309 31.132 144.888 31.2393 145.401 31.454C145.915 31.6593 146.349 31.9487 146.703 32.322C147.067 32.686 147.343 33.106 147.529 33.582C147.716 34.0487 147.809 34.5433 147.809 35.066V35.36C147.809 35.864 147.716 36.3493 147.529 36.816C147.352 37.2827 147.086 37.7027 146.731 38.076C146.377 38.44 145.943 38.7293 145.429 38.944C144.916 39.1587 144.328 39.266 143.665 39.266ZM143.665 37.6C144.141 37.6 144.543 37.4973 144.869 37.292C145.196 37.0773 145.443 36.7927 145.611 36.438C145.779 36.074 145.863 35.6633 145.863 35.206C145.863 34.7393 145.775 34.3287 145.597 33.974C145.429 33.61 145.177 33.3253 144.841 33.12C144.515 32.9053 144.123 32.798 143.665 32.798C143.208 32.798 142.811 32.9053 142.475 33.12C142.149 33.3253 141.897 33.61 141.719 33.974C141.542 34.3287 141.453 34.7393 141.453 35.206C141.453 35.6633 141.537 36.074 141.705 36.438C141.883 36.7927 142.135 37.0773 142.461 37.292C142.788 37.4973 143.189 37.6 143.665 37.6ZM149.513 41.8V31.398H151.053V34.674L150.815 34.66C150.853 33.8853 151.011 33.2367 151.291 32.714C151.581 32.1913 151.963 31.804 152.439 31.552C152.915 31.2907 153.447 31.16 154.035 31.16C154.577 31.16 155.062 31.258 155.491 31.454C155.93 31.65 156.303 31.9253 156.611 32.28C156.929 32.6347 157.171 33.05 157.339 33.526C157.507 33.9927 157.591 34.4967 157.591 35.038V35.332C157.591 35.8827 157.507 36.396 157.339 36.872C157.181 37.3387 156.943 37.754 156.625 38.118C156.317 38.4727 155.944 38.7527 155.505 38.958C155.067 39.154 154.577 39.252 154.035 39.252C153.466 39.252 152.943 39.1353 152.467 38.902C152.001 38.6593 151.623 38.2907 151.333 37.796C151.044 37.292 150.881 36.6433 150.843 35.85L151.459 36.788V41.8H149.513ZM153.545 37.614C153.965 37.614 154.329 37.5113 154.637 37.306C154.955 37.1007 155.202 36.816 155.379 36.452C155.557 36.0787 155.645 35.6587 155.645 35.192C155.645 34.7067 155.557 34.2867 155.379 33.932C155.202 33.5773 154.955 33.302 154.637 33.106C154.329 32.9007 153.965 32.798 153.545 32.798C153.163 32.798 152.808 32.882 152.481 33.05C152.164 33.218 151.903 33.4653 151.697 33.792C151.501 34.1187 151.403 34.5107 151.403 34.968V35.528C151.403 35.9667 151.506 36.34 151.711 36.648C151.917 36.956 152.183 37.194 152.509 37.362C152.836 37.53 153.181 37.614 153.545 37.614ZM162.704 39.266C162.051 39.266 161.477 39.154 160.982 38.93C160.497 38.706 160.091 38.4073 159.764 38.034C159.447 37.6513 159.204 37.2267 159.036 36.76C158.878 36.2933 158.798 35.8173 158.798 35.332V35.066C158.798 34.562 158.878 34.0767 159.036 33.61C159.204 33.134 159.447 32.714 159.764 32.35C160.091 31.9767 160.492 31.6827 160.968 31.468C161.444 31.244 161.995 31.132 162.62 31.132C163.442 31.132 164.128 31.314 164.678 31.678C165.238 32.0327 165.658 32.504 165.938 33.092C166.218 33.6707 166.358 34.296 166.358 34.968V35.668H159.624V34.478H165.14L164.538 35.066C164.538 34.5807 164.468 34.1653 164.328 33.82C164.188 33.4747 163.974 33.2087 163.684 33.022C163.404 32.8353 163.05 32.742 162.62 32.742C162.191 32.742 161.827 32.84 161.528 33.036C161.23 33.232 161.001 33.5167 160.842 33.89C160.693 34.254 160.618 34.6927 160.618 35.206C160.618 35.682 160.693 36.1067 160.842 36.48C160.992 36.844 161.22 37.1333 161.528 37.348C161.836 37.5533 162.228 37.656 162.704 37.656C163.18 37.656 163.568 37.5627 163.866 37.376C164.165 37.18 164.356 36.942 164.44 36.662H166.232C166.12 37.1847 165.906 37.642 165.588 38.034C165.271 38.426 164.865 38.7293 164.37 38.944C163.885 39.1587 163.33 39.266 162.704 39.266ZM167.984 39V31.398H169.524V34.618H169.482C169.482 33.526 169.715 32.7 170.182 32.14C170.649 31.58 171.335 31.3 172.24 31.3H172.52V32.994H171.988C171.335 32.994 170.826 33.1713 170.462 33.526C170.107 33.8713 169.93 34.3753 169.93 35.038V39H167.984Z" fill="white"/>
<path d="M18.4094 8.89977C19.8893 8.52981 19.9366 6.44401 18.4751 6.00733L4.3778 1.79535C3.23466 1.4538 2.16962 2.51885 2.51117 3.66198L6.72315 17.7592C7.15983 19.2208 9.24563 19.1734 9.61559 17.6936L11.1561 11.5317C11.2904 10.9942 11.7101 10.5746 12.2475 10.4403L18.4094 8.89977Z" fill="#1C1E22"/>
</svg>
