<svg width="115" height="52" viewBox="0 0 115 52" fill="none" xmlns="http://www.w3.org/2000/svg">
<rect x="16" y="16" width="99" height="36" rx="10" fill="#00E599"/>
<path d="M31.593 39.056V37.208H33.707C34.239 37.208 34.7103 37.1287 35.121 36.97C35.541 36.802 35.8957 36.5687 36.185 36.27C36.4743 35.9713 36.6937 35.6213 36.843 35.22C37.0017 34.8093 37.081 34.3567 37.081 33.862C37.081 33.3487 37.0017 32.8913 36.843 32.49C36.6937 32.0793 36.4743 31.7293 36.185 31.44C35.8957 31.1507 35.541 30.9313 35.121 30.782C34.7103 30.6327 34.239 30.558 33.707 30.558H31.593V28.71H33.581C34.505 28.71 35.3123 28.8453 36.003 29.116C36.6937 29.3867 37.2677 29.76 37.725 30.236C38.1823 30.7027 38.523 31.2393 38.747 31.846C38.9803 32.4433 39.097 33.064 39.097 33.708V34.016C39.097 34.632 38.9803 35.2387 38.747 35.836C38.523 36.4333 38.1823 36.9747 37.725 37.46C37.2677 37.9453 36.6937 38.3327 36.003 38.622C35.3123 38.9113 34.505 39.056 33.581 39.056H31.593ZM29.885 39.056V28.71H31.873V39.056H29.885ZM44.1252 39.266C43.4719 39.266 42.8979 39.154 42.4032 38.93C41.9179 38.706 41.5119 38.4073 41.1852 38.034C40.8679 37.6513 40.6252 37.2267 40.4572 36.76C40.2985 36.2933 40.2192 35.8173 40.2192 35.332V35.066C40.2192 34.562 40.2985 34.0767 40.4572 33.61C40.6252 33.134 40.8679 32.714 41.1852 32.35C41.5119 31.9767 41.9132 31.6827 42.3892 31.468C42.8652 31.244 43.4159 31.132 44.0412 31.132C44.8625 31.132 45.5485 31.314 46.0992 31.678C46.6592 32.0327 47.0792 32.504 47.3592 33.092C47.6392 33.6707 47.7792 34.296 47.7792 34.968V35.668H41.0452V34.478H46.5612L45.9592 35.066C45.9592 34.5807 45.8892 34.1653 45.7492 33.82C45.6092 33.4747 45.3945 33.2087 45.1052 33.022C44.8252 32.8353 44.4705 32.742 44.0412 32.742C43.6119 32.742 43.2479 32.84 42.9492 33.036C42.6505 33.232 42.4219 33.5167 42.2632 33.89C42.1139 34.254 42.0392 34.6927 42.0392 35.206C42.0392 35.682 42.1139 36.1067 42.2632 36.48C42.4125 36.844 42.6412 37.1333 42.9492 37.348C43.2572 37.5533 43.6492 37.656 44.1252 37.656C44.6012 37.656 44.9885 37.5627 45.2872 37.376C45.5859 37.18 45.7772 36.942 45.8612 36.662H47.6532C47.5412 37.1847 47.3265 37.642 47.0092 38.034C46.6919 38.426 46.2859 38.7293 45.7912 38.944C45.3059 39.1587 44.7505 39.266 44.1252 39.266ZM50.8625 39L48.4825 31.398H50.4845L52.7665 39H50.8625ZM51.4365 39V37.404H53.4945V39H51.4365ZM52.2065 39L54.1665 31.398H56.0425L53.9845 39H52.2065ZM60.7502 39.266C60.0969 39.266 59.5229 39.154 59.0282 38.93C58.5429 38.706 58.1369 38.4073 57.8102 38.034C57.4929 37.6513 57.2502 37.2267 57.0822 36.76C56.9235 36.2933 56.8442 35.8173 56.8442 35.332V35.066C56.8442 34.562 56.9235 34.0767 57.0822 33.61C57.2502 33.134 57.4929 32.714 57.8102 32.35C58.1369 31.9767 58.5382 31.6827 59.0142 31.468C59.4902 31.244 60.0409 31.132 60.6662 31.132C61.4875 31.132 62.1735 31.314 62.7242 31.678C63.2842 32.0327 63.7042 32.504 63.9842 33.092C64.2642 33.6707 64.4042 34.296 64.4042 34.968V35.668H57.6702V34.478H63.1862L62.5842 35.066C62.5842 34.5807 62.5142 34.1653 62.3742 33.82C62.2342 33.4747 62.0195 33.2087 61.7302 33.022C61.4502 32.8353 61.0955 32.742 60.6662 32.742C60.2369 32.742 59.8729 32.84 59.5742 33.036C59.2755 33.232 59.0469 33.5167 58.8882 33.89C58.7389 34.254 58.6642 34.6927 58.6642 35.206C58.6642 35.682 58.7389 36.1067 58.8882 36.48C59.0375 36.844 59.2662 37.1333 59.5742 37.348C59.8822 37.5533 60.2742 37.656 60.7502 37.656C61.2262 37.656 61.6135 37.5627 61.9122 37.376C62.2109 37.18 62.4022 36.942 62.4862 36.662H64.2782C64.1662 37.1847 63.9515 37.642 63.6342 38.034C63.3169 38.426 62.9109 38.7293 62.4162 38.944C61.9309 39.1587 61.3755 39.266 60.7502 39.266ZM66.1278 39V28.78H68.0738V39H66.1278ZM65.1758 30.236V28.78H68.0738V30.236H65.1758ZM73.9495 39.266C73.2775 39.266 72.6848 39.1587 72.1715 38.944C71.6581 38.7293 71.2241 38.44 70.8695 38.076C70.5148 37.7027 70.2441 37.2827 70.0575 36.816C69.8801 36.3493 69.7915 35.864 69.7915 35.36V35.066C69.7915 34.5433 69.8848 34.0487 70.0715 33.582C70.2675 33.106 70.5428 32.686 70.8975 32.322C71.2615 31.9487 71.7001 31.6593 72.2135 31.454C72.7268 31.2393 73.3055 31.132 73.9495 31.132C74.5935 31.132 75.1721 31.2393 75.6855 31.454C76.1988 31.6593 76.6328 31.9487 76.9875 32.322C77.3515 32.686 77.6268 33.106 77.8135 33.582C78.0001 34.0487 78.0935 34.5433 78.0935 35.066V35.36C78.0935 35.864 78.0001 36.3493 77.8135 36.816C77.6361 37.2827 77.3701 37.7027 77.0155 38.076C76.6608 38.44 76.2268 38.7293 75.7135 38.944C75.2001 39.1587 74.6121 39.266 73.9495 39.266ZM73.9495 37.6C74.4255 37.6 74.8268 37.4973 75.1535 37.292C75.4801 37.0773 75.7275 36.7927 75.8955 36.438C76.0635 36.074 76.1475 35.6633 76.1475 35.206C76.1475 34.7393 76.0588 34.3287 75.8815 33.974C75.7135 33.61 75.4615 33.3253 75.1255 33.12C74.7988 32.9053 74.4068 32.798 73.9495 32.798C73.4921 32.798 73.0955 32.9053 72.7595 33.12C72.4328 33.3253 72.1808 33.61 72.0035 33.974C71.8261 34.3287 71.7375 34.7393 71.7375 35.206C71.7375 35.6633 71.8215 36.074 71.9895 36.438C72.1668 36.7927 72.4188 37.0773 72.7455 37.292C73.0721 37.4973 73.4735 37.6 73.9495 37.6ZM79.7974 41.8V31.398H81.3374V34.674L81.0994 34.66C81.1367 33.8853 81.2954 33.2367 81.5754 32.714C81.8647 32.1913 82.2474 31.804 82.7234 31.552C83.1994 31.2907 83.7314 31.16 84.3194 31.16C84.8607 31.16 85.3461 31.258 85.7754 31.454C86.2141 31.65 86.5874 31.9253 86.8954 32.28C87.2127 32.6347 87.4554 33.05 87.6234 33.526C87.7914 33.9927 87.8754 34.4967 87.8754 35.038V35.332C87.8754 35.8827 87.7914 36.396 87.6234 36.872C87.4647 37.3387 87.2267 37.754 86.9094 38.118C86.6014 38.4727 86.2281 38.7527 85.7894 38.958C85.3507 39.154 84.8607 39.252 84.3194 39.252C83.7501 39.252 83.2274 39.1353 82.7514 38.902C82.2847 38.6593 81.9067 38.2907 81.6174 37.796C81.3281 37.292 81.1647 36.6433 81.1274 35.85L81.7434 36.788V41.8H79.7974ZM83.8294 37.614C84.2494 37.614 84.6134 37.5113 84.9214 37.306C85.2387 37.1007 85.4861 36.816 85.6634 36.452C85.8407 36.0787 85.9294 35.6587 85.9294 35.192C85.9294 34.7067 85.8407 34.2867 85.6634 33.932C85.4861 33.5773 85.2387 33.302 84.9214 33.106C84.6134 32.9007 84.2494 32.798 83.8294 32.798C83.4467 32.798 83.0921 32.882 82.7654 33.05C82.4481 33.218 82.1867 33.4653 81.9814 33.792C81.7854 34.1187 81.6874 34.5107 81.6874 34.968V35.528C81.6874 35.9667 81.7901 36.34 81.9954 36.648C82.2007 36.956 82.4667 37.194 82.7934 37.362C83.1201 37.53 83.4654 37.614 83.8294 37.614ZM92.9885 39.266C92.3351 39.266 91.7611 39.154 91.2665 38.93C90.7811 38.706 90.3751 38.4073 90.0485 38.034C89.7311 37.6513 89.4885 37.2267 89.3205 36.76C89.1618 36.2933 89.0825 35.8173 89.0825 35.332V35.066C89.0825 34.562 89.1618 34.0767 89.3205 33.61C89.4885 33.134 89.7311 32.714 90.0485 32.35C90.3751 31.9767 90.7765 31.6827 91.2525 31.468C91.7285 31.244 92.2791 31.132 92.9045 31.132C93.7258 31.132 94.4118 31.314 94.9625 31.678C95.5225 32.0327 95.9425 32.504 96.2225 33.092C96.5025 33.6707 96.6425 34.296 96.6425 34.968V35.668H89.9085V34.478H95.4245L94.8225 35.066C94.8225 34.5807 94.7525 34.1653 94.6125 33.82C94.4725 33.4747 94.2578 33.2087 93.9685 33.022C93.6885 32.8353 93.3338 32.742 92.9045 32.742C92.4751 32.742 92.1111 32.84 91.8125 33.036C91.5138 33.232 91.2851 33.5167 91.1265 33.89C90.9771 34.254 90.9025 34.6927 90.9025 35.206C90.9025 35.682 90.9771 36.1067 91.1265 36.48C91.2758 36.844 91.5045 37.1333 91.8125 37.348C92.1205 37.5533 92.5125 37.656 92.9885 37.656C93.4645 37.656 93.8518 37.5627 94.1505 37.376C94.4491 37.18 94.6405 36.942 94.7245 36.662H96.5165C96.4045 37.1847 96.1898 37.642 95.8725 38.034C95.5551 38.426 95.1491 38.7293 94.6545 38.944C94.1691 39.1587 93.6138 39.266 92.9885 39.266ZM98.2681 39V31.398H99.8081V34.618H99.7661C99.7661 33.526 99.9994 32.7 100.466 32.14C100.933 31.58 101.619 31.3 102.524 31.3H102.804V32.994H102.272C101.619 32.994 101.11 33.1713 100.746 33.526C100.391 33.8713 100.214 34.3753 100.214 35.038V39H98.2681Z" fill="#14161A"/>
<path d="M17.6936 8.89971C19.1734 8.52975 19.2208 6.44395 17.7592 6.00727L3.66198 1.79529C2.51884 1.45374 1.4538 2.51879 1.79535 3.66192L6.00733 17.7592C6.44401 19.2207 8.52981 19.1734 8.89977 17.6936L10.4403 11.5316C10.5746 10.9942 10.9942 10.5746 11.5317 10.4402L17.6936 8.89971Z" fill="#00E599"/>
</svg>
