<svg width="170" height="52" viewBox="0 0 170 52" fill="none" xmlns="http://www.w3.org/2000/svg">
<rect x="16" y="16" width="154" height="36" rx="10" fill="#FFD91A"/>
<path d="M29.801 39V28.78H32.517L35.079 34.884H35.331L37.879 28.78H40.637V39H38.663V30.278L38.915 30.306L36.157 36.914H34.127L31.355 30.306L31.621 30.278V39H29.801ZM43.3684 39V31.398H45.3144V39H43.3684ZM42.3044 32.854V31.398H45.3144V32.854H42.3044ZM44.0824 30.488C43.6998 30.488 43.4151 30.39 43.2284 30.194C43.0511 29.9887 42.9624 29.7367 42.9624 29.438C42.9624 29.1207 43.0511 28.864 43.2284 28.668C43.4151 28.472 43.6998 28.374 44.0824 28.374C44.4651 28.374 44.7451 28.472 44.9224 28.668C45.0998 28.864 45.1884 29.1207 45.1884 29.438C45.1884 29.7367 45.0998 29.9887 44.9224 30.194C44.7451 30.39 44.4651 30.488 44.0824 30.488ZM50.9312 39.266C50.2685 39.266 49.6945 39.154 49.2092 38.93C48.7332 38.706 48.3318 38.4073 48.0052 38.034C47.6878 37.6607 47.4498 37.2407 47.2912 36.774C47.1325 36.3073 47.0532 35.8313 47.0532 35.346V35.08C47.0532 34.5667 47.1325 34.0767 47.2912 33.61C47.4592 33.134 47.7065 32.714 48.0332 32.35C48.3598 31.9767 48.7612 31.6827 49.2372 31.468C49.7225 31.244 50.2825 31.132 50.9172 31.132C51.5798 31.132 52.1725 31.2627 52.6952 31.524C53.2178 31.776 53.6332 32.1307 53.9412 32.588C54.2585 33.0453 54.4358 33.5773 54.4732 34.184H52.5832C52.5365 33.792 52.3685 33.4653 52.0792 33.204C51.7992 32.9427 51.4118 32.812 50.9172 32.812C50.4878 32.812 50.1285 32.9147 49.8392 33.12C49.5592 33.3253 49.3492 33.61 49.2092 33.974C49.0692 34.3287 48.9992 34.7393 48.9992 35.206C48.9992 35.654 49.0645 36.06 49.1952 36.424C49.3352 36.788 49.5452 37.0727 49.8252 37.278C50.1145 37.4833 50.4832 37.586 50.9312 37.586C51.2672 37.586 51.5565 37.5253 51.7992 37.404C52.0418 37.2827 52.2332 37.1147 52.3732 36.9C52.5225 36.6853 52.6158 36.4427 52.6532 36.172H54.5432C54.5058 36.788 54.3238 37.3293 53.9972 37.796C53.6798 38.2533 53.2552 38.6127 52.7232 38.874C52.2005 39.1353 51.6032 39.266 50.9312 39.266ZM56.1021 39V31.398H57.6421V34.618H57.6001C57.6001 33.526 57.8334 32.7 58.3001 32.14C58.7668 31.58 59.4528 31.3 60.3581 31.3H60.6381V32.994H60.1061C59.4528 32.994 58.9441 33.1713 58.5801 33.526C58.2254 33.8713 58.0481 34.3753 58.0481 35.038V39H56.1021ZM65.5393 39.266C64.8673 39.266 64.2746 39.1587 63.7613 38.944C63.248 38.7293 62.814 38.44 62.4593 38.076C62.1046 37.7027 61.834 37.2827 61.6473 36.816C61.47 36.3493 61.3813 35.864 61.3813 35.36V35.066C61.3813 34.5433 61.4746 34.0487 61.6613 33.582C61.8573 33.106 62.1326 32.686 62.4873 32.322C62.8513 31.9487 63.29 31.6593 63.8033 31.454C64.3166 31.2393 64.8953 31.132 65.5393 31.132C66.1833 31.132 66.762 31.2393 67.2753 31.454C67.7886 31.6593 68.2226 31.9487 68.5773 32.322C68.9413 32.686 69.2166 33.106 69.4033 33.582C69.59 34.0487 69.6833 34.5433 69.6833 35.066V35.36C69.6833 35.864 69.59 36.3493 69.4033 36.816C69.226 37.2827 68.96 37.7027 68.6053 38.076C68.2506 38.44 67.8166 38.7293 67.3033 38.944C66.79 39.1587 66.202 39.266 65.5393 39.266ZM65.5393 37.6C66.0153 37.6 66.4166 37.4973 66.7433 37.292C67.07 37.0773 67.3173 36.7927 67.4853 36.438C67.6533 36.074 67.7373 35.6633 67.7373 35.206C67.7373 34.7393 67.6486 34.3287 67.4713 33.974C67.3033 33.61 67.0513 33.3253 66.7153 33.12C66.3886 32.9053 65.9966 32.798 65.5393 32.798C65.082 32.798 64.6853 32.9053 64.3493 33.12C64.0226 33.3253 63.7706 33.61 63.5933 33.974C63.416 34.3287 63.3273 34.7393 63.3273 35.206C63.3273 35.6633 63.4113 36.074 63.5793 36.438C63.7566 36.7927 64.0086 37.0773 64.3353 37.292C64.662 37.4973 65.0633 37.6 65.5393 37.6ZM71.7513 39V31.398H73.6973V39H71.7513ZM70.6873 32.854V31.398H73.6973V32.854H70.6873ZM72.4653 30.488C72.0826 30.488 71.7979 30.39 71.6113 30.194C71.4339 29.9887 71.3453 29.7367 71.3453 29.438C71.3453 29.1207 71.4339 28.864 71.6113 28.668C71.7979 28.472 72.0826 28.374 72.4653 28.374C72.8479 28.374 73.1279 28.472 73.3053 28.668C73.4826 28.864 73.5713 29.1207 73.5713 29.438C73.5713 29.7367 73.4826 29.9887 73.3053 30.194C73.1279 30.39 72.8479 30.488 72.4653 30.488ZM75.94 39V31.398H77.48V34.66H77.34C77.34 33.8853 77.4427 33.2413 77.648 32.728C77.8533 32.2053 78.1567 31.8133 78.558 31.552C78.9687 31.2907 79.4773 31.16 80.084 31.16H80.168C81.0733 31.16 81.7593 31.454 82.226 32.042C82.6927 32.6207 82.926 33.4887 82.926 34.646V39H80.98V34.478C80.98 34.0113 80.8447 33.6333 80.574 33.344C80.3127 33.0547 79.9487 32.91 79.482 32.91C79.006 32.91 78.6187 33.0593 78.32 33.358C78.0307 33.6473 77.886 34.0393 77.886 34.534V39H75.94ZM88.3221 39.098C87.6221 39.098 87.0434 39.0093 86.5861 38.832C86.1381 38.6453 85.8021 38.3373 85.5781 37.908C85.3541 37.4693 85.2421 36.8813 85.2421 36.144L85.2561 29.256H87.0761L87.0621 36.27C87.0621 36.6433 87.1601 36.9327 87.3561 37.138C87.5614 37.334 87.8508 37.432 88.2241 37.432H89.4141V39.098H88.3221ZM84.0381 32.826V31.398H89.4141V32.826H84.0381ZM94.4084 39.266C93.7551 39.266 93.1811 39.154 92.6864 38.93C92.2011 38.706 91.7951 38.4073 91.4684 38.034C91.1511 37.6513 90.9084 37.2267 90.7404 36.76C90.5817 36.2933 90.5024 35.8173 90.5024 35.332V35.066C90.5024 34.562 90.5817 34.0767 90.7404 33.61C90.9084 33.134 91.1511 32.714 91.4684 32.35C91.7951 31.9767 92.1964 31.6827 92.6724 31.468C93.1484 31.244 93.6991 31.132 94.3244 31.132C95.1457 31.132 95.8317 31.314 96.3824 31.678C96.9424 32.0327 97.3624 32.504 97.6424 33.092C97.9224 33.6707 98.0624 34.296 98.0624 34.968V35.668H91.3284V34.478H96.8444L96.2424 35.066C96.2424 34.5807 96.1724 34.1653 96.0324 33.82C95.8924 33.4747 95.6777 33.2087 95.3884 33.022C95.1084 32.8353 94.7537 32.742 94.3244 32.742C93.8951 32.742 93.5311 32.84 93.2324 33.036C92.9337 33.232 92.7051 33.5167 92.5464 33.89C92.3971 34.254 92.3224 34.6927 92.3224 35.206C92.3224 35.682 92.3971 36.1067 92.5464 36.48C92.6957 36.844 92.9244 37.1333 93.2324 37.348C93.5404 37.5533 93.9324 37.656 94.4084 37.656C94.8844 37.656 95.2717 37.5627 95.5704 37.376C95.8691 37.18 96.0604 36.942 96.1444 36.662H97.9364C97.8244 37.1847 97.6097 37.642 97.2924 38.034C96.9751 38.426 96.5691 38.7293 96.0744 38.944C95.5891 39.1587 95.0337 39.266 94.4084 39.266ZM99.688 39V31.398H101.228V34.618H101.186C101.186 33.526 101.419 32.7 101.886 32.14C102.353 31.58 103.039 31.3 103.944 31.3H104.224V32.994H103.692C103.039 32.994 102.53 33.1713 102.166 33.526C101.811 33.8713 101.634 34.3753 101.634 35.038V39H99.688ZM110.091 39V36.746H109.769V34.24C109.769 33.8013 109.662 33.4747 109.447 33.26C109.232 33.0453 108.901 32.938 108.453 32.938C108.22 32.938 107.94 32.9427 107.613 32.952C107.286 32.9613 106.955 32.9753 106.619 32.994C106.292 33.0033 105.998 33.0173 105.737 33.036V31.384C105.952 31.3653 106.194 31.3467 106.465 31.328C106.736 31.3093 107.011 31.3 107.291 31.3C107.58 31.2907 107.851 31.286 108.103 31.286C108.887 31.286 109.536 31.3887 110.049 31.594C110.572 31.7993 110.964 32.1213 111.225 32.56C111.496 32.9987 111.631 33.5727 111.631 34.282V39H110.091ZM107.641 39.196C107.09 39.196 106.605 39.098 106.185 38.902C105.774 38.706 105.452 38.426 105.219 38.062C104.995 37.698 104.883 37.2593 104.883 36.746C104.883 36.186 105.018 35.7287 105.289 35.374C105.569 35.0193 105.956 34.7533 106.451 34.576C106.955 34.3987 107.543 34.31 108.215 34.31H109.979V35.472H108.187C107.739 35.472 107.394 35.584 107.151 35.808C106.918 36.0227 106.801 36.3027 106.801 36.648C106.801 36.9933 106.918 37.2733 107.151 37.488C107.394 37.7027 107.739 37.81 108.187 37.81C108.458 37.81 108.705 37.7633 108.929 37.67C109.162 37.5673 109.354 37.3993 109.503 37.166C109.662 36.9233 109.75 36.5967 109.769 36.186L110.245 36.732C110.198 37.264 110.068 37.712 109.853 38.076C109.648 38.44 109.358 38.72 108.985 38.916C108.621 39.1027 108.173 39.196 107.641 39.196ZM117.089 39.266C116.427 39.266 115.853 39.154 115.367 38.93C114.891 38.706 114.49 38.4073 114.163 38.034C113.846 37.6607 113.608 37.2407 113.449 36.774C113.291 36.3073 113.211 35.8313 113.211 35.346V35.08C113.211 34.5667 113.291 34.0767 113.449 33.61C113.617 33.134 113.865 32.714 114.191 32.35C114.518 31.9767 114.919 31.6827 115.395 31.468C115.881 31.244 116.441 31.132 117.075 31.132C117.738 31.132 118.331 31.2627 118.853 31.524C119.376 31.776 119.791 32.1307 120.099 32.588C120.417 33.0453 120.594 33.5773 120.631 34.184H118.741C118.695 33.792 118.527 33.4653 118.237 33.204C117.957 32.9427 117.57 32.812 117.075 32.812C116.646 32.812 116.287 32.9147 115.997 33.12C115.717 33.3253 115.507 33.61 115.367 33.974C115.227 34.3287 115.157 34.7393 115.157 35.206C115.157 35.654 115.223 36.06 115.353 36.424C115.493 36.788 115.703 37.0727 115.983 37.278C116.273 37.4833 116.641 37.586 117.089 37.586C117.425 37.586 117.715 37.5253 117.957 37.404C118.2 37.2827 118.391 37.1147 118.531 36.9C118.681 36.6853 118.774 36.4427 118.811 36.172H120.701C120.664 36.788 120.482 37.3293 120.155 37.796C119.838 38.2533 119.413 38.6127 118.881 38.874C118.359 39.1353 117.761 39.266 117.089 39.266ZM125.564 39.098C124.864 39.098 124.286 39.0093 123.828 38.832C123.38 38.6453 123.044 38.3373 122.82 37.908C122.596 37.4693 122.484 36.8813 122.484 36.144L122.498 29.256H124.318L124.304 36.27C124.304 36.6433 124.402 36.9327 124.598 37.138C124.804 37.334 125.093 37.432 125.466 37.432H126.656V39.098H125.564ZM121.28 32.826V31.398H126.656V32.826H121.28ZM128.654 39V31.398H130.6V39H128.654ZM127.59 32.854V31.398H130.6V32.854H127.59ZM129.368 30.488C128.985 30.488 128.7 30.39 128.514 30.194C128.336 29.9887 128.248 29.7367 128.248 29.438C128.248 29.1207 128.336 28.864 128.514 28.668C128.7 28.472 128.985 28.374 129.368 28.374C129.75 28.374 130.03 28.472 130.208 28.668C130.385 28.864 130.474 29.1207 130.474 29.438C130.474 29.7367 130.385 29.9887 130.208 30.194C130.03 30.39 129.75 30.488 129.368 30.488ZM136.496 39.266C135.824 39.266 135.232 39.1587 134.718 38.944C134.205 38.7293 133.771 38.44 133.416 38.076C133.062 37.7027 132.791 37.2827 132.604 36.816C132.427 36.3493 132.338 35.864 132.338 35.36V35.066C132.338 34.5433 132.432 34.0487 132.618 33.582C132.814 33.106 133.09 32.686 133.444 32.322C133.808 31.9487 134.247 31.6593 134.76 31.454C135.274 31.2393 135.852 31.132 136.496 31.132C137.14 31.132 137.719 31.2393 138.232 31.454C138.746 31.6593 139.18 31.9487 139.534 32.322C139.898 32.686 140.174 33.106 140.36 33.582C140.547 34.0487 140.64 34.5433 140.64 35.066V35.36C140.64 35.864 140.547 36.3493 140.36 36.816C140.183 37.2827 139.917 37.7027 139.562 38.076C139.208 38.44 138.774 38.7293 138.26 38.944C137.747 39.1587 137.159 39.266 136.496 39.266ZM136.496 37.6C136.972 37.6 137.374 37.4973 137.7 37.292C138.027 37.0773 138.274 36.7927 138.442 36.438C138.61 36.074 138.694 35.6633 138.694 35.206C138.694 34.7393 138.606 34.3287 138.428 33.974C138.26 33.61 138.008 33.3253 137.672 33.12C137.346 32.9053 136.954 32.798 136.496 32.798C136.039 32.798 135.642 32.9053 135.306 33.12C134.98 33.3253 134.728 33.61 134.55 33.974C134.373 34.3287 134.284 34.7393 134.284 35.206C134.284 35.6633 134.368 36.074 134.536 36.438C134.714 36.7927 134.966 37.0773 135.292 37.292C135.619 37.4973 136.02 37.6 136.496 37.6ZM142.344 39V31.398H143.884V34.66H143.744C143.744 33.8853 143.847 33.2413 144.052 32.728C144.258 32.2053 144.561 31.8133 144.962 31.552C145.373 31.2907 145.882 31.16 146.488 31.16H146.572C147.478 31.16 148.164 31.454 148.63 32.042C149.097 32.6207 149.33 33.4887 149.33 34.646V39H147.384V34.478C147.384 34.0113 147.249 33.6333 146.978 33.344C146.717 33.0547 146.353 32.91 145.886 32.91C145.41 32.91 145.023 33.0593 144.724 33.358C144.435 33.6473 144.29 34.0393 144.29 34.534V39H142.344ZM154.18 39.238C153.135 39.238 152.314 39.0187 151.716 38.58C151.128 38.132 150.82 37.516 150.792 36.732H152.542C152.57 36.9933 152.715 37.2313 152.976 37.446C153.238 37.6607 153.648 37.768 154.208 37.768C154.675 37.768 155.044 37.684 155.314 37.516C155.594 37.348 155.734 37.1193 155.734 36.83C155.734 36.578 155.627 36.3773 155.412 36.228C155.207 36.0787 154.852 35.9807 154.348 35.934L153.676 35.864C152.827 35.7707 152.174 35.528 151.716 35.136C151.259 34.744 151.03 34.2213 151.03 33.568C151.03 33.0453 151.161 32.6067 151.422 32.252C151.684 31.8973 152.043 31.6313 152.5 31.454C152.967 31.2673 153.499 31.174 154.096 31.174C155.03 31.174 155.786 31.3793 156.364 31.79C156.943 32.2007 157.246 32.8027 157.274 33.596H155.524C155.506 33.3347 155.375 33.1107 155.132 32.924C154.89 32.7373 154.54 32.644 154.082 32.644C153.672 32.644 153.354 32.7233 153.13 32.882C152.906 33.0407 152.794 33.246 152.794 33.498C152.794 33.7407 152.883 33.9273 153.06 34.058C153.247 34.1887 153.546 34.2773 153.956 34.324L154.628 34.394C155.524 34.4873 156.224 34.7347 156.728 35.136C157.242 35.5373 157.498 36.0787 157.498 36.76C157.498 37.264 157.358 37.7027 157.078 38.076C156.808 38.44 156.425 38.7247 155.93 38.93C155.436 39.1353 154.852 39.238 154.18 39.238Z" fill="#0C0F14"/>
<path d="M17.6936 8.89977C19.1734 8.52981 19.2208 6.44401 17.7592 6.00733L3.66198 1.79535C2.51884 1.4538 1.4538 2.51885 1.79535 3.66198L6.00733 17.7592C6.44401 19.2208 8.52981 19.1734 8.89977 17.6936L10.4403 11.5317C10.5746 10.9942 10.9942 10.5746 11.5317 10.4403L17.6936 8.89977Z" fill="#FFD91A"/>
</svg>
