<svg width="148" height="52" viewBox="0 0 148 52" fill="none" xmlns="http://www.w3.org/2000/svg">
<rect x="16.7158" y="16" width="131" height="36" rx="10" fill="#1C1E22"/>
<path d="M31.8518 39.056V37.208H33.9658C34.4978 37.208 34.9691 37.1287 35.3798 36.97C35.7998 36.802 36.1545 36.5687 36.4438 36.27C36.7331 35.9713 36.9525 35.6213 37.1018 35.22C37.2605 34.8093 37.3398 34.3567 37.3398 33.862C37.3398 33.3487 37.2605 32.8913 37.1018 32.49C36.9525 32.0793 36.7331 31.7293 36.4438 31.44C36.1545 31.1507 35.7998 30.9313 35.3798 30.782C34.9691 30.6327 34.4978 30.558 33.9658 30.558H31.8518V28.71H33.8398C34.7638 28.71 35.5711 28.8453 36.2618 29.116C36.9525 29.3867 37.5265 29.76 37.9838 30.236C38.4411 30.7027 38.7818 31.2393 39.0058 31.846C39.2391 32.4433 39.3558 33.064 39.3558 33.708V34.016C39.3558 34.632 39.2391 35.2387 39.0058 35.836C38.7818 36.4333 38.4411 36.9747 37.9838 37.46C37.5265 37.9453 36.9525 38.3327 36.2618 38.622C35.5711 38.9113 34.7638 39.056 33.8398 39.056H31.8518ZM30.1438 39.056V28.71H32.1318V39.056H30.1438ZM44.384 39.266C43.7306 39.266 43.1566 39.154 42.662 38.93C42.1766 38.706 41.7706 38.4073 41.444 38.034C41.1266 37.6513 40.884 37.2267 40.716 36.76C40.5573 36.2933 40.478 35.8173 40.478 35.332V35.066C40.478 34.562 40.5573 34.0767 40.716 33.61C40.884 33.134 41.1266 32.714 41.444 32.35C41.7706 31.9767 42.172 31.6827 42.648 31.468C43.124 31.244 43.6746 31.132 44.3 31.132C45.1213 31.132 45.8073 31.314 46.358 31.678C46.918 32.0327 47.338 32.504 47.618 33.092C47.898 33.6707 48.038 34.296 48.038 34.968V35.668H41.304V34.478H46.82L46.218 35.066C46.218 34.5807 46.148 34.1653 46.008 33.82C45.868 33.4747 45.6533 33.2087 45.364 33.022C45.084 32.8353 44.7293 32.742 44.3 32.742C43.8706 32.742 43.5066 32.84 43.208 33.036C42.9093 33.232 42.6806 33.5167 42.522 33.89C42.3726 34.254 42.298 34.6927 42.298 35.206C42.298 35.682 42.3726 36.1067 42.522 36.48C42.6713 36.844 42.9 37.1333 43.208 37.348C43.516 37.5533 43.908 37.656 44.384 37.656C44.86 37.656 45.2473 37.5627 45.546 37.376C45.8446 37.18 46.036 36.942 46.12 36.662H47.912C47.8 37.1847 47.5853 37.642 47.268 38.034C46.9506 38.426 46.5446 38.7293 46.05 38.944C45.5646 39.1587 45.0093 39.266 44.384 39.266ZM52.4216 39.238C51.3763 39.238 50.555 39.0187 49.9576 38.58C49.3696 38.132 49.0616 37.516 49.0336 36.732H50.7836C50.8116 36.9933 50.9563 37.2313 51.2176 37.446C51.479 37.6607 51.8896 37.768 52.4496 37.768C52.9163 37.768 53.285 37.684 53.5556 37.516C53.8356 37.348 53.9756 37.1193 53.9756 36.83C53.9756 36.578 53.8683 36.3773 53.6536 36.228C53.4483 36.0787 53.0936 35.9807 52.5896 35.934L51.9176 35.864C51.0683 35.7707 50.415 35.528 49.9576 35.136C49.5003 34.744 49.2716 34.2213 49.2716 33.568C49.2716 33.0453 49.4023 32.6067 49.6636 32.252C49.925 31.8973 50.2843 31.6313 50.7416 31.454C51.2083 31.2673 51.7403 31.174 52.3376 31.174C53.271 31.174 54.027 31.3793 54.6056 31.79C55.1843 32.2007 55.4876 32.8027 55.5156 33.596H53.7656C53.747 33.3347 53.6163 33.1107 53.3736 32.924C53.131 32.7373 52.781 32.644 52.3236 32.644C51.913 32.644 51.5956 32.7233 51.3716 32.882C51.1476 33.0407 51.0356 33.246 51.0356 33.498C51.0356 33.7407 51.1243 33.9273 51.3016 34.058C51.4883 34.1887 51.787 34.2773 52.1976 34.324L52.8696 34.394C53.7656 34.4873 54.4656 34.7347 54.9696 35.136C55.483 35.5373 55.7396 36.0787 55.7396 36.76C55.7396 37.264 55.5996 37.7027 55.3196 38.076C55.049 38.44 54.6663 38.7247 54.1716 38.93C53.677 39.1353 53.0936 39.238 52.4216 39.238ZM57.7112 39V31.398H59.6572V39H57.7112ZM56.6472 32.854V31.398H59.6572V32.854H56.6472ZM58.4252 30.488C58.0425 30.488 57.7579 30.39 57.5712 30.194C57.3939 29.9887 57.3052 29.7367 57.3052 29.438C57.3052 29.1207 57.3939 28.864 57.5712 28.668C57.7579 28.472 58.0425 28.374 58.4252 28.374C58.8079 28.374 59.0879 28.472 59.2652 28.668C59.4425 28.864 59.5312 29.1207 59.5312 29.438C59.5312 29.7367 59.4425 29.9887 59.2652 30.194C59.0879 30.39 58.8079 30.488 58.4252 30.488ZM64.8679 41.996C64.5039 41.996 64.1306 41.982 63.7479 41.954C63.3746 41.926 63.0246 41.8887 62.6979 41.842V40.218C63.0339 40.2553 63.3933 40.288 63.7759 40.316C64.1586 40.3533 64.5179 40.372 64.8539 40.372C65.4793 40.372 65.9833 40.2973 66.3659 40.148C66.7579 39.9987 67.0426 39.7607 67.2199 39.434C67.4066 39.1167 67.4999 38.7107 67.4999 38.216V36.718L67.9199 35.766C67.8919 36.466 67.7473 37.0633 67.4859 37.558C67.2246 38.0433 66.8699 38.4167 66.4219 38.678C65.9739 38.93 65.4559 39.056 64.8679 39.056C64.3453 39.056 63.8693 38.958 63.4399 38.762C63.0199 38.566 62.6559 38.2953 62.3479 37.95C62.0493 37.6047 61.8159 37.1987 61.6479 36.732C61.4799 36.2653 61.3959 35.766 61.3959 35.234V34.94C61.3959 34.408 61.4799 33.9133 61.6479 33.456C61.8253 32.9893 62.0726 32.5833 62.3899 32.238C62.7073 31.8927 63.0853 31.6267 63.5239 31.44C63.9626 31.2533 64.4479 31.16 64.9799 31.16C65.6053 31.16 66.1466 31.2953 66.6039 31.566C67.0706 31.8367 67.4346 32.2287 67.6959 32.742C67.9573 33.2553 68.1019 33.8853 68.1299 34.632L67.7939 34.688V31.398H69.3339V38.104C69.3339 39.028 69.1753 39.7747 68.8579 40.344C68.5406 40.9133 68.0506 41.3287 67.3879 41.59C66.7346 41.8607 65.8946 41.996 64.8679 41.996ZM65.4279 37.39C65.8013 37.39 66.1419 37.306 66.4499 37.138C66.7579 36.97 67.0053 36.7273 67.1919 36.41C67.3786 36.0927 67.4719 35.71 67.4719 35.262V34.772C67.4719 34.3427 67.3739 33.9787 67.1779 33.68C66.9913 33.3813 66.7439 33.1573 66.4359 33.008C66.1279 32.8493 65.7919 32.77 65.4279 32.77C65.0173 32.77 64.6533 32.868 64.3359 33.064C64.0279 33.2507 63.7853 33.5167 63.6079 33.862C63.4306 34.2073 63.3419 34.618 63.3419 35.094C63.3419 35.5607 63.4306 35.9667 63.6079 36.312C63.7853 36.6573 64.0279 36.9233 64.3359 37.11C64.6533 37.2967 65.0173 37.39 65.4279 37.39ZM71.4566 39V31.398H72.9966V34.66H72.8566C72.8566 33.8853 72.9593 33.2413 73.1646 32.728C73.3699 32.2053 73.6733 31.8133 74.0746 31.552C74.4853 31.2907 74.9939 31.16 75.6006 31.16H75.6846C76.5899 31.16 77.2759 31.454 77.7426 32.042C78.2093 32.6207 78.4426 33.4887 78.4426 34.646V39H76.4966V34.478C76.4966 34.0113 76.3613 33.6333 76.0906 33.344C75.8293 33.0547 75.4653 32.91 74.9986 32.91C74.5226 32.91 74.1353 33.0593 73.8366 33.358C73.5473 33.6473 73.4026 34.0393 73.4026 34.534V39H71.4566ZM87.1962 39.266C86.2909 39.266 85.5255 39.1213 84.9002 38.832C84.2842 38.5427 83.8129 38.146 83.4862 37.642C83.1595 37.1287 82.9962 36.55 82.9962 35.906H84.9422C84.9422 36.1767 85.0169 36.4427 85.1662 36.704C85.3155 36.956 85.5535 37.1613 85.8802 37.32C86.2162 37.4787 86.6549 37.558 87.1962 37.558C87.6815 37.558 88.0875 37.488 88.4142 37.348C88.7409 37.208 88.9835 37.026 89.1422 36.802C89.3009 36.5687 89.3802 36.3073 89.3802 36.018C89.3802 35.654 89.2262 35.3647 88.9182 35.15C88.6102 34.926 88.1342 34.786 87.4902 34.73L86.5942 34.66C85.6142 34.576 84.8302 34.2727 84.2422 33.75C83.6635 33.218 83.3742 32.518 83.3742 31.65C83.3742 30.9967 83.5282 30.4367 83.8362 29.97C84.1442 29.494 84.5735 29.13 85.1242 28.878C85.6842 28.6167 86.3375 28.486 87.0842 28.486C87.8589 28.486 88.5262 28.6213 89.0862 28.892C89.6462 29.1627 90.0802 29.5453 90.3882 30.04C90.6962 30.5253 90.8502 31.0993 90.8502 31.762H88.9042C88.9042 31.482 88.8342 31.2253 88.6942 30.992C88.5635 30.7493 88.3629 30.558 88.0922 30.418C87.8309 30.2687 87.4949 30.194 87.0842 30.194C86.6922 30.194 86.3655 30.2593 86.1042 30.39C85.8429 30.5207 85.6469 30.698 85.5162 30.922C85.3855 31.146 85.3202 31.3887 85.3202 31.65C85.3202 31.9673 85.4369 32.2473 85.6702 32.49C85.9035 32.7233 86.2722 32.8587 86.7762 32.896L87.6722 32.98C88.4002 33.036 89.0395 33.19 89.5902 33.442C90.1409 33.694 90.5655 34.0347 90.8642 34.464C91.1722 34.8933 91.3262 35.4113 91.3262 36.018C91.3262 36.662 91.1582 37.2313 90.8222 37.726C90.4862 38.2113 90.0055 38.5893 89.3802 38.86C88.7642 39.1307 88.0362 39.266 87.1962 39.266ZM92.7658 41.996V40.33H94.1938C94.4645 40.33 94.6885 40.2927 94.8658 40.218C95.0525 40.1527 95.2065 40.0407 95.3278 39.882C95.4491 39.7327 95.5425 39.5227 95.6078 39.252L97.6518 31.398H99.5138L97.2598 39.672C97.1105 40.2413 96.9005 40.694 96.6298 41.03C96.3591 41.3753 96.0091 41.6227 95.5798 41.772C95.1598 41.9213 94.6371 41.996 94.0118 41.996H92.7658ZM95.1318 38.832V37.292H96.7558V38.832H95.1318ZM94.4738 38.832L92.0098 31.398H93.9698L96.3078 38.832H94.4738ZM103.541 39.238C102.495 39.238 101.674 39.0187 101.077 38.58C100.489 38.132 100.181 37.516 100.153 36.732H101.903C101.931 36.9933 102.075 37.2313 102.337 37.446C102.598 37.6607 103.009 37.768 103.569 37.768C104.035 37.768 104.404 37.684 104.675 37.516C104.955 37.348 105.095 37.1193 105.095 36.83C105.095 36.578 104.987 36.3773 104.773 36.228C104.567 36.0787 104.213 35.9807 103.709 35.934L103.037 35.864C102.187 35.7707 101.534 35.528 101.077 35.136C100.619 34.744 100.391 34.2213 100.391 33.568C100.391 33.0453 100.521 32.6067 100.783 32.252C101.044 31.8973 101.403 31.6313 101.861 31.454C102.327 31.2673 102.859 31.174 103.457 31.174C104.39 31.174 105.146 31.3793 105.725 31.79C106.303 32.2007 106.607 32.8027 106.635 33.596H104.885C104.866 33.3347 104.735 33.1107 104.493 32.924C104.25 32.7373 103.9 32.644 103.443 32.644C103.032 32.644 102.715 32.7233 102.491 32.882C102.267 33.0407 102.155 33.246 102.155 33.498C102.155 33.7407 102.243 33.9273 102.421 34.058C102.607 34.1887 102.906 34.2773 103.317 34.324L103.989 34.394C104.885 34.4873 105.585 34.7347 106.089 35.136C106.602 35.5373 106.859 36.0787 106.859 36.76C106.859 37.264 106.719 37.7027 106.439 38.076C106.168 38.44 105.785 38.7247 105.291 38.93C104.796 39.1353 104.213 39.238 103.541 39.238ZM111.77 39.098C111.07 39.098 110.492 39.0093 110.034 38.832C109.586 38.6453 109.25 38.3373 109.026 37.908C108.802 37.4693 108.69 36.8813 108.69 36.144L108.704 29.256H110.524L110.51 36.27C110.51 36.6433 110.608 36.9327 110.804 37.138C111.01 37.334 111.299 37.432 111.672 37.432H112.862V39.098H111.77ZM107.486 32.826V31.398H112.862V32.826H107.486ZM117.857 39.266C117.203 39.266 116.629 39.154 116.135 38.93C115.649 38.706 115.243 38.4073 114.917 38.034C114.599 37.6513 114.357 37.2267 114.189 36.76C114.03 36.2933 113.951 35.8173 113.951 35.332V35.066C113.951 34.562 114.03 34.0767 114.189 33.61C114.357 33.134 114.599 32.714 114.917 32.35C115.243 31.9767 115.645 31.6827 116.121 31.468C116.597 31.244 117.147 31.132 117.773 31.132C118.594 31.132 119.28 31.314 119.831 31.678C120.391 32.0327 120.811 32.504 121.091 33.092C121.371 33.6707 121.511 34.296 121.511 34.968V35.668H114.777V34.478H120.293L119.691 35.066C119.691 34.5807 119.621 34.1653 119.481 33.82C119.341 33.4747 119.126 33.2087 118.837 33.022C118.557 32.8353 118.202 32.742 117.773 32.742C117.343 32.742 116.979 32.84 116.681 33.036C116.382 33.232 116.153 33.5167 115.995 33.89C115.845 34.254 115.771 34.6927 115.771 35.206C115.771 35.682 115.845 36.1067 115.995 36.48C116.144 36.844 116.373 37.1333 116.681 37.348C116.989 37.5533 117.381 37.656 117.857 37.656C118.333 37.656 118.72 37.5627 119.019 37.376C119.317 37.18 119.509 36.942 119.593 36.662H121.385C121.273 37.1847 121.058 37.642 120.741 38.034C120.423 38.426 120.017 38.7293 119.523 38.944C119.037 39.1587 118.482 39.266 117.857 39.266ZM123.136 39V31.398H124.676V34.66H124.536C124.536 33.8947 124.634 33.2553 124.83 32.742C125.026 32.2193 125.316 31.8273 125.698 31.566C126.09 31.2953 126.576 31.16 127.154 31.16H127.238C127.826 31.16 128.312 31.2953 128.694 31.566C129.086 31.8273 129.376 32.2193 129.562 32.742C129.758 33.2553 129.856 33.8947 129.856 34.66H129.366C129.366 33.8947 129.464 33.2553 129.66 32.742C129.866 32.2193 130.16 31.8273 130.542 31.566C130.934 31.2953 131.42 31.16 131.998 31.16H132.082C132.67 31.16 133.16 31.2953 133.552 31.566C133.944 31.8273 134.238 32.2193 134.434 32.742C134.64 33.2553 134.742 33.8947 134.742 34.66V39H132.796V34.478C132.796 34.002 132.675 33.624 132.432 33.344C132.19 33.0547 131.844 32.91 131.396 32.91C130.948 32.91 130.589 33.0593 130.318 33.358C130.048 33.6473 129.912 34.0393 129.912 34.534V39H127.966V34.478C127.966 34.002 127.845 33.624 127.602 33.344C127.36 33.0547 127.014 32.91 126.566 32.91C126.118 32.91 125.759 33.0593 125.488 33.358C125.218 33.6473 125.082 34.0393 125.082 34.534V39H123.136Z" fill="white"/>
<path d="M18.4094 8.89977C19.8893 8.52981 19.9366 6.44401 18.4751 6.00733L4.3778 1.79535C3.23466 1.4538 2.16962 2.51885 2.51117 3.66198L6.72315 17.7592C7.15983 19.2208 9.24563 19.1734 9.61559 17.6936L11.1561 11.5317C11.2904 10.9942 11.7101 10.5746 12.2475 10.4403L18.4094 8.89977Z" fill="#1C1E22"/>
</svg>
