<svg width="184" height="50" viewBox="0 0 184 50" fill="none" xmlns="http://www.w3.org/2000/svg">
<rect x="16" y="16" width="168" height="34" rx="10" fill="#00E599"/>
<path d="M30.2248 38V27.78H32.2128V38H30.2248ZM31.9328 33.744V32.064L36.0208 32.05V33.73L31.9328 33.744ZM31.9328 29.46V27.78H36.2168V29.46H31.9328ZM37.8091 38V30.398H39.3491V33.618H39.3071C39.3071 32.526 39.5405 31.7 40.0071 31.14C40.4738 30.58 41.1598 30.3 42.0651 30.3H42.3451V31.994H41.8131C41.1598 31.994 40.6511 32.1713 40.2871 32.526C39.9325 32.8713 39.7551 33.3753 39.7551 34.038V38H37.8091ZM47.2463 38.266C46.5743 38.266 45.9817 38.1587 45.4683 37.944C44.955 37.7293 44.521 37.44 44.1663 37.076C43.8117 36.7027 43.541 36.2827 43.3543 35.816C43.177 35.3493 43.0883 34.864 43.0883 34.36V34.066C43.0883 33.5433 43.1817 33.0487 43.3683 32.582C43.5643 32.106 43.8397 31.686 44.1943 31.322C44.5583 30.9487 44.997 30.6593 45.5103 30.454C46.0237 30.2393 46.6023 30.132 47.2463 30.132C47.8903 30.132 48.469 30.2393 48.9823 30.454C49.4957 30.6593 49.9297 30.9487 50.2843 31.322C50.6483 31.686 50.9237 32.106 51.1103 32.582C51.297 33.0487 51.3903 33.5433 51.3903 34.066V34.36C51.3903 34.864 51.297 35.3493 51.1103 35.816C50.933 36.2827 50.667 36.7027 50.3123 37.076C49.9577 37.44 49.5237 37.7293 49.0103 37.944C48.497 38.1587 47.909 38.266 47.2463 38.266ZM47.2463 36.6C47.7223 36.6 48.1237 36.4973 48.4503 36.292C48.777 36.0773 49.0243 35.7927 49.1923 35.438C49.3603 35.074 49.4443 34.6633 49.4443 34.206C49.4443 33.7393 49.3557 33.3287 49.1783 32.974C49.0103 32.61 48.7583 32.3253 48.4223 32.12C48.0957 31.9053 47.7037 31.798 47.2463 31.798C46.789 31.798 46.3923 31.9053 46.0563 32.12C45.7297 32.3253 45.4777 32.61 45.3003 32.974C45.123 33.3287 45.0343 33.7393 45.0343 34.206C45.0343 34.6633 45.1183 35.074 45.2863 35.438C45.4637 35.7927 45.7157 36.0773 46.0423 36.292C46.369 36.4973 46.7703 36.6 47.2463 36.6ZM53.0943 38V30.398H54.6343V33.66H54.4943C54.4943 32.8853 54.5969 32.2413 54.8023 31.728C55.0076 31.2053 55.3109 30.8133 55.7123 30.552C56.1229 30.2907 56.6316 30.16 57.2383 30.16H57.3223C58.2276 30.16 58.9136 30.454 59.3803 31.042C59.8469 31.6207 60.0803 32.4887 60.0803 33.646V38H58.1343V33.478C58.1343 33.0113 57.9989 32.6333 57.7283 32.344C57.4669 32.0547 57.1029 31.91 56.6363 31.91C56.1603 31.91 55.7729 32.0593 55.4743 32.358C55.1849 32.6473 55.0403 33.0393 55.0403 33.534V38H53.0943ZM65.4764 38.098C64.7764 38.098 64.1977 38.0093 63.7404 37.832C63.2924 37.6453 62.9564 37.3373 62.7324 36.908C62.5084 36.4693 62.3964 35.8813 62.3964 35.144L62.4104 28.256H64.2304L64.2164 35.27C64.2164 35.6433 64.3144 35.9327 64.5104 36.138C64.7157 36.334 65.0051 36.432 65.3784 36.432H66.5684V38.098H65.4764ZM61.1924 31.826V30.398H66.5684V31.826H61.1924ZM71.5627 38.266C70.9094 38.266 70.3354 38.154 69.8407 37.93C69.3554 37.706 68.9494 37.4073 68.6227 37.034C68.3054 36.6513 68.0627 36.2267 67.8947 35.76C67.736 35.2933 67.6567 34.8173 67.6567 34.332V34.066C67.6567 33.562 67.736 33.0767 67.8947 32.61C68.0627 32.134 68.3054 31.714 68.6227 31.35C68.9494 30.9767 69.3507 30.6827 69.8267 30.468C70.3027 30.244 70.8534 30.132 71.4787 30.132C72.3 30.132 72.986 30.314 73.5367 30.678C74.0967 31.0327 74.5167 31.504 74.7967 32.092C75.0767 32.6707 75.2167 33.296 75.2167 33.968V34.668H68.4827V33.478H73.9987L73.3967 34.066C73.3967 33.5807 73.3267 33.1653 73.1867 32.82C73.0467 32.4747 72.832 32.2087 72.5427 32.022C72.2627 31.8353 71.908 31.742 71.4787 31.742C71.0494 31.742 70.6854 31.84 70.3867 32.036C70.088 32.232 69.8594 32.5167 69.7007 32.89C69.5514 33.254 69.4767 33.6927 69.4767 34.206C69.4767 34.682 69.5514 35.1067 69.7007 35.48C69.85 35.844 70.0787 36.1333 70.3867 36.348C70.6947 36.5533 71.0867 36.656 71.5627 36.656C72.0387 36.656 72.426 36.5627 72.7247 36.376C73.0234 36.18 73.2147 35.942 73.2987 35.662H75.0907C74.9787 36.1847 74.764 36.642 74.4467 37.034C74.1294 37.426 73.7234 37.7293 73.2287 37.944C72.7434 38.1587 72.188 38.266 71.5627 38.266ZM76.8423 38V30.398H78.3823V33.66H78.2423C78.2423 32.8853 78.345 32.2413 78.5503 31.728C78.7557 31.2053 79.059 30.8133 79.4603 30.552C79.871 30.2907 80.3797 30.16 80.9863 30.16H81.0703C81.9757 30.16 82.6617 30.454 83.1283 31.042C83.595 31.6207 83.8283 32.4887 83.8283 33.646V38H81.8823V33.478C81.8823 33.0113 81.747 32.6333 81.4763 32.344C81.215 32.0547 80.851 31.91 80.3843 31.91C79.9083 31.91 79.521 32.0593 79.2223 32.358C78.933 32.6473 78.7883 33.0393 78.7883 33.534V38H76.8423ZM89.0705 38.252C88.5385 38.252 88.0485 38.154 87.6005 37.958C87.1525 37.762 86.7651 37.4867 86.4385 37.132C86.1118 36.7773 85.8598 36.3667 85.6825 35.9C85.5051 35.424 85.4165 34.9107 85.4165 34.36V34.066C85.4165 33.5247 85.5005 33.016 85.6685 32.54C85.8458 32.064 86.0885 31.6487 86.3965 31.294C86.7138 30.9393 87.0918 30.664 87.5305 30.468C87.9785 30.2627 88.4731 30.16 89.0145 30.16C89.6118 30.16 90.1345 30.2907 90.5825 30.552C91.0398 30.804 91.4038 31.1867 91.6745 31.7C91.9451 32.2133 92.0945 32.8573 92.1225 33.632L91.5485 32.96V27.78H93.4945V38H91.9545V34.766H92.2905C92.2625 35.5407 92.1038 36.1893 91.8145 36.712C91.5251 37.2253 91.1425 37.6127 90.6665 37.874C90.1998 38.126 89.6678 38.252 89.0705 38.252ZM89.5045 36.614C89.8871 36.614 90.2371 36.53 90.5545 36.362C90.8718 36.1847 91.1238 35.9327 91.3105 35.606C91.5065 35.27 91.6045 34.878 91.6045 34.43V33.87C91.6045 33.422 91.5065 33.0487 91.3105 32.75C91.1145 32.442 90.8578 32.2087 90.5405 32.05C90.2231 31.882 89.8778 31.798 89.5045 31.798C89.0845 31.798 88.7111 31.9007 88.3845 32.106C88.0671 32.302 87.8151 32.582 87.6285 32.946C87.4511 33.31 87.3625 33.7347 87.3625 34.22C87.3625 34.7053 87.4558 35.13 87.6425 35.494C87.8291 35.8487 88.0811 36.124 88.3985 36.32C88.7251 36.516 89.0938 36.614 89.5045 36.614ZM100.593 38.056V36.208H102.707C103.239 36.208 103.71 36.1287 104.121 35.97C104.541 35.802 104.896 35.5687 105.185 35.27C105.474 34.9713 105.694 34.6213 105.843 34.22C106.002 33.8093 106.081 33.3567 106.081 32.862C106.081 32.3487 106.002 31.8913 105.843 31.49C105.694 31.0793 105.474 30.7293 105.185 30.44C104.896 30.1507 104.541 29.9313 104.121 29.782C103.71 29.6327 103.239 29.558 102.707 29.558H100.593V27.71H102.581C103.505 27.71 104.312 27.8453 105.003 28.116C105.694 28.3867 106.268 28.76 106.725 29.236C107.182 29.7027 107.523 30.2393 107.747 30.846C107.98 31.4433 108.097 32.064 108.097 32.708V33.016C108.097 33.632 107.98 34.2387 107.747 34.836C107.523 35.4333 107.182 35.9747 106.725 36.46C106.268 36.9453 105.694 37.3327 105.003 37.622C104.312 37.9113 103.505 38.056 102.581 38.056H100.593ZM98.885 38.056V27.71H100.873V38.056H98.885ZM113.125 38.266C112.472 38.266 111.898 38.154 111.403 37.93C110.918 37.706 110.512 37.4073 110.185 37.034C109.868 36.6513 109.625 36.2267 109.457 35.76C109.299 35.2933 109.219 34.8173 109.219 34.332V34.066C109.219 33.562 109.299 33.0767 109.457 32.61C109.625 32.134 109.868 31.714 110.185 31.35C110.512 30.9767 110.913 30.6827 111.389 30.468C111.865 30.244 112.416 30.132 113.041 30.132C113.863 30.132 114.549 30.314 115.099 30.678C115.659 31.0327 116.079 31.504 116.359 32.092C116.639 32.6707 116.779 33.296 116.779 33.968V34.668H110.045V33.478H115.561L114.959 34.066C114.959 33.5807 114.889 33.1653 114.749 32.82C114.609 32.4747 114.395 32.2087 114.105 32.022C113.825 31.8353 113.471 31.742 113.041 31.742C112.612 31.742 112.248 31.84 111.949 32.036C111.651 32.232 111.422 32.5167 111.263 32.89C111.114 33.254 111.039 33.6927 111.039 34.206C111.039 34.682 111.114 35.1067 111.263 35.48C111.413 35.844 111.641 36.1333 111.949 36.348C112.257 36.5533 112.649 36.656 113.125 36.656C113.601 36.656 113.989 36.5627 114.287 36.376C114.586 36.18 114.777 35.942 114.861 35.662H116.653C116.541 36.1847 116.327 36.642 116.009 37.034C115.692 37.426 115.286 37.7293 114.791 37.944C114.306 38.1587 113.751 38.266 113.125 38.266ZM119.862 38L117.482 30.398H119.484L121.766 38H119.862ZM120.436 38V36.404H122.494V38H120.436ZM121.206 38L123.166 30.398H125.042L122.984 38H121.206ZM129.75 38.266C129.097 38.266 128.523 38.154 128.028 37.93C127.543 37.706 127.137 37.4073 126.81 37.034C126.493 36.6513 126.25 36.2267 126.082 35.76C125.924 35.2933 125.844 34.8173 125.844 34.332V34.066C125.844 33.562 125.924 33.0767 126.082 32.61C126.25 32.134 126.493 31.714 126.81 31.35C127.137 30.9767 127.538 30.6827 128.014 30.468C128.49 30.244 129.041 30.132 129.666 30.132C130.488 30.132 131.174 30.314 131.724 30.678C132.284 31.0327 132.704 31.504 132.984 32.092C133.264 32.6707 133.404 33.296 133.404 33.968V34.668H126.67V33.478H132.186L131.584 34.066C131.584 33.5807 131.514 33.1653 131.374 32.82C131.234 32.4747 131.02 32.2087 130.73 32.022C130.45 31.8353 130.096 31.742 129.666 31.742C129.237 31.742 128.873 31.84 128.574 32.036C128.276 32.232 128.047 32.5167 127.888 32.89C127.739 33.254 127.664 33.6927 127.664 34.206C127.664 34.682 127.739 35.1067 127.888 35.48C128.038 35.844 128.266 36.1333 128.574 36.348C128.882 36.5533 129.274 36.656 129.75 36.656C130.226 36.656 130.614 36.5627 130.912 36.376C131.211 36.18 131.402 35.942 131.486 35.662H133.278C133.166 36.1847 132.952 36.642 132.634 37.034C132.317 37.426 131.911 37.7293 131.416 37.944C130.931 38.1587 130.376 38.266 129.75 38.266ZM135.128 38V27.78H137.074V38H135.128ZM134.176 29.236V27.78H137.074V29.236H134.176ZM142.949 38.266C142.277 38.266 141.685 38.1587 141.171 37.944C140.658 37.7293 140.224 37.44 139.869 37.076C139.515 36.7027 139.244 36.2827 139.057 35.816C138.88 35.3493 138.791 34.864 138.791 34.36V34.066C138.791 33.5433 138.885 33.0487 139.071 32.582C139.267 32.106 139.543 31.686 139.897 31.322C140.261 30.9487 140.7 30.6593 141.213 30.454C141.727 30.2393 142.305 30.132 142.949 30.132C143.593 30.132 144.172 30.2393 144.685 30.454C145.199 30.6593 145.633 30.9487 145.987 31.322C146.351 31.686 146.627 32.106 146.813 32.582C147 33.0487 147.093 33.5433 147.093 34.066V34.36C147.093 34.864 147 35.3493 146.813 35.816C146.636 36.2827 146.37 36.7027 146.015 37.076C145.661 37.44 145.227 37.7293 144.713 37.944C144.2 38.1587 143.612 38.266 142.949 38.266ZM142.949 36.6C143.425 36.6 143.827 36.4973 144.153 36.292C144.48 36.0773 144.727 35.7927 144.895 35.438C145.063 35.074 145.147 34.6633 145.147 34.206C145.147 33.7393 145.059 33.3287 144.881 32.974C144.713 32.61 144.461 32.3253 144.125 32.12C143.799 31.9053 143.407 31.798 142.949 31.798C142.492 31.798 142.095 31.9053 141.759 32.12C141.433 32.3253 141.181 32.61 141.003 32.974C140.826 33.3287 140.737 33.7393 140.737 34.206C140.737 34.6633 140.821 35.074 140.989 35.438C141.167 35.7927 141.419 36.0773 141.745 36.292C142.072 36.4973 142.473 36.6 142.949 36.6ZM148.797 40.8V30.398H150.337V33.674L150.099 33.66C150.137 32.8853 150.295 32.2367 150.575 31.714C150.865 31.1913 151.247 30.804 151.723 30.552C152.199 30.2907 152.731 30.16 153.319 30.16C153.861 30.16 154.346 30.258 154.775 30.454C155.214 30.65 155.587 30.9253 155.895 31.28C156.213 31.6347 156.455 32.05 156.623 32.526C156.791 32.9927 156.875 33.4967 156.875 34.038V34.332C156.875 34.8827 156.791 35.396 156.623 35.872C156.465 36.3387 156.227 36.754 155.909 37.118C155.601 37.4727 155.228 37.7527 154.789 37.958C154.351 38.154 153.861 38.252 153.319 38.252C152.75 38.252 152.227 38.1353 151.751 37.902C151.285 37.6593 150.907 37.2907 150.617 36.796C150.328 36.292 150.165 35.6433 150.127 34.85L150.743 35.788V40.8H148.797ZM152.829 36.614C153.249 36.614 153.613 36.5113 153.921 36.306C154.239 36.1007 154.486 35.816 154.663 35.452C154.841 35.0787 154.929 34.6587 154.929 34.192C154.929 33.7067 154.841 33.2867 154.663 32.932C154.486 32.5773 154.239 32.302 153.921 32.106C153.613 31.9007 153.249 31.798 152.829 31.798C152.447 31.798 152.092 31.882 151.765 32.05C151.448 32.218 151.187 32.4653 150.981 32.792C150.785 33.1187 150.687 33.5107 150.687 33.968V34.528C150.687 34.9667 150.79 35.34 150.995 35.648C151.201 35.956 151.467 36.194 151.793 36.362C152.12 36.53 152.465 36.614 152.829 36.614ZM161.988 38.266C161.335 38.266 160.761 38.154 160.266 37.93C159.781 37.706 159.375 37.4073 159.048 37.034C158.731 36.6513 158.488 36.2267 158.32 35.76C158.162 35.2933 158.082 34.8173 158.082 34.332V34.066C158.082 33.562 158.162 33.0767 158.32 32.61C158.488 32.134 158.731 31.714 159.048 31.35C159.375 30.9767 159.776 30.6827 160.252 30.468C160.728 30.244 161.279 30.132 161.904 30.132C162.726 30.132 163.412 30.314 163.962 30.678C164.522 31.0327 164.942 31.504 165.222 32.092C165.502 32.6707 165.642 33.296 165.642 33.968V34.668H158.908V33.478H164.424L163.822 34.066C163.822 33.5807 163.752 33.1653 163.612 32.82C163.472 32.4747 163.258 32.2087 162.968 32.022C162.688 31.8353 162.334 31.742 161.904 31.742C161.475 31.742 161.111 31.84 160.812 32.036C160.514 32.232 160.285 32.5167 160.126 32.89C159.977 33.254 159.902 33.6927 159.902 34.206C159.902 34.682 159.977 35.1067 160.126 35.48C160.276 35.844 160.504 36.1333 160.812 36.348C161.12 36.5533 161.512 36.656 161.988 36.656C162.464 36.656 162.852 36.5627 163.15 36.376C163.449 36.18 163.64 35.942 163.724 35.662H165.516C165.404 36.1847 165.19 36.642 164.872 37.034C164.555 37.426 164.149 37.7293 163.654 37.944C163.169 38.1587 162.614 38.266 161.988 38.266ZM167.268 38V30.398H168.808V33.618H168.766C168.766 32.526 168.999 31.7 169.466 31.14C169.933 30.58 170.619 30.3 171.524 30.3H171.804V31.994H171.272C170.619 31.994 170.11 32.1713 169.746 32.526C169.391 32.8713 169.214 33.3753 169.214 34.038V38H167.268Z" fill="#0C0F14"/>
<path d="M17.6936 8.89977C19.1734 8.52981 19.2208 6.44401 17.7592 6.00733L3.66198 1.79535C2.51884 1.4538 1.4538 2.51885 1.79535 3.66198L6.00733 17.7592C6.44401 19.2208 8.52981 19.1734 8.89977 17.6936L10.4403 11.5317C10.5746 10.9942 10.9942 10.5746 11.5317 10.4403L17.6936 8.89977Z" fill="#00E599"/>
</svg>
