<svg width="147" height="52" viewBox="0 0 147 52" fill="none" xmlns="http://www.w3.org/2000/svg">
<rect x="16" y="16" width="131" height="36" rx="10" fill="#FF3377"/>
<path d="M31.136 39.056V37.208H33.25C33.782 37.208 34.2533 37.1287 34.664 36.97C35.084 36.802 35.4386 36.5687 35.728 36.27C36.0173 35.9713 36.2366 35.6213 36.386 35.22C36.5446 34.8093 36.624 34.3567 36.624 33.862C36.624 33.3487 36.5446 32.8913 36.386 32.49C36.2366 32.0793 36.0173 31.7293 35.728 31.44C35.4386 31.1507 35.084 30.9313 34.664 30.782C34.2533 30.6327 33.782 30.558 33.25 30.558H31.136V28.71H33.124C34.048 28.71 34.8553 28.8453 35.546 29.116C36.2366 29.3867 36.8106 29.76 37.268 30.236C37.7253 30.7027 38.066 31.2393 38.29 31.846C38.5233 32.4433 38.64 33.064 38.64 33.708V34.016C38.64 34.632 38.5233 35.2387 38.29 35.836C38.066 36.4333 37.7253 36.9747 37.268 37.46C36.8106 37.9453 36.2366 38.3327 35.546 38.622C34.8553 38.9113 34.048 39.056 33.124 39.056H31.136ZM29.428 39.056V28.71H31.416V39.056H29.428ZM43.6682 39.266C43.0148 39.266 42.4408 39.154 41.9462 38.93C41.4608 38.706 41.0548 38.4073 40.7282 38.034C40.4108 37.6513 40.1682 37.2267 40.0002 36.76C39.8415 36.2933 39.7622 35.8173 39.7622 35.332V35.066C39.7622 34.562 39.8415 34.0767 40.0002 33.61C40.1682 33.134 40.4108 32.714 40.7282 32.35C41.0548 31.9767 41.4562 31.6827 41.9322 31.468C42.4082 31.244 42.9588 31.132 43.5842 31.132C44.4055 31.132 45.0915 31.314 45.6422 31.678C46.2022 32.0327 46.6222 32.504 46.9022 33.092C47.1822 33.6707 47.3222 34.296 47.3222 34.968V35.668H40.5882V34.478H46.1042L45.5022 35.066C45.5022 34.5807 45.4322 34.1653 45.2922 33.82C45.1522 33.4747 44.9375 33.2087 44.6482 33.022C44.3682 32.8353 44.0135 32.742 43.5842 32.742C43.1548 32.742 42.7908 32.84 42.4922 33.036C42.1935 33.232 41.9648 33.5167 41.8062 33.89C41.6568 34.254 41.5822 34.6927 41.5822 35.206C41.5822 35.682 41.6568 36.1067 41.8062 36.48C41.9555 36.844 42.1842 37.1333 42.4922 37.348C42.8002 37.5533 43.1922 37.656 43.6682 37.656C44.1442 37.656 44.5315 37.5627 44.8302 37.376C45.1288 37.18 45.3202 36.942 45.4042 36.662H47.1962C47.0842 37.1847 46.8695 37.642 46.5522 38.034C46.2348 38.426 45.8288 38.7293 45.3342 38.944C44.8488 39.1587 44.2935 39.266 43.6682 39.266ZM51.7058 39.238C50.6605 39.238 49.8391 39.0187 49.2418 38.58C48.6538 38.132 48.3458 37.516 48.3178 36.732H50.0678C50.0958 36.9933 50.2405 37.2313 50.5018 37.446C50.7631 37.6607 51.1738 37.768 51.7338 37.768C52.2005 37.768 52.5691 37.684 52.8398 37.516C53.1198 37.348 53.2598 37.1193 53.2598 36.83C53.2598 36.578 53.1525 36.3773 52.9378 36.228C52.7325 36.0787 52.3778 35.9807 51.8738 35.934L51.2018 35.864C50.3525 35.7707 49.6991 35.528 49.2418 35.136C48.7845 34.744 48.5558 34.2213 48.5558 33.568C48.5558 33.0453 48.6865 32.6067 48.9478 32.252C49.2091 31.8973 49.5685 31.6313 50.0258 31.454C50.4925 31.2673 51.0245 31.174 51.6218 31.174C52.5551 31.174 53.3111 31.3793 53.8898 31.79C54.4685 32.2007 54.7718 32.8027 54.7998 33.596H53.0498C53.0311 33.3347 52.9005 33.1107 52.6578 32.924C52.4151 32.7373 52.0651 32.644 51.6078 32.644C51.1971 32.644 50.8798 32.7233 50.6558 32.882C50.4318 33.0407 50.3198 33.246 50.3198 33.498C50.3198 33.7407 50.4085 33.9273 50.5858 34.058C50.7725 34.1887 51.0711 34.2773 51.4818 34.324L52.1538 34.394C53.0498 34.4873 53.7498 34.7347 54.2538 35.136C54.7671 35.5373 55.0238 36.0787 55.0238 36.76C55.0238 37.264 54.8838 37.7027 54.6038 38.076C54.3331 38.44 53.9505 38.7247 53.4558 38.93C52.9611 39.1353 52.3778 39.238 51.7058 39.238ZM56.9954 39V31.398H58.9414V39H56.9954ZM55.9314 32.854V31.398H58.9414V32.854H55.9314ZM57.7094 30.488C57.3267 30.488 57.0421 30.39 56.8554 30.194C56.6781 29.9887 56.5894 29.7367 56.5894 29.438C56.5894 29.1207 56.6781 28.864 56.8554 28.668C57.0421 28.472 57.3267 28.374 57.7094 28.374C58.0921 28.374 58.3721 28.472 58.5494 28.668C58.7267 28.864 58.8154 29.1207 58.8154 29.438C58.8154 29.7367 58.7267 29.9887 58.5494 30.194C58.3721 30.39 58.0921 30.488 57.7094 30.488ZM64.1521 41.996C63.7881 41.996 63.4148 41.982 63.0321 41.954C62.6588 41.926 62.3088 41.8887 61.9821 41.842V40.218C62.3181 40.2553 62.6775 40.288 63.0601 40.316C63.4428 40.3533 63.8021 40.372 64.1381 40.372C64.7635 40.372 65.2675 40.2973 65.6501 40.148C66.0421 39.9987 66.3268 39.7607 66.5041 39.434C66.6908 39.1167 66.7841 38.7107 66.7841 38.216V36.718L67.2041 35.766C67.1761 36.466 67.0315 37.0633 66.7701 37.558C66.5088 38.0433 66.1541 38.4167 65.7061 38.678C65.2581 38.93 64.7401 39.056 64.1521 39.056C63.6295 39.056 63.1535 38.958 62.7241 38.762C62.3041 38.566 61.9401 38.2953 61.6321 37.95C61.3335 37.6047 61.1001 37.1987 60.9321 36.732C60.7641 36.2653 60.6801 35.766 60.6801 35.234V34.94C60.6801 34.408 60.7641 33.9133 60.9321 33.456C61.1095 32.9893 61.3568 32.5833 61.6741 32.238C61.9915 31.8927 62.3695 31.6267 62.8081 31.44C63.2468 31.2533 63.7321 31.16 64.2641 31.16C64.8895 31.16 65.4308 31.2953 65.8881 31.566C66.3548 31.8367 66.7188 32.2287 66.9801 32.742C67.2415 33.2553 67.3861 33.8853 67.4141 34.632L67.0781 34.688V31.398H68.6181V38.104C68.6181 39.028 68.4595 39.7747 68.1421 40.344C67.8248 40.9133 67.3348 41.3287 66.6721 41.59C66.0188 41.8607 65.1788 41.996 64.1521 41.996ZM64.7121 37.39C65.0855 37.39 65.4261 37.306 65.7341 37.138C66.0421 36.97 66.2895 36.7273 66.4761 36.41C66.6628 36.0927 66.7561 35.71 66.7561 35.262V34.772C66.7561 34.3427 66.6581 33.9787 66.4621 33.68C66.2755 33.3813 66.0281 33.1573 65.7201 33.008C65.4121 32.8493 65.0761 32.77 64.7121 32.77C64.3015 32.77 63.9375 32.868 63.6201 33.064C63.3121 33.2507 63.0695 33.5167 62.8921 33.862C62.7148 34.2073 62.6261 34.618 62.6261 35.094C62.6261 35.5607 62.7148 35.9667 62.8921 36.312C63.0695 36.6573 63.3121 36.9233 63.6201 37.11C63.9375 37.2967 64.3015 37.39 64.7121 37.39ZM70.7408 39V31.398H72.2808V34.66H72.1408C72.1408 33.8853 72.2434 33.2413 72.4488 32.728C72.6541 32.2053 72.9574 31.8133 73.3588 31.552C73.7694 31.2907 74.2781 31.16 74.8848 31.16H74.9688C75.8741 31.16 76.5601 31.454 77.0268 32.042C77.4934 32.6207 77.7268 33.4887 77.7268 34.646V39H75.7808V34.478C75.7808 34.0113 75.6454 33.6333 75.3748 33.344C75.1134 33.0547 74.7494 32.91 74.2828 32.91C73.8068 32.91 73.4194 33.0593 73.1208 33.358C72.8314 33.6473 72.6868 34.0393 72.6868 34.534V39H70.7408ZM86.4804 39.266C85.575 39.266 84.8097 39.1213 84.1844 38.832C83.5684 38.5427 83.097 38.146 82.7704 37.642C82.4437 37.1287 82.2804 36.55 82.2804 35.906H84.2264C84.2264 36.1767 84.301 36.4427 84.4504 36.704C84.5997 36.956 84.8377 37.1613 85.1644 37.32C85.5004 37.4787 85.939 37.558 86.4804 37.558C86.9657 37.558 87.3717 37.488 87.6984 37.348C88.025 37.208 88.2677 37.026 88.4264 36.802C88.585 36.5687 88.6644 36.3073 88.6644 36.018C88.6644 35.654 88.5104 35.3647 88.2024 35.15C87.8944 34.926 87.4184 34.786 86.7744 34.73L85.8784 34.66C84.8984 34.576 84.1144 34.2727 83.5264 33.75C82.9477 33.218 82.6584 32.518 82.6584 31.65C82.6584 30.9967 82.8124 30.4367 83.1204 29.97C83.4284 29.494 83.8577 29.13 84.4084 28.878C84.9684 28.6167 85.6217 28.486 86.3684 28.486C87.143 28.486 87.8104 28.6213 88.3704 28.892C88.9304 29.1627 89.3644 29.5453 89.6724 30.04C89.9804 30.5253 90.1344 31.0993 90.1344 31.762H88.1884C88.1884 31.482 88.1184 31.2253 87.9784 30.992C87.8477 30.7493 87.647 30.558 87.3764 30.418C87.115 30.2687 86.779 30.194 86.3684 30.194C85.9764 30.194 85.6497 30.2593 85.3884 30.39C85.127 30.5207 84.931 30.698 84.8004 30.922C84.6697 31.146 84.6044 31.3887 84.6044 31.65C84.6044 31.9673 84.721 32.2473 84.9544 32.49C85.1877 32.7233 85.5564 32.8587 86.0604 32.896L86.9564 32.98C87.6844 33.036 88.3237 33.19 88.8744 33.442C89.425 33.694 89.8497 34.0347 90.1484 34.464C90.4564 34.8933 90.6104 35.4113 90.6104 36.018C90.6104 36.662 90.4424 37.2313 90.1064 37.726C89.7704 38.2113 89.2897 38.5893 88.6644 38.86C88.0484 39.1307 87.3204 39.266 86.4804 39.266ZM92.05 41.996V40.33H93.478C93.7486 40.33 93.9726 40.2927 94.15 40.218C94.3366 40.1527 94.4906 40.0407 94.612 39.882C94.7333 39.7327 94.8266 39.5227 94.892 39.252L96.936 31.398H98.798L96.544 39.672C96.3946 40.2413 96.1846 40.694 95.914 41.03C95.6433 41.3753 95.2933 41.6227 94.864 41.772C94.444 41.9213 93.9213 41.996 93.296 41.996H92.05ZM94.416 38.832V37.292H96.04V38.832H94.416ZM93.758 38.832L91.294 31.398H93.254L95.592 38.832H93.758ZM102.825 39.238C101.78 39.238 100.958 39.0187 100.361 38.58C99.7729 38.132 99.4649 37.516 99.4369 36.732H101.187C101.215 36.9933 101.36 37.2313 101.621 37.446C101.882 37.6607 102.293 37.768 102.853 37.768C103.32 37.768 103.688 37.684 103.959 37.516C104.239 37.348 104.379 37.1193 104.379 36.83C104.379 36.578 104.272 36.3773 104.057 36.228C103.852 36.0787 103.497 35.9807 102.993 35.934L102.321 35.864C101.472 35.7707 100.818 35.528 100.361 35.136C99.9036 34.744 99.6749 34.2213 99.6749 33.568C99.6749 33.0453 99.8056 32.6067 100.067 32.252C100.328 31.8973 100.688 31.6313 101.145 31.454C101.612 31.2673 102.144 31.174 102.741 31.174C103.674 31.174 104.43 31.3793 105.009 31.79C105.588 32.2007 105.891 32.8027 105.919 33.596H104.169C104.15 33.3347 104.02 33.1107 103.777 32.924C103.534 32.7373 103.184 32.644 102.727 32.644C102.316 32.644 101.999 32.7233 101.775 32.882C101.551 33.0407 101.439 33.246 101.439 33.498C101.439 33.7407 101.528 33.9273 101.705 34.058C101.892 34.1887 102.19 34.2773 102.601 34.324L103.273 34.394C104.169 34.4873 104.869 34.7347 105.373 35.136C105.886 35.5373 106.143 36.0787 106.143 36.76C106.143 37.264 106.003 37.7027 105.723 38.076C105.452 38.44 105.07 38.7247 104.575 38.93C104.08 39.1353 103.497 39.238 102.825 39.238ZM111.055 39.098C110.355 39.098 109.776 39.0093 109.319 38.832C108.871 38.6453 108.535 38.3373 108.311 37.908C108.087 37.4693 107.975 36.8813 107.975 36.144L107.989 29.256H109.809L109.795 36.27C109.795 36.6433 109.893 36.9327 110.089 37.138C110.294 37.334 110.583 37.432 110.957 37.432H112.147V39.098H111.055ZM106.771 32.826V31.398H112.147V32.826H106.771ZM117.141 39.266C116.487 39.266 115.913 39.154 115.419 38.93C114.933 38.706 114.527 38.4073 114.201 38.034C113.883 37.6513 113.641 37.2267 113.473 36.76C113.314 36.2933 113.235 35.8173 113.235 35.332V35.066C113.235 34.562 113.314 34.0767 113.473 33.61C113.641 33.134 113.883 32.714 114.201 32.35C114.527 31.9767 114.929 31.6827 115.405 31.468C115.881 31.244 116.431 31.132 117.057 31.132C117.878 31.132 118.564 31.314 119.115 31.678C119.675 32.0327 120.095 32.504 120.375 33.092C120.655 33.6707 120.795 34.296 120.795 34.968V35.668H114.061V34.478H119.577L118.975 35.066C118.975 34.5807 118.905 34.1653 118.765 33.82C118.625 33.4747 118.41 33.2087 118.121 33.022C117.841 32.8353 117.486 32.742 117.057 32.742C116.627 32.742 116.263 32.84 115.965 33.036C115.666 33.232 115.437 33.5167 115.279 33.89C115.129 34.254 115.055 34.6927 115.055 35.206C115.055 35.682 115.129 36.1067 115.279 36.48C115.428 36.844 115.657 37.1333 115.965 37.348C116.273 37.5533 116.665 37.656 117.141 37.656C117.617 37.656 118.004 37.5627 118.303 37.376C118.601 37.18 118.793 36.942 118.877 36.662H120.669C120.557 37.1847 120.342 37.642 120.025 38.034C119.707 38.426 119.301 38.7293 118.807 38.944C118.321 39.1587 117.766 39.266 117.141 39.266ZM122.42 39V31.398H123.96V34.66H123.82C123.82 33.8947 123.918 33.2553 124.114 32.742C124.31 32.2193 124.6 31.8273 124.982 31.566C125.374 31.2953 125.86 31.16 126.438 31.16H126.522C127.11 31.16 127.596 31.2953 127.978 31.566C128.37 31.8273 128.66 32.2193 128.846 32.742C129.042 33.2553 129.14 33.8947 129.14 34.66H128.65C128.65 33.8947 128.748 33.2553 128.944 32.742C129.15 32.2193 129.444 31.8273 129.826 31.566C130.218 31.2953 130.704 31.16 131.282 31.16H131.366C131.954 31.16 132.444 31.2953 132.836 31.566C133.228 31.8273 133.522 32.2193 133.718 32.742C133.924 33.2553 134.026 33.8947 134.026 34.66V39H132.08V34.478C132.08 34.002 131.959 33.624 131.716 33.344C131.474 33.0547 131.128 32.91 130.68 32.91C130.232 32.91 129.873 33.0593 129.602 33.358C129.332 33.6473 129.196 34.0393 129.196 34.534V39H127.25V34.478C127.25 34.002 127.129 33.624 126.886 33.344C126.644 33.0547 126.298 32.91 125.85 32.91C125.402 32.91 125.043 33.0593 124.772 33.358C124.502 33.6473 124.366 34.0393 124.366 34.534V39H122.42Z" fill="#0C0F14"/>
<path d="M17.6936 8.89977C19.1734 8.52981 19.2208 6.44401 17.7592 6.00733L3.66198 1.79535C2.51884 1.4538 1.4538 2.51885 1.79535 3.66198L6.00733 17.7592C6.44401 19.2208 8.52981 19.1734 8.89977 17.6936L10.4403 11.5317C10.5746 10.9942 10.9942 10.5746 11.5317 10.4403L17.6936 8.89977Z" fill="#FF3377"/>
</svg>
