<svg width="160" height="52" viewBox="0 0 160 52" fill="none" xmlns="http://www.w3.org/2000/svg">
<rect x="16.7158" y="16" width="143" height="36" rx="10" fill="#1C1E22"/>
<path d="M30.4823 39V28.78H32.4703V39H30.4823ZM34.8667 39V31.398H36.4067V34.66H36.2667C36.2667 33.8853 36.3694 33.2413 36.5747 32.728C36.7801 32.2053 37.0834 31.8133 37.4847 31.552C37.8954 31.2907 38.4041 31.16 39.0107 31.16H39.0947C40.0001 31.16 40.6861 31.454 41.1527 32.042C41.6194 32.6207 41.8527 33.4887 41.8527 34.646V39H39.9067V34.478C39.9067 34.0113 39.7714 33.6333 39.5007 33.344C39.2394 33.0547 38.8754 32.91 38.4087 32.91C37.9327 32.91 37.5454 33.0593 37.2467 33.358C36.9574 33.6473 36.8127 34.0393 36.8127 34.534V39H34.8667ZM47.2489 39.098C46.5489 39.098 45.9702 39.0093 45.5129 38.832C45.0649 38.6453 44.7289 38.3373 44.5049 37.908C44.2809 37.4693 44.1689 36.8813 44.1689 36.144L44.1829 29.256H46.0029L45.9889 36.27C45.9889 36.6433 46.0869 36.9327 46.2829 37.138C46.4882 37.334 46.7775 37.432 47.1509 37.432H48.3409V39.098H47.2489ZM42.9649 32.826V31.398H48.3409V32.826H42.9649ZM53.3351 39.266C52.6818 39.266 52.1078 39.154 51.6131 38.93C51.1278 38.706 50.7218 38.4073 50.3951 38.034C50.0778 37.6513 49.8351 37.2267 49.6671 36.76C49.5085 36.2933 49.4291 35.8173 49.4291 35.332V35.066C49.4291 34.562 49.5085 34.0767 49.6671 33.61C49.8351 33.134 50.0778 32.714 50.3951 32.35C50.7218 31.9767 51.1231 31.6827 51.5991 31.468C52.0751 31.244 52.6258 31.132 53.2511 31.132C54.0725 31.132 54.7585 31.314 55.3091 31.678C55.8691 32.0327 56.2891 32.504 56.5691 33.092C56.8491 33.6707 56.9891 34.296 56.9891 34.968V35.668H50.2551V34.478H55.7711L55.1691 35.066C55.1691 34.5807 55.0991 34.1653 54.9591 33.82C54.8191 33.4747 54.6045 33.2087 54.3151 33.022C54.0351 32.8353 53.6805 32.742 53.2511 32.742C52.8218 32.742 52.4578 32.84 52.1591 33.036C51.8605 33.232 51.6318 33.5167 51.4731 33.89C51.3238 34.254 51.2491 34.6927 51.2491 35.206C51.2491 35.682 51.3238 36.1067 51.4731 36.48C51.6225 36.844 51.8511 37.1333 52.1591 37.348C52.4671 37.5533 52.8591 37.656 53.3351 37.656C53.8111 37.656 54.1985 37.5627 54.4971 37.376C54.7958 37.18 54.9871 36.942 55.0711 36.662H56.8631C56.7511 37.1847 56.5365 37.642 56.2191 38.034C55.9018 38.426 55.4958 38.7293 55.0011 38.944C54.5158 39.1587 53.9605 39.266 53.3351 39.266ZM58.6148 39V31.398H60.1548V34.618H60.1128C60.1128 33.526 60.3461 32.7 60.8128 32.14C61.2795 31.58 61.9655 31.3 62.8708 31.3H63.1508V32.994H62.6188C61.9655 32.994 61.4568 33.1713 61.0928 33.526C60.7381 33.8713 60.5608 34.3753 60.5608 35.038V39H58.6148ZM64.6757 39V31.216C64.6757 30.348 64.9137 29.7087 65.3897 29.298C65.875 28.878 66.589 28.668 67.5317 28.668H68.4837V30.166H67.3917C67.1024 30.166 66.8784 30.2453 66.7197 30.404C66.5704 30.5533 66.4957 30.768 66.4957 31.048V39H64.6757ZM63.7237 32.952V31.524H68.6097V32.952H63.7237ZM74.4044 39V36.746H74.0824V34.24C74.0824 33.8013 73.975 33.4747 73.7604 33.26C73.5457 33.0453 73.2144 32.938 72.7664 32.938C72.533 32.938 72.253 32.9427 71.9264 32.952C71.5997 32.9613 71.2684 32.9753 70.9324 32.994C70.6057 33.0033 70.3117 33.0173 70.0504 33.036V31.384C70.265 31.3653 70.5077 31.3467 70.7784 31.328C71.049 31.3093 71.3244 31.3 71.6044 31.3C71.8937 31.2907 72.1644 31.286 72.4164 31.286C73.2004 31.286 73.849 31.3887 74.3624 31.594C74.885 31.7993 75.277 32.1213 75.5384 32.56C75.809 32.9987 75.9444 33.5727 75.9444 34.282V39H74.4044ZM71.9544 39.196C71.4037 39.196 70.9184 39.098 70.4984 38.902C70.0877 38.706 69.7657 38.426 69.5324 38.062C69.3084 37.698 69.1964 37.2593 69.1964 36.746C69.1964 36.186 69.3317 35.7287 69.6024 35.374C69.8824 35.0193 70.2697 34.7533 70.7644 34.576C71.2684 34.3987 71.8564 34.31 72.5284 34.31H74.2924V35.472H72.5004C72.0524 35.472 71.707 35.584 71.4644 35.808C71.231 36.0227 71.1144 36.3027 71.1144 36.648C71.1144 36.9933 71.231 37.2733 71.4644 37.488C71.707 37.7027 72.0524 37.81 72.5004 37.81C72.771 37.81 73.0184 37.7633 73.2424 37.67C73.4757 37.5673 73.667 37.3993 73.8164 37.166C73.975 36.9233 74.0637 36.5967 74.0824 36.186L74.5584 36.732C74.5117 37.264 74.381 37.712 74.1664 38.076C73.961 38.44 73.6717 38.72 73.2984 38.916C72.9344 39.1027 72.4864 39.196 71.9544 39.196ZM81.4029 39.266C80.7402 39.266 80.1662 39.154 79.6809 38.93C79.2049 38.706 78.8035 38.4073 78.4769 38.034C78.1595 37.6607 77.9215 37.2407 77.7629 36.774C77.6042 36.3073 77.5249 35.8313 77.5249 35.346V35.08C77.5249 34.5667 77.6042 34.0767 77.7629 33.61C77.9309 33.134 78.1782 32.714 78.5049 32.35C78.8315 31.9767 79.2329 31.6827 79.7089 31.468C80.1942 31.244 80.7542 31.132 81.3889 31.132C82.0515 31.132 82.6442 31.2627 83.1669 31.524C83.6895 31.776 84.1049 32.1307 84.4129 32.588C84.7302 33.0453 84.9075 33.5773 84.9449 34.184H83.0549C83.0082 33.792 82.8402 33.4653 82.5509 33.204C82.2709 32.9427 81.8835 32.812 81.3889 32.812C80.9595 32.812 80.6002 32.9147 80.3109 33.12C80.0309 33.3253 79.8209 33.61 79.6809 33.974C79.5409 34.3287 79.4709 34.7393 79.4709 35.206C79.4709 35.654 79.5362 36.06 79.6669 36.424C79.8069 36.788 80.0169 37.0727 80.2969 37.278C80.5862 37.4833 80.9549 37.586 81.4029 37.586C81.7389 37.586 82.0282 37.5253 82.2709 37.404C82.5135 37.2827 82.7049 37.1147 82.8449 36.9C82.9942 36.6853 83.0875 36.4427 83.1249 36.172H85.0149C84.9775 36.788 84.7955 37.3293 84.4689 37.796C84.1515 38.2533 83.7269 38.6127 83.1949 38.874C82.6722 39.1353 82.0749 39.266 81.4029 39.266ZM89.9758 39.266C89.3224 39.266 88.7484 39.154 88.2538 38.93C87.7684 38.706 87.3624 38.4073 87.0358 38.034C86.7184 37.6513 86.4758 37.2267 86.3078 36.76C86.1491 36.2933 86.0698 35.8173 86.0698 35.332V35.066C86.0698 34.562 86.1491 34.0767 86.3078 33.61C86.4758 33.134 86.7184 32.714 87.0358 32.35C87.3624 31.9767 87.7638 31.6827 88.2398 31.468C88.7158 31.244 89.2664 31.132 89.8918 31.132C90.7131 31.132 91.3991 31.314 91.9498 31.678C92.5098 32.0327 92.9298 32.504 93.2098 33.092C93.4898 33.6707 93.6298 34.296 93.6298 34.968V35.668H86.8958V34.478H92.4118L91.8098 35.066C91.8098 34.5807 91.7398 34.1653 91.5998 33.82C91.4598 33.4747 91.2451 33.2087 90.9558 33.022C90.6758 32.8353 90.3211 32.742 89.8918 32.742C89.4624 32.742 89.0984 32.84 88.7998 33.036C88.5011 33.232 88.2724 33.5167 88.1138 33.89C87.9644 34.254 87.8898 34.6927 87.8898 35.206C87.8898 35.682 87.9644 36.1067 88.1138 36.48C88.2631 36.844 88.4918 37.1333 88.7998 37.348C89.1078 37.5533 89.4998 37.656 89.9758 37.656C90.4518 37.656 90.8391 37.5627 91.1378 37.376C91.4364 37.18 91.6278 36.942 91.7118 36.662H93.5038C93.3918 37.1847 93.1771 37.642 92.8598 38.034C92.5424 38.426 92.1364 38.7293 91.6418 38.944C91.1564 39.1587 90.6011 39.266 89.9758 39.266ZM100.139 39.056V37.208H102.253C102.785 37.208 103.256 37.1287 103.667 36.97C104.087 36.802 104.442 36.5687 104.731 36.27C105.02 35.9713 105.24 35.6213 105.389 35.22C105.548 34.8093 105.627 34.3567 105.627 33.862C105.627 33.3487 105.548 32.8913 105.389 32.49C105.24 32.0793 105.02 31.7293 104.731 31.44C104.442 31.1507 104.087 30.9313 103.667 30.782C103.256 30.6327 102.785 30.558 102.253 30.558H100.139V28.71H102.127C103.051 28.71 103.858 28.8453 104.549 29.116C105.24 29.3867 105.814 29.76 106.271 30.236C106.728 30.7027 107.069 31.2393 107.293 31.846C107.526 32.4433 107.643 33.064 107.643 33.708V34.016C107.643 34.632 107.526 35.2387 107.293 35.836C107.069 36.4333 106.728 36.9747 106.271 37.46C105.814 37.9453 105.24 38.3327 104.549 38.622C103.858 38.9113 103.051 39.056 102.127 39.056H100.139ZM98.4309 39.056V28.71H100.419V39.056H98.4309ZM112.671 39.266C112.018 39.266 111.444 39.154 110.949 38.93C110.464 38.706 110.058 38.4073 109.731 38.034C109.414 37.6513 109.171 37.2267 109.003 36.76C108.844 36.2933 108.765 35.8173 108.765 35.332V35.066C108.765 34.562 108.844 34.0767 109.003 33.61C109.171 33.134 109.414 32.714 109.731 32.35C110.058 31.9767 110.459 31.6827 110.935 31.468C111.411 31.244 111.962 31.132 112.587 31.132C113.408 31.132 114.094 31.314 114.645 31.678C115.205 32.0327 115.625 32.504 115.905 33.092C116.185 33.6707 116.325 34.296 116.325 34.968V35.668H109.591V34.478H115.107L114.505 35.066C114.505 34.5807 114.435 34.1653 114.295 33.82C114.155 33.4747 113.94 33.2087 113.651 33.022C113.371 32.8353 113.016 32.742 112.587 32.742C112.158 32.742 111.794 32.84 111.495 33.036C111.196 33.232 110.968 33.5167 110.809 33.89C110.66 34.254 110.585 34.6927 110.585 35.206C110.585 35.682 110.66 36.1067 110.809 36.48C110.958 36.844 111.187 37.1333 111.495 37.348C111.803 37.5533 112.195 37.656 112.671 37.656C113.147 37.656 113.534 37.5627 113.833 37.376C114.132 37.18 114.323 36.942 114.407 36.662H116.199C116.087 37.1847 115.872 37.642 115.555 38.034C115.238 38.426 114.832 38.7293 114.337 38.944C113.852 39.1587 113.296 39.266 112.671 39.266ZM120.709 39.238C119.663 39.238 118.842 39.0187 118.245 38.58C117.657 38.132 117.349 37.516 117.321 36.732H119.071C119.099 36.9933 119.243 37.2313 119.505 37.446C119.766 37.6607 120.177 37.768 120.737 37.768C121.203 37.768 121.572 37.684 121.843 37.516C122.123 37.348 122.263 37.1193 122.263 36.83C122.263 36.578 122.155 36.3773 121.941 36.228C121.735 36.0787 121.381 35.9807 120.877 35.934L120.205 35.864C119.355 35.7707 118.702 35.528 118.245 35.136C117.787 34.744 117.559 34.2213 117.559 33.568C117.559 33.0453 117.689 32.6067 117.951 32.252C118.212 31.8973 118.571 31.6313 119.029 31.454C119.495 31.2673 120.027 31.174 120.625 31.174C121.558 31.174 122.314 31.3793 122.893 31.79C123.471 32.2007 123.775 32.8027 123.803 33.596H122.053C122.034 33.3347 121.903 33.1107 121.661 32.924C121.418 32.7373 121.068 32.644 120.611 32.644C120.2 32.644 119.883 32.7233 119.659 32.882C119.435 33.0407 119.323 33.246 119.323 33.498C119.323 33.7407 119.411 33.9273 119.589 34.058C119.775 34.1887 120.074 34.2773 120.485 34.324L121.157 34.394C122.053 34.4873 122.753 34.7347 123.257 35.136C123.77 35.5373 124.027 36.0787 124.027 36.76C124.027 37.264 123.887 37.7027 123.607 38.076C123.336 38.44 122.953 38.7247 122.459 38.93C121.964 39.1353 121.381 39.238 120.709 39.238ZM125.998 39V31.398H127.944V39H125.998ZM124.934 32.854V31.398H127.944V32.854H124.934ZM126.712 30.488C126.33 30.488 126.045 30.39 125.858 30.194C125.681 29.9887 125.592 29.7367 125.592 29.438C125.592 29.1207 125.681 28.864 125.858 28.668C126.045 28.472 126.33 28.374 126.712 28.374C127.095 28.374 127.375 28.472 127.552 28.668C127.73 28.864 127.818 29.1207 127.818 29.438C127.818 29.7367 127.73 29.9887 127.552 30.194C127.375 30.39 127.095 30.488 126.712 30.488ZM133.155 41.996C132.791 41.996 132.418 41.982 132.035 41.954C131.662 41.926 131.312 41.8887 130.985 41.842V40.218C131.321 40.2553 131.68 40.288 132.063 40.316C132.446 40.3533 132.805 40.372 133.141 40.372C133.766 40.372 134.27 40.2973 134.653 40.148C135.045 39.9987 135.33 39.7607 135.507 39.434C135.694 39.1167 135.787 38.7107 135.787 38.216V36.718L136.207 35.766C136.179 36.466 136.034 37.0633 135.773 37.558C135.512 38.0433 135.157 38.4167 134.709 38.678C134.261 38.93 133.743 39.056 133.155 39.056C132.632 39.056 132.156 38.958 131.727 38.762C131.307 38.566 130.943 38.2953 130.635 37.95C130.336 37.6047 130.103 37.1987 129.935 36.732C129.767 36.2653 129.683 35.766 129.683 35.234V34.94C129.683 34.408 129.767 33.9133 129.935 33.456C130.112 32.9893 130.36 32.5833 130.677 32.238C130.994 31.8927 131.372 31.6267 131.811 31.44C132.25 31.2533 132.735 31.16 133.267 31.16C133.892 31.16 134.434 31.2953 134.891 31.566C135.358 31.8367 135.722 32.2287 135.983 32.742C136.244 33.2553 136.389 33.8853 136.417 34.632L136.081 34.688V31.398H137.621V38.104C137.621 39.028 137.462 39.7747 137.145 40.344C136.828 40.9133 136.338 41.3287 135.675 41.59C135.022 41.8607 134.182 41.996 133.155 41.996ZM133.715 37.39C134.088 37.39 134.429 37.306 134.737 37.138C135.045 36.97 135.292 36.7273 135.479 36.41C135.666 36.0927 135.759 35.71 135.759 35.262V34.772C135.759 34.3427 135.661 33.9787 135.465 33.68C135.278 33.3813 135.031 33.1573 134.723 33.008C134.415 32.8493 134.079 32.77 133.715 32.77C133.304 32.77 132.94 32.868 132.623 33.064C132.315 33.2507 132.072 33.5167 131.895 33.862C131.718 34.2073 131.629 34.618 131.629 35.094C131.629 35.5607 131.718 35.9667 131.895 36.312C132.072 36.6573 132.315 36.9233 132.623 37.11C132.94 37.2967 133.304 37.39 133.715 37.39ZM139.744 39V31.398H141.284V34.66H141.144C141.144 33.8853 141.246 33.2413 141.452 32.728C141.657 32.2053 141.96 31.8133 142.362 31.552C142.772 31.2907 143.281 31.16 143.888 31.16H143.972C144.877 31.16 145.563 31.454 146.03 32.042C146.496 32.6207 146.73 33.4887 146.73 34.646V39H144.784V34.478C144.784 34.0113 144.648 33.6333 144.378 33.344C144.116 33.0547 143.752 32.91 143.286 32.91C142.81 32.91 142.422 33.0593 142.124 33.358C141.834 33.6473 141.69 34.0393 141.69 34.534V39H139.744Z" fill="white"/>
<path d="M18.4094 8.89977C19.8893 8.52981 19.9366 6.44401 18.4751 6.00733L4.3778 1.79535C3.23466 1.4538 2.16962 2.51885 2.51117 3.66198L6.72315 17.7592C7.15983 19.2208 9.24563 19.1734 9.61559 17.6936L11.1561 11.5317C11.2904 10.9942 11.7101 10.5746 12.2475 10.4403L18.4094 8.89977Z" fill="#1C1E22"/>
</svg>
