<svg width="159" height="50" viewBox="0 0 159 50" fill="none" xmlns="http://www.w3.org/2000/svg">
<rect x="16" y="16" width="143" height="34" rx="10" fill="#A54CFE"/>
<path d="M29.7665 38V27.78H31.7545V38H29.7665ZM34.1509 38V30.398H35.6909V33.66H35.5509C35.5509 32.8853 35.6536 32.2413 35.8589 31.728C36.0643 31.2053 36.3676 30.8133 36.7689 30.552C37.1796 30.2907 37.6883 30.16 38.2949 30.16H38.3789C39.2843 30.16 39.9703 30.454 40.4369 31.042C40.9036 31.6207 41.1369 32.4887 41.1369 33.646V38H39.1909V33.478C39.1909 33.0113 39.0556 32.6333 38.7849 32.344C38.5236 32.0547 38.1596 31.91 37.6929 31.91C37.2169 31.91 36.8296 32.0593 36.5309 32.358C36.2416 32.6473 36.0969 33.0393 36.0969 33.534V38H34.1509ZM46.533 38.098C45.833 38.098 45.2544 38.0093 44.797 37.832C44.349 37.6453 44.013 37.3373 43.789 36.908C43.565 36.4693 43.453 35.8813 43.453 35.144L43.467 28.256H45.287L45.273 35.27C45.273 35.6433 45.371 35.9327 45.567 36.138C45.7724 36.334 46.0617 36.432 46.435 36.432H47.625V38.098H46.533ZM42.249 31.826V30.398H47.625V31.826H42.249ZM52.6193 38.266C51.966 38.266 51.392 38.154 50.8973 37.93C50.412 37.706 50.006 37.4073 49.6793 37.034C49.362 36.6513 49.1193 36.2267 48.9513 35.76C48.7927 35.2933 48.7133 34.8173 48.7133 34.332V34.066C48.7133 33.562 48.7927 33.0767 48.9513 32.61C49.1193 32.134 49.362 31.714 49.6793 31.35C50.006 30.9767 50.4073 30.6827 50.8833 30.468C51.3593 30.244 51.91 30.132 52.5353 30.132C53.3567 30.132 54.0427 30.314 54.5933 30.678C55.1533 31.0327 55.5733 31.504 55.8533 32.092C56.1333 32.6707 56.2733 33.296 56.2733 33.968V34.668H49.5393V33.478H55.0553L54.4533 34.066C54.4533 33.5807 54.3833 33.1653 54.2433 32.82C54.1033 32.4747 53.8887 32.2087 53.5993 32.022C53.3193 31.8353 52.9647 31.742 52.5353 31.742C52.106 31.742 51.742 31.84 51.4433 32.036C51.1447 32.232 50.916 32.5167 50.7573 32.89C50.608 33.254 50.5333 33.6927 50.5333 34.206C50.5333 34.682 50.608 35.1067 50.7573 35.48C50.9067 35.844 51.1353 36.1333 51.4433 36.348C51.7513 36.5533 52.1433 36.656 52.6193 36.656C53.0953 36.656 53.4827 36.5627 53.7813 36.376C54.08 36.18 54.2713 35.942 54.3553 35.662H56.1473C56.0353 36.1847 55.8207 36.642 55.5033 37.034C55.186 37.426 54.78 37.7293 54.2853 37.944C53.8 38.1587 53.2447 38.266 52.6193 38.266ZM57.899 38V30.398H59.439V33.618H59.397C59.397 32.526 59.6303 31.7 60.097 31.14C60.5636 30.58 61.2496 30.3 62.155 30.3H62.435V31.994H61.903C61.2496 31.994 60.741 32.1713 60.377 32.526C60.0223 32.8713 59.845 33.3753 59.845 34.038V38H57.899ZM63.9599 38V30.216C63.9599 29.348 64.1979 28.7087 64.6739 28.298C65.1592 27.878 65.8732 27.668 66.8159 27.668H67.7679V29.166H66.6759C66.3865 29.166 66.1625 29.2453 66.0039 29.404C65.8545 29.5533 65.7799 29.768 65.7799 30.048V38H63.9599ZM63.0079 31.952V30.524H67.8939V31.952H63.0079ZM73.6886 38V35.746H73.3666V33.24C73.3666 32.8013 73.2592 32.4747 73.0446 32.26C72.8299 32.0453 72.4986 31.938 72.0506 31.938C71.8172 31.938 71.5372 31.9427 71.2106 31.952C70.8839 31.9613 70.5526 31.9753 70.2166 31.994C69.8899 32.0033 69.5959 32.0173 69.3346 32.036V30.384C69.5492 30.3653 69.7919 30.3467 70.0626 30.328C70.3332 30.3093 70.6086 30.3 70.8886 30.3C71.1779 30.2907 71.4486 30.286 71.7006 30.286C72.4846 30.286 73.1332 30.3887 73.6466 30.594C74.1692 30.7993 74.5612 31.1213 74.8226 31.56C75.0932 31.9987 75.2286 32.5727 75.2286 33.282V38H73.6886ZM71.2386 38.196C70.6879 38.196 70.2026 38.098 69.7826 37.902C69.3719 37.706 69.0499 37.426 68.8166 37.062C68.5926 36.698 68.4806 36.2593 68.4806 35.746C68.4806 35.186 68.6159 34.7287 68.8866 34.374C69.1666 34.0193 69.5539 33.7533 70.0486 33.576C70.5526 33.3987 71.1406 33.31 71.8126 33.31H73.5766V34.472H71.7846C71.3366 34.472 70.9912 34.584 70.7486 34.808C70.5152 35.0227 70.3986 35.3027 70.3986 35.648C70.3986 35.9933 70.5152 36.2733 70.7486 36.488C70.9912 36.7027 71.3366 36.81 71.7846 36.81C72.0552 36.81 72.3026 36.7633 72.5266 36.67C72.7599 36.5673 72.9512 36.3993 73.1006 36.166C73.2592 35.9233 73.3479 35.5967 73.3666 35.186L73.8426 35.732C73.7959 36.264 73.6652 36.712 73.4506 37.076C73.2452 37.44 72.9559 37.72 72.5826 37.916C72.2186 38.1027 71.7706 38.196 71.2386 38.196ZM80.687 38.266C80.0244 38.266 79.4504 38.154 78.965 37.93C78.489 37.706 78.0877 37.4073 77.761 37.034C77.4437 36.6607 77.2057 36.2407 77.047 35.774C76.8884 35.3073 76.809 34.8313 76.809 34.346V34.08C76.809 33.5667 76.8884 33.0767 77.047 32.61C77.215 32.134 77.4624 31.714 77.789 31.35C78.1157 30.9767 78.517 30.6827 78.993 30.468C79.4784 30.244 80.0384 30.132 80.673 30.132C81.3357 30.132 81.9284 30.2627 82.451 30.524C82.9737 30.776 83.389 31.1307 83.697 31.588C84.0144 32.0453 84.1917 32.5773 84.229 33.184H82.339C82.2924 32.792 82.1244 32.4653 81.835 32.204C81.555 31.9427 81.1677 31.812 80.673 31.812C80.2437 31.812 79.8844 31.9147 79.595 32.12C79.315 32.3253 79.105 32.61 78.965 32.974C78.825 33.3287 78.755 33.7393 78.755 34.206C78.755 34.654 78.8204 35.06 78.951 35.424C79.091 35.788 79.301 36.0727 79.581 36.278C79.8704 36.4833 80.239 36.586 80.687 36.586C81.023 36.586 81.3124 36.5253 81.555 36.404C81.7977 36.2827 81.989 36.1147 82.129 35.9C82.2784 35.6853 82.3717 35.4427 82.409 35.172H84.299C84.2617 35.788 84.0797 36.3293 83.753 36.796C83.4357 37.2533 83.011 37.6127 82.479 37.874C81.9564 38.1353 81.359 38.266 80.687 38.266ZM89.26 38.266C88.6066 38.266 88.0326 38.154 87.538 37.93C87.0526 37.706 86.6466 37.4073 86.32 37.034C86.0026 36.6513 85.76 36.2267 85.592 35.76C85.4333 35.2933 85.354 34.8173 85.354 34.332V34.066C85.354 33.562 85.4333 33.0767 85.592 32.61C85.76 32.134 86.0026 31.714 86.32 31.35C86.6466 30.9767 87.048 30.6827 87.524 30.468C88 30.244 88.5506 30.132 89.176 30.132C89.9973 30.132 90.6833 30.314 91.234 30.678C91.794 31.0327 92.214 31.504 92.494 32.092C92.774 32.6707 92.914 33.296 92.914 33.968V34.668H86.18V33.478H91.696L91.094 34.066C91.094 33.5807 91.024 33.1653 90.884 32.82C90.744 32.4747 90.5293 32.2087 90.24 32.022C89.96 31.8353 89.6053 31.742 89.176 31.742C88.7466 31.742 88.3826 31.84 88.084 32.036C87.7853 32.232 87.5566 32.5167 87.398 32.89C87.2486 33.254 87.174 33.6927 87.174 34.206C87.174 34.682 87.2486 35.1067 87.398 35.48C87.5473 35.844 87.776 36.1333 88.084 36.348C88.392 36.5533 88.784 36.656 89.26 36.656C89.736 36.656 90.1233 36.5627 90.422 36.376C90.7206 36.18 90.912 35.942 90.996 35.662H92.788C92.676 36.1847 92.4613 36.642 92.144 37.034C91.8266 37.426 91.4206 37.7293 90.926 37.944C90.4406 38.1587 89.8853 38.266 89.26 38.266ZM99.4231 38.056V36.208H101.537C102.069 36.208 102.54 36.1287 102.951 35.97C103.371 35.802 103.726 35.5687 104.015 35.27C104.304 34.9713 104.524 34.6213 104.673 34.22C104.832 33.8093 104.911 33.3567 104.911 32.862C104.911 32.3487 104.832 31.8913 104.673 31.49C104.524 31.0793 104.304 30.7293 104.015 30.44C103.726 30.1507 103.371 29.9313 102.951 29.782C102.54 29.6327 102.069 29.558 101.537 29.558H99.4231V27.71H101.411C102.335 27.71 103.142 27.8453 103.833 28.116C104.524 28.3867 105.098 28.76 105.555 29.236C106.012 29.7027 106.353 30.2393 106.577 30.846C106.81 31.4433 106.927 32.064 106.927 32.708V33.016C106.927 33.632 106.81 34.2387 106.577 34.836C106.353 35.4333 106.012 35.9747 105.555 36.46C105.098 36.9453 104.524 37.3327 103.833 37.622C103.142 37.9113 102.335 38.056 101.411 38.056H99.4231ZM97.7151 38.056V27.71H99.7031V38.056H97.7151ZM111.955 38.266C111.302 38.266 110.728 38.154 110.233 37.93C109.748 37.706 109.342 37.4073 109.015 37.034C108.698 36.6513 108.455 36.2267 108.287 35.76C108.129 35.2933 108.049 34.8173 108.049 34.332V34.066C108.049 33.562 108.129 33.0767 108.287 32.61C108.455 32.134 108.698 31.714 109.015 31.35C109.342 30.9767 109.743 30.6827 110.219 30.468C110.695 30.244 111.246 30.132 111.871 30.132C112.693 30.132 113.379 30.314 113.929 30.678C114.489 31.0327 114.909 31.504 115.189 32.092C115.469 32.6707 115.609 33.296 115.609 33.968V34.668H108.875V33.478H114.391L113.789 34.066C113.789 33.5807 113.719 33.1653 113.579 32.82C113.439 32.4747 113.225 32.2087 112.935 32.022C112.655 31.8353 112.301 31.742 111.871 31.742C111.442 31.742 111.078 31.84 110.779 32.036C110.481 32.232 110.252 32.5167 110.093 32.89C109.944 33.254 109.869 33.6927 109.869 34.206C109.869 34.682 109.944 35.1067 110.093 35.48C110.243 35.844 110.471 36.1333 110.779 36.348C111.087 36.5533 111.479 36.656 111.955 36.656C112.431 36.656 112.819 36.5627 113.117 36.376C113.416 36.18 113.607 35.942 113.691 35.662H115.483C115.371 36.1847 115.157 36.642 114.839 37.034C114.522 37.426 114.116 37.7293 113.621 37.944C113.136 38.1587 112.581 38.266 111.955 38.266ZM119.993 38.238C118.948 38.238 118.126 38.0187 117.529 37.58C116.941 37.132 116.633 36.516 116.605 35.732H118.355C118.383 35.9933 118.528 36.2313 118.789 36.446C119.05 36.6607 119.461 36.768 120.021 36.768C120.488 36.768 120.856 36.684 121.127 36.516C121.407 36.348 121.547 36.1193 121.547 35.83C121.547 35.578 121.44 35.3773 121.225 35.228C121.02 35.0787 120.665 34.9807 120.161 34.934L119.489 34.864C118.64 34.7707 117.986 34.528 117.529 34.136C117.072 33.744 116.843 33.2213 116.843 32.568C116.843 32.0453 116.974 31.6067 117.235 31.252C117.496 30.8973 117.856 30.6313 118.313 30.454C118.78 30.2673 119.312 30.174 119.909 30.174C120.842 30.174 121.598 30.3793 122.177 30.79C122.756 31.2007 123.059 31.8027 123.087 32.596H121.337C121.318 32.3347 121.188 32.1107 120.945 31.924C120.702 31.7373 120.352 31.644 119.895 31.644C119.484 31.644 119.167 31.7233 118.943 31.882C118.719 32.0407 118.607 32.246 118.607 32.498C118.607 32.7407 118.696 32.9273 118.873 33.058C119.06 33.1887 119.358 33.2773 119.769 33.324L120.441 33.394C121.337 33.4873 122.037 33.7347 122.541 34.136C123.054 34.5373 123.311 35.0787 123.311 35.76C123.311 36.264 123.171 36.7027 122.891 37.076C122.62 37.44 122.238 37.7247 121.743 37.93C121.248 38.1353 120.665 38.238 119.993 38.238ZM125.283 38V30.398H127.229V38H125.283ZM124.219 31.854V30.398H127.229V31.854H124.219ZM125.997 29.488C125.614 29.488 125.329 29.39 125.143 29.194C124.965 28.9887 124.877 28.7367 124.877 28.438C124.877 28.1207 124.965 27.864 125.143 27.668C125.329 27.472 125.614 27.374 125.997 27.374C126.379 27.374 126.659 27.472 126.837 27.668C127.014 27.864 127.103 28.1207 127.103 28.438C127.103 28.7367 127.014 28.9887 126.837 29.194C126.659 29.39 126.379 29.488 125.997 29.488ZM132.439 40.996C132.075 40.996 131.702 40.982 131.319 40.954C130.946 40.926 130.596 40.8887 130.269 40.842V39.218C130.605 39.2553 130.965 39.288 131.347 39.316C131.73 39.3533 132.089 39.372 132.425 39.372C133.051 39.372 133.555 39.2973 133.937 39.148C134.329 38.9987 134.614 38.7607 134.791 38.434C134.978 38.1167 135.071 37.7107 135.071 37.216V35.718L135.491 34.766C135.463 35.466 135.319 36.0633 135.057 36.558C134.796 37.0433 134.441 37.4167 133.993 37.678C133.545 37.93 133.027 38.056 132.439 38.056C131.917 38.056 131.441 37.958 131.011 37.762C130.591 37.566 130.227 37.2953 129.919 36.95C129.621 36.6047 129.387 36.1987 129.219 35.732C129.051 35.2653 128.967 34.766 128.967 34.234V33.94C128.967 33.408 129.051 32.9133 129.219 32.456C129.397 31.9893 129.644 31.5833 129.961 31.238C130.279 30.8927 130.657 30.6267 131.095 30.44C131.534 30.2533 132.019 30.16 132.551 30.16C133.177 30.16 133.718 30.2953 134.175 30.566C134.642 30.8367 135.006 31.2287 135.267 31.742C135.529 32.2553 135.673 32.8853 135.701 33.632L135.365 33.688V30.398H136.905V37.104C136.905 38.028 136.747 38.7747 136.429 39.344C136.112 39.9133 135.622 40.3287 134.959 40.59C134.306 40.8607 133.466 40.996 132.439 40.996ZM132.999 36.39C133.373 36.39 133.713 36.306 134.021 36.138C134.329 35.97 134.577 35.7273 134.763 35.41C134.95 35.0927 135.043 34.71 135.043 34.262V33.772C135.043 33.3427 134.945 32.9787 134.749 32.68C134.563 32.3813 134.315 32.1573 134.007 32.008C133.699 31.8493 133.363 31.77 132.999 31.77C132.589 31.77 132.225 31.868 131.907 32.064C131.599 32.2507 131.357 32.5167 131.179 32.862C131.002 33.2073 130.913 33.618 130.913 34.094C130.913 34.5607 131.002 34.9667 131.179 35.312C131.357 35.6573 131.599 35.9233 131.907 36.11C132.225 36.2967 132.589 36.39 132.999 36.39ZM139.028 38V30.398H140.568V33.66H140.428C140.428 32.8853 140.531 32.2413 140.736 31.728C140.941 31.2053 141.245 30.8133 141.646 30.552C142.057 30.2907 142.565 30.16 143.172 30.16H143.256C144.161 30.16 144.847 30.454 145.314 31.042C145.781 31.6207 146.014 32.4887 146.014 33.646V38H144.068V33.478C144.068 33.0113 143.933 32.6333 143.662 32.344C143.401 32.0547 143.037 31.91 142.57 31.91C142.094 31.91 141.707 32.0593 141.408 32.358C141.119 32.6473 140.974 33.0393 140.974 33.534V38H139.028Z" fill="#0C0F14"/>
<path d="M17.6936 8.89977C19.1734 8.52981 19.2208 6.44401 17.7592 6.00733L3.66198 1.79535C2.51884 1.4538 1.4538 2.51885 1.79535 3.66198L6.00733 17.7592C6.44401 19.2208 8.52981 19.1734 8.89977 17.6936L10.4403 11.5317C10.5746 10.9942 10.9942 10.5746 11.5317 10.4403L17.6936 8.89977Z" fill="#A54CFE"/>
</svg>
