<svg width="105" height="52" viewBox="0 0 105 52" fill="none" xmlns="http://www.w3.org/2000/svg">
<rect x="16.7158" y="16" width="88" height="36" rx="10" fill="#1C1E22"/>
<path d="M31.6985 39.07V37.474H34.2605C34.7271 37.474 35.0818 37.348 35.3245 37.096C35.5671 36.8347 35.6885 36.48 35.6885 36.032C35.6885 35.584 35.5671 35.2387 35.3245 34.996C35.0818 34.744 34.7271 34.618 34.2605 34.618H31.6985V33.4H34.1205C34.8018 33.4 35.4085 33.484 35.9405 33.652C36.4818 33.8107 36.9018 34.0813 37.2005 34.464C37.5085 34.8467 37.6625 35.36 37.6625 36.004V36.2C37.6625 36.8067 37.5271 37.3247 37.2565 37.754C36.9951 38.174 36.5985 38.5007 36.0665 38.734C35.5438 38.958 34.8951 39.07 34.1205 39.07H31.6985ZM30.0325 39.07V28.71H31.9785V39.07H30.0325ZM31.6985 34.296V33.078H33.8825C34.3585 33.078 34.7085 32.952 34.9325 32.7C35.1565 32.448 35.2685 32.112 35.2685 31.692C35.2685 31.272 35.1565 30.936 34.9325 30.684C34.7085 30.432 34.3585 30.306 33.8825 30.306H31.6985V28.71H33.7005C34.8578 28.71 35.7351 28.9527 36.3325 29.438C36.9391 29.9233 37.2425 30.6187 37.2425 31.524V31.72C37.2425 32.3547 37.0885 32.8633 36.7805 33.246C36.4818 33.6193 36.0665 33.89 35.5345 34.058C35.0025 34.2167 34.3911 34.296 33.7005 34.296H31.6985ZM42.1071 39.238C41.2298 39.238 40.5485 38.9487 40.0631 38.37C39.5871 37.7913 39.3491 36.9327 39.3491 35.794V31.384H41.2951V35.962C41.2951 36.4287 41.4258 36.802 41.6871 37.082C41.9485 37.3527 42.3031 37.488 42.7511 37.488C43.1991 37.488 43.5631 37.3433 43.8431 37.054C44.1325 36.7647 44.2771 36.3727 44.2771 35.878V31.384H46.2231V39H44.6831V35.766H44.8371C44.8371 36.5313 44.7391 37.1707 44.5431 37.684C44.3471 38.1973 44.0531 38.5847 43.6611 38.846C43.2691 39.1073 42.7791 39.238 42.1911 39.238H42.1071ZM51.2165 39.238C50.1712 39.238 49.3499 39.0187 48.7525 38.58C48.1645 38.132 47.8565 37.516 47.8285 36.732H49.5785C49.6065 36.9933 49.7512 37.2313 50.0125 37.446C50.2739 37.6607 50.6845 37.768 51.2445 37.768C51.7112 37.768 52.0799 37.684 52.3505 37.516C52.6305 37.348 52.7705 37.1193 52.7705 36.83C52.7705 36.578 52.6632 36.3773 52.4485 36.228C52.2432 36.0787 51.8885 35.9807 51.3845 35.934L50.7125 35.864C49.8632 35.7707 49.2099 35.528 48.7525 35.136C48.2952 34.744 48.0665 34.2213 48.0665 33.568C48.0665 33.0453 48.1972 32.6067 48.4585 32.252C48.7199 31.8973 49.0792 31.6313 49.5365 31.454C50.0032 31.2673 50.5352 31.174 51.1325 31.174C52.0659 31.174 52.8219 31.3793 53.4005 31.79C53.9792 32.2007 54.2825 32.8027 54.3105 33.596H52.5605C52.5419 33.3347 52.4112 33.1107 52.1685 32.924C51.9259 32.7373 51.5759 32.644 51.1185 32.644C50.7079 32.644 50.3905 32.7233 50.1665 32.882C49.9425 33.0407 49.8305 33.246 49.8305 33.498C49.8305 33.7407 49.9192 33.9273 50.0965 34.058C50.2832 34.1887 50.5819 34.2773 50.9925 34.324L51.6645 34.394C52.5605 34.4873 53.2605 34.7347 53.7645 35.136C54.2779 35.5373 54.5345 36.0787 54.5345 36.76C54.5345 37.264 54.3945 37.7027 54.1145 38.076C53.8439 38.44 53.4612 38.7247 52.9665 38.93C52.4719 39.1353 51.8885 39.238 51.2165 39.238ZM56.5061 39V31.398H58.4521V39H56.5061ZM55.4421 32.854V31.398H58.4521V32.854H55.4421ZM57.2201 30.488C56.8375 30.488 56.5528 30.39 56.3661 30.194C56.1888 29.9887 56.1001 29.7367 56.1001 29.438C56.1001 29.1207 56.1888 28.864 56.3661 28.668C56.5528 28.472 56.8375 28.374 57.2201 28.374C57.6028 28.374 57.8828 28.472 58.0601 28.668C58.2375 28.864 58.3261 29.1207 58.3261 29.438C58.3261 29.7367 58.2375 29.9887 58.0601 30.194C57.8828 30.39 57.6028 30.488 57.2201 30.488ZM60.6949 39V31.398H62.2349V34.66H62.0949C62.0949 33.8853 62.1975 33.2413 62.4029 32.728C62.6082 32.2053 62.9115 31.8133 63.3129 31.552C63.7235 31.2907 64.2322 31.16 64.8389 31.16H64.9229C65.8282 31.16 66.5142 31.454 66.9809 32.042C67.4475 32.6207 67.6809 33.4887 67.6809 34.646V39H65.7349V34.478C65.7349 34.0113 65.5995 33.6333 65.3289 33.344C65.0675 33.0547 64.7035 32.91 64.2369 32.91C63.7609 32.91 63.3735 33.0593 63.0749 33.358C62.7855 33.6473 62.6409 34.0393 62.6409 34.534V39H60.6949ZM73.175 39.266C72.5217 39.266 71.9477 39.154 71.453 38.93C70.9677 38.706 70.5617 38.4073 70.235 38.034C69.9177 37.6513 69.675 37.2267 69.507 36.76C69.3483 36.2933 69.269 35.8173 69.269 35.332V35.066C69.269 34.562 69.3483 34.0767 69.507 33.61C69.675 33.134 69.9177 32.714 70.235 32.35C70.5617 31.9767 70.963 31.6827 71.439 31.468C71.915 31.244 72.4657 31.132 73.091 31.132C73.9123 31.132 74.5983 31.314 75.149 31.678C75.709 32.0327 76.129 32.504 76.409 33.092C76.689 33.6707 76.829 34.296 76.829 34.968V35.668H70.095V34.478H75.611L75.009 35.066C75.009 34.5807 74.939 34.1653 74.799 33.82C74.659 33.4747 74.4443 33.2087 74.155 33.022C73.875 32.8353 73.5203 32.742 73.091 32.742C72.6617 32.742 72.2977 32.84 71.999 33.036C71.7003 33.232 71.4717 33.5167 71.313 33.89C71.1637 34.254 71.089 34.6927 71.089 35.206C71.089 35.682 71.1637 36.1067 71.313 36.48C71.4623 36.844 71.691 37.1333 71.999 37.348C72.307 37.5533 72.699 37.656 73.175 37.656C73.651 37.656 74.0383 37.5627 74.337 37.376C74.6357 37.18 74.827 36.942 74.911 36.662H76.703C76.591 37.1847 76.3763 37.642 76.059 38.034C75.7417 38.426 75.3357 38.7293 74.841 38.944C74.3557 39.1587 73.8003 39.266 73.175 39.266ZM81.2126 39.238C80.1673 39.238 79.346 39.0187 78.7486 38.58C78.1606 38.132 77.8526 37.516 77.8246 36.732H79.5746C79.6026 36.9933 79.7473 37.2313 80.0086 37.446C80.27 37.6607 80.6806 37.768 81.2406 37.768C81.7073 37.768 82.076 37.684 82.3466 37.516C82.6266 37.348 82.7666 37.1193 82.7666 36.83C82.7666 36.578 82.6593 36.3773 82.4446 36.228C82.2393 36.0787 81.8846 35.9807 81.3806 35.934L80.7086 35.864C79.8593 35.7707 79.206 35.528 78.7486 35.136C78.2913 34.744 78.0626 34.2213 78.0626 33.568C78.0626 33.0453 78.1933 32.6067 78.4546 32.252C78.716 31.8973 79.0753 31.6313 79.5326 31.454C79.9993 31.2673 80.5313 31.174 81.1286 31.174C82.062 31.174 82.818 31.3793 83.3966 31.79C83.9753 32.2007 84.2786 32.8027 84.3066 33.596H82.5566C82.538 33.3347 82.4073 33.1107 82.1646 32.924C81.922 32.7373 81.572 32.644 81.1146 32.644C80.704 32.644 80.3866 32.7233 80.1626 32.882C79.9386 33.0407 79.8266 33.246 79.8266 33.498C79.8266 33.7407 79.9153 33.9273 80.0926 34.058C80.2793 34.1887 80.578 34.2773 80.9886 34.324L81.6606 34.394C82.5566 34.4873 83.2566 34.7347 83.7606 35.136C84.274 35.5373 84.5306 36.0787 84.5306 36.76C84.5306 37.264 84.3906 37.7027 84.1106 38.076C83.84 38.44 83.4573 38.7247 82.9626 38.93C82.468 39.1353 81.8846 39.238 81.2126 39.238ZM88.8962 39.238C87.8509 39.238 87.0296 39.0187 86.4322 38.58C85.8442 38.132 85.5362 37.516 85.5082 36.732H87.2582C87.2862 36.9933 87.4309 37.2313 87.6922 37.446C87.9536 37.6607 88.3642 37.768 88.9242 37.768C89.3909 37.768 89.7596 37.684 90.0302 37.516C90.3102 37.348 90.4502 37.1193 90.4502 36.83C90.4502 36.578 90.3429 36.3773 90.1282 36.228C89.9229 36.0787 89.5682 35.9807 89.0642 35.934L88.3922 35.864C87.5429 35.7707 86.8896 35.528 86.4322 35.136C85.9749 34.744 85.7462 34.2213 85.7462 33.568C85.7462 33.0453 85.8769 32.6067 86.1382 32.252C86.3996 31.8973 86.7589 31.6313 87.2162 31.454C87.6829 31.2673 88.2149 31.174 88.8122 31.174C89.7456 31.174 90.5016 31.3793 91.0802 31.79C91.6589 32.2007 91.9622 32.8027 91.9902 33.596H90.2402C90.2216 33.3347 90.0909 33.1107 89.8482 32.924C89.6056 32.7373 89.2556 32.644 88.7982 32.644C88.3876 32.644 88.0702 32.7233 87.8462 32.882C87.6222 33.0407 87.5102 33.246 87.5102 33.498C87.5102 33.7407 87.5989 33.9273 87.7762 34.058C87.9629 34.1887 88.2616 34.2773 88.6722 34.324L89.3442 34.394C90.2402 34.4873 90.9402 34.7347 91.4442 35.136C91.9576 35.5373 92.2142 36.0787 92.2142 36.76C92.2142 37.264 92.0742 37.7027 91.7942 38.076C91.5236 38.44 91.1409 38.7247 90.6462 38.93C90.1516 39.1353 89.5682 39.238 88.8962 39.238Z" fill="white"/>
<path d="M18.4094 8.89971C19.8893 8.52975 19.9366 6.44395 18.4751 6.00727L4.3778 1.79529C3.23466 1.45374 2.16962 2.51879 2.51117 3.66192L6.72315 17.7592C7.15983 19.2207 9.24563 19.1734 9.61559 17.6936L11.1561 11.5316C11.2904 10.9942 11.7101 10.5746 12.2475 10.4402L18.4094 8.89971Z" fill="#1C1E22"/>
</svg>
