<svg width="187" height="26" viewBox="0 0 187 26" fill="none" xmlns="http://www.w3.org/2000/svg">
<g clip-path="url(#clip0_2574_10969)">
<path d="M17.95 12.9866C17.95 15.3829 16.0075 17.3255 13.6112 17.3255C11.215 17.3255 9.27246 15.3829 9.27246 12.9866C9.27246 10.5905 11.215 8.64789 13.6112 8.64789C16.0075 8.64789 17.95 10.5905 17.95 12.9866Z" fill="#0B44CF"/>
<path d="M19.7578 12.9849H26.6276V26.003H19.7578V12.9849Z" fill="#0B44CF"/>
<path d="M19.7575 12.9866C19.7575 9.89291 17.4718 7.33298 14.4971 6.90345V0C21.2725 0.455504 26.6273 6.09575 26.6273 12.9866C26.6273 17.9537 23.8451 22.271 19.7542 24.465V13.1923C19.7564 13.1241 19.7575 13.0555 19.7575 12.9866Z" fill="#0B44CF"/>
<path d="M12.7249 19.0699C9.75013 18.6403 7.46446 16.0804 7.46446 12.9866C7.46446 9.89291 9.75013 7.33298 12.7249 6.90346V0C5.94948 0.455504 0.594727 6.09575 0.594727 12.9866C0.594727 19.8776 5.94948 25.5178 12.7249 25.9734V19.0699Z" fill="#0B44CF"/>
<path d="M35.0963 10.306C34.9463 10.306 34.769 10.3538 34.5643 10.4493C34.3598 10.5448 34.1756 10.6812 34.012 10.8584C33.7665 11.1449 33.6438 11.4722 33.6438 11.8405V14.0092C33.6438 14.4183 33.8006 14.7798 34.1143 15.0935C34.3871 15.3799 34.7144 15.5231 35.0963 15.5231H37.2036C37.5309 15.5231 37.8105 15.6459 38.0424 15.8914C38.2879 16.1232 38.4107 16.4028 38.4107 16.7302C38.4107 17.0439 38.2879 17.3235 38.0424 17.569C37.8105 17.8009 37.5309 17.9168 37.2036 17.9168H35.1781C34.087 17.9168 33.1664 17.5417 32.4162 16.7915C31.6523 16.0278 31.2705 15.1071 31.2705 14.0296V11.8405C31.2705 10.763 31.6523 9.8423 32.4162 9.07852C32.7981 8.69662 33.2141 8.41019 33.6642 8.21924C34.1143 8.01465 34.6189 7.91235 35.1781 7.91235H38.8285H38.9412C40.7951 7.91235 42.2979 9.41525 42.2979 11.2691V16.7302C42.2979 17.0439 42.182 17.3235 41.9501 17.569C41.7182 17.8009 41.4386 17.9168 41.1112 17.9168C40.7839 17.9168 40.5043 17.8009 40.2725 17.569C40.0406 17.3235 39.9246 17.0439 39.9246 16.7302V11.7037C39.9246 10.9318 39.2989 10.306 38.527 10.306H38.4863H35.0963Z" fill="white"/>
<path d="M54.77 13.9682C54.77 15.0594 54.3881 15.9869 53.6243 16.7507C52.8605 17.5145 51.9467 17.8964 50.8828 17.8964L47.4018 17.9168C45.3663 17.9056 43.7222 16.2522 43.7222 14.2167V13.9887V9.07854C43.7222 8.76483 43.8381 8.49204 44.0699 8.26017C44.3018 8.01466 44.5814 7.89191 44.9088 7.89191C45.2361 7.89191 45.5157 8.01466 45.7476 8.26017C45.9794 8.49204 46.0954 8.76483 46.0954 9.07854V13.9682C46.0954 14.8157 46.7824 15.5027 47.6298 15.5027H48.0042H50.9033C51.0942 15.4891 51.2783 15.4481 51.4557 15.3799C51.6329 15.298 51.8034 15.1754 51.9671 15.0117C52.2535 14.698 52.3968 14.3569 52.3968 13.9887V9.07854C52.3968 8.76483 52.5127 8.49204 52.7445 8.26017C52.9764 8.01466 53.2561 7.89191 53.5834 7.89191C53.9107 7.89191 54.1903 8.01466 54.4222 8.26017C54.6541 8.49204 54.77 8.76483 54.77 9.07854V13.9682Z" fill="white"/>
<path d="M58.5676 7.91238H60.102C60.4294 7.91238 60.709 8.03513 60.9408 8.28065C61.1727 8.51251 61.2886 8.7853 61.2886 9.099C61.2886 9.42633 61.1727 9.71279 60.9408 9.9583C60.709 10.1902 60.4294 10.3061 60.102 10.3061H58.5676V14.0092C58.5676 14.4183 58.7244 14.7798 59.0381 15.0935C59.3246 15.38 59.6587 15.5231 60.0406 15.5231C60.3952 15.5231 60.6885 15.6459 60.9204 15.8914C61.1659 16.1233 61.2886 16.4029 61.2886 16.7302C61.2886 17.044 61.1727 17.3235 60.9408 17.5691C60.709 17.8009 60.4294 17.9168 60.102 17.9168C59.0109 17.9168 58.0902 17.5418 57.34 16.7916C56.5763 16.0278 56.1943 15.1071 56.1943 14.0296V4.78214C56.1943 4.46844 56.3034 4.19566 56.5217 3.96378C56.7535 3.71828 57.0331 3.59552 57.3604 3.59552C57.6879 3.59552 57.9674 3.71828 58.1993 3.96378C58.4448 4.19566 58.5676 4.46844 58.5676 4.78214V7.91238Z" fill="white"/>
<path d="M66.6201 17.9168C65.5289 17.9168 64.6083 17.5417 63.8581 16.7915C63.0943 16.0278 62.7124 15.1071 62.7124 14.0296V11.8405C62.7124 10.763 63.0943 9.8423 63.8581 9.07852C64.24 8.69662 64.656 8.41019 65.1061 8.21924C65.5562 8.01465 66.0608 7.91235 66.6201 7.91235H69.8526C70.9165 7.91235 71.8303 8.29426 72.5941 9.05806C73.3579 9.82187 73.7398 10.7493 73.7398 11.8405V14.0296C73.7398 15.0798 73.3648 15.9937 72.6146 16.7711C71.8507 17.535 70.9301 17.9168 69.8526 17.9168H66.6201ZM71.3666 11.7995C71.3666 11.4177 71.2165 11.0631 70.9165 10.7357C70.63 10.4493 70.2754 10.306 69.8526 10.306H66.6201C66.3473 10.306 66.1154 10.3674 65.9244 10.4902C65.7335 10.6129 65.5971 10.7085 65.5153 10.7766C65.2288 11.0903 65.0856 11.4381 65.0856 11.8201V14.0092C65.0856 14.3911 65.2288 14.7388 65.5153 15.0526C65.5971 15.1208 65.7335 15.2162 65.9244 15.339C66.1154 15.4617 66.3473 15.5231 66.6201 15.5231H69.8526C70.2754 15.5231 70.63 15.3799 70.9165 15.0935C71.2165 14.7661 71.3666 14.4115 71.3666 14.0296V11.7995Z" fill="white"/>
<path d="M108.31 10.306C108.16 10.306 107.982 10.3538 107.778 10.4493C107.574 10.5448 107.389 10.6812 107.226 10.8584C106.98 11.1449 106.858 11.4722 106.858 11.8405V14.0092C106.858 14.4183 107.015 14.7798 107.328 15.0935C107.601 15.3799 107.928 15.5231 108.31 15.5231H114.325C114.652 15.5231 114.932 15.6459 115.164 15.8914C115.396 16.1232 115.512 16.4028 115.512 16.7302C115.512 17.0439 115.396 17.3235 115.164 17.569C114.932 17.8009 114.652 17.9168 114.325 17.9168H108.392C107.301 17.9168 106.381 17.5417 105.63 16.7915C104.866 16.0278 104.484 15.1071 104.484 14.0296V11.8405C104.484 10.763 104.866 9.8423 105.63 9.07852C106.012 8.69662 106.428 8.41019 106.878 8.21924C107.328 8.01465 107.833 7.91235 108.392 7.91235H114.325C114.652 7.91235 114.932 8.0351 115.164 8.28062C115.396 8.51248 115.512 8.78527 115.512 9.09897C115.512 9.4263 115.396 9.71276 115.164 9.95828C114.932 10.1901 114.652 10.306 114.325 10.306H108.31Z" fill="white"/>
<path d="M133.296 17.9168C132.205 17.9168 131.284 17.5417 130.534 16.7915C129.77 16.0278 129.389 15.1071 129.389 14.0296V11.8405C129.389 10.763 129.77 9.8423 130.534 9.07852C130.916 8.69662 131.332 8.41019 131.782 8.21924C132.232 8.01465 132.737 7.91235 133.296 7.91235H136.528C137.593 7.91235 138.506 8.29426 139.27 9.05806C140.034 9.82187 140.415 10.7493 140.415 11.8405V14.0296C140.415 15.0798 140.04 15.9937 139.291 16.7711C138.527 17.535 137.606 17.9168 136.528 17.9168H133.296ZM138.043 11.7995C138.043 11.4177 137.893 11.0631 137.593 10.7357C137.306 10.4493 136.951 10.306 136.528 10.306H133.296C133.023 10.306 132.791 10.3674 132.601 10.4902C132.409 10.6129 132.273 10.7085 132.191 10.7766C131.905 11.0903 131.761 11.4381 131.761 11.8201V14.0092C131.761 14.3911 131.905 14.7388 132.191 15.0526C132.273 15.1208 132.409 15.2162 132.601 15.339C132.791 15.4617 133.023 15.5231 133.296 15.5231H136.528C136.951 15.5231 137.306 15.3799 137.593 15.0935C137.893 14.7661 138.043 14.4115 138.043 14.0296V11.7995Z" fill="white"/>
<path d="M141.841 16.7302C141.841 16.4029 141.956 16.1233 142.188 15.8914C142.42 15.6459 142.7 15.5231 143.027 15.5231C143.354 15.5231 143.634 15.6459 143.866 15.8914C144.097 16.1233 144.213 16.4029 144.213 16.7302C144.213 17.0439 144.097 17.3235 143.866 17.5691C143.634 17.8009 143.354 17.9168 143.027 17.9168C142.7 17.9168 142.42 17.8009 142.188 17.5691C141.956 17.3235 141.841 17.0439 141.841 16.7302Z" fill="white"/>
<path d="M149.467 10.306C149.316 10.306 149.139 10.3538 148.935 10.4493C148.73 10.5448 148.546 10.6812 148.382 10.8584C148.137 11.1449 148.015 11.4722 148.015 11.8405V14.0092C148.015 14.4183 148.171 14.7798 148.484 15.0935C148.757 15.3799 149.085 15.5231 149.467 15.5231H155.482C155.809 15.5231 156.088 15.6459 156.321 15.8914C156.553 16.1232 156.668 16.4028 156.668 16.7302C156.668 17.0439 156.553 17.3235 156.321 17.569C156.088 17.8009 155.809 17.9168 155.482 17.9168H149.549C148.457 17.9168 147.537 17.5417 146.787 16.7915C146.023 16.0278 145.641 15.1071 145.641 14.0296V11.8405C145.641 10.763 146.023 9.8423 146.787 9.07852C147.169 8.69662 147.585 8.41019 148.035 8.21924C148.484 8.01465 148.99 7.91235 149.549 7.91235H155.482C155.809 7.91235 156.088 8.0351 156.321 8.28062C156.553 8.51248 156.668 8.78527 156.668 9.09897C156.668 9.4263 156.553 9.71276 156.321 9.95828C156.088 10.1901 155.809 10.306 155.482 10.306H149.467Z" fill="white"/>
<path d="M162.001 17.9168C160.91 17.9168 159.988 17.5417 159.239 16.7915C158.475 16.0278 158.093 15.1071 158.093 14.0296V11.8405C158.093 10.763 158.475 9.8423 159.239 9.07852C159.621 8.69662 160.037 8.41019 160.487 8.21924C160.937 8.01465 161.442 7.91235 162.001 7.91235H165.233C166.297 7.91235 167.211 8.29426 167.975 9.05806C168.738 9.82187 169.12 10.7493 169.12 11.8405V14.0296C169.12 15.0798 168.745 15.9937 167.996 16.7711C167.231 17.535 166.311 17.9168 165.233 17.9168H162.001ZM166.748 11.7995C166.748 11.4177 166.597 11.0631 166.297 10.7357C166.01 10.4493 165.656 10.306 165.233 10.306H162.001C161.728 10.306 161.496 10.3674 161.305 10.4902C161.114 10.6129 160.977 10.7085 160.896 10.7766C160.61 11.0903 160.467 11.4381 160.467 11.8201V14.0092C160.467 14.3911 160.61 14.7388 160.896 15.0526C160.977 15.1208 161.114 15.2162 161.305 15.339C161.496 15.4617 161.728 15.5231 162.001 15.5231H165.233C165.656 15.5231 166.01 15.3799 166.297 15.0935C166.597 14.7661 166.748 14.4115 166.748 14.0296V11.7995Z" fill="white"/>
<path d="M183.578 11.8201V11.7995C183.578 10.9747 182.908 10.306 182.084 10.306H179.445V16.7302C179.445 17.0439 179.329 17.3235 179.097 17.569C178.865 17.8009 178.586 17.9168 178.258 17.9168C177.93 17.9168 177.651 17.8009 177.42 17.569C177.187 17.3235 177.071 17.0439 177.071 16.7302V10.306H174.501H174.473C173.625 10.306 172.938 10.9931 172.938 11.8405V16.7302C172.938 17.0439 172.823 17.3235 172.591 17.569C172.359 17.8009 172.079 17.9168 171.753 17.9168C171.425 17.9168 171.139 17.8009 170.893 17.569C170.661 17.3235 170.545 17.0439 170.545 16.7302V11.8405V11.5601C170.545 9.54543 172.178 7.91235 174.193 7.91235H182.063C184.221 7.91235 185.971 9.6823 185.971 11.8405V16.7302C185.971 17.0439 185.848 17.3235 185.603 17.569C185.371 17.8009 185.091 17.9168 184.764 17.9168C184.437 17.9168 184.157 17.8009 183.925 17.569C183.693 17.3235 183.578 17.0439 183.578 16.7302V11.8201Z" fill="white"/>
<path d="M107.326 20.1825C107.326 19.6899 107.725 19.2905 108.218 19.2905H113.347C113.839 19.2905 114.239 19.6899 114.239 20.1825C114.239 20.6751 113.839 21.0745 113.347 21.0745H108.217C107.725 21.0745 107.326 20.6751 107.326 20.1825Z" fill="white"/>
<path d="M118.667 5.39168C118.667 4.89905 119.066 4.49969 119.559 4.49969H124.687C125.18 4.49969 125.58 4.89905 125.58 5.39168C125.58 5.88432 125.18 6.28368 124.687 6.28368H119.559C119.066 6.28368 118.667 5.88432 118.667 5.39168Z" fill="white"/>
<path d="M95.8634 10.306C95.713 10.306 95.5366 10.3538 95.3313 10.4493C95.1271 10.5448 94.9432 10.6812 94.7788 10.8584C94.5337 11.1449 94.4111 11.4722 94.4111 11.8405V14.0092C94.4111 14.4183 94.5681 14.7798 94.881 15.0935C95.154 15.3799 95.4818 15.5231 95.8634 15.5231H97.9703C98.2981 15.5231 98.5776 15.6459 98.8098 15.8914C99.0549 16.1232 99.1775 16.4028 99.1775 16.7302C99.1775 17.0439 99.0549 17.3235 98.8098 17.569C98.5776 17.8009 98.2981 17.9168 97.9703 17.9168H95.9451C94.854 17.9168 93.9338 17.5417 93.1833 16.7915C92.4195 16.0278 92.0376 15.1071 92.0376 14.0296V11.8405C92.0376 10.763 92.4195 9.8423 93.1833 9.07852C93.5652 8.69662 93.9812 8.41019 94.4315 8.21924C94.881 8.01465 95.3861 7.91235 95.9451 7.91235H99.5953H99.7086C101.562 7.91235 103.065 9.41525 103.065 11.2691V16.7302C103.065 17.0439 102.949 17.3235 102.717 17.569C102.485 17.8009 102.206 17.9168 101.879 17.9168C101.551 17.9168 101.271 17.8009 101.039 17.569C100.808 17.3235 100.692 17.0439 100.692 16.7302V11.7037C100.692 10.9318 100.066 10.306 99.2945 10.306H99.2536H95.8634Z" fill="white"/>
<path d="M120.772 10.306C120.623 10.306 120.446 10.3538 120.24 10.4493C120.036 10.5448 119.852 10.6812 119.688 10.8584C119.443 11.1449 119.32 11.4722 119.32 11.8405V14.0092C119.32 14.4183 119.477 14.7798 119.791 15.0935C120.063 15.3799 120.391 15.5231 120.772 15.5231H122.88C123.207 15.5231 123.487 15.6459 123.719 15.8914C123.964 16.1232 124.087 16.4028 124.087 16.7302C124.087 17.0439 123.964 17.3235 123.719 17.569C123.487 17.8009 123.207 17.9168 122.88 17.9168H120.854C119.763 17.9168 118.843 17.5417 118.093 16.7915C117.328 16.0278 116.947 15.1071 116.947 14.0296V11.8405C116.947 10.763 117.328 9.8423 118.093 9.07852C118.474 8.69662 118.89 8.41019 119.341 8.21924C119.791 8.01465 120.295 7.91235 120.854 7.91235H124.504H124.618C126.471 7.91235 127.974 9.41525 127.974 11.2691V16.7302C127.974 17.0439 127.858 17.3235 127.626 17.569C127.394 17.8009 127.115 17.9168 126.788 17.9168C126.46 17.9168 126.18 17.8009 125.948 17.569C125.717 17.3235 125.601 17.0439 125.601 16.7302V11.7037C125.601 10.9318 124.975 10.306 124.204 10.306H124.163H120.772Z" fill="white"/>
<path d="M88.1911 11.8201V11.7995C88.1911 10.9747 87.5224 10.306 86.6976 10.306H84.0584V16.7302C84.0584 17.0439 83.9424 17.3235 83.7106 17.569C83.4787 17.8009 83.1991 17.9168 82.8717 17.9168C82.5444 17.9168 82.2648 17.8009 82.0329 17.569C81.801 17.3235 81.6851 17.0439 81.6851 16.7302V10.306H79.1144H79.0868C78.2393 10.306 77.5524 10.9931 77.5524 11.8405V16.7302C77.5524 17.0439 77.4364 17.3235 77.2045 17.569C76.9727 17.8009 76.6931 17.9168 76.3657 17.9168C76.0384 17.9168 75.752 17.8009 75.5064 17.569C75.2746 17.3235 75.1587 17.0439 75.1587 16.7302V11.8405V11.5601C75.1587 9.54552 76.7918 7.91235 78.8063 7.91235H86.6771C88.8353 7.91235 90.5848 9.6823 90.5848 11.8405V16.7302C90.5848 17.0439 90.462 17.3235 90.2165 17.569C89.9846 17.8009 89.705 17.9168 89.3777 17.9168C89.0504 17.9168 88.7707 17.8009 88.5388 17.569C88.307 17.3235 88.1911 17.0439 88.1911 16.7302V11.8201Z" fill="white"/>
</g>
<defs>
<clipPath id="clip0_2574_10969">
<rect width="185.714" height="26" fill="white" transform="translate(0.594727)"/>
</clipPath>
</defs>
</svg>
