<svg width="32" height="32" viewBox="0 0 32 32" fill="none" xmlns="http://www.w3.org/2000/svg">
<rect width="32" height="32" fill="#0080D1"/>
<path d="M19.3486 15.9886C19.3486 17.8316 17.8545 19.3257 16.0114 19.3257C14.1684 19.3257 12.6743 17.8316 12.6743 15.9886C12.6743 14.1455 14.1684 12.6514 16.0114 12.6514C17.8545 12.6514 19.3486 14.1455 19.3486 15.9886Z" fill="white"/>
<path d="M20.739 15.9872H26.0228V26H20.739V15.9872Z" fill="white"/>
<path d="M20.739 15.9886C20.739 13.609 18.981 11.6401 16.693 11.3097V6C21.9043 6.35035 26.0228 10.6885 26.0228 15.9886C26.0228 19.8089 23.883 23.1295 20.7364 24.8171V16.1468C20.7382 16.0943 20.739 16.0415 20.739 15.9886Z" fill="white"/>
<path d="M15.3299 20.6674C13.0418 20.3371 11.2838 18.3681 11.2838 15.9886C11.2838 13.609 13.0418 11.6401 15.3299 11.3097V6C10.1186 6.35035 6 10.6885 6 15.9886C6 21.2887 10.1186 25.6268 15.3299 25.9772V20.6674Z" fill="white"/>
</svg>
