<svg width="179" height="40" viewBox="0 0 179 40" fill="none" xmlns="http://www.w3.org/2000/svg">
<g clip-path="url(#clip0_2574_11020)">
<path d="M163.785 20.0177C164.388 19.2209 165.203 18.6099 166.136 18.2546C167.07 17.8994 168.085 17.8142 169.065 18.0088C169.836 17.3756 170.743 16.6523 171.857 15.7724C171.934 15.713 172.007 15.652 172.083 15.5919H172.077C170.499 14.7964 168.709 14.52 166.964 14.8022C165.219 15.0845 163.608 15.9109 162.36 17.1636C162.263 17.2738 162.162 17.3834 162.068 17.4991C161.959 17.6278 161.842 17.7659 161.721 17.8931C161.853 18.0474 162.666 18.9728 163.748 20.0625C163.762 20.0463 163.776 20.0309 163.785 20.0177Z" fill="#1074AB"/>
<path d="M161.737 17.8831C161.72 17.9008 161.748 17.8708 161.737 17.8893C158.904 14.3526 155.807 8.59259 160.422 3.57446C156.803 6.75677 154.262 10.9846 153.15 15.6736C151.068 25.5256 156.169 31.1984 160.691 33.9763C156.125 30.1743 157.449 23.0824 161.737 17.8831Z" fill="#8DC63F"/>
<path d="M161.735 17.8893L161.693 17.9378C161.708 17.9186 161.721 17.9008 161.737 17.8831C166.317 12.4686 174.414 6.24508 171.925 2.6845C170.331 0.411041 166.786 0.299217 164.695 0.962439C164.618 0.994058 164.537 1.02645 164.458 1.0627C162.994 1.69229 161.632 2.53905 160.42 3.57445C155.805 8.59257 158.902 14.3526 161.735 17.8893Z" fill="#D7DF23"/>
<path d="M172.083 15.5919C172.006 15.6528 171.934 15.713 171.857 15.7724C170.743 16.6515 169.834 17.3749 169.066 18.0088C179.119 19.9437 177.883 35.15 166.808 35.669C165.514 35.7162 164.222 35.5334 162.993 35.1292C163.121 35.1793 163.31 35.2457 163.424 35.2834C170.105 37.5145 176.195 34.1436 177.721 28.4391C179.15 23.0917 177.107 17.9294 172.083 15.5919Z" fill="#F15A22"/>
<path d="M164.692 0.962474C166.783 0.299252 170.327 0.411064 171.922 2.68453C174.301 6.08393 167.009 11.9203 162.359 17.1621C163.606 15.9102 165.216 15.0842 166.96 14.802C168.704 14.5197 170.493 14.7956 172.071 15.5904H172.079C185.375 4.97881 173.681 -2.80324 164.692 0.962474Z" fill="#3C9CD7"/>
<path d="M161.758 26.1387L161.747 26.1233C159.959 22.9506 160.273 20.0108 161.754 17.9085L161.795 17.9556C161.778 17.9323 161.759 17.9107 161.737 17.8908C161.738 17.8888 161.738 17.8866 161.737 17.8847C157.46 23.0778 156.133 30.1566 160.683 33.9616C160.746 34.0009 160.81 34.0434 160.872 34.0858C161.445 34.4301 162.042 34.7322 162.658 34.9896C158.926 33.4704 160.053 29.1255 161.758 26.1348V26.1387Z" fill="#3C9CD7"/>
<path d="M170.253 25.4431C170.427 24.8792 170.514 24.2919 170.51 23.7017C170.551 24.2477 170.042 26.6415 167.952 27.2785C167.425 27.4133 166.877 27.4423 166.339 27.3638C165.801 27.2853 165.284 27.1009 164.817 26.8211C164.351 26.5414 163.945 26.172 163.623 25.7342C163.3 25.2964 163.068 24.7991 162.939 24.2709C162.497 24.9572 162.051 25.6443 161.76 26.134C163.934 29.0715 168.836 29.5404 170.253 25.4431Z" fill="#F15A22"/>
<path d="M162.936 24.274C162.745 23.5555 162.719 22.8032 162.86 22.0734C163.002 21.3436 163.307 20.6553 163.752 20.0602C162.708 19.0106 161.926 18.1122 161.753 17.9109C160.273 20.0116 159.959 22.9514 161.746 26.1156L161.758 26.1348C162.049 25.6459 162.495 24.9603 162.936 24.274Z" fill="#1074AB"/>
<path d="M170.039 18.2448C169.967 18.227 169.893 18.2054 169.818 18.1838C169.762 18.17 169.704 18.1522 169.644 18.1383C169.585 18.1245 169.514 18.1044 169.452 18.0905C169.324 18.0628 169.197 18.0327 169.067 18.0088L169.014 18.0288C167.836 18.9921 166.709 20.0166 165.639 21.0982C165.983 20.8258 166.382 20.6318 166.808 20.5298C167.234 20.4278 167.678 20.4204 168.108 20.5079C168.537 20.5954 168.943 20.7757 169.295 21.0364C169.648 21.297 169.939 21.6316 170.149 22.0166C170.173 22.0598 170.195 22.1053 170.215 22.147C170.227 22.174 170.244 22.1979 170.255 22.2241C170.282 22.2858 170.305 22.3475 170.332 22.41C170.478 22.8101 170.541 23.2362 170.515 23.6616C170.515 23.7102 170.515 23.7611 170.515 23.8112C170.506 24.3647 170.42 24.9142 170.258 25.4438C168.84 29.5411 163.938 29.0684 161.764 26.1379C160.059 29.1285 158.932 33.4727 162.666 35.0019C162.743 35.0359 162.871 35.079 163.03 35.1384C164.25 35.536 165.53 35.7166 166.813 35.6721C177.513 35.1677 179.025 20.9493 170.039 18.2448Z" fill="#F58220"/>
<path d="M165.646 21.0889C166.728 19.9996 167.869 18.9711 169.065 18.008C168.085 17.8134 167.07 17.8986 166.136 18.2539C165.202 18.6091 164.387 19.2201 163.785 20.0169C163.775 20.0293 163.762 20.0455 163.751 20.0594C164.203 20.5144 164.707 20.9994 165.235 21.4737C165.361 21.3337 165.498 21.2049 165.646 21.0889Z" fill="#F15A22"/>
<path d="M165.24 21.4722C164.7 20.9956 164.196 20.5044 163.743 20.0455L163.749 20.0556C163.302 20.6498 162.995 21.3384 162.854 22.069C162.713 22.7995 162.741 23.5526 162.935 24.2709C163.597 23.3558 164.316 22.4834 165.087 21.6589C165.134 21.5929 165.185 21.5305 165.24 21.4722Z" fill="#F15A22"/>
<path d="M170.516 23.4395C170.519 23.7095 170.486 23.9786 170.418 24.24V24.2462C170.316 24.628 170.14 24.986 169.9 25.2998C169.66 25.6135 169.36 25.8767 169.017 26.0745C168.675 26.2722 168.297 26.4006 167.905 26.4522C167.514 26.5039 167.115 26.4778 166.734 26.3754H166.728C165.956 26.1682 165.298 25.6631 164.898 24.971C164.497 24.2789 164.388 23.4563 164.594 22.6837C164.692 22.3149 164.86 21.9685 165.089 21.6635C164.319 22.488 163.601 23.3598 162.939 24.2739C163.068 24.8021 163.301 25.2995 163.623 25.7373C163.946 26.175 164.352 26.5445 164.818 26.8242C165.284 27.1039 165.801 27.2884 166.339 27.3669C166.877 27.4454 167.425 27.4164 167.952 27.2816C169.934 26.677 170.491 24.4999 170.51 23.8112C170.512 23.9943 170.501 24.1772 170.477 24.3588C170.525 24.0548 170.539 23.7464 170.516 23.4395Z" fill="#F58220"/>
<path d="M0 28.6389V26.734C0 22.1431 2.57037 19.7563 6.90908 19.7563C7.73625 19.7424 8.55789 19.8936 9.32591 20.2011C10.0939 20.5086 10.7929 20.9661 11.382 21.547C11.4246 21.5843 11.459 21.6301 11.4828 21.6815C11.5066 21.733 11.5192 21.7888 11.52 21.8455C11.5095 21.9578 11.4608 22.0632 11.382 22.1439L10.6015 23.0616C10.5669 23.109 10.5221 23.1479 10.4705 23.1757C10.4188 23.2035 10.3616 23.2193 10.3031 23.222C10.2036 23.2234 10.1065 23.191 10.0278 23.1303C9.13222 22.3439 7.98057 21.9112 6.78877 21.9133C4.17212 21.9133 2.81792 23.2676 2.81792 26.3207V29.006C2.81792 31.9666 4.17212 33.4133 6.46718 33.4133C8.44142 33.4133 9.65759 32.6328 9.65759 30.5668V29.1895H7.13272C7.07407 29.1952 7.01488 29.1879 6.95941 29.1681C6.90393 29.1482 6.85353 29.1163 6.81187 29.0746C6.7702 29.0329 6.73828 28.9826 6.71842 28.9271C6.69856 28.8716 6.69124 28.8124 6.69699 28.7538V27.4913C6.69124 27.4327 6.69856 27.3735 6.71842 27.318C6.73828 27.2625 6.7702 27.2121 6.81187 27.1705C6.85353 27.1288 6.90393 27.0969 6.95941 27.077C7.01488 27.0572 7.07407 27.0499 7.13272 27.0556H11.9303C11.9889 27.0499 12.0481 27.0572 12.1036 27.077C12.1591 27.0969 12.2095 27.1288 12.2511 27.1705C12.2928 27.2121 12.3247 27.2625 12.3446 27.318C12.3644 27.3735 12.3717 27.4327 12.366 27.4913V30.2453C12.366 33.6878 9.95603 35.5665 6.44404 35.5665C2.38682 35.5703 0 33.2066 0 28.6389Z" fill="white"/>
<path d="M14.483 34.9279V24.8747C14.4742 24.7848 14.4938 24.6944 14.539 24.6163C14.5843 24.5381 14.6529 24.4761 14.7352 24.4389C16.1541 23.7602 17.7069 23.4074 19.2798 23.4063C19.6857 23.3993 20.0917 23.4147 20.496 23.4526C20.5918 23.4684 20.6781 23.5197 20.7377 23.5963C20.7973 23.6729 20.8258 23.7692 20.8175 23.866V25.1053C20.8175 25.3366 20.6795 25.4268 20.4273 25.4268H19.579C18.7918 25.4 18.0063 25.5165 17.2608 25.7708V34.9287C17.2653 34.978 17.2589 35.0277 17.2421 35.0743C17.2252 35.1209 17.1983 35.1632 17.1633 35.1982C17.1283 35.2332 17.086 35.2601 17.0394 35.277C16.9928 35.2938 16.9431 35.3002 16.8938 35.2957H14.8509C14.8014 35.3004 14.7515 35.2941 14.7048 35.2772C14.658 35.2604 14.6156 35.2334 14.5805 35.1983C14.5453 35.1631 14.5184 35.1207 14.5015 35.074C14.4847 35.0272 14.4784 34.9773 14.483 34.9279Z" fill="white"/>
<path d="M22.3784 30.6131V23.957C22.3738 23.9076 22.3803 23.8579 22.3971 23.8113C22.414 23.7647 22.4409 23.7224 22.4759 23.6874C22.5109 23.6524 22.5532 23.6255 22.5998 23.6086C22.6464 23.5918 22.6961 23.5854 22.7454 23.5899H24.7883C24.8376 23.5854 24.8874 23.5918 24.9339 23.6086C24.9805 23.6255 25.0228 23.6524 25.0579 23.6874C25.0929 23.7224 25.1198 23.7647 25.1366 23.8113C25.1535 23.8579 25.1599 23.9076 25.1554 23.957V30.6594C25.1554 32.9544 26.0037 33.5282 27.5654 33.5282C28.351 33.5437 29.136 33.4744 29.9067 33.3215V23.9562C29.9022 23.9068 29.9086 23.8571 29.9254 23.8105C29.9423 23.764 29.9692 23.7217 30.0042 23.6866C30.0392 23.6516 30.0815 23.6247 30.1281 23.6078C30.1747 23.591 30.2244 23.5846 30.2738 23.5891H32.3167C32.366 23.5846 32.4157 23.591 32.4623 23.6078C32.5089 23.6247 32.5512 23.6516 32.5862 23.6866C32.6212 23.7217 32.6481 23.764 32.665 23.8105C32.6818 23.8571 32.6882 23.9068 32.6837 23.9562V34.2847C32.6908 34.3745 32.6675 34.4641 32.6176 34.539C32.5677 34.614 32.494 34.67 32.4084 34.6981C30.7904 35.2563 29.0932 35.5508 27.3818 35.5703C23.9624 35.5703 22.3784 33.8258 22.3784 30.6131Z" fill="white"/>
<path d="M45.7216 28.6134V30.1974C45.7216 33.7086 43.5869 35.4993 40.2592 35.4993C39.4395 35.5079 38.6244 35.376 37.8493 35.1091V39.6306C37.8538 39.6799 37.8474 39.7296 37.8305 39.7762C37.8136 39.8228 37.7868 39.8651 37.7517 39.9001C37.7167 39.9352 37.6744 39.962 37.6278 39.9789C37.5812 39.9958 37.5315 40.0022 37.4822 39.9977H35.4393C35.39 40.0022 35.3402 39.9958 35.2937 39.9789C35.2471 39.962 35.2048 39.9352 35.1698 39.9001C35.1347 39.8651 35.1078 39.8228 35.091 39.7762C35.0741 39.7296 35.0677 39.6799 35.0722 39.6306V24.7574C35.0651 24.6677 35.0884 24.5781 35.1384 24.5031C35.1883 24.4282 35.262 24.3721 35.3475 24.3441C36.8262 23.6979 38.4169 23.3471 40.0302 23.3115C43.7728 23.3138 45.7216 25.1731 45.7216 28.6134ZM42.9453 28.7051C42.9453 26.2952 42.1648 25.3119 40.169 25.3119C39.3817 25.3102 38.5991 25.4342 37.8508 25.679V33.1842C38.5759 33.4229 39.3375 33.5315 40.1004 33.505C42.2813 33.505 42.946 32.4254 42.946 30.0393L42.9453 28.7051Z" fill="white"/>
<path d="M47.3735 30.1766V28.7113C47.3735 25.1307 49.5768 23.3176 52.8135 23.3176C56.0957 23.3176 58.2535 25.1307 58.2535 28.7113V30.1766C58.2535 33.7572 56.0502 35.5703 52.8135 35.5703C49.5313 35.5703 47.3735 33.7572 47.3735 30.1766ZM55.4756 30.0848V28.7992C55.4756 26.2975 54.7183 25.2873 52.8135 25.2873C50.9087 25.2873 50.1513 26.343 50.1513 28.7992V30.0848C50.1513 32.5865 50.9087 33.5968 52.8135 33.5968C54.7183 33.5968 55.4756 32.541 55.4756 30.0848Z" fill="white"/>
<path d="M60.869 35.1345C60.7629 35.1245 60.665 35.0733 60.5963 34.9918C60.5276 34.9103 60.4937 34.8051 60.5019 34.6988V20.5599C60.496 20.5069 60.501 20.4533 60.5165 20.4023C60.532 20.3514 60.5577 20.3041 60.5921 20.2633C60.6264 20.2226 60.6686 20.1892 60.7162 20.1653C60.7638 20.1414 60.8158 20.1274 60.869 20.1241C62.4317 19.8672 64.0135 19.7444 65.5972 19.7571C69.1092 19.7571 71.3811 21.3866 71.3811 23.7279V24.1181C71.3681 24.7105 71.2002 25.2892 70.8942 25.7966C70.5881 26.3039 70.1546 26.7223 69.6366 27.0101C70.35 27.3185 70.9615 27.8225 71.4002 28.464C71.839 29.1054 72.0872 29.858 72.116 30.6347V31.0704C72.116 33.8243 69.8665 35.5687 65.8501 35.5687C64.1796 35.5867 62.5112 35.4413 60.869 35.1345ZM66.2403 26.4124C67.8243 26.4124 68.7852 25.6088 68.7852 24.2778V24.0024C68.7852 22.6914 67.6609 21.9133 65.8247 21.9133C64.9122 21.9062 64.0002 21.9523 63.0931 22.0513V26.4124H66.2403ZM69.3844 30.9802V30.7049C69.3844 29.3044 68.3048 28.4553 66.5843 28.4553H63.0954V33.2752C64.1172 33.3792 65.1439 33.4253 66.1709 33.4133C68.26 33.4133 69.3844 32.5865 69.3844 30.9802Z" fill="white"/>
<path d="M73.7681 30.1766V28.7113C73.7681 25.1307 75.9713 23.3176 79.208 23.3176C82.4902 23.3176 84.648 25.1307 84.648 28.7113V30.1766C84.648 33.7572 82.4447 35.5703 79.208 35.5703C75.9258 35.5703 73.7681 33.7572 73.7681 30.1766ZM81.8702 30.0848V28.7992C81.8702 26.2975 81.1128 25.2873 79.2072 25.2873C77.3016 25.2873 76.5451 26.343 76.5451 28.7992V30.0848C76.5451 32.5865 77.3024 33.5968 79.2072 33.5968C81.1121 33.5968 81.8702 32.541 81.8702 30.0848Z" fill="white"/>
<path d="M93.0479 33.5968V34.8137C93.0566 34.9162 93.0292 35.0185 92.9705 35.103C92.9118 35.1875 92.8254 35.2488 92.7264 35.2764C92.0863 35.4714 91.4212 35.572 90.7521 35.5749C87.9519 35.5749 86.506 34.0826 86.506 31.2138V21.2023C86.5022 21.1539 86.5082 21.1053 86.5235 21.0593C86.5389 21.0133 86.5633 20.9708 86.5954 20.9344C86.6275 20.898 86.6665 20.8684 86.7103 20.8474C86.754 20.8264 86.8015 20.8144 86.8499 20.812L88.7093 20.3763C88.815 20.3471 88.9224 20.3242 89.0308 20.3077C89.1912 20.3077 89.283 20.4457 89.283 20.6293V23.5898H92.6115C92.6608 23.5853 92.7105 23.5917 92.7571 23.6086C92.8037 23.6255 92.846 23.6524 92.881 23.6874C92.9161 23.7224 92.9429 23.7647 92.9598 23.8113C92.9766 23.8579 92.9831 23.9076 92.9786 23.9569V25.2679C92.9831 25.3173 92.9766 25.367 92.9598 25.4136C92.9429 25.4602 92.9161 25.5025 92.881 25.5375C92.846 25.5725 92.8037 25.5994 92.7571 25.6163C92.7105 25.6331 92.6608 25.6395 92.6115 25.635H89.283V31.1166C89.283 33.0678 89.9 33.5266 91.2804 33.5266C91.7227 33.5343 92.164 33.4803 92.5914 33.3662C92.6665 33.3418 92.7441 33.3263 92.8228 33.3199C92.9562 33.3215 93.0479 33.4133 93.0479 33.5968Z" fill="white"/>
<path d="M94.7235 20.6285V20.33C94.7147 20.1278 94.75 19.926 94.8269 19.7388C94.9039 19.5515 95.0206 19.3833 95.1692 19.2457C95.3177 19.1081 95.4943 19.0045 95.6869 18.9421C95.8795 18.8796 96.0834 18.8598 96.2844 18.8841C96.4842 18.8602 96.6868 18.8804 96.878 18.9433C97.0692 19.0062 97.2442 19.1102 97.3908 19.2481C97.5374 19.3859 97.652 19.5543 97.7265 19.7412C97.8011 19.9281 97.8337 20.1291 97.8221 20.33V20.6285C97.8337 20.8294 97.8011 21.0304 97.7265 21.2174C97.652 21.4043 97.5374 21.5726 97.3908 21.7105C97.2442 21.8484 97.0692 21.9524 96.878 22.0153C96.6868 22.0782 96.4842 22.0984 96.2844 22.0745C96.0834 22.0987 95.8795 22.0789 95.6869 22.0165C95.4943 21.9541 95.3177 21.8505 95.1692 21.7129C95.0206 21.5753 94.9039 21.407 94.8269 21.2198C94.75 21.0325 94.7147 20.8308 94.7235 20.6285ZM94.8839 34.9279V23.9569C94.8794 23.9076 94.8858 23.8579 94.9026 23.8113C94.9195 23.7647 94.9464 23.7224 94.9814 23.6874C95.0165 23.6524 95.0587 23.6255 95.1053 23.6086C95.1519 23.5918 95.2016 23.5854 95.251 23.5899H97.2939C97.3432 23.5854 97.3929 23.5918 97.4395 23.6086C97.4861 23.6255 97.5284 23.6524 97.5634 23.6874C97.5984 23.7224 97.6253 23.7647 97.6422 23.8113C97.659 23.8579 97.6654 23.9076 97.6609 23.9569V34.9279C97.6654 34.9772 97.659 35.0269 97.6422 35.0735C97.6253 35.1201 97.5984 35.1624 97.5634 35.1974C97.5284 35.2325 97.4861 35.2594 97.4395 35.2762C97.3929 35.2931 97.3432 35.2995 97.2939 35.295H95.251C95.2016 35.2995 95.1519 35.2931 95.1053 35.2762C95.0587 35.2594 95.0165 35.2325 94.9814 35.1974C94.9464 35.1624 94.9195 35.1201 94.9026 35.0735C94.8858 35.0269 94.8794 34.9772 94.8839 34.9279Z" fill="white"/>
<path d="M99.7271 29.9013V28.9373C99.7271 25.15 101.954 23.3138 105.351 23.3138C106.504 23.3175 107.621 23.7141 108.518 24.4382C108.571 24.4747 108.614 24.5225 108.646 24.5782C108.678 24.6338 108.697 24.6959 108.701 24.7598C108.692 24.8792 108.643 24.9922 108.563 25.0814L107.898 25.9073C107.783 26.0446 107.691 26.114 107.576 26.114C107.482 26.1012 107.395 26.0613 107.323 25.9991C106.734 25.5749 106.029 25.3425 105.304 25.3335C103.1 25.3335 102.503 26.6445 102.503 29.0977V29.7864C102.503 32.2195 103.192 33.5505 105.28 33.5505C106.128 33.5346 106.952 33.2626 107.643 32.7701C107.704 32.727 107.776 32.7031 107.85 32.7015C107.942 32.7015 108.01 32.7701 108.125 32.9328L108.791 33.8505C108.86 33.9261 108.901 34.0235 108.906 34.1259C108.903 34.1812 108.887 34.235 108.859 34.2828C108.831 34.3307 108.792 34.3712 108.745 34.4012C107.727 35.1341 106.511 35.5422 105.257 35.5718C101.701 35.5703 99.7271 33.7804 99.7271 29.9013Z" fill="white"/>
<path d="M119.374 28.3867V34.1937C119.381 34.3158 119.349 34.4371 119.283 34.5402C119.217 34.6432 119.121 34.7228 119.007 34.7675C117.599 35.3286 116.092 35.6018 114.577 35.5711C111.616 35.5711 109.917 34.4004 109.917 32.1778V31.6958C109.917 29.5843 111.57 28.4823 114.577 28.4823H116.78V28.1607C116.78 26.2559 116.163 25.3605 114.37 25.3605C113.456 25.3673 112.559 25.6209 111.777 26.0947C111.706 26.1357 111.627 26.1592 111.545 26.1633C111.478 26.1615 111.412 26.144 111.352 26.1121C111.292 26.0802 111.241 26.0349 111.202 25.9798L110.559 25.1076C110.485 25.0256 110.445 24.9193 110.444 24.8091C110.442 24.7496 110.456 24.6906 110.484 24.6381C110.512 24.5856 110.554 24.5416 110.605 24.5107C111.728 23.742 113.054 23.3263 114.415 23.3169C117.698 23.3138 119.374 24.9433 119.374 28.3867ZM112.189 21.6843V20.8359C112.193 20.726 112.233 20.6205 112.304 20.5364C112.375 20.4524 112.472 20.3949 112.58 20.3733L117.515 18.8355C117.722 18.7669 117.882 18.8586 117.882 19.0877V20.6254C117.889 20.7359 117.86 20.8456 117.797 20.9371C117.735 21.0287 117.644 21.0967 117.538 21.1306L112.58 22.0282C112.327 22.0745 112.189 21.9364 112.189 21.6843ZM116.78 33.3215V30.1997H114.577C113.039 30.1997 112.418 30.7504 112.418 31.7143V32.0814C112.418 32.9297 113.035 33.6192 114.577 33.6192C115.324 33.6826 116.077 33.581 116.78 33.3215Z" fill="white"/>
<path d="M121.715 34.9279V24.8747C121.706 24.7848 121.726 24.6944 121.771 24.6163C121.816 24.5381 121.885 24.4761 121.967 24.4389C123.386 23.7602 124.939 23.4074 126.512 23.4063C126.918 23.3993 127.324 23.4147 127.728 23.4526C127.824 23.4684 127.91 23.5197 127.97 23.5963C128.029 23.6729 128.058 23.7692 128.049 23.866V25.1053C128.049 25.3366 127.911 25.4268 127.659 25.4268H126.811C126.024 25.4 125.238 25.5166 124.493 25.7708V34.9287C124.497 34.978 124.491 35.0277 124.474 35.0743C124.457 35.1209 124.43 35.1632 124.395 35.1982C124.36 35.2332 124.318 35.2601 124.271 35.277C124.225 35.2938 124.175 35.3002 124.126 35.2957H122.083C122.033 35.3004 121.983 35.2941 121.937 35.2772C121.89 35.2604 121.848 35.2334 121.812 35.1983C121.777 35.1631 121.75 35.1207 121.733 35.074C121.717 35.0272 121.71 34.9773 121.715 34.9279Z" fill="white"/>
<path d="M129.542 20.6285V20.33C129.533 20.1278 129.568 19.926 129.645 19.7388C129.722 19.5515 129.839 19.3833 129.988 19.2457C130.136 19.1081 130.313 19.0045 130.505 18.9421C130.698 18.8796 130.902 18.8598 131.103 18.8841C131.303 18.8602 131.505 18.8804 131.696 18.9433C131.888 19.0062 132.063 19.1102 132.209 19.2481C132.356 19.3859 132.47 19.5543 132.545 19.7412C132.619 19.9281 132.652 20.1291 132.64 20.33V20.6285C132.652 20.8294 132.619 21.0304 132.545 21.2174C132.47 21.4043 132.356 21.5726 132.209 21.7105C132.063 21.8484 131.888 21.9524 131.696 22.0153C131.505 22.0782 131.303 22.0984 131.103 22.0745C130.902 22.0987 130.698 22.0789 130.505 22.0165C130.313 21.9541 130.136 21.8505 129.988 21.7129C129.839 21.5753 129.722 21.407 129.645 21.2198C129.568 21.0325 129.533 20.8308 129.542 20.6285ZM129.702 34.9279V23.9569C129.698 23.9076 129.704 23.8579 129.721 23.8113C129.738 23.7647 129.765 23.7224 129.8 23.6874C129.835 23.6524 129.877 23.6255 129.924 23.6086C129.97 23.5918 130.02 23.5854 130.069 23.5899H132.112C132.162 23.5854 132.211 23.5918 132.258 23.6086C132.304 23.6255 132.347 23.6524 132.382 23.6874C132.417 23.7224 132.444 23.7647 132.461 23.8113C132.477 23.8579 132.484 23.9076 132.479 23.9569V34.9279C132.484 34.9772 132.477 35.0269 132.461 35.0735C132.444 35.1201 132.417 35.1624 132.382 35.1974C132.347 35.2325 132.304 35.2594 132.258 35.2762C132.211 35.2931 132.162 35.2995 132.112 35.295H130.069C130.02 35.2995 129.97 35.2931 129.924 35.2762C129.877 35.2594 129.835 35.2325 129.8 35.1974C129.765 35.1624 129.738 35.1201 129.721 35.0735C129.704 35.0269 129.698 34.9772 129.702 34.9279Z" fill="white"/>
<path d="M134.545 30.1766V28.7113C134.545 25.1307 136.749 23.3176 139.985 23.3176C143.268 23.3176 145.425 25.1307 145.425 28.7113V30.1766C145.425 33.7572 143.222 35.5703 139.985 35.5703C136.703 35.5703 134.545 33.7572 134.545 30.1766ZM142.648 30.0848V28.7992C142.648 26.2975 141.89 25.2873 139.985 25.2873C138.081 25.2873 137.322 26.343 137.322 28.7992V30.0848C137.322 32.5865 138.08 33.5968 139.985 33.5968C141.891 33.5968 142.648 32.541 142.648 30.0848Z" fill="white"/>
</g>
<defs>
<clipPath id="clip0_2574_11020">
<rect width="178.166" height="40" fill="white"/>
</clipPath>
</defs>
</svg>
