<svg width="32" height="32" viewBox="0 0 32 32" fill="none" xmlns="http://www.w3.org/2000/svg">
<rect width="32" height="32" fill="#00ADEE"/>
<path d="M12.6181 22.5968C11.7358 21.4636 11.2097 20.039 11.2097 18.493C11.2097 16.9389 11.7358 15.5143 12.6181 14.3812V11.0868C10.4165 12.8109 9 15.4982 9 18.5173C9 21.5364 10.4165 24.2237 12.6181 25.9478V22.5968Z" fill="white"/>
<path d="M15.7101 27L13.5004 26.3039V7.06402L15.7101 5.09713V27Z" fill="white"/>
<path d="M18.713 24.7579L16.7057 26.9029V5C16.7057 5 23.3834 6.86167 23.3591 13.1589C23.6828 19.3348 19.8381 21.4312 19.8381 21.4312L19.7976 18.6549C19.7976 18.6549 21.7079 16.7851 21.5136 13.4989C21.3193 10.2127 18.7211 8.63429 18.7211 8.63429L18.713 24.7579Z" fill="white"/>
</svg>
