<svg width="82" height="13" viewBox="0 0 82 13" fill="none" xmlns="http://www.w3.org/2000/svg">
<g clip-path="url(#clip0_1057_2375)">
<path d="M40.6067 2.23242L37.6328 4.65509H39.5749V12.5301L40.6067 11.6992V2.23242Z" fill="#671DDF"/>
<path d="M41.4639 10.9958L44.49 8.51236H42.4935V0.817383L41.4639 1.53425V10.9958Z" fill="#671DDF"/>
<path d="M78.9209 3.64654C79.2637 3.82482 79.5106 3.97568 79.6614 4.09911L80.7312 2.06254C80.1963 1.73339 79.5517 1.43854 78.7974 1.17797C78.0569 0.917396 77.2546 0.787109 76.3906 0.787109C75.5677 0.787109 74.8066 0.924252 74.1072 1.19854C73.4214 1.47282 72.8729 1.87739 72.4614 2.41225C72.0637 2.94711 71.8649 3.61225 71.8649 4.40768C71.8649 5.29913 72.146 5.98484 72.7083 6.46484C73.2843 6.93113 74.162 7.31513 75.3414 7.61684C76.2877 7.8637 77.0489 8.08999 77.6249 8.2957C78.2146 8.4877 78.5094 8.80999 78.5094 9.26256C78.5094 9.93456 77.8786 10.2706 76.6169 10.2706C75.986 10.2706 75.3894 10.1951 74.8272 10.0443C74.2649 9.89342 73.7712 9.70827 73.346 9.48884C72.9346 9.26941 72.6397 9.07056 72.4614 8.89227L71.3506 11.0523C72.0637 11.5048 72.8797 11.8614 73.7986 12.122C74.7174 12.3826 75.6432 12.5128 76.5757 12.5128C77.3849 12.5128 78.1392 12.4031 78.8386 12.1837C79.538 11.9506 80.1003 11.5803 80.5254 11.0728C80.9643 10.5517 81.1837 9.86594 81.1837 9.01566C81.1837 8.31623 81.0192 7.75399 80.69 7.32884C80.3746 6.88999 79.9152 6.54027 79.3117 6.2797C78.722 6.01913 78.0226 5.78599 77.2134 5.58027C76.2946 5.36084 75.5952 5.16199 75.1152 4.9837C74.6489 4.80539 74.4157 4.50368 74.4157 4.07854C74.4157 3.35168 75.0603 2.98825 76.3494 2.98825C76.8294 2.98825 77.2957 3.05682 77.7483 3.19397C78.2009 3.31739 78.5917 3.46825 78.9209 3.64654Z" fill="#671DDF"/>
<path fill-rule="evenodd" clip-rule="evenodd" d="M57.2721 12.4511C56.3669 12.4511 55.5441 12.2934 54.8035 11.9779C54.0629 11.6488 53.4248 11.2099 52.8899 10.6614C52.3551 10.0991 51.9436 9.46821 51.6556 8.76878C51.3681 8.06935 51.2236 7.34935 51.2236 6.60878C51.2236 5.8545 51.3745 5.12764 51.6762 4.42819C51.9779 3.72876 52.4035 3.11162 52.9521 2.57676C53.5006 2.02819 54.1448 1.59619 54.8853 1.28076C55.6259 0.965333 56.4351 0.807617 57.3128 0.807617C58.2179 0.807617 59.0412 0.979047 59.7818 1.3219C60.5223 1.65105 61.1532 2.09676 61.6743 2.65905C62.2092 3.20762 62.6202 3.83162 62.9082 4.53105C63.1962 5.2305 63.3406 5.9436 63.3406 6.67045C63.3406 7.42474 63.1898 8.15164 62.8881 8.85107C62.5863 9.53678 62.1608 10.1539 61.6122 10.7025C61.0773 11.2374 60.4401 11.6625 59.6995 11.9779C58.9589 12.2934 58.1498 12.4511 57.2721 12.4511ZM53.7333 6.62935C53.7333 7.2465 53.8778 7.83621 54.1658 8.3985C54.4533 8.94707 54.8579 9.39278 55.3791 9.73564C55.9139 10.0785 56.5516 10.2499 57.2922 10.2499C58.0465 10.2499 58.6842 10.0716 59.2053 9.71507C59.7269 9.34478 60.1242 8.88535 60.3985 8.33674C60.6728 7.77445 60.8103 7.1985 60.8103 6.60878C60.8103 5.99164 60.6663 5.40874 60.3783 4.86019C60.0903 4.31162 59.6789 3.87276 59.1436 3.54362C58.6225 3.20076 57.9989 3.02933 57.2721 3.02933C56.5178 3.02933 55.8728 3.20762 55.3379 3.56419C54.8168 3.92076 54.4191 4.37334 54.1448 4.92191C53.8705 5.4705 53.7333 6.03964 53.7333 6.62935Z" fill="#671DDF"/>
<path fill-rule="evenodd" clip-rule="evenodd" d="M0.623047 12.3696L5.64248 0.870117H7.67905L12.6779 12.3696H10.0448L8.89276 9.67471H4.42876L3.27676 12.3696H0.623047ZM6.67105 3.89412L4.98419 7.51471H8.29619L6.67105 3.89412Z" fill="#671DDF"/>
<path d="M22.4039 0.870117L25.5719 4.94326L28.7399 0.870117H31.4348L26.8885 6.69185L31.2908 12.3696H28.5959L25.5719 8.46099L22.5685 12.3696H19.8325L24.2553 6.69185L19.6885 0.870117H22.4039Z" fill="#671DDF"/>
</g>
<defs>
<clipPath id="clip0_1057_2375">
<rect width="80.5714" height="12" fill="white" transform="translate(0.623047 0.666992)"/>
</clipPath>
</defs>
</svg>
