<svg width="24" height="24" viewBox="0 0 24 24" fill="none" xmlns="http://www.w3.org/2000/svg">
<path d="M9.001 21.5053C9.001 19.1732 9.001 17.7205 9.001 17.1472C9.001 16.5739 9.2908 15.9685 9.87005 15.3309C8.517 15.1038 7.30755 14.6428 6.34315 13.9195C4.89543 12.8338 4 11.1568 4 9.49995C4 8.3644 4.42059 7.30255 5.1513 6.3972C5.4868 5.9816 4.87043 2.02924 6 2.51459C7.12955 2.99994 8.2523 4.11618 9.4263 3.8172C10.234 3.6115 11.0996 3.49994 12 3.49994C13.0366 3.49994 14.0273 3.64782 14.9363 3.91699C15.7854 4.16839 17.4053 3.02924 18.51 2.51459C19.6148 1.99994 18.3713 5.82125 18.7964 6.3334C19.5593 7.2525 20 8.3376 20 9.49995C20 11.1568 19.2601 12.8338 17.8123 13.9195C16.9646 14.5554 15.8741 14.9885 14.6722 15.2382C15.2211 15.9586 15.4956 16.6055 15.4956 17.1788C15.4956 17.7521 15.4956 19.1942 15.4956 21.5053M3 15.6077C3.44943 15.6627 3.78277 15.8693 4 16.2277C4.32585 16.7651 5.5371 18.759 6.91255 18.759C7.82955 18.759 8.52575 18.759 9.0012 18.759" stroke="white" stroke-width="2" stroke-linecap="round"/>
</svg>
