<svg width="57" height="17" viewBox="0 0 57 17" fill="none" xmlns="http://www.w3.org/2000/svg">
<g clip-path="url(#clip0_1057_2357)">
<path d="M7.40595 5.74059C7.53235 5.55659 7.67075 5.53259 7.78355 5.53259C7.89555 5.53259 8.08275 5.55659 8.20915 5.74059C9.85715 7.98539 13.2747 13.907 13.5907 14.2294C14.0587 14.707 14.7011 14.4094 15.0739 13.8678C15.4419 13.3342 15.5435 12.9598 15.5435 12.5606C15.5435 12.2886 10.2211 2.46939 9.68435 1.65179C9.16915 0.865392 9.00115 0.666992 8.11955 0.666992H7.45955C6.57955 0.666992 6.45235 0.865392 5.93715 1.65099C5.39955 2.47019 0.0771484 12.2894 0.0771484 12.5614C0.0771484 12.9614 0.178748 13.335 0.546748 13.8686C0.919548 14.4102 1.56195 14.7086 2.02995 14.2302C2.34595 13.9078 5.75875 7.98619 7.40595 5.74219V5.74059ZM19.3587 1.55099V13.8262H26.8387V11.3358H21.9387V8.74059H26.2987V6.25099H21.9387V4.04139H26.8387V1.55099H19.3587ZM36.9995 13.8262L33.8955 9.37179L36.7907 5.21579H33.8611L32.4315 7.25099L31.0195 5.21659H28.0547L30.9491 9.39019L27.8635 13.827H30.7923L32.4139 11.495L34.0355 13.827H36.9995V13.8262ZM43.0571 5.04059C41.8715 5.04059 40.9475 5.53179 40.3547 6.42619V5.21579H37.8955V16.667H40.3539V12.6166C40.9459 13.5102 41.8707 14.0014 43.0563 14.0014C45.2707 14.0014 47.0323 11.9854 47.0323 9.51259C47.0323 7.03979 45.2715 5.04059 43.0571 5.04059ZM42.4995 11.6342C41.2963 11.6342 40.3547 10.7222 40.3547 9.51259C40.3547 8.32059 41.2963 7.39019 42.4987 7.39019C43.6851 7.39019 44.6435 8.33739 44.6435 9.51259C44.6435 10.7046 43.6851 11.6342 42.4995 11.6342ZM52.2499 5.04059C49.7219 5.04059 47.8035 6.96939 47.8035 9.53019C47.8035 12.0902 49.7211 14.0022 52.2491 14.0022C54.7603 14.0022 56.6955 12.0902 56.6955 9.53019C56.6955 6.97019 54.7595 5.04059 52.2491 5.04059H52.2499ZM52.2499 7.40859C53.4003 7.40859 54.2899 8.30219 54.2899 9.53019C54.2899 10.7222 53.4003 11.6342 52.2499 11.6342C51.0819 11.6342 50.2099 10.7222 50.2099 9.53019C50.2099 8.30219 51.0819 7.40779 52.2499 7.40779V7.40859Z" fill="#1F1F1F"/>
</g>
<defs>
<clipPath id="clip0_1057_2357">
<rect width="56.8" height="16" fill="white" transform="translate(0 0.666992)"/>
</clipPath>
</defs>
</svg>
