<svg width="24" height="24" viewBox="0 0 24 24" fill="none" xmlns="http://www.w3.org/2000/svg">
<path d="M12 8V12L14 14M3.05005 11C3.27414 8.80006 4.30031 6.75961 5.93278 5.26797C7.56525 3.77632 9.68974 2.93788 11.9009 2.91263C14.1121 2.88737 16.2552 3.67706 17.9213 5.13103C19.5874 6.585 20.6599 8.60148 20.9342 10.7957C21.2085 12.99 20.6654 15.2084 19.4084 17.0278C18.1515 18.8471 16.2687 20.14 14.1193 20.6599C11.97 21.1797 9.70446 20.89 7.75504 19.8461C5.80563 18.8022 4.47202 17.3869 3.71329 15.3098M3.05005 20V15H8.05005" stroke="#FFFFFF" stroke-width="1.75" stroke-linecap="square"/>
</svg>
