<svg width="376" height="73" viewBox="0 0 376 73" fill="none" xmlns="http://www.w3.org/2000/svg">
<path d="M0 71.8878V14.5549H9.73434V32.7205L8.43132 32.6439C8.63572 28.4538 9.5044 24.9279 11.0374 22.0664C12.5703 19.1538 14.6398 16.9821 17.2459 15.5513C19.8519 14.0694 22.7901 13.3285 26.0604 13.3285C28.9731 13.3285 31.6047 13.865 33.9552 14.9381C36.3569 16.0112 38.4008 17.5186 40.0871 19.4604C41.8245 21.351 43.1275 23.5994 43.9962 26.2054C44.9159 28.7604 45.3758 31.5708 45.3758 34.6367V36.3996C45.3758 39.4145 44.9415 42.2505 44.0728 44.9076C43.2041 47.5137 41.9267 49.7876 40.2404 51.7293C38.6052 53.6711 36.5868 55.204 34.1852 56.3282C31.8346 57.4013 29.1264 57.9378 26.0604 57.9378C22.8923 57.9378 20.0308 57.2991 17.4758 56.0216C14.972 54.6931 12.9536 52.7002 11.4206 50.0431C9.88764 47.3348 9.04451 43.9112 8.89121 39.7722L12.2637 44.3711V71.8878H0ZM22.6113 47.667C24.7063 47.667 26.5203 47.156 28.0533 46.134C29.6374 45.112 30.8637 43.6812 31.7324 41.8417C32.6011 40.0021 33.0354 37.8815 33.0354 35.4799C33.0354 33.0782 32.6011 30.9832 31.7324 29.1947C30.8637 27.4062 29.6629 26.0266 28.1299 25.0557C26.597 24.0337 24.7574 23.5227 22.6113 23.5227C20.7717 23.5227 19.0343 23.9571 17.3992 24.8257C15.764 25.6944 14.4354 26.9463 13.4135 28.5815C12.4426 30.1656 11.9571 32.1073 11.9571 34.4068V37.2428C11.9571 39.44 12.4681 41.3307 13.4901 42.9148C14.5632 44.4477 15.9173 45.623 17.5525 46.4406C19.1876 47.2582 20.8739 47.667 22.6113 47.667Z" fill="white"/>
<path d="M75.8148 56.5582V44.1411H73.7453V30.651C73.7453 28.5049 73.2343 26.8952 72.2123 25.8222C71.1904 24.7491 69.5552 24.2126 67.3068 24.2126C66.1827 24.2126 64.7008 24.2381 62.8612 24.2892C61.0217 24.3403 59.131 24.417 57.1893 24.5191C55.2475 24.6213 53.4846 24.7235 51.9005 24.8257V14.4782C53.0758 14.376 54.4555 14.2738 56.0395 14.1716C57.6236 14.0694 59.2588 13.9928 60.945 13.9417C62.6313 13.8906 64.2154 13.865 65.6972 13.865C69.9895 13.865 73.592 14.4782 76.5046 15.7046C79.4684 16.931 81.7167 18.7961 83.2497 21.2999C84.7827 23.7527 85.5492 26.9208 85.5492 30.8043V56.5582H75.8148ZM62.4013 57.6312C59.3865 57.6312 56.7294 57.0947 54.4299 56.0216C52.1816 54.9485 50.4187 53.4156 49.1412 51.4227C47.8637 49.3788 47.225 46.9516 47.225 44.1411C47.225 41.0752 48.017 38.5713 49.6011 36.6296C51.1851 34.6367 53.4079 33.1804 56.2695 32.2606C59.131 31.2898 62.4269 30.8043 66.1571 30.8043H75.125V37.626H66.0805C63.9343 37.626 62.2736 38.1626 61.0983 39.2356C59.9741 40.2576 59.4121 41.6628 59.4121 43.4513C59.4121 45.1376 59.9741 46.5172 61.0983 47.5903C62.2736 48.6123 63.9343 49.1233 66.0805 49.1233C67.4601 49.1233 68.6865 48.8933 69.7596 48.4334C70.8838 47.9224 71.8036 47.0793 72.5189 45.904C73.2343 44.7288 73.6431 43.0936 73.7453 40.9985L76.6579 44.0645C76.4025 46.9771 75.6871 49.4299 74.5118 51.4227C73.3876 53.4156 71.8035 54.9485 69.7596 56.0216C67.7667 57.0947 65.314 57.6312 62.4013 57.6312Z" fill="white"/>
<path d="M106.685 57.8612C101.831 57.8612 98.1003 56.3027 95.4943 53.1856C92.8882 50.0175 91.5852 45.2653 91.5852 38.929V14.5549H103.849V39.5422C103.849 41.7906 104.488 43.579 105.765 44.9076C107.043 46.2362 108.754 46.9005 110.901 46.9005C113.098 46.9005 114.886 46.2106 116.266 44.831C117.646 43.4513 118.335 41.5862 118.335 39.2356V14.5549H130.599V56.5582H120.865V38.8524H121.708C121.708 43.0936 121.146 46.645 120.022 49.5065C118.949 52.317 117.339 54.412 115.193 55.7917C113.047 57.1714 110.39 57.8612 107.221 57.8612H106.685Z" fill="white"/>
<path d="M138.995 56.5582V0.604858H151.335V56.5582H138.995ZM134.012 9.64936V0.604858H151.335V9.64936H134.012Z" fill="white"/>
<path d="M179.651 58.0145C175.972 58.0145 172.702 57.4524 169.84 56.3282C166.979 55.1529 164.551 53.5689 162.559 51.576C160.617 49.5832 159.135 47.3093 158.113 44.7543C157.091 42.1483 156.58 39.4145 156.58 36.5529V34.79C156.58 31.8774 157.091 29.118 158.113 26.512C159.186 23.8549 160.719 21.5299 162.712 19.537C164.756 17.5441 167.209 15.9856 170.07 14.8615C172.932 13.6862 176.125 13.0985 179.651 13.0985C183.279 13.0985 186.498 13.6862 189.309 14.8615C192.17 15.9856 194.598 17.5441 196.59 19.537C198.583 21.5299 200.116 23.8549 201.189 26.512C202.262 29.118 202.799 31.8774 202.799 34.79V36.5529C202.799 39.4145 202.288 42.1483 201.266 44.7543C200.244 47.3093 198.737 49.5832 196.744 51.576C194.802 53.5689 192.4 55.1529 189.539 56.3282C186.677 57.4524 183.381 58.0145 179.651 58.0145ZM179.651 47.667C182.053 47.667 184.046 47.156 185.63 46.134C187.214 45.112 188.415 43.6812 189.232 41.8417C190.101 40.0021 190.535 37.9582 190.535 35.7098C190.535 33.3082 190.101 31.2131 189.232 29.4246C188.364 27.5851 187.112 26.1288 185.476 25.0557C183.892 23.9826 181.951 23.4461 179.651 23.4461C177.403 23.4461 175.461 23.9826 173.826 25.0557C172.191 26.1288 170.939 27.5851 170.07 29.4246C169.253 31.2131 168.844 33.3082 168.844 35.7098C168.844 37.9582 169.253 40.0021 170.07 41.8417C170.888 43.6812 172.114 45.112 173.749 46.134C175.384 47.156 177.352 47.667 179.651 47.667Z" fill="white"/>
<path d="M202.62 72.2711V61.9235H205.303C207.193 61.9235 208.624 61.4126 209.595 60.3906C210.566 59.4197 211.051 58.0145 211.051 56.1749V14.5549H222.932V55.7917C222.932 59.8285 222.293 63.0477 221.016 65.4494C219.789 67.851 217.822 69.5884 215.114 70.6615C212.456 71.7345 209.033 72.2711 204.843 72.2711H202.62ZM205.226 23.5994V14.5549H222.932V23.5994H205.226Z" fill="white"/>
<path d="M255.804 56.5582V44.1411H253.734V30.651C253.734 28.5049 253.223 26.8952 252.201 25.8222C251.179 24.7491 249.544 24.2126 247.296 24.2126C246.172 24.2126 244.69 24.2381 242.85 24.2892C241.011 24.3403 239.12 24.417 237.178 24.5191C235.236 24.6213 233.473 24.7235 231.889 24.8257V14.4782C233.065 14.376 234.444 14.2738 236.028 14.1716C237.613 14.0694 239.248 13.9928 240.934 13.9417C242.62 13.8906 244.204 13.865 245.686 13.865C249.978 13.865 253.581 14.4782 256.494 15.7046C259.457 16.931 261.706 18.7961 263.239 21.2999C264.772 23.7527 265.538 26.9208 265.538 30.8043V56.5582H255.804ZM242.39 57.6312C239.375 57.6312 236.718 57.0947 234.419 56.0216C232.17 54.9485 230.408 53.4156 229.13 51.4227C227.853 49.3788 227.214 46.9516 227.214 44.1411C227.214 41.0752 228.006 38.5713 229.59 36.6296C231.174 34.6367 233.397 33.1804 236.258 32.2606C239.12 31.2898 242.416 30.8043 246.146 30.8043H255.114V37.626H246.069C243.923 37.626 242.263 38.1626 241.087 39.2356C239.963 40.2576 239.401 41.6628 239.401 43.4513C239.401 45.1376 239.963 46.5172 241.087 47.5903C242.263 48.6123 243.923 49.1233 246.069 49.1233C247.449 49.1233 248.675 48.8933 249.749 48.4334C250.873 47.9224 251.792 47.0793 252.508 45.904C253.223 44.7288 253.632 43.0936 253.734 40.9985L256.647 44.0645C256.391 46.9771 255.676 49.4299 254.501 51.4227C253.377 53.4156 251.792 54.9485 249.749 56.0216C247.756 57.0947 245.303 57.6312 242.39 57.6312Z" fill="white"/>
<path d="M272.494 56.5582V14.5549H282.228V32.5672H281.538C281.538 28.2749 282.075 24.698 283.148 21.8365C284.272 18.9749 285.958 16.8288 288.207 15.398C290.455 13.9672 293.189 13.2518 296.408 13.2518H296.945C301.85 13.2518 305.58 14.8615 308.135 18.0807C310.741 21.2488 312.044 26.0777 312.044 32.5672V56.5582H299.781V31.8774C299.781 29.629 299.116 27.7895 297.788 26.3587C296.459 24.9279 294.671 24.2126 292.422 24.2126C290.123 24.2126 288.258 24.9535 286.827 26.4354C285.447 27.8661 284.758 29.7568 284.758 32.1073V56.5582H272.494Z" fill="white"/>
<path d="M344.416 56.5582V44.1411H342.347V30.651C342.347 28.5049 341.836 26.8952 340.814 25.8222C339.792 24.7491 338.157 24.2126 335.908 24.2126C334.784 24.2126 333.302 24.2381 331.463 24.2892C329.623 24.3403 327.733 24.417 325.791 24.5191C323.849 24.6213 322.086 24.7235 320.502 24.8257V14.4782C321.677 14.376 323.057 14.2738 324.641 14.1716C326.225 14.0694 327.86 13.9928 329.547 13.9417C331.233 13.8906 332.817 13.865 334.299 13.865C338.591 13.865 342.194 14.4782 345.106 15.7046C348.07 16.931 350.318 18.7961 351.851 21.2999C353.384 23.7527 354.151 26.9208 354.151 30.8043V56.5582H344.416ZM331.003 57.6312C327.988 57.6312 325.331 57.0947 323.032 56.0216C320.783 54.9485 319.02 53.4156 317.743 51.4227C316.465 49.3788 315.827 46.9516 315.827 44.1411C315.827 41.0752 316.619 38.5713 318.203 36.6296C319.787 34.6367 322.01 33.1804 324.871 32.2606C327.733 31.2898 331.029 30.8043 334.759 30.8043H343.727V37.626H334.682C332.536 37.626 330.875 38.1626 329.7 39.2356C328.576 40.2576 328.014 41.6628 328.014 43.4513C328.014 45.1376 328.576 46.5172 329.7 47.5903C330.875 48.6123 332.536 49.1233 334.682 49.1233C336.062 49.1233 337.288 48.8933 338.361 48.4334C339.485 47.9224 340.405 47.0793 341.121 45.904C341.836 44.7288 342.245 43.0936 342.347 40.9985L345.26 44.0645C345.004 46.9771 344.289 49.4299 343.113 51.4227C341.989 53.4156 340.405 54.9485 338.361 56.0216C336.368 57.0947 333.916 57.6312 331.003 57.6312Z" fill="white"/>
<path d="M363.099 56.5582V14.5549H375.363V56.5582H363.099ZM357.504 23.5994V14.5549H375.363V23.5994H357.504Z" fill="white"/>
</svg>
