<svg width="84" height="21" viewBox="0 0 84 21" fill="none" xmlns="http://www.w3.org/2000/svg">
<path d="M4.74006 20.1721H0.296875V0.296212H4.41423V4.35432H4.71044C5.24362 1.51068 7.13938 0 10.6347 0C15.1964 0 17.7438 3.02137 17.7438 7.73114C17.7438 12.4409 15.2556 15.4327 10.7828 15.4327C7.34673 15.4327 5.45097 13.7443 4.94741 11.1376H4.74006V20.1721ZM4.74006 7.93849C4.74006 10.4859 6.28036 11.3746 9.06476 11.3746C11.9084 11.3746 13.2414 10.4267 13.2414 7.73114C13.2414 5.00599 11.9084 4.08773 9.09438 4.08773C6.22112 4.08773 4.74006 5.06523 4.74006 7.70152V7.93849Z" fill="#FFFFFF"/>
<path d="M18.0509 20.1721H17.3103V16.8545H18.1101C19.0876 16.8545 19.5912 16.4694 19.5912 15.4327V0.296212H24.0344V14.7218C24.0344 18.928 21.7535 20.1721 18.0509 20.1721Z" fill="#FFFFFF"/>
<path d="M30.9796 15.4327C27.7805 15.4327 25.8551 13.9516 25.8551 11.4634C25.8551 9.27145 27.4843 7.90887 30.6538 7.58304L37.0223 6.93137V6.36857C37.0223 4.44319 36.1633 3.91 33.7936 3.91C31.5424 3.91 30.6242 4.50243 30.6242 6.19084V6.30932H26.1514V6.22046C26.1514 2.54743 29.232 0 34.1195 0C39.0662 0 41.4063 2.54743 41.4063 6.42781V15.1365H37.2593V11.73H37.0223C36.3411 14.0405 34.2676 15.4327 30.9796 15.4327ZM30.3279 11.1672C30.3279 11.967 30.95 12.2928 32.2533 12.2928C35.2747 12.2928 36.9039 11.5819 37.0223 9.4788L31.8683 10.0712C30.8019 10.1601 30.3279 10.4563 30.3279 11.1672Z" fill="#FFFFFF"/>
<path d="M48.1016 15.1365H43.6584V0.296212H47.7758V4.85788H48.0424C48.4274 2.3697 50.2047 0 54.0851 0C58.1432 0 60.0686 2.60667 60.0686 5.89463V15.1365H55.6254V7.37569C55.6254 5.00599 54.6479 3.99887 51.9228 3.99887C49.1087 3.99887 48.1016 5.12447 48.1016 7.64228V15.1365Z" fill="#FFFFFF"/>
<path d="M66.878 15.4327C63.6789 15.4327 61.7535 13.9516 61.7535 11.4634C61.7535 9.27145 63.3827 7.90887 66.5522 7.58304L72.9207 6.93137V6.36857C72.9207 4.44319 72.0617 3.91 69.692 3.91C67.4408 3.91 66.5225 4.50243 66.5225 6.19084V6.30932H62.0497V6.22046C62.0497 2.54743 65.1304 0 70.0179 0C74.9646 0 77.3047 2.54743 77.3047 6.42781V15.1365H73.1577V11.73H72.9207C72.2394 14.0405 70.166 15.4327 66.878 15.4327ZM66.2263 11.1672C66.2263 11.967 66.8484 12.2928 68.1517 12.2928C71.1731 12.2928 72.8022 11.5819 72.9207 9.4788L67.7666 10.0712C66.7003 10.1601 66.2263 10.4563 66.2263 11.1672Z" fill="#FFFFFF"/>
<path d="M84 15.1365H79.5568V0.296212H84V15.1365Z" fill="#FFFFFF"/>
</svg>
