<svg width="57" height="19" viewBox="0 0 57 19" fill="none" xmlns="http://www.w3.org/2000/svg">
<path d="M0 18.5455V3.75486H2.51125V8.4412L2.1751 8.42144C2.22783 7.34048 2.45193 6.43088 2.84741 5.69267C3.24287 4.94128 3.77676 4.38103 4.44908 4.01191C5.12137 3.62961 5.87936 3.43848 6.72303 3.43848C7.47444 3.43848 8.15334 3.57688 8.75972 3.85372C9.37931 4.13056 9.90659 4.51943 10.3416 5.02038C10.7898 5.50811 11.126 6.08815 11.3501 6.76044C11.5873 7.41958 11.706 8.1446 11.706 8.93554V9.39033C11.706 10.1681 11.594 10.8997 11.3698 11.5852C11.1457 12.2575 10.8162 12.8441 10.3812 13.3451C9.95932 13.846 9.43862 14.2415 8.81905 14.5315C8.21265 14.8083 7.51399 14.9467 6.72303 14.9467C5.90573 14.9467 5.16752 14.782 4.50838 14.4524C3.86246 14.1097 3.34175 13.5955 2.94627 12.9101C2.5508 12.2114 2.33329 11.3282 2.29374 10.2604L3.16377 11.4468V18.5455H0ZM5.83323 12.2971C6.3737 12.2971 6.84167 12.1653 7.23716 11.9016C7.64582 11.6379 7.96218 11.2688 8.18628 10.7943C8.41039 10.3197 8.52243 9.77263 8.52243 9.15307C8.52243 8.53348 8.41039 7.99301 8.18628 7.53162C7.96218 7.07022 7.6524 6.71432 7.25692 6.46384C6.86146 6.20019 6.38688 6.06836 5.83323 6.06836C5.35866 6.06836 4.91044 6.18043 4.48862 6.40451C4.06678 6.62862 3.72403 6.95158 3.4604 7.37343C3.20993 7.78209 3.08468 8.28301 3.08468 8.87623V9.60786C3.08468 10.1747 3.2165 10.6624 3.48016 11.0711C3.757 11.4666 4.10632 11.7698 4.52817 11.9807C4.94999 12.1916 5.38502 12.2971 5.83323 12.2971Z" fill="white"/>
<path d="M12.272 18.6444V15.975H12.9641C13.4517 15.975 13.8209 15.8432 14.0714 15.5795C14.3219 15.329 14.447 14.9665 14.447 14.492V3.75488H17.512V14.3931C17.512 15.4345 17.3472 16.265 17.0178 16.8846C16.7012 17.5041 16.1938 17.9524 15.4952 18.2292C14.8095 18.506 13.9264 18.6444 12.8455 18.6444H12.272ZM12.9443 6.08817V3.75488H17.512V6.08817H12.9443Z" fill="white"/>
<path d="M25.9918 14.5908V11.3875H25.4578V7.90734C25.4578 7.35369 25.326 6.93842 25.0623 6.66161C24.7987 6.38477 24.3769 6.24637 23.7969 6.24637C23.507 6.24637 23.1246 6.25294 22.65 6.26613C22.1755 6.27931 21.6877 6.2991 21.1867 6.32544C20.6857 6.3518 20.2309 6.37817 19.8223 6.40453V3.7351C20.1256 3.70873 20.4814 3.68237 20.89 3.656C21.2989 3.62964 21.7207 3.60987 22.1557 3.59669C22.5906 3.58351 22.9993 3.5769 23.3816 3.5769C24.4888 3.5769 25.4183 3.7351 26.1698 4.05148C26.9342 4.36787 27.5144 4.84902 27.9099 5.49495C28.3054 6.12772 28.503 6.94502 28.503 7.94688V14.5908H25.9918ZM22.5313 14.8677C21.7535 14.8677 21.068 14.7292 20.4749 14.4524C19.8948 14.1756 19.4402 13.7801 19.1105 13.266C18.7811 12.7387 18.6162 12.1125 18.6162 11.3875C18.6162 10.5966 18.8205 9.9506 19.2292 9.44969C19.6378 8.93556 20.2113 8.55987 20.9494 8.32258C21.6877 8.07213 22.538 7.94688 23.5003 7.94688H25.8138V9.70674H23.4804C22.9268 9.70674 22.4985 9.84517 22.1952 10.122C21.9052 10.3856 21.7602 10.7481 21.7602 11.2095C21.7602 11.6446 21.9052 12.0005 22.1952 12.2773C22.4985 12.541 22.9268 12.6728 23.4804 12.6728C23.8364 12.6728 24.1527 12.6135 24.4298 12.4948C24.7197 12.363 24.9568 12.1455 25.1415 11.8423C25.326 11.5391 25.4315 11.1173 25.4578 10.5768L26.2093 11.3677C26.1433 12.1191 25.9588 12.7519 25.6557 13.266C25.3657 13.7801 24.9568 14.1756 24.4298 14.4524C23.9156 14.7292 23.2828 14.8677 22.5313 14.8677Z" fill="white"/>
<path d="M30.2974 14.5908V3.75487H32.8085V8.40166H32.6305C32.6305 7.29434 32.7691 6.37158 33.0459 5.63337C33.3358 4.89514 33.7708 4.34149 34.351 3.97238C34.9309 3.60326 35.6362 3.4187 36.4667 3.4187H36.6052C37.8706 3.4187 38.8329 3.83397 39.492 4.66445C40.1643 5.48176 40.5004 6.72751 40.5004 8.40166V14.5908H37.3368V8.22371C37.3368 7.64367 37.1653 7.16912 36.8227 6.8C36.4798 6.43089 36.0186 6.24635 35.4384 6.24635C34.8453 6.24635 34.3641 6.43749 33.995 6.81979C33.639 7.18888 33.4612 7.67664 33.4612 8.28302V14.5908H30.2974Z" fill="white"/>
<path d="M48.8519 14.5908V11.3875H48.3182V7.90734C48.3182 7.35369 48.1863 6.93842 47.9227 6.66161C47.659 6.38477 47.2372 6.24637 46.657 6.24637C46.3671 6.24637 45.9847 6.25294 45.5103 6.26613C45.0356 6.27931 44.5481 6.2991 44.0471 6.32544C43.5461 6.3518 43.0913 6.37817 42.6826 6.40453V3.7351C42.9857 3.70873 43.3417 3.68237 43.7504 3.656C44.159 3.62964 44.5808 3.60987 45.016 3.59669C45.451 3.58351 45.8596 3.5769 46.2419 3.5769C47.3492 3.5769 48.2787 3.7351 49.0299 4.05148C49.7946 4.36787 50.3745 4.84902 50.77 5.49495C51.1655 6.12772 51.3633 6.94502 51.3633 7.94688V14.5908H48.8519ZM45.3916 14.8677C44.6138 14.8677 43.9284 14.7292 43.3353 14.4524C42.7551 14.1756 42.3003 13.7801 41.9709 13.266C41.6412 12.7387 41.4766 12.1125 41.4766 11.3875C41.4766 10.5966 41.6809 9.9506 42.0895 9.44969C42.4982 8.93556 43.0716 8.55987 43.8097 8.32258C44.5481 8.07213 45.3984 7.94688 46.3606 7.94688H48.6742V9.70674H46.3408C45.7871 9.70674 45.3586 9.84517 45.0555 10.122C44.7655 10.3856 44.6206 10.7481 44.6206 11.2095C44.6206 11.6446 44.7655 12.0005 45.0555 12.2773C45.3586 12.541 45.7871 12.6728 46.3408 12.6728C46.6968 12.6728 47.013 12.6135 47.2899 12.4948C47.5798 12.363 47.8172 12.1455 48.0019 11.8423C48.1863 11.5391 48.2918 11.1173 48.3182 10.5768L49.0697 11.3677C49.0036 12.1191 48.8192 12.7519 48.5158 13.266C48.2258 13.7801 47.8172 14.1756 47.2899 14.4524C46.7757 14.7292 46.1431 14.8677 45.3916 14.8677Z" fill="white"/>
<path d="M53.6719 14.5908V3.75488H56.8358V14.5908H53.6719ZM52.2285 6.08817V3.75488H56.8358V6.08817H52.2285Z" fill="white"/>
</svg>
