<svg width="166" height="32" viewBox="0 0 166 32" fill="none" xmlns="http://www.w3.org/2000/svg">
<path d="M0.413574 31.3434V6.8575H4.37863L4.796 9.32697H5.03947C5.64234 8.32991 6.43071 7.5995 7.40459 7.13575C8.37846 6.672 9.45668 6.44013 10.6392 6.44013C12.1696 6.44013 13.4797 6.77635 14.5695 7.44878C15.6825 8.12122 16.5288 9.16466 17.1085 10.5791C17.7114 11.9935 18.0128 13.8137 18.0128 16.0397C18.0128 18.1962 17.7114 19.9816 17.1085 21.396C16.5057 22.8105 15.6593 23.8655 14.5695 24.5611C13.5029 25.2336 12.2508 25.5698 10.8131 25.5698C10.0248 25.5698 9.29436 25.477 8.62193 25.2915C7.94949 25.1292 7.34662 24.8626 6.81331 24.4916C6.28 24.1206 5.82784 23.6684 5.45684 23.1351H5.24816V31.3434H0.413574ZM9.14365 21.6047C10.1175 21.6047 10.8827 21.4192 11.4392 21.0482C12.0189 20.654 12.4363 20.0743 12.6913 19.3092C12.9464 18.5208 13.0739 17.5585 13.0739 16.4223V15.6224C13.0739 14.463 12.9464 13.5007 12.6913 12.7355C12.4363 11.9471 12.0189 11.3675 11.4392 10.9965C10.8827 10.6023 10.1175 10.4052 9.14365 10.4052C8.23934 10.4052 7.49734 10.6139 6.91765 11.0312C6.33796 11.4486 5.909 12.0515 5.63075 12.8399C5.3525 13.6282 5.21337 14.5789 5.21337 15.6919V16.2832C5.21337 17.0948 5.29453 17.8368 5.45684 18.5092C5.61915 19.1584 5.85103 19.7149 6.15247 20.1787C6.47709 20.6424 6.88287 21.0018 7.36981 21.2569C7.85674 21.4888 8.44802 21.6047 9.14365 21.6047Z" fill="white"/>
<path d="M26.0611 25.5698C25.4583 25.5698 24.809 25.5002 24.1134 25.3611C23.441 25.222 22.8033 24.9785 22.2004 24.6307C21.5976 24.2597 21.099 23.738 20.7048 23.0655C20.3338 22.3699 20.1483 21.4888 20.1483 20.4222C20.1483 19.1468 20.4266 18.0918 20.9831 17.2571C21.5396 16.4223 22.328 15.7731 23.3482 15.3093C24.3917 14.8224 25.6322 14.4862 27.0698 14.3007C28.5074 14.1152 30.0958 14.0224 31.8348 14.0224V12.666C31.8348 12.1326 31.7421 11.6689 31.5566 11.2747C31.3943 10.8805 31.0928 10.5675 30.6523 10.3356C30.2349 10.1037 29.6436 9.98781 28.8784 9.98781C28.1132 9.98781 27.4872 10.0806 27.0002 10.2661C26.5365 10.4516 26.2003 10.695 25.9916 10.9965C25.8061 11.2747 25.7133 11.5877 25.7133 11.9356V12.3529H21.0179C20.9947 12.237 20.9831 12.1326 20.9831 12.0399C20.9831 11.924 20.9831 11.7848 20.9831 11.6225C20.9831 10.5559 21.3077 9.64 21.957 8.87481C22.6062 8.08644 23.5221 7.48356 24.7047 7.06619C25.8872 6.64882 27.2669 6.44013 28.8436 6.44013C30.5363 6.44013 31.9508 6.66041 33.0869 7.10097C34.2463 7.54153 35.1274 8.19078 35.7303 9.04872C36.3564 9.90665 36.6694 10.9849 36.6694 12.2834V20.5961C36.6694 21.0134 36.7853 21.3265 37.0172 21.5352C37.2723 21.7207 37.5505 21.8134 37.852 21.8134H38.9997V24.9785C38.7679 25.0944 38.4085 25.2104 37.9215 25.3263C37.4346 25.4654 36.8433 25.535 36.1477 25.535C35.4752 25.535 34.8724 25.4306 34.3391 25.222C33.8289 25.0365 33.4 24.7698 33.0522 24.422C32.7044 24.051 32.4609 23.6104 32.3218 23.1003H32.0783C31.6841 23.5872 31.1972 24.0162 30.6175 24.3872C30.061 24.7582 29.4001 25.0481 28.635 25.2567C27.893 25.4654 27.035 25.5698 26.0611 25.5698ZM27.6959 21.9177C28.3451 21.9177 28.9248 21.825 29.4349 21.6395C29.945 21.4308 30.374 21.1642 30.7218 20.8395C31.0696 20.4917 31.3363 20.0743 31.5218 19.5874C31.7305 19.1005 31.8348 18.5788 31.8348 18.0223V17.0136C30.5363 17.0136 29.377 17.1064 28.3567 17.2919C27.3365 17.4542 26.5249 17.744 25.922 18.1614C25.3423 18.5788 25.0525 19.1584 25.0525 19.9004C25.0525 20.3178 25.1568 20.6772 25.3655 20.9787C25.5742 21.2801 25.8756 21.512 26.2698 21.6743C26.664 21.8366 27.1394 21.9177 27.6959 21.9177Z" fill="white"/>
<path d="M46.9673 25.5698C45.1123 25.5698 43.6399 25.0596 42.5501 24.0394C41.4603 23.0191 40.9154 21.3728 40.9154 19.1005V6.44013H45.75V18.3005C45.75 18.9034 45.8196 19.4135 45.9587 19.8309C46.0978 20.2251 46.2949 20.5497 46.55 20.8047C46.8282 21.0598 47.1644 21.2453 47.5586 21.3612C47.9528 21.4772 48.3934 21.5352 48.8803 21.5352C49.5991 21.5352 50.2484 21.3612 50.8281 21.0134C51.4077 20.6656 51.8599 20.1903 52.1845 19.5874C52.5091 18.9613 52.6715 18.2657 52.6715 17.5005V6.44013H57.506V25.535H53.541L53.1932 22.6482H52.9497C52.5091 23.2278 51.9874 23.738 51.3845 24.1785C50.8049 24.6191 50.144 24.9553 49.402 25.1872C48.66 25.4422 47.8485 25.5698 46.9673 25.5698Z" fill="white"/>
<path d="M61.5958 25.535V0.00561523H66.4304V25.535H61.5958Z" fill="white"/>
<path d="M78.9377 25.5698C76.9436 25.5698 75.2509 25.2336 73.8597 24.5611C72.4685 23.8655 71.4134 22.8105 70.6946 21.396C69.9758 19.9584 69.6164 18.1614 69.6164 16.0049C69.6164 13.8021 69.9758 12.0051 70.6946 10.6139C71.4134 9.19943 72.4685 8.156 73.8597 7.48357C75.2509 6.78794 76.9436 6.44013 78.9377 6.44013C80.9782 6.44013 82.6825 6.78794 84.0506 7.48357C85.4418 8.156 86.4969 9.19943 87.2157 10.6139C87.9345 12.0051 88.2939 13.8021 88.2939 16.0049C88.2939 18.1614 87.9345 19.9584 87.2157 21.396C86.4969 22.8105 85.4418 23.8655 84.0506 24.5611C82.6825 25.2336 80.9782 25.5698 78.9377 25.5698ZM78.9377 21.8134C80.0044 21.8134 80.8507 21.6163 81.4768 21.2221C82.126 20.8279 82.6014 20.2251 82.9028 19.4135C83.2042 18.6019 83.355 17.6049 83.355 16.4223V15.5876C83.355 14.405 83.2042 13.408 82.9028 12.5964C82.6014 11.7848 82.126 11.182 81.4768 10.7878C80.8507 10.3704 80.0044 10.1617 78.9377 10.1617C77.8943 10.1617 77.048 10.3704 76.3987 10.7878C75.7727 11.182 75.3089 11.7848 75.0075 12.5964C74.706 13.408 74.5553 14.405 74.5553 15.5876V16.4223C74.5553 17.6049 74.706 18.6019 75.0075 19.4135C75.3089 20.2251 75.7727 20.8279 76.3987 21.2221C77.048 21.6163 77.8943 21.8134 78.9377 21.8134Z" fill="white"/>
<path d="M91.3992 31.6913C91.0746 31.6913 90.7036 31.6681 90.2862 31.6217C89.892 31.5753 89.4978 31.5058 89.1036 31.413C88.7094 31.3434 88.3848 31.2507 88.1298 31.1348V27.9697H89.8688C90.4021 27.9697 90.8079 27.8189 91.0861 27.5175C91.3644 27.2393 91.5035 26.8219 91.5035 26.2654V6.8575H96.3381V26.648C96.3381 27.5755 96.1758 28.4218 95.8512 29.187C95.5497 29.9522 95.0396 30.5551 94.3208 30.9956C93.6252 31.4594 92.6513 31.6913 91.3992 31.6913Z" fill="white"/>
<path d="M105.161 25.5698C104.558 25.5698 103.909 25.5002 103.213 25.3611C102.541 25.222 101.903 24.9785 101.3 24.6307C100.698 24.2597 100.199 23.738 99.8048 23.0655C99.4338 22.3699 99.2483 21.4888 99.2483 20.4222C99.2483 19.1468 99.5266 18.0918 100.083 17.2571C100.64 16.4223 101.428 15.7731 102.448 15.3093C103.492 14.8224 104.732 14.4862 106.17 14.3007C107.607 14.1152 109.196 14.0224 110.935 14.0224V12.666C110.935 12.1326 110.842 11.6689 110.657 11.2747C110.494 10.8805 110.193 10.5675 109.752 10.3356C109.335 10.1037 108.744 9.98781 107.978 9.98781C107.213 9.98781 106.587 10.0806 106.1 10.2661C105.636 10.4516 105.3 10.695 105.092 10.9965C104.906 11.2747 104.813 11.5877 104.813 11.9356V12.3529H100.118C100.095 12.237 100.083 12.1326 100.083 12.0399C100.083 11.924 100.083 11.7848 100.083 11.6225C100.083 10.5559 100.408 9.64 101.057 8.87481C101.706 8.08644 102.622 7.48356 103.805 7.06619C104.987 6.64882 106.367 6.44013 107.944 6.44013C109.636 6.44013 111.051 6.66041 112.187 7.10097C113.346 7.54153 114.227 8.19078 114.83 9.04872C115.456 9.90665 115.769 10.9849 115.769 12.2834V20.5961C115.769 21.0134 115.885 21.3265 116.117 21.5352C116.372 21.7207 116.65 21.8134 116.952 21.8134H118.1V24.9785C117.868 25.0944 117.508 25.2104 117.021 25.3263C116.535 25.4654 115.943 25.535 115.248 25.535C114.575 25.535 113.972 25.4306 113.439 25.222C112.929 25.0365 112.5 24.7698 112.152 24.422C111.804 24.051 111.561 23.6104 111.422 23.1003H111.178C110.784 23.5872 110.297 24.0162 109.717 24.3872C109.161 24.7582 108.5 25.0481 107.735 25.2567C106.993 25.4654 106.135 25.5698 105.161 25.5698ZM106.796 21.9177C107.445 21.9177 108.025 21.825 108.535 21.6395C109.045 21.4308 109.474 21.1642 109.822 20.8395C110.17 20.4917 110.436 20.0743 110.622 19.5874C110.83 19.1005 110.935 18.5788 110.935 18.0223V17.0136C109.636 17.0136 108.477 17.1064 107.457 17.2919C106.436 17.4542 105.625 17.744 105.022 18.1614C104.442 18.5788 104.152 19.1584 104.152 19.9004C104.152 20.3178 104.257 20.6772 104.465 20.9787C104.674 21.2801 104.976 21.512 105.37 21.6743C105.764 21.8366 106.239 21.9177 106.796 21.9177Z" fill="white"/>
<path d="M120.155 25.535V6.44013H124.154L124.537 9.36175H124.78C125.198 8.75887 125.696 8.23716 126.276 7.7966C126.879 7.35604 127.551 7.01982 128.293 6.78794C129.035 6.55607 129.847 6.44013 130.728 6.44013C131.934 6.44013 132.989 6.66041 133.893 7.10097C134.797 7.54153 135.493 8.23716 135.98 9.18784C136.49 10.1385 136.745 11.3791 136.745 12.9094V25.535H131.911V13.6746C131.911 13.0949 131.841 12.608 131.702 12.2138C131.563 11.7964 131.354 11.4602 131.076 11.2051C130.821 10.9269 130.496 10.7298 130.102 10.6139C129.708 10.4979 129.267 10.44 128.78 10.44C128.061 10.44 127.412 10.6139 126.832 10.9617C126.253 11.3095 125.801 11.7848 125.476 12.3877C125.151 12.9906 124.989 13.6862 124.989 14.4746V25.535H120.155Z" fill="white"/>
<path d="M145.564 25.5698C144.961 25.5698 144.312 25.5002 143.617 25.3611C142.944 25.222 142.306 24.9785 141.704 24.6307C141.101 24.2597 140.602 23.738 140.208 23.0655C139.837 22.3699 139.652 21.4888 139.652 20.4222C139.652 19.1468 139.93 18.0918 140.486 17.2571C141.043 16.4223 141.831 15.7731 142.851 15.3093C143.895 14.8224 145.135 14.4862 146.573 14.3007C148.011 14.1152 149.599 14.0224 151.338 14.0224V12.666C151.338 12.1326 151.245 11.6689 151.06 11.2747C150.897 10.8805 150.596 10.5675 150.155 10.3356C149.738 10.1037 149.147 9.98781 148.382 9.98781C147.616 9.98781 146.99 10.0806 146.503 10.2661C146.04 10.4516 145.703 10.695 145.495 10.9965C145.309 11.2747 145.216 11.5877 145.216 11.9356V12.3529H140.521C140.498 12.237 140.486 12.1326 140.486 12.0399C140.486 11.924 140.486 11.7848 140.486 11.6225C140.486 10.5559 140.811 9.64 141.46 8.87481C142.109 8.08644 143.025 7.48356 144.208 7.06619C145.39 6.64882 146.77 6.44013 148.347 6.44013C150.039 6.44013 151.454 6.66041 152.59 7.10097C153.749 7.54153 154.631 8.19078 155.233 9.04872C155.86 9.90665 156.173 10.9849 156.173 12.2834V20.5961C156.173 21.0134 156.289 21.3265 156.52 21.5352C156.775 21.7207 157.054 21.8134 157.355 21.8134H158.503V24.9785C158.271 25.0944 157.912 25.2104 157.425 25.3263C156.938 25.4654 156.346 25.535 155.651 25.535C154.978 25.535 154.376 25.4306 153.842 25.222C153.332 25.0365 152.903 24.7698 152.555 24.422C152.208 24.051 151.964 23.6104 151.825 23.1003H151.581C151.187 23.5872 150.7 24.0162 150.121 24.3872C149.564 24.7582 148.903 25.0481 148.138 25.2567C147.396 25.4654 146.538 25.5698 145.564 25.5698ZM147.199 21.9177C147.848 21.9177 148.428 21.825 148.938 21.6395C149.448 21.4308 149.877 21.1642 150.225 20.8395C150.573 20.4917 150.839 20.0743 151.025 19.5874C151.234 19.1005 151.338 18.5788 151.338 18.0223V17.0136C150.039 17.0136 148.88 17.1064 147.86 17.2919C146.84 17.4542 146.028 17.744 145.425 18.1614C144.846 18.5788 144.556 19.1584 144.556 19.9004C144.556 20.3178 144.66 20.6772 144.869 20.9787C145.077 21.2801 145.379 21.512 145.773 21.6743C146.167 21.8366 146.643 21.9177 147.199 21.9177Z" fill="white"/>
<path d="M160.558 25.535V6.44013H165.392V25.535H160.558Z" fill="white"/>
</svg>
