<svg width="147" height="28" viewBox="0 0 147 28" fill="none" xmlns="http://www.w3.org/2000/svg">
<g clip-path="url(#clip0_2325_4637)">
<path d="M0.0839844 27.835V5.54514H3.8685V12.6076L3.36192 12.5778C3.44137 10.9488 3.7791 9.57799 4.37509 8.46548C4.97107 7.33311 5.77566 6.48879 6.78883 5.93253C7.80202 5.35642 8.94433 5.06836 10.2158 5.06836C11.3481 5.06836 12.3712 5.27695 13.2851 5.69413C14.2188 6.11133 15.0134 6.69738 15.669 7.4523C16.3445 8.18734 16.8511 9.06147 17.1888 10.0746C17.5464 11.0679 17.7252 12.1606 17.7252 13.3526V14.038C17.7252 15.2101 17.5563 16.3126 17.2186 17.3457C16.8809 18.3589 16.3842 19.243 15.7286 19.9979C15.0929 20.7528 14.3082 21.3488 13.3745 21.7857C12.4606 22.203 11.4077 22.4115 10.2158 22.4115C8.98405 22.4115 7.87155 22.1633 6.87823 21.6665C5.90479 21.15 5.12007 20.3753 4.52408 19.3421C3.9281 18.2893 3.6003 16.9583 3.5407 15.3491L4.85188 17.1371V27.835H0.0839844ZM8.87479 18.4185C9.68931 18.4185 10.3946 18.2198 10.9905 17.8225C11.6064 17.4251 12.0832 16.8689 12.4209 16.1537C12.7586 15.4385 12.9275 14.6141 12.9275 13.6804C12.9275 12.7466 12.7586 11.9321 12.4209 11.2368C12.0832 10.5415 11.6163 10.0051 11.0203 9.62764C10.4244 9.23032 9.70918 9.03166 8.87479 9.03166C8.1596 9.03166 7.48415 9.20053 6.84843 9.53824C6.21272 9.87598 5.6962 10.3627 5.29887 10.9984C4.92141 11.6143 4.73267 12.3692 4.73267 13.2632V14.3658C4.73267 15.22 4.93135 15.955 5.32868 16.5709C5.74586 17.1669 6.27231 17.6238 6.90804 17.9417C7.54375 18.2595 8.19934 18.4185 8.87479 18.4185Z" fill="white"/>
<path d="M29.5604 21.8753V17.0478H28.7558V11.8031C28.7558 10.9688 28.5571 10.343 28.1599 9.92579C27.7624 9.5086 27.1268 9.30001 26.2526 9.30001C25.8156 9.30001 25.2396 9.30993 24.5244 9.3298C23.8092 9.34967 23.0742 9.37948 22.3192 9.4192C21.5643 9.45893 20.8788 9.49867 20.263 9.53839V5.5155C20.72 5.47576 21.2563 5.43603 21.8722 5.39629C22.488 5.35657 23.1237 5.32676 23.7794 5.30689C24.435 5.28704 25.0508 5.2771 25.6269 5.2771C27.2957 5.2771 28.6962 5.5155 29.8287 5.99227C30.9808 6.46907 31.855 7.19418 32.4509 8.16764C33.0469 9.12121 33.3449 10.3529 33.3449 11.8628V21.8753H29.5604ZM24.3455 22.2926C23.1733 22.2926 22.1404 22.0839 21.2464 21.6667C20.3723 21.2495 19.6869 20.6536 19.1903 19.8788C18.6935 19.0842 18.4453 18.1405 18.4453 17.0478C18.4453 15.8559 18.7531 14.8824 19.369 14.1275C19.985 13.3527 20.849 12.7865 21.9616 12.4289C23.0742 12.0515 24.3555 11.8628 25.8057 11.8628H29.2922V14.5149H25.7759C24.9415 14.5149 24.2959 14.7235 23.839 15.1407C23.4019 15.538 23.1833 16.0843 23.1833 16.7796C23.1833 17.4352 23.4019 17.9716 23.839 18.3888C24.2959 18.7861 24.9415 18.9848 25.7759 18.9848C26.3122 18.9848 26.7891 18.8954 27.2062 18.7165C27.6432 18.518 28.0009 18.1901 28.2791 17.7332C28.5571 17.2763 28.7161 16.6406 28.7558 15.8261L29.8883 17.018C29.7889 18.1504 29.5107 19.104 29.0539 19.8788C28.6167 20.6536 28.0009 21.2495 27.2062 21.6667C26.4315 22.0839 25.4778 22.2926 24.3455 22.2926Z" fill="white"/>
<path d="M41.5618 22.3817C39.6745 22.3817 38.2242 21.7758 37.2112 20.5641C36.1979 19.3324 35.6914 17.4848 35.6914 15.0214V5.54517H40.4592V15.2598C40.4592 16.1339 40.7076 16.8292 41.2042 17.3457C41.7009 17.8622 42.3664 18.1205 43.2008 18.1205C44.0551 18.1205 44.7504 17.8523 45.2867 17.3159C45.8231 16.7795 46.0913 16.0544 46.0913 15.1405V5.54517H50.8593V21.8752H47.0748V14.9916H47.4025C47.4025 16.6405 47.1839 18.0212 46.7469 19.1337C46.3298 20.2263 45.7038 21.0408 44.8694 21.5773C44.0352 22.1136 43.0021 22.3817 41.7705 22.3817H41.5618Z" fill="white"/>
<path d="M54.1226 21.8753V0.121826H58.9204V21.8753H54.1226ZM52.1855 3.63814V0.121826H58.9204V3.63814H52.1855Z" fill="white"/>
<path d="M69.9286 22.4413C68.4982 22.4413 67.2267 22.2229 66.1142 21.7858C65.0016 21.3289 64.0581 20.7131 63.2833 19.9383C62.5284 19.1635 61.9522 18.2795 61.5549 17.2861C61.1575 16.273 60.959 15.2101 60.959 14.0976V13.4122C60.959 12.2798 61.1575 11.2071 61.5549 10.1939C61.972 9.16083 62.5682 8.25692 63.343 7.48215C64.1376 6.70736 65.0911 6.10144 66.2037 5.66439C67.3161 5.20747 68.5578 4.979 69.9286 4.979C71.339 4.979 72.5906 5.20747 73.6833 5.66439C74.7957 6.10144 75.7394 6.70736 76.5142 7.48215C77.2889 8.25692 77.8849 9.16083 78.3022 10.1939C78.7193 11.2071 78.9279 12.2798 78.9279 13.4122V14.0976C78.9279 15.2101 78.7292 16.273 78.332 17.2861C77.9346 18.2795 77.3486 19.1635 76.5738 19.9383C75.8189 20.7131 74.8851 21.3289 73.7727 21.7858C72.6601 22.2229 71.3788 22.4413 69.9286 22.4413ZM69.9286 18.4186C70.8623 18.4186 71.6371 18.2198 72.2529 17.8225C72.8687 17.4252 73.3355 16.8689 73.6535 16.1537C73.9913 15.4386 74.16 14.6439 74.16 13.7698C74.16 12.8361 73.9913 12.0216 73.6535 11.3263C73.3157 10.6111 72.829 10.0449 72.1933 9.62769C71.5775 9.21051 70.8226 9.0019 69.9286 9.0019C69.0544 9.0019 68.2995 9.21051 67.6638 9.62769C67.0281 10.0449 66.5413 10.6111 66.2037 11.3263C65.8857 12.0216 65.7268 12.8361 65.7268 13.7698C65.7268 14.6439 65.8857 15.4386 66.2037 16.1537C66.5214 16.8689 66.9983 17.4252 67.634 17.8225C68.2697 18.2198 69.0345 18.4186 69.9286 18.4186Z" fill="white"/>
<path d="M78.8594 27.9841V23.9611H79.9022C80.6373 23.9611 81.1937 23.7626 81.571 23.3651C81.9486 22.9878 82.1372 22.4413 82.1372 21.7261V5.54517H86.7561V21.5773C86.7561 23.1466 86.5079 24.3983 86.0111 25.332C85.5344 26.2656 84.7695 26.941 83.7166 27.3583C82.6836 27.7754 81.3525 27.9841 79.7236 27.9841H78.8594ZM79.8724 9.0615V5.54517H86.7561V9.0615H79.8724Z" fill="white"/>
<path d="M99.535 21.8753V17.0478H98.7304V11.8031C98.7304 10.9688 98.5319 10.343 98.1345 9.92579C97.7372 9.5086 97.1015 9.30001 96.2274 9.30001C95.7902 9.30001 95.2142 9.30993 94.499 9.3298C93.7838 9.34967 93.0488 9.37948 92.2939 9.4192C91.5389 9.45893 90.8536 9.49867 90.2378 9.53839V5.5155C90.6946 5.47576 91.2309 5.43603 91.8469 5.39629C92.4628 5.35657 93.0985 5.32676 93.754 5.30689C94.4096 5.28704 95.0254 5.2771 95.6016 5.2771C97.2703 5.2771 98.671 5.5155 99.8033 5.99227C100.956 6.46907 101.83 7.19418 102.426 8.16764C103.022 9.12121 103.32 10.3529 103.32 11.8628V21.8753H99.535ZM94.3202 22.2926C93.1481 22.2926 92.115 22.0839 91.221 21.6667C90.347 21.2495 89.6615 20.6536 89.1649 19.8788C88.6683 19.0842 88.4199 18.1405 88.4199 17.0478C88.4199 15.8559 88.7279 14.8824 89.3437 14.1275C89.9596 13.3527 90.8238 12.7865 91.9362 12.4289C93.0488 12.0515 94.3301 11.8628 95.7803 11.8628H99.2669V14.5149H95.7505C94.9161 14.5149 94.2705 14.7235 93.8136 15.1407C93.3766 15.538 93.1581 16.0843 93.1581 16.7796C93.1581 17.4352 93.3766 17.9716 93.8136 18.3888C94.2705 18.7861 94.9161 18.9848 95.7505 18.9848C96.287 18.9848 96.7637 18.8954 97.181 18.7165C97.618 18.518 97.9755 18.1901 98.2537 17.7332C98.5319 17.2763 98.6909 16.6406 98.7304 15.8261L99.8629 17.018C99.7635 18.1504 99.4855 19.104 99.0285 19.8788C98.5915 20.6536 97.9755 21.2495 97.181 21.6667C96.4062 22.0839 95.4526 22.2926 94.3202 22.2926Z" fill="white"/>
<path d="M106.025 21.8752V5.54516H109.81V12.548H109.542C109.542 10.8792 109.75 9.4886 110.167 8.3761C110.605 7.26358 111.26 6.42922 112.134 5.87296C113.008 5.3167 114.071 5.03857 115.323 5.03857H115.531C117.439 5.03857 118.889 5.66437 119.882 6.91593C120.895 8.14764 121.402 10.025 121.402 12.548V21.8752H116.634V12.2798C116.634 11.4057 116.376 10.6905 115.859 10.1343C115.343 9.57801 114.647 9.29988 113.773 9.29988C112.879 9.29988 112.154 9.58794 111.598 10.1641C111.061 10.7203 110.793 11.4554 110.793 12.3692V21.8752H106.025Z" fill="white"/>
<path d="M133.986 21.8753V17.0478H133.182V11.8031C133.182 10.9688 132.983 10.343 132.586 9.92579C132.188 9.5086 131.553 9.30001 130.679 9.30001C130.241 9.30001 129.665 9.30993 128.95 9.3298C128.235 9.34967 127.5 9.37948 126.745 9.4192C125.99 9.45893 125.305 9.49867 124.689 9.53839V5.5155C125.146 5.47576 125.682 5.43603 126.298 5.39629C126.914 5.35657 127.55 5.32676 128.205 5.30689C128.861 5.28704 129.477 5.2771 130.053 5.2771C131.721 5.2771 133.122 5.5155 134.254 5.99227C135.407 6.46907 136.281 7.19418 136.877 8.16764C137.473 9.12121 137.771 10.3529 137.771 11.8628V21.8753H133.986ZM128.771 22.2926C127.599 22.2926 126.566 22.0839 125.672 21.6667C124.798 21.2495 124.113 20.6536 123.616 19.8788C123.119 19.0842 122.871 18.1405 122.871 17.0478C122.871 15.8559 123.179 14.8824 123.795 14.1275C124.411 13.3527 125.275 12.7865 126.387 12.4289C127.5 12.0515 128.781 11.8628 130.231 11.8628H133.718V14.5149H130.202C129.367 14.5149 128.722 14.7235 128.265 15.1407C127.828 15.538 127.609 16.0843 127.609 16.7796C127.609 17.4352 127.828 17.9716 128.265 18.3888C128.722 18.7861 129.367 18.9848 130.202 18.9848C130.738 18.9848 131.215 18.8954 131.632 18.7165C132.069 18.518 132.427 18.1901 132.705 17.7332C132.983 17.2763 133.142 16.6406 133.182 15.8261L134.314 17.018C134.215 18.1504 133.937 19.104 133.48 19.8788C133.043 20.6536 132.427 21.2495 131.632 21.6667C130.857 22.0839 129.904 22.2926 128.771 22.2926Z" fill="white"/>
<path d="M141.25 21.8752V5.54517H146.018V21.8752H141.25ZM139.074 9.0615V5.54517H146.018V9.0615H139.074Z" fill="white"/>
</g>
<defs>
<clipPath id="clip0_2325_4637">
<rect width="146.142" height="28" fill="white"/>
</clipPath>
</defs>
</svg>
