<svg width="103" height="26" viewBox="0 0 103 26" fill="none" xmlns="http://www.w3.org/2000/svg">
<path d="M5.45173 25.2509H0V0.863449H5.05194V5.8427H5.41539C6.0696 2.35359 8.39567 0.5 12.6844 0.5C18.2815 0.5 21.4071 4.20718 21.4071 9.98602C21.4071 15.7649 18.3542 19.4357 12.8661 19.4357C8.65008 19.4357 6.32401 17.364 5.70615 14.1657H5.45173V25.2509ZM5.45173 10.2404C5.45173 13.3661 7.34167 14.4564 10.7581 14.4564C14.2472 14.4564 15.8827 13.2934 15.8827 9.98602C15.8827 6.64229 14.2472 5.51559 10.7944 5.51559C7.26898 5.51559 5.45173 6.71498 5.45173 9.94967V10.2404Z" fill="#0A0A0A"/>
<path d="M21.7839 25.2509H20.8753V21.1802H21.8566C23.056 21.1802 23.6739 20.7078 23.6739 19.4357V0.863449H29.1256V18.5634C29.1256 23.7244 26.327 25.2509 21.7839 25.2509Z" fill="#0A0A0A"/>
<path d="M37.6473 19.4357C33.7221 19.4357 31.3597 17.6184 31.3597 14.5655C31.3597 11.876 33.3586 10.2041 37.2475 9.80429L45.0617 9.0047V8.31415C45.0617 5.95173 44.0077 5.29753 41.1001 5.29753C38.3379 5.29753 37.2112 6.02442 37.2112 8.09608V8.24146H31.7231V8.13243C31.7231 3.62566 35.503 0.5 41.4999 0.5C47.5695 0.5 50.4407 3.62566 50.4407 8.38684V19.0722H45.3525V14.8926H45.0617C44.2258 17.7275 41.6816 19.4357 37.6473 19.4357ZM36.8478 14.202C36.8478 15.1833 37.611 15.5831 39.2102 15.5831C42.9173 15.5831 44.9163 14.7109 45.0617 12.1304L38.7377 12.8573C37.4293 12.9663 36.8478 13.3297 36.8478 14.202Z" fill="#0A0A0A"/>
<path d="M58.6558 19.0722H53.2041V0.863449H58.256V6.46056H58.5831C59.0556 3.40759 61.2363 0.5 65.9975 0.5C70.9767 0.5 73.3392 3.69835 73.3392 7.73263V19.0722H67.8874V9.54988C67.8874 6.64229 66.688 5.40656 63.3443 5.40656C59.8915 5.40656 58.6558 6.78767 58.6558 9.87698V19.0722Z" fill="#0A0A0A"/>
<path d="M81.6942 19.4357C77.769 19.4357 75.4065 17.6184 75.4065 14.5655C75.4065 11.876 77.4055 10.2041 81.2944 9.80429L89.1086 9.0047V8.31415C89.1086 5.95173 88.0546 5.29753 85.147 5.29753C82.3848 5.29753 81.2581 6.02442 81.2581 8.09608V8.24146H75.77V8.13243C75.77 3.62566 79.5499 0.5 85.5468 0.5C91.6164 0.5 94.4876 3.62566 94.4876 8.38684V19.0722H89.3993V14.8926H89.1086C88.2726 17.7275 85.7285 19.4357 81.6942 19.4357ZM80.8946 14.202C80.8946 15.1833 81.6579 15.5831 83.257 15.5831C86.9642 15.5831 88.9632 14.7109 89.1086 12.1304L82.7846 12.8573C81.4761 12.9663 80.8946 13.3297 80.8946 14.202Z" fill="#0A0A0A"/>
<path d="M102.703 19.0722H97.251V0.863449H102.703V19.0722Z" fill="#0A0A0A"/>
</svg>
