<svg width="1079" height="274" viewBox="0 0 1079 274" fill="none" xmlns="http://www.w3.org/2000/svg">
<rect width="274" height="274" rx="40" fill="#00FFFF"/>
<path d="M210.33 106.181H174.905V203.246C174.905 211.072 181.249 217.416 189.075 217.416H210.33C218.156 217.416 224.5 211.072 224.5 203.246V120.351C224.5 112.525 218.156 106.181 210.33 106.181Z" fill="#17191C"/>
<path d="M174.905 70.756V106.181H113.265C105.439 106.181 99.0951 112.525 99.0951 120.351V203.246C99.0951 211.072 92.751 217.416 84.9251 217.416H63.67C55.8441 217.416 49.5 211.072 49.5 203.246V111.746C49.5 108.169 50.8526 104.724 53.2863 102.103L91.348 61.114C94.0292 58.2266 97.7915 56.5859 101.732 56.5859H160.735C168.561 56.5859 174.905 62.9301 174.905 70.756Z" fill="#17191C"/>
<path d="M356.041 202.189C354.936 202.189 354.041 201.293 354.041 200.189V72.8962C354.041 71.7916 354.936 70.8962 356.041 70.8962H381.727C382.831 70.8962 383.727 71.7916 383.727 72.8962V92.0622C383.727 93.2638 382.117 93.6616 381.557 92.5983V92.5983C381.402 92.3037 381.382 91.9555 381.506 91.6467C384.578 84.0046 389.502 78.214 396.277 74.275C403.356 70.0917 411.562 68 420.894 68C430.548 68 439.075 70.0917 446.477 74.275C454.039 78.4584 459.912 84.3311 464.095 91.8933C468.278 99.2946 470.37 107.903 470.37 117.717V200.189C470.37 201.293 469.475 202.189 468.37 202.189H440.754C439.649 202.189 438.754 201.293 438.754 200.189V125.199C438.754 119.407 437.627 114.419 435.375 110.236C433.122 106.052 429.985 102.834 425.962 100.582C422.101 98.1683 417.515 96.9616 412.206 96.9616C407.057 96.9616 402.471 98.1683 398.449 100.582C394.426 102.834 391.289 106.052 389.036 110.236C386.784 114.419 385.657 119.407 385.657 125.199V200.189C385.657 201.293 384.762 202.189 383.657 202.189H356.041Z" fill="white"/>
<path d="M561.303 205.085C548.431 205.085 536.686 202.108 526.066 196.155C515.608 190.202 507.241 182.076 500.966 171.779C494.852 161.482 491.795 149.736 491.795 136.542C491.795 123.349 494.852 111.603 500.966 101.306C507.241 91.0084 515.608 82.883 526.066 76.9298C536.525 70.9766 548.27 68 561.303 68C574.175 68 585.84 70.9766 596.298 76.9298C606.756 82.883 615.043 91.0084 621.157 101.306C627.432 111.442 630.569 123.188 630.569 136.542C630.569 149.736 627.432 161.482 621.157 171.779C614.882 182.076 606.515 190.202 596.057 196.155C585.598 202.108 574.014 205.085 561.303 205.085ZM561.303 176.123C568.382 176.123 574.577 174.434 579.887 171.055C585.357 167.676 589.621 163.01 592.678 157.057C595.896 150.943 597.505 144.105 597.505 136.542C597.505 128.819 595.896 122.062 592.678 116.269C589.621 110.316 585.357 105.65 579.887 102.271C574.577 98.7315 568.382 96.9616 561.303 96.9616C554.063 96.9616 547.707 98.7315 542.237 102.271C536.766 105.65 532.422 110.316 529.204 116.269C526.147 122.062 524.618 128.819 524.618 136.542C524.618 144.105 526.147 150.943 529.204 157.057C532.422 163.01 536.766 167.676 542.237 171.055C547.707 174.434 554.063 176.123 561.303 176.123Z" fill="white"/>
<path d="M717.778 205.085C704.746 205.085 693 202.108 682.542 196.155C672.244 190.041 664.119 181.835 658.166 171.538C652.213 161.079 649.236 149.334 649.236 136.301C649.236 123.268 652.213 111.603 658.166 101.306C664.119 91.0084 672.244 82.883 682.542 76.9298C693 70.9766 704.746 68 717.778 68C727.11 68 735.799 69.6894 743.844 73.0683C751.889 76.2862 758.807 80.7914 764.6 86.5837C770.115 91.8013 774.181 97.9858 776.796 105.137C777.15 106.106 776.668 107.171 775.722 107.582L751.583 118.078C750.527 118.537 749.308 118.009 748.848 116.953C746.371 111.262 742.531 106.609 737.327 102.995C731.696 98.9728 725.18 96.9616 717.778 96.9616C710.86 96.9616 704.665 98.651 699.195 102.03C693.885 105.409 689.702 110.075 686.645 116.028C683.588 121.981 682.059 128.819 682.059 136.542C682.059 144.265 683.588 151.104 686.645 157.057C689.702 163.01 693.885 167.676 699.195 171.055C704.665 174.434 710.86 176.123 717.778 176.123C725.341 176.123 731.937 174.112 737.569 170.09C742.627 166.477 746.386 161.761 748.848 155.942C749.304 154.865 750.549 154.332 751.614 154.814L775.725 165.716C776.669 166.143 777.134 167.22 776.76 168.185C774.155 174.906 770.182 181.011 764.841 186.501C759.049 192.293 752.13 196.879 744.085 200.258C736.04 203.476 727.271 205.085 717.778 205.085Z" fill="white"/>
<path d="M840.731 205.085C831.56 205.085 823.596 203.556 816.838 200.499C810.08 197.442 804.851 193.098 801.15 187.466C797.45 181.674 795.599 174.997 795.599 167.435C795.599 160.194 797.208 153.758 800.426 148.127C803.644 142.335 808.632 137.508 815.39 133.646C822.148 129.785 830.675 127.049 840.973 125.44L881.611 118.82C882.827 118.621 883.932 119.561 883.932 120.794V140.887C883.932 141.863 883.229 142.696 882.267 142.859L847.006 148.851C840.731 149.977 836.065 151.989 833.008 154.885C829.951 157.781 828.423 161.562 828.423 166.228C828.423 170.733 830.112 174.353 833.491 177.089C837.031 179.663 841.375 180.95 846.523 180.95C853.12 180.95 858.913 179.583 863.9 176.847C869.049 173.951 872.991 170.009 875.726 165.021C878.623 160.033 880.071 154.563 880.071 148.61V114.821C880.071 109.19 877.818 104.524 873.313 100.823C868.969 96.9616 863.176 95.0308 855.936 95.0308C849.178 95.0308 843.145 96.8811 837.835 100.582C833.264 103.725 829.77 107.819 827.355 112.864C826.855 113.908 825.609 114.392 824.568 113.886L802.301 103.065C801.375 102.615 800.938 101.532 801.333 100.581C803.915 94.3783 807.715 88.9885 812.735 84.4116C818.366 79.2628 824.963 75.2404 832.525 72.3442C840.088 69.4481 848.293 68 857.143 68C867.923 68 877.416 70.0112 885.622 74.0337C893.827 77.8952 900.183 83.3657 904.688 90.4452C909.354 97.3638 911.687 105.489 911.687 114.821V200.189C911.687 201.293 910.792 202.189 909.687 202.189H883.76C882.656 202.189 881.76 201.293 881.76 200.189V181.606C881.76 180.556 882.571 179.685 883.618 179.611L884.682 179.535C886.296 179.419 887.356 181.162 886.439 182.496C883.524 186.734 880.194 190.402 876.45 193.5C871.784 197.201 866.475 200.097 860.522 202.189C854.568 204.119 847.972 205.085 840.731 205.085Z" fill="white"/>
<path d="M942.909 250.458C941.804 250.458 940.909 249.562 940.909 248.458V72.8962C940.909 71.7916 941.804 70.8962 942.909 70.8962H968.594C969.699 70.8962 970.594 71.7916 970.594 72.8962V90.5596C970.594 92.027 968.59 92.4523 967.994 91.1114V91.1114C967.809 90.6953 967.844 90.2135 968.094 89.8332C972.559 83.0497 978.541 77.7832 986.041 74.0337C993.764 70.0112 1002.69 68 1012.83 68C1025.22 68 1036.4 71.0571 1046.38 77.1712C1056.35 83.2853 1064.24 91.4911 1070.03 101.789C1075.98 112.086 1078.96 123.671 1078.96 136.542C1078.96 149.253 1076.06 160.838 1070.27 171.296C1064.48 181.755 1056.59 190.041 1046.62 196.155C1036.64 202.108 1025.3 205.085 1012.59 205.085C1003.1 205.085 994.327 203.234 986.282 199.534C978.852 195.895 972.852 190.827 968.28 184.33C967.779 183.618 967.828 182.662 968.375 181.985L968.969 181.25C970.154 179.783 972.525 180.621 972.525 182.506V248.458C972.525 249.562 971.63 250.458 970.525 250.458H942.909ZM1008.97 176.123C1016.21 176.123 1022.64 174.434 1028.28 171.055C1033.91 167.676 1038.25 163.01 1041.31 157.057C1044.53 151.104 1046.14 144.265 1046.14 136.542C1046.14 128.819 1044.53 122.062 1041.31 116.269C1038.25 110.316 1033.91 105.65 1028.28 102.271C1022.64 98.7315 1016.21 96.9616 1008.97 96.9616C1002.05 96.9616 995.775 98.651 990.143 102.03C984.673 105.409 980.329 110.155 977.111 116.269C974.054 122.223 972.525 128.98 972.525 136.542C972.525 144.265 974.054 151.104 977.111 157.057C980.329 163.01 984.673 167.676 990.143 171.055C995.775 174.434 1002.05 176.123 1008.97 176.123Z" fill="white"/>
</svg>
