<svg width="76" height="20" viewBox="0 0 76 20" fill="none" xmlns="http://www.w3.org/2000/svg">
<rect x="0.357422" y="0.791016" width="19.2085" height="19.2085" rx="2.80416" fill="#00FFFF"/>
<path d="M15.102 8.23463H12.6185V15.0393C12.6185 15.5879 13.0633 16.0326 13.6119 16.0326H15.102C15.6506 16.0326 16.0953 15.5879 16.0953 15.0393V9.22801C16.0953 8.67938 15.6506 8.23463 15.102 8.23463Z" fill="#17191C"/>
<path d="M12.6185 5.75119V8.23463H8.29734C7.74872 8.23463 7.30397 8.67938 7.30397 9.22801V15.0393C7.30397 15.5879 6.85922 16.0326 6.31059 16.0326H4.82052C4.2719 16.0326 3.82715 15.5879 3.82715 15.0393V8.62472C3.82715 8.37398 3.92197 8.13252 4.09258 7.94877L6.76086 5.07524C6.94882 4.87283 7.21258 4.75781 7.4888 4.75781H11.6252C12.1738 4.75781 12.6185 5.20256 12.6185 5.75119Z" fill="#17191C"/>
<path d="M25.317 14.9658C25.2395 14.9658 25.1768 14.903 25.1768 14.8255V5.90183C25.1768 5.8244 25.2395 5.76163 25.317 5.76163H27.1176C27.1951 5.76163 27.2578 5.8244 27.2578 5.90183V7.24545C27.2578 7.32969 27.145 7.35757 27.1058 7.28303C27.0949 7.26238 27.0934 7.23797 27.1022 7.21632C27.3175 6.68058 27.6627 6.27464 28.1376 5.9985C28.6339 5.70523 29.2092 5.55859 29.8634 5.55859C30.5402 5.55859 31.138 5.70523 31.6569 5.9985C32.187 6.29177 32.5987 6.70347 32.892 7.23361C33.1853 7.75247 33.3319 8.35593 33.3319 9.04398V14.8255C33.3319 14.903 33.2691 14.9658 33.1917 14.9658H31.2557C31.1782 14.9658 31.1154 14.903 31.1154 14.8255V9.56848C31.1154 9.16242 31.0365 8.81275 30.8786 8.51948C30.7207 8.22621 30.5007 8.00062 30.2187 7.84271C29.948 7.67351 29.6265 7.58892 29.2543 7.58892C28.8934 7.58892 28.5719 7.67351 28.2899 7.84271C28.0079 8.00062 27.788 8.22621 27.6301 8.51948C27.4722 8.81275 27.3932 9.16242 27.3932 9.56848V14.8255C27.3932 14.903 27.3304 14.9658 27.253 14.9658H25.317Z" fill="white"/>
<path d="M39.7066 15.1688C38.8043 15.1688 37.9809 14.9601 37.2364 14.5428C36.5032 14.1254 35.9167 13.5558 35.4768 12.8339C35.0482 12.112 34.8339 11.2886 34.8339 10.3637C34.8339 9.43877 35.0482 8.61536 35.4768 7.89346C35.9167 7.17157 36.5032 6.60195 37.2364 6.18461C37.9696 5.76727 38.793 5.55859 39.7066 5.55859C40.609 5.55859 41.4268 5.76727 42.16 6.18461C42.8931 6.60195 43.474 7.17157 43.9026 7.89346C44.3426 8.60408 44.5625 9.42749 44.5625 10.3637C44.5625 11.2886 44.3426 12.112 43.9026 12.8339C43.4627 13.5558 42.8762 14.1254 42.143 14.5428C41.4099 14.9601 40.5977 15.1688 39.7066 15.1688ZM39.7066 13.1385C40.2029 13.1385 40.6372 13.02 41.0094 12.7832C41.3929 12.5463 41.6919 12.2192 41.9062 11.8018C42.1318 11.3732 42.2445 10.8938 42.2445 10.3637C42.2445 9.82227 42.1318 9.34853 41.9062 8.94246C41.6919 8.52512 41.3929 8.19801 41.0094 7.96114C40.6372 7.71299 40.2029 7.58892 39.7066 7.58892C39.1991 7.58892 38.7535 7.71299 38.37 7.96114C37.9865 8.19801 37.682 8.52512 37.4564 8.94246C37.2421 9.34853 37.1349 9.82227 37.1349 10.3637C37.1349 10.8938 37.2421 11.3732 37.4564 11.8018C37.682 12.2192 37.9865 12.5463 38.37 12.7832C38.7535 13.02 39.1991 13.1385 39.7066 13.1385Z" fill="white"/>
<path d="M50.6762 15.1688C49.7626 15.1688 48.9391 14.9601 48.206 14.5428C47.4841 14.1141 46.9145 13.5389 46.4971 12.817C46.0798 12.0838 45.8711 11.2604 45.8711 10.3468C45.8711 9.43313 46.0798 8.61536 46.4971 7.89346C46.9145 7.17157 47.4841 6.60195 48.206 6.18461C48.9391 5.76727 49.7626 5.55859 50.6762 5.55859C51.3304 5.55859 51.9395 5.67703 52.5035 5.9139C53.0675 6.13949 53.5525 6.45532 53.9586 6.86138C54.3452 7.22716 54.6302 7.66072 54.8136 8.16206C54.8384 8.22997 54.8046 8.30463 54.7383 8.33347L53.046 9.06925C52.972 9.10143 52.8865 9.06442 52.8543 8.99042C52.6807 8.59141 52.4115 8.26524 52.0467 8.0119C51.6519 7.72991 51.1951 7.58892 50.6762 7.58892C50.1912 7.58892 49.7569 7.70735 49.3734 7.94422C49.0012 8.18109 48.7079 8.5082 48.4936 8.92554C48.2793 9.34289 48.1721 9.82227 48.1721 10.3637C48.1721 10.9051 48.2793 11.3845 48.4936 11.8018C48.7079 12.2192 49.0012 12.5463 49.3734 12.7832C49.7569 13.02 50.1912 13.1385 50.6762 13.1385C51.2063 13.1385 51.6688 12.9975 52.0636 12.7155C52.4182 12.4622 52.6817 12.1316 52.8543 11.7237C52.8863 11.6482 52.9735 11.6108 53.0482 11.6446L54.7385 12.4089C54.8046 12.4388 54.8373 12.5143 54.8111 12.582C54.6285 13.0531 54.3499 13.4811 53.9755 13.866C53.5694 14.2721 53.0844 14.5935 52.5204 14.8304C51.9564 15.056 51.3417 15.1688 50.6762 15.1688Z" fill="white"/>
<path d="M59.2957 15.1688C58.6528 15.1688 58.0944 15.0616 57.6207 14.8473C57.1469 14.633 56.7803 14.3285 56.5209 13.9337C56.2615 13.5276 56.1318 13.0595 56.1318 12.5294C56.1318 12.0218 56.2446 11.5706 56.4702 11.1758C56.6957 10.7698 57.0454 10.4314 57.5192 10.1607C57.9929 9.88995 58.5907 9.69819 59.3126 9.5854L62.1615 9.12125C62.2468 9.10736 62.3242 9.1732 62.3242 9.25964V10.6683C62.3242 10.7367 62.2749 10.7951 62.2075 10.8065L59.7356 11.2266C59.2957 11.3055 58.9686 11.4465 58.7543 11.6496C58.54 11.8526 58.4328 12.1177 58.4328 12.4448C58.4328 12.7606 58.5512 13.0144 58.7881 13.2061C59.0363 13.3866 59.3408 13.4769 59.7017 13.4769C60.1642 13.4769 60.5703 13.381 60.9199 13.1892C61.2809 12.9862 61.5572 12.7098 61.749 12.3602C61.952 12.0105 62.0535 11.627 62.0535 11.2097V8.84095C62.0535 8.44616 61.8956 8.11906 61.5798 7.85963C61.2752 7.58892 60.8692 7.45356 60.3616 7.45356C59.8879 7.45356 59.4649 7.58328 59.0927 7.84271C58.7722 8.06303 58.5273 8.35004 58.358 8.70374C58.3229 8.77693 58.2355 8.81087 58.1626 8.7754L56.6016 8.0168C56.5366 7.98523 56.506 7.90933 56.5337 7.84266C56.7147 7.40782 56.9811 7.02997 57.333 6.70911C57.7278 6.34816 58.1903 6.06617 58.7204 5.86314C59.2506 5.66011 59.8258 5.55859 60.4462 5.55859C61.2019 5.55859 61.8674 5.69959 62.4427 5.98158C63.0179 6.25229 63.4635 6.63579 63.7793 7.13209C64.1064 7.61712 64.27 8.18673 64.27 8.84095V14.8255C64.27 14.903 64.2072 14.9658 64.1298 14.9658H62.3122C62.2348 14.9658 62.172 14.903 62.172 14.8255V13.5228C62.172 13.4492 62.2288 13.3882 62.3022 13.383L62.3768 13.3776C62.49 13.3695 62.5643 13.4917 62.5 13.5852C62.2956 13.8823 62.0622 14.1395 61.7998 14.3567C61.4726 14.6161 61.1004 14.8191 60.6831 14.9658C60.2657 15.1011 59.8033 15.1688 59.2957 15.1688Z" fill="white"/>
<path d="M66.4587 18.3496C66.3813 18.3496 66.3185 18.2868 66.3185 18.2094V5.90183C66.3185 5.8244 66.3813 5.76163 66.4587 5.76163H68.2594C68.3368 5.76163 68.3996 5.8244 68.3996 5.90183V7.14011C68.3996 7.24298 68.2591 7.2728 68.2173 7.17879C68.2044 7.14963 68.2068 7.11585 68.2244 7.08918C68.5374 6.61364 68.9567 6.24443 69.4825 5.98158C70.0239 5.69959 70.6499 5.55859 71.3605 5.55859C72.229 5.55859 73.013 5.77291 73.7123 6.20153C74.4116 6.63015 74.9643 7.20541 75.3704 7.9273C75.7877 8.64919 75.9964 9.46132 75.9964 10.3637C75.9964 11.2548 75.7934 12.0669 75.3873 12.8001C74.9812 13.5332 74.4285 14.1141 73.7292 14.5428C73.0299 14.9601 72.2347 15.1688 71.3436 15.1688C70.6781 15.1688 70.0634 15.0391 69.4994 14.7796C68.9785 14.5245 68.5579 14.1693 68.2374 13.7138C68.2022 13.6639 68.2057 13.5969 68.244 13.5494L68.2857 13.4979C68.3688 13.395 68.535 13.4537 68.535 13.586V18.2094C68.535 18.2868 68.4722 18.3496 68.3948 18.3496H66.4587ZM71.0898 13.1385C71.5974 13.1385 72.0486 13.02 72.4433 12.7832C72.8381 12.5463 73.1427 12.2192 73.357 11.8018C73.5826 11.3845 73.6954 10.9051 73.6954 10.3637C73.6954 9.82227 73.5826 9.34853 73.357 8.94246C73.1427 8.52512 72.8381 8.19801 72.4433 7.96114C72.0486 7.71299 71.5974 7.58892 71.0898 7.58892C70.6048 7.58892 70.1649 7.70735 69.7701 7.94422C69.3866 8.18109 69.082 8.51384 68.8564 8.94246C68.6421 9.35981 68.535 9.83355 68.535 10.3637C68.535 10.9051 68.6421 11.3845 68.8564 11.8018C69.082 12.2192 69.3866 12.5463 69.7701 12.7832C70.1649 13.02 70.6048 13.1385 71.0898 13.1385Z" fill="white"/>
</svg>
