<svg width="201" height="28" viewBox="0 0 201 28" fill="none" xmlns="http://www.w3.org/2000/svg">
<path d="M24.2375 14.3156C24.4886 14.4019 24.7499 14.2153 24.7499 13.9499V8.28899C24.7499 8.12383 24.6433 7.9763 24.487 7.92267C17.1829 5.41486 12.298 3.78219 6.07834 1.6461C6.03791 1.63222 5.99508 1.625 5.95234 1.625L0.386719 1.625C0.17314 1.625 0 1.79814 0 2.01172V8.98661C0 9.15178 0.104891 9.29871 0.261097 9.35236L5.62888 11.196C5.87992 11.2822 6.14122 11.0957 6.14122 10.8303V8.64196C6.14122 8.37652 6.40251 8.18999 6.65356 8.27621L24.2375 14.3156Z" fill="#9AE94C"/>
<path d="M24.2383 23.973C24.4892 24.0587 24.75 23.8722 24.75 23.6071V17.9246C24.75 17.7593 24.645 17.6123 24.4887 17.5588L12.8871 13.5814C12.6361 13.4953 12.375 13.6819 12.375 13.9472V19.6447C12.375 19.8101 12.4802 19.9572 12.6367 20.0107L24.2383 23.973Z" fill="#9AE94C"/>
<path d="M11.8633 26.2002C12.1142 26.2859 12.375 26.0994 12.375 25.8343V20.1518C12.375 19.9865 12.27 19.8395 12.1137 19.786L0.512132 15.8086C0.261127 15.7225 0 15.9091 0 16.1744V21.8719C0 22.0373 0.1052 22.1844 0.26173 22.2379L11.8633 26.2002Z" fill="#9AE94C"/>
<path d="M39.3869 21.4075H35.9219V6.34094H39.3869V10.4556C39.9438 8.07344 41.4906 6.03157 44.4916 6.03157C47.4306 6.03157 49.225 7.79501 49.225 10.9197V21.4075H45.7291V11.9716C45.7291 10.1153 45.1103 8.84688 42.79 8.84688C40.2531 8.84688 39.3869 10.4866 39.3869 12.9616V21.4075Z" fill="white"/>
<path d="M58.5053 21.7169C54.174 21.7169 51.204 18.5613 51.204 13.8897C51.204 9.18719 54.174 6.03157 58.5053 6.03157C62.8984 6.03157 65.8684 9.18719 65.8684 13.8897C65.8684 18.5613 62.8984 21.7169 58.5053 21.7169ZM58.5362 18.8397C60.7947 18.8397 62.3415 17.3547 62.3415 13.8897C62.3415 10.3938 60.7947 8.90876 58.5362 8.90876C56.3087 8.90876 54.7618 10.3938 54.7618 13.8897C54.7618 17.3547 56.3087 18.8397 58.5362 18.8397Z" fill="white"/>
<path d="M75.1134 21.7169C70.6275 21.7169 67.8122 18.5613 67.8122 13.8897C67.8122 9.18719 70.6275 6.03157 75.1134 6.03157C78.8878 6.03157 81.27 8.16626 82.0743 11.0125L78.9497 12.5594C78.6093 10.3938 77.4956 8.93969 75.1753 8.93969C72.7931 8.93969 71.339 10.7031 71.339 13.8897C71.339 17.0453 72.7931 18.8088 75.1753 18.8088C77.5265 18.8088 78.6093 17.3547 78.9497 15.1891L82.0743 16.7359C81.27 19.5822 78.8878 21.7169 75.1134 21.7169Z" fill="white"/>
<path d="M87.5602 21.7169C85.0852 21.7169 83.6002 20.3247 83.6002 18.1591C83.6002 16.0244 85.0852 14.725 87.5293 13.7659L92.5721 11.6313C92.4483 10.1153 91.7677 9.09438 89.6949 9.09438C87.6839 9.09438 86.1061 10.27 85.2399 11.8478L83.1671 9.37282C84.3427 7.76407 86.6939 6.03157 90.0352 6.03157C93.7786 6.03157 95.8824 8.16626 95.8824 11.8788V17.5403C95.8824 18.2209 96.1299 18.4375 96.6868 18.4375H97.6458V21.4075H95.5111C93.9024 21.4075 92.6339 20.665 92.6339 18.4994V17.3856C92.1699 19.3656 90.7158 21.7169 87.5602 21.7169ZM86.9414 17.6331C86.9414 18.4994 87.5292 19.0253 88.7977 19.0253C91.0871 19.0253 92.6339 17.6641 92.6339 15.6222V14.0134L88.7668 15.7459C87.4674 16.3338 86.9414 16.8597 86.9414 17.6331Z" fill="white"/>
<path d="M103.204 27.1619H99.7387V6.34094H103.204V10.3628C103.699 8.01157 105.029 6.00063 108.03 6.00063C111.681 6.00063 114.032 9.00157 114.032 13.8588C114.032 18.7159 111.681 21.7169 107.968 21.7169C104.967 21.7169 103.699 19.7059 103.204 17.3856V27.1619ZM103.204 14.7869C103.204 17.2619 104.225 18.9016 106.669 18.9016C108.834 18.9016 110.474 17.2619 110.474 13.8588C110.474 10.4556 108.834 8.81595 106.669 8.81595C104.225 8.81595 103.204 10.4556 103.204 12.9306V14.7869Z" fill="white"/>
<path d="M119.628 21.4075H115.668V17.0144H119.628V21.4075Z" fill="white"/>
<path d="M128.53 21.7169C125.312 21.7169 122.373 20.4175 121.229 18.0353L123.271 15.8697C124.106 17.3856 125.962 18.9325 128.654 18.9325C130.139 18.9325 131.098 18.4066 131.098 17.3238C131.098 16.21 129.953 15.8388 128.282 15.4366L126.271 14.9416C123.889 14.3847 121.693 13.3328 121.693 10.5794C121.693 7.76407 123.951 6.06251 127.416 6.06251C130.634 6.06251 132.892 7.60938 133.82 9.31094L131.778 11.4766C130.726 9.80594 129.118 8.81595 127.169 8.81595C125.838 8.81595 124.941 9.37282 124.941 10.3938C124.941 11.4766 125.746 11.8788 127.787 12.4047L129.613 12.8688C132.985 13.735 134.222 15.0963 134.222 17.2619C134.222 20.2319 131.716 21.7169 128.53 21.7169Z" fill="white"/>
<path d="M141.55 21.7478C138.704 21.7478 137.065 19.9534 137.065 17.2928V9.03251H134.713V6.34094H137.065V4.51563L140.53 2.31907V6.34094H145.139V9.03251H140.53V16.4575C140.53 18.0972 141.303 18.4994 142.324 18.4994C143.5 18.4994 144.366 17.5403 144.799 16.6741L145.882 19.7678C145.232 20.7269 143.747 21.7478 141.55 21.7478Z" fill="white"/>
<path d="M151.609 21.7169C148.701 21.7169 146.906 19.9534 146.906 16.8288V6.34094H150.371V15.7769C150.371 17.6331 150.99 18.9016 153.31 18.9016C155.847 18.9016 156.713 17.2619 156.713 14.7869V6.34094H160.209V21.4075H156.713V17.2928C156.157 19.675 154.61 21.7169 151.609 21.7169Z" fill="white"/>
<path d="M168.469 21.7478C164.756 21.7478 162.405 18.7469 162.405 13.8897C162.405 9.03251 164.756 6.03157 168.407 6.03157C171.408 6.03157 172.738 8.04251 173.233 10.3938V0.679382H176.698V21.4075H173.233V17.4166C172.738 19.7369 171.47 21.7478 168.469 21.7478ZM165.963 13.8897C165.963 17.2928 167.603 18.9325 169.799 18.9325C172.212 18.9325 173.233 17.3238 173.233 14.8488V12.9616C173.233 10.4866 172.212 8.84688 169.768 8.84688C167.603 8.84688 165.963 10.5175 165.963 13.8897Z" fill="white"/>
<path d="M183.249 4.20626H179.784V0.679382H183.249V4.20626ZM183.249 21.4075H179.784V6.34094H183.249V21.4075Z" fill="white"/>
<path d="M192.699 21.7169C188.368 21.7169 185.398 18.5613 185.398 13.8897C185.398 9.18719 188.368 6.03157 192.699 6.03157C197.092 6.03157 200.062 9.18719 200.062 13.8897C200.062 18.5613 197.092 21.7169 192.699 21.7169ZM192.73 18.8397C194.988 18.8397 196.535 17.3547 196.535 13.8897C196.535 10.3938 194.988 8.90876 192.73 8.90876C190.503 8.90876 188.956 10.3938 188.956 13.8897C188.956 17.3547 190.503 18.8397 192.73 18.8397Z" fill="white"/>
</svg>
