<svg width="355" height="87" viewBox="0 0 355 87" fill="none" xmlns="http://www.w3.org/2000/svg">
<g clip-path="url(#clip0_1565_681)">
<path d="M2.34131 62.8937C1.6523 62.8937 1.09375 62.3351 1.09375 61.6461V3.06049C1.09375 2.37147 1.6523 1.81291 2.34132 1.81291H13.6568C14.3458 1.81291 14.9043 2.37147 14.9043 3.06047V11.6599C14.9043 12.2189 14.1554 12.404 13.8951 11.9093C13.823 11.7723 13.8134 11.6103 13.8711 11.4666C15.3003 7.9113 17.591 5.21739 20.743 3.38484C24.0365 1.43864 27.8541 0.465546 32.1956 0.465546C36.6869 0.465546 40.6541 1.43864 44.0974 3.38484C47.6156 5.33105 50.3477 8.06322 52.2939 11.5813C54.2401 15.0247 55.2132 19.0293 55.2132 23.5954V61.6461C55.2132 62.3351 54.6547 62.8937 53.9657 62.8937H41.752C41.063 62.8937 40.5044 62.3351 40.5044 61.6461V27.0761C40.5044 24.3814 39.9804 22.0609 38.9325 20.1147C37.8845 18.1685 36.4249 16.6714 34.5535 15.6235C32.757 14.5007 30.6237 13.9393 28.1535 13.9393C25.7582 13.9393 23.6248 14.5007 21.7535 15.6235C19.8821 16.6714 18.4225 18.1685 17.3745 20.1147C16.3266 22.0609 15.8026 24.3814 15.8026 27.0761V61.6461C15.8026 62.3351 15.2441 62.8937 14.555 62.8937H2.34131Z" fill="white"/>
<path d="M189.976 64.241C183.913 64.241 178.448 62.8562 173.583 60.0866C168.792 57.2421 165.012 53.4246 162.242 48.634C159.473 43.7685 158.088 38.3041 158.088 32.241C158.088 26.1778 159.473 20.7509 162.242 15.9603C165.012 11.1696 168.792 7.38946 173.583 4.61987C178.448 1.85028 183.913 0.465485 189.976 0.465485C194.317 0.465485 198.359 1.25145 202.102 2.82338C205.845 4.32045 209.063 6.41636 211.758 9.1111C214.255 11.4725 216.112 14.2596 217.331 17.4724C217.559 18.0739 217.257 18.7386 216.667 18.9952L206.011 23.6288C205.352 23.9151 204.592 23.585 204.292 22.9326C203.138 20.424 201.397 18.362 199.07 16.7462C196.451 14.8749 193.419 13.9392 189.976 13.9392C186.757 13.9392 183.875 14.7252 181.33 16.2971C178.86 17.869 176.914 20.0398 175.491 22.8094C174.069 25.579 173.358 28.7603 173.358 32.3533C173.358 35.9462 174.069 39.1275 175.491 41.8971C176.914 44.6667 178.86 46.8375 181.33 48.4094C183.875 49.9813 186.757 50.7673 189.976 50.7673C193.494 50.7673 196.563 49.8316 199.183 47.9603C201.443 46.3453 203.146 44.2565 204.293 41.6939C204.59 41.0283 205.366 40.6948 206.029 40.9952L216.67 45.8062C217.257 46.0722 217.549 46.7446 217.309 47.3437C216.096 50.3644 214.283 53.1149 211.871 55.5954C209.176 58.2901 205.957 60.4234 202.214 61.9954C198.472 63.4924 194.392 64.241 189.976 64.241Z" fill="white"/>
<path d="M245.153 64.241C240.886 64.241 237.181 63.5299 234.037 62.1077C230.893 60.6855 228.46 58.6644 226.739 56.0445C225.017 53.3498 224.156 50.2434 224.156 46.7252C224.156 43.3568 224.905 40.3627 226.402 37.7428C227.899 35.048 230.219 32.8024 233.363 31.0059C236.507 29.2095 240.474 27.9369 245.265 27.1884L263.803 24.1682C264.561 24.0445 265.251 24.6304 265.251 25.3995V34.1069C265.251 34.7152 264.812 35.2348 264.212 35.3367L248.072 38.0796C245.153 38.6036 242.982 39.5393 241.56 40.8866C240.138 42.234 239.426 43.9931 239.426 46.1638C239.426 48.2597 240.212 49.944 241.784 51.2165C243.431 52.4141 245.452 53.013 247.848 53.013C250.917 53.013 253.611 52.3767 255.932 51.1042C258.327 49.7568 260.161 47.9229 261.434 45.6024C262.781 43.282 263.455 40.7369 263.455 37.9673V22.248C263.455 19.6282 262.407 17.4574 260.311 15.7358C258.29 13.9393 255.595 13.041 252.227 13.041C249.083 13.041 246.276 13.9019 243.805 15.6235C241.771 17.0219 240.195 18.8251 239.08 21.0332C238.753 21.6775 237.977 21.9803 237.328 21.6648L227.532 16.9046C226.955 16.6238 226.681 15.948 226.936 15.358C228.133 12.5836 229.864 10.1645 232.128 8.10063C234.748 5.70531 237.817 3.83396 241.335 2.4866C244.853 1.13923 248.671 0.465546 252.788 0.465546C257.803 0.465546 262.22 1.40122 266.037 3.27257C269.855 5.06906 272.811 7.61408 274.907 10.9076C277.078 14.1264 278.163 17.9065 278.163 22.248V61.6461C278.163 62.3351 277.605 62.8937 276.916 62.8937H265.488C264.798 62.8937 264.241 62.3351 264.241 61.6461V53.4798C264.241 52.9004 264.688 52.4195 265.266 52.3782C266.157 52.3146 266.741 53.2761 266.225 54.0064C264.916 55.8624 263.431 57.4774 261.77 58.8516C259.6 60.5732 257.129 61.9206 254.36 62.8937C251.59 63.7919 248.521 64.241 245.153 64.241Z" fill="white"/>
<path d="M290.988 85.3498C290.298 85.3498 289.74 84.7913 289.74 84.1022V3.06049C289.74 2.37147 290.298 1.81291 290.988 1.81291H302.303C302.992 1.81291 303.551 2.37147 303.551 3.06047V10.9609C303.551 11.6435 302.618 11.8414 302.341 11.2176C302.255 11.024 302.271 10.7998 302.387 10.6229C304.464 7.46706 307.247 5.01694 310.737 3.27257C314.33 1.40122 318.484 0.465546 323.2 0.465546C328.964 0.465546 334.166 1.88777 338.807 4.73222C343.448 7.57667 347.116 11.3942 349.811 16.1849C352.58 20.9755 353.965 26.365 353.965 32.3533C353.965 38.2668 352.618 43.6562 349.923 48.5217C347.228 53.3872 343.56 57.2422 338.919 60.0866C334.278 62.8562 329.001 64.241 323.088 64.241C318.671 64.241 314.592 63.3802 310.849 61.6586C307.421 59.9793 304.646 57.6463 302.525 54.6591C302.26 54.2851 302.286 53.7812 302.575 53.4243C303.199 52.651 304.449 53.0927 304.449 54.0865V84.1022C304.449 84.7913 303.89 85.3498 303.201 85.3498H290.988ZM321.403 50.7673C324.772 50.7673 327.766 49.9814 330.386 48.4094C333.006 46.8375 335.027 44.6668 336.449 41.8972C337.946 39.1276 338.695 35.9463 338.695 32.3533C338.695 28.7603 337.946 25.6165 336.449 22.9217C335.027 20.1521 333.006 17.9814 330.386 16.4095C327.766 14.7627 324.772 13.9393 321.403 13.9393C318.185 13.9393 315.265 14.7252 312.646 16.2972C310.101 17.8691 308.079 20.0773 306.582 22.9217C305.16 25.6913 304.449 28.8352 304.449 32.3533C304.449 35.9463 305.16 39.1276 306.582 41.8972C308.079 44.6668 310.101 46.8375 312.646 48.4094C315.265 49.9814 318.185 50.7673 321.403 50.7673Z" fill="white"/>
<g clip-path="url(#clip1_1565_681)">
<path fill-rule="evenodd" clip-rule="evenodd" d="M92.1389 0.478821C76.184 0.478821 63.25 13.4129 63.25 29.3677V34.5852C63.25 50.54 76.184 63.4742 92.1389 63.4742H124.187C140.142 63.4742 153.075 50.54 153.075 34.5852V29.3677C153.075 13.4128 140.142 0.478821 124.187 0.478821H92.1389ZM94.7496 14.7702C86.4039 14.7702 79.6385 21.5357 79.6385 29.8813V34.0716C79.6385 42.4172 86.4039 49.1826 94.7496 49.1826H121.576C129.922 49.1826 136.687 42.4172 136.687 34.0716V29.8813C136.687 21.5357 129.922 14.7702 121.576 14.7702H94.7496Z" fill="#41FF33"/>
</g>
</g>
<defs>
<clipPath id="clip0_1565_681">
<rect width="354.309" height="86.0819" fill="white" transform="translate(0.34375 0.104858)"/>
</clipPath>
<clipPath id="clip1_1565_681">
<rect width="90.2222" height="63.5556" fill="white" transform="translate(62.9883 0.104858)"/>
</clipPath>
</defs>
</svg>
