<svg width="28" height="25" viewBox="0 0 28 25" fill="none" xmlns="http://www.w3.org/2000/svg">
<g clip-path="url(#clip0_1057_2360)">
<path d="M14.2111 15.058C15.5315 15.058 16.6019 13.9876 16.6019 12.6672C16.6019 11.3468 15.5315 10.2764 14.2111 10.2764C12.8907 10.2764 11.8203 11.3468 11.8203 12.6672C11.8203 13.9876 12.8907 15.058 14.2111 15.058Z" fill="#61DAFB"/>
<path d="M14.2115 17.5659C21.2965 17.5659 27.0401 15.3729 27.0401 12.6677C27.0401 9.96253 21.2965 7.76953 14.2115 7.76953C7.12639 7.76953 1.38281 9.96253 1.38281 12.6677C1.38281 15.3729 7.12639 17.5659 14.2115 17.5659Z" stroke="#61DAFB" stroke-width="1.65217"/>
<path d="M9.96944 15.1165C13.512 21.2524 18.283 25.13 20.6257 23.7774C22.9685 22.4248 21.9959 16.3542 18.4534 10.2183C14.9109 4.08248 10.1399 0.2049 7.79709 1.5575C5.45431 2.91011 6.4269 8.98069 9.96944 15.1165Z" stroke="#61DAFB" stroke-width="1.65217"/>
<path d="M9.96989 10.2186C6.42736 16.3544 5.45477 22.425 7.79755 23.7776C10.1403 25.1302 14.9113 21.2526 18.4538 15.1168C21.9964 8.98092 22.969 2.91033 20.6262 1.55773C18.2834 0.205128 13.5124 4.08271 9.96989 10.2186Z" stroke="#61DAFB" stroke-width="1.65217"/>
</g>
<defs>
<clipPath id="clip0_1057_2360">
<rect width="26.8235" height="24" fill="white" transform="translate(0.799805 0.666992)"/>
</clipPath>
</defs>
</svg>
