<svg width="70" height="18" viewBox="0 0 70 18" fill="none" xmlns="http://www.w3.org/2000/svg">
<path d="M13.0679 12.504C13.7639 12.432 14.2919 11.832 14.2679 11.112C14.2439 10.392 13.6439 9.816 12.9239 9.816H12.8759C12.1319 9.84 11.5559 10.464 11.5799 11.208C11.6039 11.568 11.7479 11.88 11.9639 12.096C11.1479 13.704 9.89991 14.88 8.02791 15.864C6.75591 16.536 5.43591 16.776 4.11591 16.608C3.03591 16.464 2.19591 15.984 1.66791 15.192C0.89991 14.016 0.82791 12.744 1.47591 11.472C1.93191 10.56 2.65191 9.888 3.10791 9.552C3.01191 9.24 2.86791 8.712 2.79591 8.328C-0.68409 10.848 -0.32409 14.256 0.73191 15.864C1.52391 17.064 3.13191 17.808 4.90791 17.808C5.38791 17.808 5.86791 17.76 6.34791 17.64C9.41991 17.04 11.7479 15.216 13.0679 12.504Z" fill="#764ABC"/>
<path d="M17.2919 9.528C15.4679 7.392 12.7799 6.216 9.70795 6.216H9.32395C9.10795 5.784 8.65195 5.496 8.14795 5.496H8.09995C7.35595 5.52 6.77995 6.144 6.80395 6.888C6.82795 7.608 7.42795 8.184 8.14795 8.184H8.19595C8.72395 8.16 9.17995 7.824 9.37195 7.368H9.80395C11.6279 7.368 13.3559 7.896 14.9159 8.928C16.1159 9.72 16.9799 10.752 17.4599 12C17.8679 13.008 17.8439 13.992 17.4119 14.832C16.7399 16.104 15.6119 16.8 14.1239 16.8C13.1639 16.8 12.2519 16.512 11.7719 16.296C11.5079 16.536 11.0279 16.92 10.6919 17.16C11.7239 17.64 12.7799 17.904 13.7879 17.904C16.0919 17.904 17.7959 16.632 18.4439 15.36C19.1399 13.968 19.0919 11.568 17.2919 9.528Z" fill="#764ABC"/>
<path d="M5.0999 12.912C5.1239 13.632 5.7239 14.208 6.4439 14.208H6.4919C7.2359 14.184 7.8119 13.56 7.7879 12.816C7.7639 12.096 7.1639 11.52 6.4439 11.52H6.3959C6.3479 11.52 6.2759 11.52 6.2279 11.544C5.2439 9.912 4.8359 8.136 4.9799 6.216C5.0759 4.776 5.5559 3.528 6.3959 2.496C7.0919 1.608 8.4359 1.176 9.3479 1.152C11.8919 1.104 12.9719 4.272 13.0439 5.544C13.3559 5.616 13.8839 5.784 14.2439 5.904C13.9559 2.016 11.5559 0 9.2519 0C7.0919 0 5.0999 1.56 4.3079 3.864C3.2039 6.936 3.9239 9.888 5.2679 12.216C5.1479 12.384 5.0759 12.648 5.0999 12.912Z" fill="#764ABC"/>
<path d="M33.2583 14.7762H30.3599L28.6177 11.8934C28.4875 11.6747 28.3625 11.4793 28.2427 11.3075C28.1229 11.1356 28.0005 10.9898 27.8755 10.87C27.7557 10.745 27.6281 10.6512 27.4927 10.5887C27.3625 10.521 27.2192 10.4872 27.063 10.4872H26.3833V14.7762H23.8599V3.57309H27.8599C30.5786 3.57309 31.938 4.58871 31.938 6.61996C31.938 7.01059 31.8781 7.37257 31.7583 7.7059C31.6385 8.03403 31.4692 8.3309 31.2505 8.59653C31.0317 8.86215 30.7661 9.09132 30.4536 9.28403C30.1463 9.47674 29.8026 9.62778 29.4224 9.73715V9.7684C29.589 9.82049 29.7505 9.90642 29.9067 10.0262C30.063 10.1408 30.214 10.2762 30.3599 10.4325C30.5057 10.5887 30.6437 10.758 30.7739 10.9403C30.9093 11.1174 31.0317 11.2918 31.1411 11.4637L33.2583 14.7762ZM26.3833 5.46371V8.5809H27.4771C28.0187 8.5809 28.4536 8.42465 28.7817 8.11215C29.1151 7.79444 29.2817 7.40121 29.2817 6.93246C29.2817 5.9533 28.6958 5.46371 27.5239 5.46371H26.3833Z" fill="#764ABC"/>
<path d="M40.8521 11.4793H35.6333C35.7166 12.6408 36.4484 13.2215 37.8286 13.2215C38.7088 13.2215 39.4823 13.0132 40.1489 12.5965V14.3778C39.4093 14.7736 38.4484 14.9715 37.2661 14.9715C35.9744 14.9715 34.9718 14.6148 34.2583 13.9012C33.5448 13.1825 33.188 12.1825 33.188 10.9012C33.188 9.57309 33.5734 8.52101 34.3442 7.74496C35.1151 6.96892 36.063 6.5809 37.188 6.5809C38.3547 6.5809 39.2557 6.92726 39.8911 7.61996C40.5317 8.31267 40.8521 9.25278 40.8521 10.4403V11.4793ZM38.563 9.96371C38.563 8.81788 38.0994 8.24496 37.1724 8.24496C36.7765 8.24496 36.4328 8.40903 36.1411 8.73715C35.8547 9.06528 35.6802 9.47413 35.6177 9.96371H38.563Z" fill="#764ABC"/>
<path d="M50.1489 14.7762H47.6802V13.6747H47.6489C47.0864 14.5392 46.2609 14.9715 45.1724 14.9715C44.1724 14.9715 43.3677 14.62 42.7583 13.9168C42.1489 13.2085 41.8442 12.2215 41.8442 10.9559C41.8442 9.63299 42.1802 8.57309 42.8521 7.77621C43.5239 6.97934 44.4041 6.5809 45.4927 6.5809C46.5239 6.5809 47.2427 6.95069 47.6489 7.69028H47.6802V2.93246H50.1489V14.7762ZM47.7271 10.8856V10.284C47.7271 9.76319 47.576 9.3309 47.2739 8.98715C46.9718 8.6434 46.5786 8.47153 46.0942 8.47153C45.5474 8.47153 45.1203 8.68767 44.813 9.11996C44.5057 9.54705 44.3521 10.1356 44.3521 10.8856C44.3521 11.5887 44.5005 12.1304 44.7974 12.5106C45.0942 12.8908 45.5057 13.0809 46.0317 13.0809C46.5317 13.0809 46.938 12.8804 47.2505 12.4793C47.5682 12.0783 47.7271 11.547 47.7271 10.8856Z" fill="#764ABC"/>
<path d="M59.8286 14.7762H57.3677V13.5575H57.3286C56.7192 14.5002 55.9041 14.9715 54.8833 14.9715C53.0291 14.9715 52.1021 13.8491 52.1021 11.6043V6.77621H54.563V11.3856C54.563 12.5158 55.0109 13.0809 55.9067 13.0809C56.3494 13.0809 56.7036 12.9273 56.9692 12.62C57.2349 12.3075 57.3677 11.8856 57.3677 11.3543V6.77621H59.8286V14.7762Z" fill="#764ABC"/>
<path d="M69.6411 6.77621L67.0005 10.6512L69.6255 14.7762H66.7817L65.6255 12.62C65.5317 12.4481 65.4198 12.2059 65.2896 11.8934H65.2583C65.1802 12.1122 65.0734 12.3465 64.938 12.5965L63.7739 14.7762H60.938L63.6411 10.7918L61.1021 6.77621H63.9614L65.1021 9.0184C65.2531 9.31528 65.3599 9.56528 65.4224 9.7684H65.4536C65.5369 9.52361 65.6489 9.2684 65.7896 9.00278L66.9536 6.77621H69.6411Z" fill="#764ABC"/>
</svg>
