<svg width="91" height="18" viewBox="0 0 91 18" fill="none" xmlns="http://www.w3.org/2000/svg">
<g clip-path="url(#clip0_1178_1999)">
<path d="M9 17.0156C13.4269 17.0156 17.0156 13.4269 17.0156 8.99997C17.0156 4.57306 13.4269 0.984344 9 0.984344C4.57309 0.984344 0.984375 4.57306 0.984375 8.99997C0.984375 13.4269 4.57309 17.0156 9 17.0156Z" stroke="#010101" stroke-width="1.40625"/>
<path d="M6.86503 8.55675C8.78646 6.98695 10.666 5.36273 12.6292 3.83899C11.5994 5.42137 10.5404 6.98273 9.51061 8.56504C8.62734 8.56926 7.74414 8.56933 6.86503 8.55675ZM8.48925 9.43158C9.37666 9.43158 10.2599 9.43158 11.1432 9.44416C9.20925 11.0055 7.33809 12.6423 5.37061 14.1618C6.4004 12.5795 7.45945 11.014 8.48925 9.43158Z" fill="#010101"/>
</g>
<path d="M23.0469 14.3945V11.8945C23.5 12.2747 23.9922 12.5612 24.5234 12.7539C25.0547 12.9414 25.5911 13.0352 26.1328 13.0352C26.4505 13.0352 26.7266 13.0065 26.9609 12.9492C27.2005 12.8919 27.3984 12.8138 27.5547 12.7148C27.7161 12.6107 27.8359 12.4909 27.9141 12.3555C27.9922 12.2148 28.0312 12.0638 28.0312 11.9023C28.0312 11.6836 27.9688 11.4883 27.8438 11.3164C27.7188 11.1445 27.5469 10.9857 27.3281 10.8398C27.1146 10.694 26.8594 10.5534 26.5625 10.418C26.2656 10.2826 25.9453 10.1445 25.6016 10.0039C24.7266 9.63932 24.0729 9.19401 23.6406 8.66797C23.2135 8.14193 23 7.50651 23 6.76172C23 6.17839 23.1172 5.67839 23.3516 5.26172C23.5859 4.83984 23.9036 4.49349 24.3047 4.22266C24.7109 3.95182 25.1797 3.75391 25.7109 3.62891C26.2422 3.4987 26.8047 3.43359 27.3984 3.43359C27.9818 3.43359 28.4974 3.47005 28.9453 3.54297C29.3984 3.61068 29.8151 3.71745 30.1953 3.86328V6.19922C30.0078 6.06901 29.8021 5.95443 29.5781 5.85547C29.3594 5.75651 29.1328 5.67578 28.8984 5.61328C28.6641 5.54557 28.4297 5.49609 28.1953 5.46484C27.9661 5.43359 27.7474 5.41797 27.5391 5.41797C27.2526 5.41797 26.9922 5.44661 26.7578 5.50391C26.5234 5.55599 26.3255 5.63151 26.1641 5.73047C26.0026 5.82943 25.8776 5.94922 25.7891 6.08984C25.7005 6.22526 25.6562 6.37891 25.6562 6.55078C25.6562 6.73828 25.7057 6.90755 25.8047 7.05859C25.9036 7.20443 26.0443 7.34505 26.2266 7.48047C26.4089 7.61068 26.6302 7.74089 26.8906 7.87109C27.151 7.99609 27.4453 8.1263 27.7734 8.26172C28.2214 8.44922 28.6224 8.64974 28.9766 8.86328C29.3359 9.07161 29.6432 9.30859 29.8984 9.57422C30.1536 9.83984 30.349 10.1445 30.4844 10.4883C30.6198 10.8268 30.6875 11.2227 30.6875 11.6758C30.6875 12.3008 30.5677 12.8268 30.3281 13.2539C30.0938 13.6758 29.7734 14.0195 29.3672 14.2852C28.9609 14.5456 28.487 14.7331 27.9453 14.8477C27.4089 14.9622 26.8411 15.0195 26.2422 15.0195C25.6276 15.0195 25.0417 14.9674 24.4844 14.8633C23.9323 14.7591 23.4531 14.6029 23.0469 14.3945Z" fill="#010101"/>
<path d="M36.1016 15.0195C34.7682 15.0195 33.7188 14.6471 32.9531 13.9023C32.1927 13.1523 31.8125 12.1367 31.8125 10.8555C31.8125 9.53255 32.2083 8.4987 33 7.75391C33.7917 7.00391 34.862 6.62891 36.2109 6.62891C37.5391 6.62891 38.5807 7.00391 39.3359 7.75391C40.0911 8.4987 40.4688 9.48568 40.4688 10.7148C40.4688 12.043 40.0781 13.0924 39.2969 13.8633C38.5208 14.6341 37.4557 15.0195 36.1016 15.0195ZM36.1641 8.51953C35.5807 8.51953 35.1276 8.72005 34.8047 9.12109C34.4818 9.52214 34.3203 10.0898 34.3203 10.8242C34.3203 12.3607 34.9401 13.1289 36.1797 13.1289C37.362 13.1289 37.9531 12.3398 37.9531 10.7617C37.9531 9.26693 37.3568 8.51953 36.1641 8.51953Z" fill="#010101"/>
<path d="M48.1328 14.5352C47.5755 14.8581 46.7708 15.0195 45.7188 15.0195C44.4896 15.0195 43.4948 14.6471 42.7344 13.9023C41.974 13.1576 41.5938 12.1966 41.5938 11.0195C41.5938 9.66016 42 8.58984 42.8125 7.80859C43.6302 7.02214 44.7214 6.62891 46.0859 6.62891C47.0286 6.62891 47.7109 6.75391 48.1328 7.00391V9.09766C47.6172 8.71224 47.0417 8.51953 46.4062 8.51953C45.6979 8.51953 45.1354 8.72786 44.7188 9.14453C44.3073 9.55599 44.1016 10.1263 44.1016 10.8555C44.1016 11.5638 44.2995 12.1211 44.6953 12.5273C45.0911 12.9284 45.6354 13.1289 46.3281 13.1289C46.9427 13.1289 47.5443 12.9362 48.1328 12.5508V14.5352Z" fill="#010101"/>
<path d="M57.7734 14.8242H54.8125L52.2578 10.8555H52.2266V14.8242H49.7578V2.98047H52.2266V10.5195H52.2578L54.6406 6.82422H57.5703L54.7031 10.582L57.7734 14.8242Z" fill="#010101"/>
<path d="M65.6641 11.5273H60.4453C60.5286 12.6888 61.2604 13.2695 62.6406 13.2695C63.5208 13.2695 64.2943 13.0612 64.9609 12.6445V14.4258C64.2214 14.8216 63.2604 15.0195 62.0781 15.0195C60.7865 15.0195 59.7839 14.6628 59.0703 13.9492C58.3568 13.2305 58 12.2305 58 10.9492C58 9.62109 58.3854 8.56901 59.1562 7.79297C59.9271 7.01693 60.875 6.62891 62 6.62891C63.1667 6.62891 64.0677 6.97526 64.7031 7.66797C65.3438 8.36068 65.6641 9.30078 65.6641 10.4883V11.5273ZM63.375 10.0117C63.375 8.86589 62.9115 8.29297 61.9844 8.29297C61.5885 8.29297 61.2448 8.45703 60.9531 8.78516C60.6667 9.11328 60.4922 9.52214 60.4297 10.0117H63.375Z" fill="#010101"/>
<path d="M71.9688 14.7305C71.6042 14.9232 71.0547 15.0195 70.3203 15.0195C68.5807 15.0195 67.7109 14.1159 67.7109 12.3086V8.64453H66.4141V6.82422H67.7109V5.09766L70.1719 4.39453V6.82422H71.9688V8.64453H70.1719V11.8789C70.1719 12.7122 70.5026 13.1289 71.1641 13.1289C71.4245 13.1289 71.6927 13.0534 71.9688 12.9023V14.7305Z" fill="#010101"/>
<path d="M74.4688 15.0195C74.0625 15.0195 73.724 14.8945 73.4531 14.6445C73.1823 14.3945 73.0469 14.0872 73.0469 13.7227C73.0469 13.3477 73.1849 13.0404 73.4609 12.8008C73.7422 12.5612 74.0911 12.4414 74.5078 12.4414C74.9297 12.4414 75.2734 12.5638 75.5391 12.8086C75.8099 13.0482 75.9453 13.3529 75.9453 13.7227C75.9453 14.1029 75.8073 14.4154 75.5312 14.6602C75.2604 14.8997 74.9062 15.0195 74.4688 15.0195Z" fill="#010101"/>
<path d="M78.9609 5.55859C78.5443 5.55859 78.2031 5.4362 77.9375 5.19141C77.6719 4.94141 77.5391 4.63672 77.5391 4.27734C77.5391 3.90755 77.6719 3.60547 77.9375 3.37109C78.2031 3.13672 78.5443 3.01953 78.9609 3.01953C79.3828 3.01953 79.724 3.13672 79.9844 3.37109C80.25 3.60547 80.3828 3.90755 80.3828 4.27734C80.3828 4.65234 80.25 4.95964 79.9844 5.19922C79.724 5.4388 79.3828 5.55859 78.9609 5.55859ZM80.1797 14.8242H77.7109V6.82422H80.1797V14.8242Z" fill="#010101"/>
<path d="M86.0703 15.0195C84.737 15.0195 83.6875 14.6471 82.9219 13.9023C82.1615 13.1523 81.7812 12.1367 81.7812 10.8555C81.7812 9.53255 82.1771 8.4987 82.9688 7.75391C83.7604 7.00391 84.8307 6.62891 86.1797 6.62891C87.5078 6.62891 88.5495 7.00391 89.3047 7.75391C90.0599 8.4987 90.4375 9.48568 90.4375 10.7148C90.4375 12.043 90.0469 13.0924 89.2656 13.8633C88.4896 14.6341 87.4245 15.0195 86.0703 15.0195ZM86.1328 8.51953C85.5495 8.51953 85.0964 8.72005 84.7734 9.12109C84.4505 9.52214 84.2891 10.0898 84.2891 10.8242C84.2891 12.3607 84.9089 13.1289 86.1484 13.1289C87.3307 13.1289 87.9219 12.3398 87.9219 10.7617C87.9219 9.26693 87.3255 8.51953 86.1328 8.51953Z" fill="#010101"/>
<defs>
<clipPath id="clip0_1178_1999">
<rect width="18" height="18" fill="white"/>
</clipPath>
</defs>
</svg>
