<svg width="86" height="70" viewBox="0 0 86 70" fill="none" xmlns="http://www.w3.org/2000/svg">
<path d="M71.9819 39.0628L85.2413 40.9192C86.2529 41.0608 86.2529 42.5223 85.2413 42.6638L71.9819 44.5202C66.1391 45.3382 61.5467 49.9306 60.7287 55.7734L58.8723 69.0328C58.7308 70.0444 57.2693 70.0444 57.1277 69.0328L55.2713 55.7734C54.4533 49.9306 49.861 45.3382 44.0181 44.5202L30.7587 42.6638C29.7471 42.5223 29.7471 41.0608 30.7587 40.9192L44.0181 39.0628C49.861 38.2449 54.4533 33.6525 55.2713 27.8096L57.1277 14.5502C57.2693 13.5386 58.7308 13.5386 58.8723 14.5502L60.7287 27.8096C61.5467 33.6525 66.1391 38.2449 71.9819 39.0628Z" fill="white"/>
<path d="M23.9897 15.2323L31.5664 16.293C32.1445 16.3739 32.1445 17.2091 31.5664 17.29L23.9897 18.3508C20.6509 18.8182 18.0267 21.4424 17.5593 24.7812L16.4985 32.3579C16.4176 32.936 15.5824 32.936 15.5015 32.3579L14.4407 24.7812C13.9733 21.4424 11.3491 18.8182 8.01034 18.3508L0.433557 17.29C-0.144517 17.2091 -0.14452 16.3739 0.433552 16.293L8.01034 15.2323C11.3491 14.7648 13.9733 12.1406 14.4407 8.80185L15.5015 1.22506C15.5824 0.646987 16.4176 0.646984 16.4985 1.22506L17.5593 8.80185C18.0267 12.1406 20.6509 14.7648 23.9897 15.2323Z" fill="white"/>
</svg>
