<svg width="104" height="54" viewBox="0 0 104 54" fill="none" xmlns="http://www.w3.org/2000/svg">
<rect x="16" y="16" width="88" height="38" rx="4" fill="#00AAFF"/>
<path d="M30.9826 40.07V38.474H33.5446C34.0113 38.474 34.366 38.348 34.6086 38.096C34.8513 37.8347 34.9726 37.48 34.9726 37.032C34.9726 36.584 34.8513 36.2387 34.6086 35.996C34.366 35.744 34.0113 35.618 33.5446 35.618H30.9826V34.4H33.4046C34.086 34.4 34.6926 34.484 35.2246 34.652C35.766 34.8107 36.186 35.0813 36.4846 35.464C36.7926 35.8467 36.9466 36.36 36.9466 37.004V37.2C36.9466 37.8067 36.8113 38.3247 36.5406 38.754C36.2793 39.174 35.8826 39.5007 35.3506 39.734C34.828 39.958 34.1793 40.07 33.4046 40.07H30.9826ZM29.3166 40.07V29.71H31.2626V40.07H29.3166ZM30.9826 35.296V34.078H33.1666C33.6426 34.078 33.9926 33.952 34.2166 33.7C34.4406 33.448 34.5526 33.112 34.5526 32.692C34.5526 32.272 34.4406 31.936 34.2166 31.684C33.9926 31.432 33.6426 31.306 33.1666 31.306H30.9826V29.71H32.9846C34.142 29.71 35.0193 29.9527 35.6166 30.438C36.2233 30.9233 36.5266 31.6187 36.5266 32.524V32.72C36.5266 33.3547 36.3726 33.8633 36.0646 34.246C35.766 34.6193 35.3506 34.89 34.8186 35.058C34.2866 35.2167 33.6753 35.296 32.9846 35.296H30.9826ZM41.3913 40.238C40.514 40.238 39.8326 39.9487 39.3473 39.37C38.8713 38.7913 38.6333 37.9327 38.6333 36.794V32.384H40.5793V36.962C40.5793 37.4287 40.71 37.802 40.9713 38.082C41.2326 38.3527 41.5873 38.488 42.0353 38.488C42.4833 38.488 42.8473 38.3433 43.1273 38.054C43.4166 37.7647 43.5613 37.3727 43.5613 36.878V32.384H45.5073V40H43.9673V36.766H44.1213C44.1213 37.5313 44.0233 38.1707 43.8273 38.684C43.6313 39.1973 43.3373 39.5847 42.9453 39.846C42.5533 40.1073 42.0633 40.238 41.4753 40.238H41.3913ZM50.5007 40.238C49.4554 40.238 48.6341 40.0187 48.0367 39.58C47.4487 39.132 47.1407 38.516 47.1127 37.732H48.8627C48.8907 37.9933 49.0354 38.2313 49.2967 38.446C49.5581 38.6607 49.9687 38.768 50.5287 38.768C50.9954 38.768 51.3641 38.684 51.6347 38.516C51.9147 38.348 52.0547 38.1193 52.0547 37.83C52.0547 37.578 51.9474 37.3773 51.7327 37.228C51.5274 37.0787 51.1727 36.9807 50.6687 36.934L49.9967 36.864C49.1474 36.7707 48.4941 36.528 48.0367 36.136C47.5794 35.744 47.3507 35.2213 47.3507 34.568C47.3507 34.0453 47.4814 33.6067 47.7427 33.252C48.0041 32.8973 48.3634 32.6313 48.8207 32.454C49.2874 32.2673 49.8194 32.174 50.4167 32.174C51.3501 32.174 52.1061 32.3793 52.6847 32.79C53.2634 33.2007 53.5667 33.8027 53.5947 34.596H51.8447C51.8261 34.3347 51.6954 34.1107 51.4527 33.924C51.2101 33.7373 50.8601 33.644 50.4027 33.644C49.9921 33.644 49.6747 33.7233 49.4507 33.882C49.2267 34.0407 49.1147 34.246 49.1147 34.498C49.1147 34.7407 49.2034 34.9273 49.3807 35.058C49.5674 35.1887 49.8661 35.2773 50.2767 35.324L50.9487 35.394C51.8447 35.4873 52.5447 35.7347 53.0487 36.136C53.5621 36.5373 53.8187 37.0787 53.8187 37.76C53.8187 38.264 53.6787 38.7027 53.3987 39.076C53.1281 39.44 52.7454 39.7247 52.2507 39.93C51.7561 40.1353 51.1727 40.238 50.5007 40.238ZM55.7903 40V32.398H57.7363V40H55.7903ZM54.7263 33.854V32.398H57.7363V33.854H54.7263ZM56.5043 31.488C56.1216 31.488 55.837 31.39 55.6503 31.194C55.473 30.9887 55.3843 30.7367 55.3843 30.438C55.3843 30.1207 55.473 29.864 55.6503 29.668C55.837 29.472 56.1216 29.374 56.5043 29.374C56.887 29.374 57.167 29.472 57.3443 29.668C57.5216 29.864 57.6103 30.1207 57.6103 30.438C57.6103 30.7367 57.5216 30.9887 57.3443 31.194C57.167 31.39 56.887 31.488 56.5043 31.488ZM59.979 40V32.398H61.519V35.66H61.379C61.379 34.8853 61.4817 34.2413 61.687 33.728C61.8924 33.2053 62.1957 32.8133 62.597 32.552C63.0077 32.2907 63.5164 32.16 64.123 32.16H64.207C65.1124 32.16 65.7984 32.454 66.265 33.042C66.7317 33.6207 66.965 34.4887 66.965 35.646V40H65.019V35.478C65.019 35.0113 64.8837 34.6333 64.613 34.344C64.3517 34.0547 63.9877 33.91 63.521 33.91C63.045 33.91 62.6577 34.0593 62.359 34.358C62.0697 34.6473 61.925 35.0393 61.925 35.534V40H59.979ZM72.4592 40.266C71.8058 40.266 71.2318 40.154 70.7372 39.93C70.2518 39.706 69.8458 39.4073 69.5192 39.034C69.2018 38.6513 68.9592 38.2267 68.7912 37.76C68.6325 37.2933 68.5532 36.8173 68.5532 36.332V36.066C68.5532 35.562 68.6325 35.0767 68.7912 34.61C68.9592 34.134 69.2018 33.714 69.5192 33.35C69.8458 32.9767 70.2472 32.6827 70.7232 32.468C71.1992 32.244 71.7498 32.132 72.3752 32.132C73.1965 32.132 73.8825 32.314 74.4332 32.678C74.9932 33.0327 75.4132 33.504 75.6932 34.092C75.9732 34.6707 76.1132 35.296 76.1132 35.968V36.668H69.3792V35.478H74.8952L74.2932 36.066C74.2932 35.5807 74.2232 35.1653 74.0832 34.82C73.9432 34.4747 73.7285 34.2087 73.4392 34.022C73.1592 33.8353 72.8045 33.742 72.3752 33.742C71.9458 33.742 71.5818 33.84 71.2832 34.036C70.9845 34.232 70.7558 34.5167 70.5972 34.89C70.4478 35.254 70.3732 35.6927 70.3732 36.206C70.3732 36.682 70.4478 37.1067 70.5972 37.48C70.7465 37.844 70.9752 38.1333 71.2832 38.348C71.5912 38.5533 71.9832 38.656 72.4592 38.656C72.9352 38.656 73.3225 38.5627 73.6212 38.376C73.9198 38.18 74.1112 37.942 74.1952 37.662H75.9872C75.8752 38.1847 75.6605 38.642 75.3432 39.034C75.0258 39.426 74.6198 39.7293 74.1252 39.944C73.6398 40.1587 73.0845 40.266 72.4592 40.266ZM80.4968 40.238C79.4515 40.238 78.6301 40.0187 78.0328 39.58C77.4448 39.132 77.1368 38.516 77.1088 37.732H78.8588C78.8868 37.9933 79.0315 38.2313 79.2928 38.446C79.5541 38.6607 79.9648 38.768 80.5248 38.768C80.9915 38.768 81.3601 38.684 81.6308 38.516C81.9108 38.348 82.0508 38.1193 82.0508 37.83C82.0508 37.578 81.9435 37.3773 81.7288 37.228C81.5235 37.0787 81.1688 36.9807 80.6648 36.934L79.9928 36.864C79.1435 36.7707 78.4901 36.528 78.0328 36.136C77.5755 35.744 77.3468 35.2213 77.3468 34.568C77.3468 34.0453 77.4775 33.6067 77.7388 33.252C78.0001 32.8973 78.3595 32.6313 78.8168 32.454C79.2835 32.2673 79.8155 32.174 80.4128 32.174C81.3461 32.174 82.1021 32.3793 82.6808 32.79C83.2595 33.2007 83.5628 33.8027 83.5908 34.596H81.8408C81.8221 34.3347 81.6915 34.1107 81.4488 33.924C81.2061 33.7373 80.8561 33.644 80.3988 33.644C79.9881 33.644 79.6708 33.7233 79.4468 33.882C79.2228 34.0407 79.1108 34.246 79.1108 34.498C79.1108 34.7407 79.1995 34.9273 79.3768 35.058C79.5635 35.1887 79.8621 35.2773 80.2728 35.324L80.9448 35.394C81.8408 35.4873 82.5408 35.7347 83.0448 36.136C83.5581 36.5373 83.8148 37.0787 83.8148 37.76C83.8148 38.264 83.6748 38.7027 83.3948 39.076C83.1241 39.44 82.7415 39.7247 82.2468 39.93C81.7521 40.1353 81.1688 40.238 80.4968 40.238ZM88.1804 40.238C87.1351 40.238 86.3137 40.0187 85.7164 39.58C85.1284 39.132 84.8204 38.516 84.7924 37.732H86.5424C86.5704 37.9933 86.7151 38.2313 86.9764 38.446C87.2377 38.6607 87.6484 38.768 88.2084 38.768C88.6751 38.768 89.0437 38.684 89.3144 38.516C89.5944 38.348 89.7344 38.1193 89.7344 37.83C89.7344 37.578 89.6271 37.3773 89.4124 37.228C89.2071 37.0787 88.8524 36.9807 88.3484 36.934L87.6764 36.864C86.8271 36.7707 86.1737 36.528 85.7164 36.136C85.2591 35.744 85.0304 35.2213 85.0304 34.568C85.0304 34.0453 85.1611 33.6067 85.4224 33.252C85.6837 32.8973 86.0431 32.6313 86.5004 32.454C86.9671 32.2673 87.4991 32.174 88.0964 32.174C89.0297 32.174 89.7857 32.3793 90.3644 32.79C90.9431 33.2007 91.2464 33.8027 91.2744 34.596H89.5244C89.5057 34.3347 89.3751 34.1107 89.1324 33.924C88.8897 33.7373 88.5397 33.644 88.0824 33.644C87.6717 33.644 87.3544 33.7233 87.1304 33.882C86.9064 34.0407 86.7944 34.246 86.7944 34.498C86.7944 34.7407 86.8831 34.9273 87.0604 35.058C87.2471 35.1887 87.5457 35.2773 87.9564 35.324L88.6284 35.394C89.5244 35.4873 90.2244 35.7347 90.7284 36.136C91.2417 36.5373 91.4984 37.0787 91.4984 37.76C91.4984 38.264 91.3584 38.7027 91.0784 39.076C90.8077 39.44 90.4251 39.7247 89.9304 39.93C89.4357 40.1353 88.8524 40.238 88.1804 40.238Z" fill="#111213"/>
<path d="M14.6222 7.03616C15.0982 6.91716 15.1359 6.25521 14.6765 6.08293L1.20992 1.03296C0.807979 0.882232 0.415466 1.27474 0.566195 1.67669L5.61616 15.1433C5.78844 15.6027 6.4504 15.565 6.5694 15.089L8.1072 8.93777C8.15198 8.75863 8.29186 8.61875 8.471 8.57396L14.6222 7.03616Z" fill="#00AAFF"/>
</svg>
