<svg width="136" height="37" viewBox="0 0 136 37" fill="none" xmlns="http://www.w3.org/2000/svg">
<rect y="0.791504" width="136" height="36" rx="18" fill="white"/>
<rect x="16" y="25.3774" width="6" height="2" transform="rotate(-45 16 25.3774)" fill="#0C0F14"/>
<rect x="27.7578" y="21.1348" width="6" height="2" transform="rotate(45 27.7578 21.1348)" fill="#0C0F14"/>
<rect width="6" height="2" transform="matrix(0.707107 0.707107 0.707107 -0.707107 16 12.2056)" fill="#0C0F14"/>
<rect width="6" height="2" transform="matrix(0.707107 -0.707107 -0.707107 -0.707107 27.7578 16.4482)" fill="#0C0F14"/>
<path d="M45.44 23.7915V12.1115H47.664V23.7915H45.44ZM47.344 23.7915V21.8715H52.64V23.7915H47.344ZM47.344 18.8155V16.8955H52.224V18.8155H47.344ZM47.344 14.0315V12.1115H52.512V14.0315H47.344ZM54.7953 23.7915V15.1035H56.5553V18.8315H56.3953C56.3953 17.9568 56.5073 17.2262 56.7313 16.6395C56.9553 16.0422 57.2859 15.5942 57.7233 15.2955C58.1713 14.9862 58.7259 14.8315 59.3873 14.8315H59.4833C60.1553 14.8315 60.7099 14.9862 61.1473 15.2955C61.5953 15.5942 61.9259 16.0422 62.1393 16.6395C62.3633 17.2262 62.4753 17.9568 62.4753 18.8315H61.9153C61.9153 17.9568 62.0273 17.2262 62.2513 16.6395C62.4859 16.0422 62.8219 15.5942 63.2593 15.2955C63.7073 14.9862 64.2619 14.8315 64.9233 14.8315H65.0193C65.6913 14.8315 66.2513 14.9862 66.6993 15.2955C67.1473 15.5942 67.4833 16.0422 67.7073 16.6395C67.9419 17.2262 68.0593 17.9568 68.0593 18.8315V23.7915H65.8353V18.6235C65.8353 18.0795 65.6966 17.6475 65.4193 17.3275C65.1419 16.9968 64.7473 16.8315 64.2353 16.8315C63.7233 16.8315 63.3126 17.0022 63.0033 17.3435C62.6939 17.6742 62.5393 18.1222 62.5393 18.6875V23.7915H60.3153V18.6235C60.3153 18.0795 60.1766 17.6475 59.8993 17.3275C59.6219 16.9968 59.2273 16.8315 58.7153 16.8315C58.2033 16.8315 57.7926 17.0022 57.4833 17.3435C57.1739 17.6742 57.0193 18.1222 57.0193 18.6875V23.7915H54.7953ZM78.993 24.0795C78.2783 24.0795 77.649 23.9302 77.105 23.6315C76.561 23.3222 76.1343 22.8742 75.825 22.2875C75.5157 21.7008 75.345 20.9915 75.313 20.1595H75.649V23.7915H73.889V12.1115H76.113V17.9515L75.521 18.8635C75.5637 17.9675 75.7397 17.2208 76.049 16.6235C76.369 16.0262 76.7957 15.5782 77.329 15.2795C77.8623 14.9808 78.465 14.8315 79.137 14.8315C79.7343 14.8315 80.2783 14.9435 80.769 15.1675C81.2597 15.3915 81.681 15.7062 82.033 16.1115C82.385 16.5062 82.6517 16.9702 82.833 17.5035C83.025 18.0368 83.121 18.6182 83.121 19.2475V19.5835C83.121 20.2128 83.025 20.7995 82.833 21.3435C82.641 21.8875 82.3637 22.3675 82.001 22.7835C81.6383 23.1888 81.201 23.5088 80.689 23.7435C80.1877 23.9675 79.6223 24.0795 78.993 24.0795ZM78.497 22.2075C78.977 22.2075 79.393 22.0902 79.745 21.8555C80.1077 21.6102 80.3903 21.2795 80.593 20.8635C80.7957 20.4475 80.897 19.9675 80.897 19.4235C80.897 18.8688 80.7957 18.3888 80.593 17.9835C80.3903 17.5782 80.1077 17.2635 79.745 17.0395C79.393 16.8155 78.977 16.7035 78.497 16.7035C78.0597 16.7035 77.6543 16.7995 77.281 16.9915C76.9183 17.1835 76.6197 17.4662 76.385 17.8395C76.161 18.2128 76.049 18.6608 76.049 19.1835V19.8235C76.049 20.3248 76.1663 20.7515 76.401 21.1035C76.6357 21.4555 76.9397 21.7275 77.313 21.9195C77.6863 22.1115 78.081 22.2075 78.497 22.2075ZM85.0765 23.7915V15.1035H86.8365V18.7835H86.7885C86.7885 17.5355 87.0552 16.5915 87.5885 15.9515C88.1218 15.3115 88.9058 14.9915 89.9405 14.9915H90.2605V16.9275H89.6525C88.9058 16.9275 88.3245 17.1302 87.9085 17.5355C87.5032 17.9302 87.3005 18.5062 87.3005 19.2635V23.7915H85.0765ZM95.5739 24.0955C94.8272 24.0955 94.1712 23.9675 93.6059 23.7115C93.0512 23.4555 92.5872 23.1142 92.2139 22.6875C91.8512 22.2502 91.5739 21.7648 91.3819 21.2315C91.2005 20.6982 91.1099 20.1542 91.1099 19.5995V19.2955C91.1099 18.7195 91.2005 18.1648 91.3819 17.6315C91.5739 17.0875 91.8512 16.6075 92.2139 16.1915C92.5872 15.7648 93.0459 15.4288 93.5899 15.1835C94.1339 14.9275 94.7632 14.7995 95.4779 14.7995C96.4165 14.7995 97.2005 15.0075 97.8299 15.4235C98.4699 15.8288 98.9499 16.3675 99.2699 17.0395C99.5899 17.7008 99.7499 18.4155 99.7499 19.1835V19.9835H92.0539V18.6235H98.3579L97.6699 19.2955C97.6699 18.7408 97.5899 18.2662 97.4299 17.8715C97.2699 17.4768 97.0245 17.1728 96.6939 16.9595C96.3739 16.7462 95.9685 16.6395 95.4779 16.6395C94.9872 16.6395 94.5712 16.7515 94.2299 16.9755C93.8885 17.1995 93.6272 17.5248 93.4459 17.9515C93.2752 18.3675 93.1899 18.8688 93.1899 19.4555C93.1899 19.9995 93.2752 20.4848 93.4459 20.9115C93.6165 21.3275 93.8779 21.6582 94.2299 21.9035C94.5819 22.1382 95.0299 22.2555 95.5739 22.2555C96.1179 22.2555 96.5605 22.1488 96.9019 21.9355C97.2432 21.7115 97.4619 21.4395 97.5579 21.1195H99.6059C99.4779 21.7168 99.2325 22.2395 98.8699 22.6875C98.5072 23.1355 98.0432 23.4822 97.4779 23.7275C96.9232 23.9728 96.2885 24.0955 95.5739 24.0955ZM103.274 23.7915L100.554 15.1035H102.842L105.45 23.7915H103.274ZM103.93 23.7915V21.9675H106.282V23.7915H103.93ZM104.81 23.7915L107.05 15.1035H109.194L106.842 23.7915H104.81ZM114.574 24.0955C113.827 24.0955 113.171 23.9675 112.606 23.7115C112.051 23.4555 111.587 23.1142 111.214 22.6875C110.851 22.2502 110.574 21.7648 110.382 21.2315C110.201 20.6982 110.11 20.1542 110.11 19.5995V19.2955C110.11 18.7195 110.201 18.1648 110.382 17.6315C110.574 17.0875 110.851 16.6075 111.214 16.1915C111.587 15.7648 112.046 15.4288 112.59 15.1835C113.134 14.9275 113.763 14.7995 114.478 14.7995C115.417 14.7995 116.201 15.0075 116.83 15.4235C117.47 15.8288 117.95 16.3675 118.27 17.0395C118.59 17.7008 118.75 18.4155 118.75 19.1835V19.9835H111.054V18.6235H117.358L116.67 19.2955C116.67 18.7408 116.59 18.2662 116.43 17.8715C116.27 17.4768 116.025 17.1728 115.694 16.9595C115.374 16.7462 114.969 16.6395 114.478 16.6395C113.987 16.6395 113.571 16.7515 113.23 16.9755C112.889 17.1995 112.627 17.5248 112.446 17.9515C112.275 18.3675 112.19 18.8688 112.19 19.4555C112.19 19.9995 112.275 20.4848 112.446 20.9115C112.617 21.3275 112.878 21.6582 113.23 21.9035C113.582 22.1382 114.03 22.2555 114.574 22.2555C115.118 22.2555 115.561 22.1488 115.902 21.9355C116.243 21.7115 116.462 21.4395 116.558 21.1195H118.606C118.478 21.7168 118.233 22.2395 117.87 22.6875C117.507 23.1355 117.043 23.4822 116.478 23.7275C115.923 23.9728 115.289 24.0955 114.574 24.0955Z" fill="#0C0F14"/>
</svg>
