<svg width="170" height="54" viewBox="0 0 170 54" fill="none" xmlns="http://www.w3.org/2000/svg">
<rect x="16" y="16" width="154" height="38" rx="4" fill="#FFD91A"/>
<path d="M29.801 40V29.78H32.517L35.079 35.884H35.331L37.879 29.78H40.637V40H38.663V31.278L38.915 31.306L36.157 37.914H34.127L31.355 31.306L31.621 31.278V40H29.801ZM43.3684 40V32.398H45.3144V40H43.3684ZM42.3044 33.854V32.398H45.3144V33.854H42.3044ZM44.0824 31.488C43.6998 31.488 43.4151 31.39 43.2284 31.194C43.0511 30.9887 42.9624 30.7367 42.9624 30.438C42.9624 30.1207 43.0511 29.864 43.2284 29.668C43.4151 29.472 43.6998 29.374 44.0824 29.374C44.4651 29.374 44.7451 29.472 44.9224 29.668C45.0998 29.864 45.1884 30.1207 45.1884 30.438C45.1884 30.7367 45.0998 30.9887 44.9224 31.194C44.7451 31.39 44.4651 31.488 44.0824 31.488ZM50.9312 40.266C50.2685 40.266 49.6945 40.154 49.2092 39.93C48.7332 39.706 48.3318 39.4073 48.0052 39.034C47.6878 38.6607 47.4498 38.2407 47.2912 37.774C47.1325 37.3073 47.0532 36.8313 47.0532 36.346V36.08C47.0532 35.5667 47.1325 35.0767 47.2912 34.61C47.4592 34.134 47.7065 33.714 48.0332 33.35C48.3598 32.9767 48.7612 32.6827 49.2372 32.468C49.7225 32.244 50.2825 32.132 50.9172 32.132C51.5798 32.132 52.1725 32.2627 52.6952 32.524C53.2178 32.776 53.6332 33.1307 53.9412 33.588C54.2585 34.0453 54.4358 34.5773 54.4732 35.184H52.5832C52.5365 34.792 52.3685 34.4653 52.0792 34.204C51.7992 33.9427 51.4118 33.812 50.9172 33.812C50.4878 33.812 50.1285 33.9147 49.8392 34.12C49.5592 34.3253 49.3492 34.61 49.2092 34.974C49.0692 35.3287 48.9992 35.7393 48.9992 36.206C48.9992 36.654 49.0645 37.06 49.1952 37.424C49.3352 37.788 49.5452 38.0727 49.8252 38.278C50.1145 38.4833 50.4832 38.586 50.9312 38.586C51.2672 38.586 51.5565 38.5253 51.7992 38.404C52.0418 38.2827 52.2332 38.1147 52.3732 37.9C52.5225 37.6853 52.6158 37.4427 52.6532 37.172H54.5432C54.5058 37.788 54.3238 38.3293 53.9972 38.796C53.6798 39.2533 53.2552 39.6127 52.7232 39.874C52.2005 40.1353 51.6032 40.266 50.9312 40.266ZM56.1021 40V32.398H57.6421V35.618H57.6001C57.6001 34.526 57.8334 33.7 58.3001 33.14C58.7668 32.58 59.4528 32.3 60.3581 32.3H60.6381V33.994H60.1061C59.4528 33.994 58.9441 34.1713 58.5801 34.526C58.2254 34.8713 58.0481 35.3753 58.0481 36.038V40H56.1021ZM65.5393 40.266C64.8673 40.266 64.2746 40.1587 63.7613 39.944C63.248 39.7293 62.814 39.44 62.4593 39.076C62.1046 38.7027 61.834 38.2827 61.6473 37.816C61.47 37.3493 61.3813 36.864 61.3813 36.36V36.066C61.3813 35.5433 61.4746 35.0487 61.6613 34.582C61.8573 34.106 62.1326 33.686 62.4873 33.322C62.8513 32.9487 63.29 32.6593 63.8033 32.454C64.3166 32.2393 64.8953 32.132 65.5393 32.132C66.1833 32.132 66.762 32.2393 67.2753 32.454C67.7886 32.6593 68.2226 32.9487 68.5773 33.322C68.9413 33.686 69.2166 34.106 69.4033 34.582C69.59 35.0487 69.6833 35.5433 69.6833 36.066V36.36C69.6833 36.864 69.59 37.3493 69.4033 37.816C69.226 38.2827 68.96 38.7027 68.6053 39.076C68.2506 39.44 67.8166 39.7293 67.3033 39.944C66.79 40.1587 66.202 40.266 65.5393 40.266ZM65.5393 38.6C66.0153 38.6 66.4166 38.4973 66.7433 38.292C67.07 38.0773 67.3173 37.7927 67.4853 37.438C67.6533 37.074 67.7373 36.6633 67.7373 36.206C67.7373 35.7393 67.6486 35.3287 67.4713 34.974C67.3033 34.61 67.0513 34.3253 66.7153 34.12C66.3886 33.9053 65.9966 33.798 65.5393 33.798C65.082 33.798 64.6853 33.9053 64.3493 34.12C64.0226 34.3253 63.7706 34.61 63.5933 34.974C63.416 35.3287 63.3273 35.7393 63.3273 36.206C63.3273 36.6633 63.4113 37.074 63.5793 37.438C63.7566 37.7927 64.0086 38.0773 64.3353 38.292C64.662 38.4973 65.0633 38.6 65.5393 38.6ZM71.7513 40V32.398H73.6973V40H71.7513ZM70.6873 33.854V32.398H73.6973V33.854H70.6873ZM72.4653 31.488C72.0826 31.488 71.7979 31.39 71.6113 31.194C71.4339 30.9887 71.3453 30.7367 71.3453 30.438C71.3453 30.1207 71.4339 29.864 71.6113 29.668C71.7979 29.472 72.0826 29.374 72.4653 29.374C72.8479 29.374 73.1279 29.472 73.3053 29.668C73.4826 29.864 73.5713 30.1207 73.5713 30.438C73.5713 30.7367 73.4826 30.9887 73.3053 31.194C73.1279 31.39 72.8479 31.488 72.4653 31.488ZM75.94 40V32.398H77.48V35.66H77.34C77.34 34.8853 77.4427 34.2413 77.648 33.728C77.8533 33.2053 78.1567 32.8133 78.558 32.552C78.9687 32.2907 79.4773 32.16 80.084 32.16H80.168C81.0733 32.16 81.7593 32.454 82.226 33.042C82.6927 33.6207 82.926 34.4887 82.926 35.646V40H80.98V35.478C80.98 35.0113 80.8447 34.6333 80.574 34.344C80.3127 34.0547 79.9487 33.91 79.482 33.91C79.006 33.91 78.6187 34.0593 78.32 34.358C78.0307 34.6473 77.886 35.0393 77.886 35.534V40H75.94ZM88.3221 40.098C87.6221 40.098 87.0434 40.0093 86.5861 39.832C86.1381 39.6453 85.8021 39.3373 85.5781 38.908C85.3541 38.4693 85.2421 37.8813 85.2421 37.144L85.2561 30.256H87.0761L87.0621 37.27C87.0621 37.6433 87.1601 37.9327 87.3561 38.138C87.5614 38.334 87.8508 38.432 88.2241 38.432H89.4141V40.098H88.3221ZM84.0381 33.826V32.398H89.4141V33.826H84.0381ZM94.4084 40.266C93.7551 40.266 93.1811 40.154 92.6864 39.93C92.2011 39.706 91.7951 39.4073 91.4684 39.034C91.1511 38.6513 90.9084 38.2267 90.7404 37.76C90.5817 37.2933 90.5024 36.8173 90.5024 36.332V36.066C90.5024 35.562 90.5817 35.0767 90.7404 34.61C90.9084 34.134 91.1511 33.714 91.4684 33.35C91.7951 32.9767 92.1964 32.6827 92.6724 32.468C93.1484 32.244 93.6991 32.132 94.3244 32.132C95.1457 32.132 95.8317 32.314 96.3824 32.678C96.9424 33.0327 97.3624 33.504 97.6424 34.092C97.9224 34.6707 98.0624 35.296 98.0624 35.968V36.668H91.3284V35.478H96.8444L96.2424 36.066C96.2424 35.5807 96.1724 35.1653 96.0324 34.82C95.8924 34.4747 95.6777 34.2087 95.3884 34.022C95.1084 33.8353 94.7537 33.742 94.3244 33.742C93.8951 33.742 93.5311 33.84 93.2324 34.036C92.9337 34.232 92.7051 34.5167 92.5464 34.89C92.3971 35.254 92.3224 35.6927 92.3224 36.206C92.3224 36.682 92.3971 37.1067 92.5464 37.48C92.6957 37.844 92.9244 38.1333 93.2324 38.348C93.5404 38.5533 93.9324 38.656 94.4084 38.656C94.8844 38.656 95.2717 38.5627 95.5704 38.376C95.8691 38.18 96.0604 37.942 96.1444 37.662H97.9364C97.8244 38.1847 97.6097 38.642 97.2924 39.034C96.9751 39.426 96.5691 39.7293 96.0744 39.944C95.5891 40.1587 95.0337 40.266 94.4084 40.266ZM99.688 40V32.398H101.228V35.618H101.186C101.186 34.526 101.419 33.7 101.886 33.14C102.353 32.58 103.039 32.3 103.944 32.3H104.224V33.994H103.692C103.039 33.994 102.53 34.1713 102.166 34.526C101.811 34.8713 101.634 35.3753 101.634 36.038V40H99.688ZM110.091 40V37.746H109.769V35.24C109.769 34.8013 109.662 34.4747 109.447 34.26C109.232 34.0453 108.901 33.938 108.453 33.938C108.22 33.938 107.94 33.9427 107.613 33.952C107.286 33.9613 106.955 33.9753 106.619 33.994C106.292 34.0033 105.998 34.0173 105.737 34.036V32.384C105.952 32.3653 106.194 32.3467 106.465 32.328C106.736 32.3093 107.011 32.3 107.291 32.3C107.58 32.2907 107.851 32.286 108.103 32.286C108.887 32.286 109.536 32.3887 110.049 32.594C110.572 32.7993 110.964 33.1213 111.225 33.56C111.496 33.9987 111.631 34.5727 111.631 35.282V40H110.091ZM107.641 40.196C107.09 40.196 106.605 40.098 106.185 39.902C105.774 39.706 105.452 39.426 105.219 39.062C104.995 38.698 104.883 38.2593 104.883 37.746C104.883 37.186 105.018 36.7287 105.289 36.374C105.569 36.0193 105.956 35.7533 106.451 35.576C106.955 35.3987 107.543 35.31 108.215 35.31H109.979V36.472H108.187C107.739 36.472 107.394 36.584 107.151 36.808C106.918 37.0227 106.801 37.3027 106.801 37.648C106.801 37.9933 106.918 38.2733 107.151 38.488C107.394 38.7027 107.739 38.81 108.187 38.81C108.458 38.81 108.705 38.7633 108.929 38.67C109.162 38.5673 109.354 38.3993 109.503 38.166C109.662 37.9233 109.75 37.5967 109.769 37.186L110.245 37.732C110.198 38.264 110.068 38.712 109.853 39.076C109.648 39.44 109.358 39.72 108.985 39.916C108.621 40.1027 108.173 40.196 107.641 40.196ZM117.089 40.266C116.427 40.266 115.853 40.154 115.367 39.93C114.891 39.706 114.49 39.4073 114.163 39.034C113.846 38.6607 113.608 38.2407 113.449 37.774C113.291 37.3073 113.211 36.8313 113.211 36.346V36.08C113.211 35.5667 113.291 35.0767 113.449 34.61C113.617 34.134 113.865 33.714 114.191 33.35C114.518 32.9767 114.919 32.6827 115.395 32.468C115.881 32.244 116.441 32.132 117.075 32.132C117.738 32.132 118.331 32.2627 118.853 32.524C119.376 32.776 119.791 33.1307 120.099 33.588C120.417 34.0453 120.594 34.5773 120.631 35.184H118.741C118.695 34.792 118.527 34.4653 118.237 34.204C117.957 33.9427 117.57 33.812 117.075 33.812C116.646 33.812 116.287 33.9147 115.997 34.12C115.717 34.3253 115.507 34.61 115.367 34.974C115.227 35.3287 115.157 35.7393 115.157 36.206C115.157 36.654 115.223 37.06 115.353 37.424C115.493 37.788 115.703 38.0727 115.983 38.278C116.273 38.4833 116.641 38.586 117.089 38.586C117.425 38.586 117.715 38.5253 117.957 38.404C118.2 38.2827 118.391 38.1147 118.531 37.9C118.681 37.6853 118.774 37.4427 118.811 37.172H120.701C120.664 37.788 120.482 38.3293 120.155 38.796C119.838 39.2533 119.413 39.6127 118.881 39.874C118.359 40.1353 117.761 40.266 117.089 40.266ZM125.564 40.098C124.864 40.098 124.286 40.0093 123.828 39.832C123.38 39.6453 123.044 39.3373 122.82 38.908C122.596 38.4693 122.484 37.8813 122.484 37.144L122.498 30.256H124.318L124.304 37.27C124.304 37.6433 124.402 37.9327 124.598 38.138C124.804 38.334 125.093 38.432 125.466 38.432H126.656V40.098H125.564ZM121.28 33.826V32.398H126.656V33.826H121.28ZM128.654 40V32.398H130.6V40H128.654ZM127.59 33.854V32.398H130.6V33.854H127.59ZM129.368 31.488C128.985 31.488 128.7 31.39 128.514 31.194C128.336 30.9887 128.248 30.7367 128.248 30.438C128.248 30.1207 128.336 29.864 128.514 29.668C128.7 29.472 128.985 29.374 129.368 29.374C129.75 29.374 130.03 29.472 130.208 29.668C130.385 29.864 130.474 30.1207 130.474 30.438C130.474 30.7367 130.385 30.9887 130.208 31.194C130.03 31.39 129.75 31.488 129.368 31.488ZM136.496 40.266C135.824 40.266 135.232 40.1587 134.718 39.944C134.205 39.7293 133.771 39.44 133.416 39.076C133.062 38.7027 132.791 38.2827 132.604 37.816C132.427 37.3493 132.338 36.864 132.338 36.36V36.066C132.338 35.5433 132.432 35.0487 132.618 34.582C132.814 34.106 133.09 33.686 133.444 33.322C133.808 32.9487 134.247 32.6593 134.76 32.454C135.274 32.2393 135.852 32.132 136.496 32.132C137.14 32.132 137.719 32.2393 138.232 32.454C138.746 32.6593 139.18 32.9487 139.534 33.322C139.898 33.686 140.174 34.106 140.36 34.582C140.547 35.0487 140.64 35.5433 140.64 36.066V36.36C140.64 36.864 140.547 37.3493 140.36 37.816C140.183 38.2827 139.917 38.7027 139.562 39.076C139.208 39.44 138.774 39.7293 138.26 39.944C137.747 40.1587 137.159 40.266 136.496 40.266ZM136.496 38.6C136.972 38.6 137.374 38.4973 137.7 38.292C138.027 38.0773 138.274 37.7927 138.442 37.438C138.61 37.074 138.694 36.6633 138.694 36.206C138.694 35.7393 138.606 35.3287 138.428 34.974C138.26 34.61 138.008 34.3253 137.672 34.12C137.346 33.9053 136.954 33.798 136.496 33.798C136.039 33.798 135.642 33.9053 135.306 34.12C134.98 34.3253 134.728 34.61 134.55 34.974C134.373 35.3287 134.284 35.7393 134.284 36.206C134.284 36.6633 134.368 37.074 134.536 37.438C134.714 37.7927 134.966 38.0773 135.292 38.292C135.619 38.4973 136.02 38.6 136.496 38.6ZM142.344 40V32.398H143.884V35.66H143.744C143.744 34.8853 143.847 34.2413 144.052 33.728C144.258 33.2053 144.561 32.8133 144.962 32.552C145.373 32.2907 145.882 32.16 146.488 32.16H146.572C147.478 32.16 148.164 32.454 148.63 33.042C149.097 33.6207 149.33 34.4887 149.33 35.646V40H147.384V35.478C147.384 35.0113 147.249 34.6333 146.978 34.344C146.717 34.0547 146.353 33.91 145.886 33.91C145.41 33.91 145.023 34.0593 144.724 34.358C144.435 34.6473 144.29 35.0393 144.29 35.534V40H142.344ZM154.18 40.238C153.135 40.238 152.314 40.0187 151.716 39.58C151.128 39.132 150.82 38.516 150.792 37.732H152.542C152.57 37.9933 152.715 38.2313 152.976 38.446C153.238 38.6607 153.648 38.768 154.208 38.768C154.675 38.768 155.044 38.684 155.314 38.516C155.594 38.348 155.734 38.1193 155.734 37.83C155.734 37.578 155.627 37.3773 155.412 37.228C155.207 37.0787 154.852 36.9807 154.348 36.934L153.676 36.864C152.827 36.7707 152.174 36.528 151.716 36.136C151.259 35.744 151.03 35.2213 151.03 34.568C151.03 34.0453 151.161 33.6067 151.422 33.252C151.684 32.8973 152.043 32.6313 152.5 32.454C152.967 32.2673 153.499 32.174 154.096 32.174C155.03 32.174 155.786 32.3793 156.364 32.79C156.943 33.2007 157.246 33.8027 157.274 34.596H155.524C155.506 34.3347 155.375 34.1107 155.132 33.924C154.89 33.7373 154.54 33.644 154.082 33.644C153.672 33.644 153.354 33.7233 153.13 33.882C152.906 34.0407 152.794 34.246 152.794 34.498C152.794 34.7407 152.883 34.9273 153.06 35.058C153.247 35.1887 153.546 35.2773 153.956 35.324L154.628 35.394C155.524 35.4873 156.224 35.7347 156.728 36.136C157.242 36.5373 157.498 37.0787 157.498 37.76C157.498 38.264 157.358 38.7027 157.078 39.076C156.808 39.44 156.425 39.7247 155.93 39.93C155.436 40.1353 154.852 40.238 154.18 40.238Z" fill="#111213"/>
<path d="M14.6212 7.03616C15.0972 6.91716 15.1349 6.25521 14.6755 6.08293L1.20895 1.03296C0.807002 0.882232 0.41449 1.27474 0.565219 1.67669L5.61519 15.1433C5.78746 15.6027 6.44942 15.565 6.56842 15.089L8.10622 8.93777C8.15101 8.75863 8.29088 8.61875 8.47003 8.57396L14.6212 7.03616Z" fill="#FFD91A"/>
</svg>
