<svg width="170" height="50" viewBox="0 0 170 50" fill="none" xmlns="http://www.w3.org/2000/svg">
<rect x="16" y="16" width="154" height="34" rx="10" fill="#FFD91A"/>
<path d="M29.801 38V27.78H32.517L35.079 33.884H35.331L37.879 27.78H40.637V38H38.663V29.278L38.915 29.306L36.157 35.914H34.127L31.355 29.306L31.621 29.278V38H29.801ZM43.3684 38V30.398H45.3144V38H43.3684ZM42.3044 31.854V30.398H45.3144V31.854H42.3044ZM44.0824 29.488C43.6998 29.488 43.4151 29.39 43.2284 29.194C43.0511 28.9887 42.9624 28.7367 42.9624 28.438C42.9624 28.1207 43.0511 27.864 43.2284 27.668C43.4151 27.472 43.6998 27.374 44.0824 27.374C44.4651 27.374 44.7451 27.472 44.9224 27.668C45.0998 27.864 45.1884 28.1207 45.1884 28.438C45.1884 28.7367 45.0998 28.9887 44.9224 29.194C44.7451 29.39 44.4651 29.488 44.0824 29.488ZM50.9312 38.266C50.2685 38.266 49.6945 38.154 49.2092 37.93C48.7332 37.706 48.3318 37.4073 48.0052 37.034C47.6878 36.6607 47.4498 36.2407 47.2912 35.774C47.1325 35.3073 47.0532 34.8313 47.0532 34.346V34.08C47.0532 33.5667 47.1325 33.0767 47.2912 32.61C47.4592 32.134 47.7065 31.714 48.0332 31.35C48.3598 30.9767 48.7612 30.6827 49.2372 30.468C49.7225 30.244 50.2825 30.132 50.9172 30.132C51.5798 30.132 52.1725 30.2627 52.6952 30.524C53.2178 30.776 53.6332 31.1307 53.9412 31.588C54.2585 32.0453 54.4358 32.5773 54.4732 33.184H52.5832C52.5365 32.792 52.3685 32.4653 52.0792 32.204C51.7992 31.9427 51.4118 31.812 50.9172 31.812C50.4878 31.812 50.1285 31.9147 49.8392 32.12C49.5592 32.3253 49.3492 32.61 49.2092 32.974C49.0692 33.3287 48.9992 33.7393 48.9992 34.206C48.9992 34.654 49.0645 35.06 49.1952 35.424C49.3352 35.788 49.5452 36.0727 49.8252 36.278C50.1145 36.4833 50.4832 36.586 50.9312 36.586C51.2672 36.586 51.5565 36.5253 51.7992 36.404C52.0418 36.2827 52.2332 36.1147 52.3732 35.9C52.5225 35.6853 52.6158 35.4427 52.6532 35.172H54.5432C54.5058 35.788 54.3238 36.3293 53.9972 36.796C53.6798 37.2533 53.2552 37.6127 52.7232 37.874C52.2005 38.1353 51.6032 38.266 50.9312 38.266ZM56.1021 38V30.398H57.6421V33.618H57.6001C57.6001 32.526 57.8334 31.7 58.3001 31.14C58.7668 30.58 59.4528 30.3 60.3581 30.3H60.6381V31.994H60.1061C59.4528 31.994 58.9441 32.1713 58.5801 32.526C58.2254 32.8713 58.0481 33.3753 58.0481 34.038V38H56.1021ZM65.5393 38.266C64.8673 38.266 64.2746 38.1587 63.7613 37.944C63.248 37.7293 62.814 37.44 62.4593 37.076C62.1046 36.7027 61.834 36.2827 61.6473 35.816C61.47 35.3493 61.3813 34.864 61.3813 34.36V34.066C61.3813 33.5433 61.4746 33.0487 61.6613 32.582C61.8573 32.106 62.1326 31.686 62.4873 31.322C62.8513 30.9487 63.29 30.6593 63.8033 30.454C64.3166 30.2393 64.8953 30.132 65.5393 30.132C66.1833 30.132 66.762 30.2393 67.2753 30.454C67.7886 30.6593 68.2226 30.9487 68.5773 31.322C68.9413 31.686 69.2166 32.106 69.4033 32.582C69.59 33.0487 69.6833 33.5433 69.6833 34.066V34.36C69.6833 34.864 69.59 35.3493 69.4033 35.816C69.226 36.2827 68.96 36.7027 68.6053 37.076C68.2506 37.44 67.8166 37.7293 67.3033 37.944C66.79 38.1587 66.202 38.266 65.5393 38.266ZM65.5393 36.6C66.0153 36.6 66.4166 36.4973 66.7433 36.292C67.07 36.0773 67.3173 35.7927 67.4853 35.438C67.6533 35.074 67.7373 34.6633 67.7373 34.206C67.7373 33.7393 67.6486 33.3287 67.4713 32.974C67.3033 32.61 67.0513 32.3253 66.7153 32.12C66.3886 31.9053 65.9966 31.798 65.5393 31.798C65.082 31.798 64.6853 31.9053 64.3493 32.12C64.0226 32.3253 63.7706 32.61 63.5933 32.974C63.416 33.3287 63.3273 33.7393 63.3273 34.206C63.3273 34.6633 63.4113 35.074 63.5793 35.438C63.7566 35.7927 64.0086 36.0773 64.3353 36.292C64.662 36.4973 65.0633 36.6 65.5393 36.6ZM71.7513 38V30.398H73.6973V38H71.7513ZM70.6873 31.854V30.398H73.6973V31.854H70.6873ZM72.4653 29.488C72.0826 29.488 71.7979 29.39 71.6113 29.194C71.4339 28.9887 71.3453 28.7367 71.3453 28.438C71.3453 28.1207 71.4339 27.864 71.6113 27.668C71.7979 27.472 72.0826 27.374 72.4653 27.374C72.8479 27.374 73.1279 27.472 73.3053 27.668C73.4826 27.864 73.5713 28.1207 73.5713 28.438C73.5713 28.7367 73.4826 28.9887 73.3053 29.194C73.1279 29.39 72.8479 29.488 72.4653 29.488ZM75.94 38V30.398H77.48V33.66H77.34C77.34 32.8853 77.4427 32.2413 77.648 31.728C77.8533 31.2053 78.1567 30.8133 78.558 30.552C78.9687 30.2907 79.4773 30.16 80.084 30.16H80.168C81.0733 30.16 81.7593 30.454 82.226 31.042C82.6927 31.6207 82.926 32.4887 82.926 33.646V38H80.98V33.478C80.98 33.0113 80.8447 32.6333 80.574 32.344C80.3127 32.0547 79.9487 31.91 79.482 31.91C79.006 31.91 78.6187 32.0593 78.32 32.358C78.0307 32.6473 77.886 33.0393 77.886 33.534V38H75.94ZM88.3221 38.098C87.6221 38.098 87.0434 38.0093 86.5861 37.832C86.1381 37.6453 85.8021 37.3373 85.5781 36.908C85.3541 36.4693 85.2421 35.8813 85.2421 35.144L85.2561 28.256H87.0761L87.0621 35.27C87.0621 35.6433 87.1601 35.9327 87.3561 36.138C87.5614 36.334 87.8508 36.432 88.2241 36.432H89.4141V38.098H88.3221ZM84.0381 31.826V30.398H89.4141V31.826H84.0381ZM94.4084 38.266C93.7551 38.266 93.1811 38.154 92.6864 37.93C92.2011 37.706 91.7951 37.4073 91.4684 37.034C91.1511 36.6513 90.9084 36.2267 90.7404 35.76C90.5817 35.2933 90.5024 34.8173 90.5024 34.332V34.066C90.5024 33.562 90.5817 33.0767 90.7404 32.61C90.9084 32.134 91.1511 31.714 91.4684 31.35C91.7951 30.9767 92.1964 30.6827 92.6724 30.468C93.1484 30.244 93.6991 30.132 94.3244 30.132C95.1457 30.132 95.8317 30.314 96.3824 30.678C96.9424 31.0327 97.3624 31.504 97.6424 32.092C97.9224 32.6707 98.0624 33.296 98.0624 33.968V34.668H91.3284V33.478H96.8444L96.2424 34.066C96.2424 33.5807 96.1724 33.1653 96.0324 32.82C95.8924 32.4747 95.6777 32.2087 95.3884 32.022C95.1084 31.8353 94.7537 31.742 94.3244 31.742C93.8951 31.742 93.5311 31.84 93.2324 32.036C92.9337 32.232 92.7051 32.5167 92.5464 32.89C92.3971 33.254 92.3224 33.6927 92.3224 34.206C92.3224 34.682 92.3971 35.1067 92.5464 35.48C92.6957 35.844 92.9244 36.1333 93.2324 36.348C93.5404 36.5533 93.9324 36.656 94.4084 36.656C94.8844 36.656 95.2717 36.5627 95.5704 36.376C95.8691 36.18 96.0604 35.942 96.1444 35.662H97.9364C97.8244 36.1847 97.6097 36.642 97.2924 37.034C96.9751 37.426 96.5691 37.7293 96.0744 37.944C95.5891 38.1587 95.0337 38.266 94.4084 38.266ZM99.688 38V30.398H101.228V33.618H101.186C101.186 32.526 101.419 31.7 101.886 31.14C102.353 30.58 103.039 30.3 103.944 30.3H104.224V31.994H103.692C103.039 31.994 102.53 32.1713 102.166 32.526C101.811 32.8713 101.634 33.3753 101.634 34.038V38H99.688ZM110.091 38V35.746H109.769V33.24C109.769 32.8013 109.662 32.4747 109.447 32.26C109.232 32.0453 108.901 31.938 108.453 31.938C108.22 31.938 107.94 31.9427 107.613 31.952C107.286 31.9613 106.955 31.9753 106.619 31.994C106.292 32.0033 105.998 32.0173 105.737 32.036V30.384C105.952 30.3653 106.194 30.3467 106.465 30.328C106.736 30.3093 107.011 30.3 107.291 30.3C107.58 30.2907 107.851 30.286 108.103 30.286C108.887 30.286 109.536 30.3887 110.049 30.594C110.572 30.7993 110.964 31.1213 111.225 31.56C111.496 31.9987 111.631 32.5727 111.631 33.282V38H110.091ZM107.641 38.196C107.09 38.196 106.605 38.098 106.185 37.902C105.774 37.706 105.452 37.426 105.219 37.062C104.995 36.698 104.883 36.2593 104.883 35.746C104.883 35.186 105.018 34.7287 105.289 34.374C105.569 34.0193 105.956 33.7533 106.451 33.576C106.955 33.3987 107.543 33.31 108.215 33.31H109.979V34.472H108.187C107.739 34.472 107.394 34.584 107.151 34.808C106.918 35.0227 106.801 35.3027 106.801 35.648C106.801 35.9933 106.918 36.2733 107.151 36.488C107.394 36.7027 107.739 36.81 108.187 36.81C108.458 36.81 108.705 36.7633 108.929 36.67C109.162 36.5673 109.354 36.3993 109.503 36.166C109.662 35.9233 109.75 35.5967 109.769 35.186L110.245 35.732C110.198 36.264 110.068 36.712 109.853 37.076C109.648 37.44 109.358 37.72 108.985 37.916C108.621 38.1027 108.173 38.196 107.641 38.196ZM117.089 38.266C116.427 38.266 115.853 38.154 115.367 37.93C114.891 37.706 114.49 37.4073 114.163 37.034C113.846 36.6607 113.608 36.2407 113.449 35.774C113.291 35.3073 113.211 34.8313 113.211 34.346V34.08C113.211 33.5667 113.291 33.0767 113.449 32.61C113.617 32.134 113.865 31.714 114.191 31.35C114.518 30.9767 114.919 30.6827 115.395 30.468C115.881 30.244 116.441 30.132 117.075 30.132C117.738 30.132 118.331 30.2627 118.853 30.524C119.376 30.776 119.791 31.1307 120.099 31.588C120.417 32.0453 120.594 32.5773 120.631 33.184H118.741C118.695 32.792 118.527 32.4653 118.237 32.204C117.957 31.9427 117.57 31.812 117.075 31.812C116.646 31.812 116.287 31.9147 115.997 32.12C115.717 32.3253 115.507 32.61 115.367 32.974C115.227 33.3287 115.157 33.7393 115.157 34.206C115.157 34.654 115.223 35.06 115.353 35.424C115.493 35.788 115.703 36.0727 115.983 36.278C116.273 36.4833 116.641 36.586 117.089 36.586C117.425 36.586 117.715 36.5253 117.957 36.404C118.2 36.2827 118.391 36.1147 118.531 35.9C118.681 35.6853 118.774 35.4427 118.811 35.172H120.701C120.664 35.788 120.482 36.3293 120.155 36.796C119.838 37.2533 119.413 37.6127 118.881 37.874C118.359 38.1353 117.761 38.266 117.089 38.266ZM125.564 38.098C124.864 38.098 124.286 38.0093 123.828 37.832C123.38 37.6453 123.044 37.3373 122.82 36.908C122.596 36.4693 122.484 35.8813 122.484 35.144L122.498 28.256H124.318L124.304 35.27C124.304 35.6433 124.402 35.9327 124.598 36.138C124.804 36.334 125.093 36.432 125.466 36.432H126.656V38.098H125.564ZM121.28 31.826V30.398H126.656V31.826H121.28ZM128.654 38V30.398H130.6V38H128.654ZM127.59 31.854V30.398H130.6V31.854H127.59ZM129.368 29.488C128.985 29.488 128.7 29.39 128.514 29.194C128.336 28.9887 128.248 28.7367 128.248 28.438C128.248 28.1207 128.336 27.864 128.514 27.668C128.7 27.472 128.985 27.374 129.368 27.374C129.75 27.374 130.03 27.472 130.208 27.668C130.385 27.864 130.474 28.1207 130.474 28.438C130.474 28.7367 130.385 28.9887 130.208 29.194C130.03 29.39 129.75 29.488 129.368 29.488ZM136.496 38.266C135.824 38.266 135.232 38.1587 134.718 37.944C134.205 37.7293 133.771 37.44 133.416 37.076C133.062 36.7027 132.791 36.2827 132.604 35.816C132.427 35.3493 132.338 34.864 132.338 34.36V34.066C132.338 33.5433 132.432 33.0487 132.618 32.582C132.814 32.106 133.09 31.686 133.444 31.322C133.808 30.9487 134.247 30.6593 134.76 30.454C135.274 30.2393 135.852 30.132 136.496 30.132C137.14 30.132 137.719 30.2393 138.232 30.454C138.746 30.6593 139.18 30.9487 139.534 31.322C139.898 31.686 140.174 32.106 140.36 32.582C140.547 33.0487 140.64 33.5433 140.64 34.066V34.36C140.64 34.864 140.547 35.3493 140.36 35.816C140.183 36.2827 139.917 36.7027 139.562 37.076C139.208 37.44 138.774 37.7293 138.26 37.944C137.747 38.1587 137.159 38.266 136.496 38.266ZM136.496 36.6C136.972 36.6 137.374 36.4973 137.7 36.292C138.027 36.0773 138.274 35.7927 138.442 35.438C138.61 35.074 138.694 34.6633 138.694 34.206C138.694 33.7393 138.606 33.3287 138.428 32.974C138.26 32.61 138.008 32.3253 137.672 32.12C137.346 31.9053 136.954 31.798 136.496 31.798C136.039 31.798 135.642 31.9053 135.306 32.12C134.98 32.3253 134.728 32.61 134.55 32.974C134.373 33.3287 134.284 33.7393 134.284 34.206C134.284 34.6633 134.368 35.074 134.536 35.438C134.714 35.7927 134.966 36.0773 135.292 36.292C135.619 36.4973 136.02 36.6 136.496 36.6ZM142.344 38V30.398H143.884V33.66H143.744C143.744 32.8853 143.847 32.2413 144.052 31.728C144.258 31.2053 144.561 30.8133 144.962 30.552C145.373 30.2907 145.882 30.16 146.488 30.16H146.572C147.478 30.16 148.164 30.454 148.63 31.042C149.097 31.6207 149.33 32.4887 149.33 33.646V38H147.384V33.478C147.384 33.0113 147.249 32.6333 146.978 32.344C146.717 32.0547 146.353 31.91 145.886 31.91C145.41 31.91 145.023 32.0593 144.724 32.358C144.435 32.6473 144.29 33.0393 144.29 33.534V38H142.344ZM154.18 38.238C153.135 38.238 152.314 38.0187 151.716 37.58C151.128 37.132 150.82 36.516 150.792 35.732H152.542C152.57 35.9933 152.715 36.2313 152.976 36.446C153.238 36.6607 153.648 36.768 154.208 36.768C154.675 36.768 155.044 36.684 155.314 36.516C155.594 36.348 155.734 36.1193 155.734 35.83C155.734 35.578 155.627 35.3773 155.412 35.228C155.207 35.0787 154.852 34.9807 154.348 34.934L153.676 34.864C152.827 34.7707 152.174 34.528 151.716 34.136C151.259 33.744 151.03 33.2213 151.03 32.568C151.03 32.0453 151.161 31.6067 151.422 31.252C151.684 30.8973 152.043 30.6313 152.5 30.454C152.967 30.2673 153.499 30.174 154.096 30.174C155.03 30.174 155.786 30.3793 156.364 30.79C156.943 31.2007 157.246 31.8027 157.274 32.596H155.524C155.506 32.3347 155.375 32.1107 155.132 31.924C154.89 31.7373 154.54 31.644 154.082 31.644C153.672 31.644 153.354 31.7233 153.13 31.882C152.906 32.0407 152.794 32.246 152.794 32.498C152.794 32.7407 152.883 32.9273 153.06 33.058C153.247 33.1887 153.546 33.2773 153.956 33.324L154.628 33.394C155.524 33.4873 156.224 33.7347 156.728 34.136C157.242 34.5373 157.498 35.0787 157.498 35.76C157.498 36.264 157.358 36.7027 157.078 37.076C156.808 37.44 156.425 37.7247 155.93 37.93C155.436 38.1353 154.852 38.238 154.18 38.238Z" fill="#0C0F14"/>
<path d="M17.6936 8.89977C19.1734 8.52981 19.2208 6.44401 17.7592 6.00733L3.66198 1.79535C2.51884 1.4538 1.4538 2.51885 1.79535 3.66198L6.00733 17.7592C6.44401 19.2208 8.52981 19.1734 8.89977 17.6936L10.4403 11.5317C10.5746 10.9942 10.9942 10.5746 11.5317 10.4403L17.6936 8.89977Z" fill="#FFD91A"/>
</svg>
