<svg width="147" height="54" viewBox="0 0 147 54" fill="none" xmlns="http://www.w3.org/2000/svg">
<rect x="16" y="16" width="131" height="38" rx="4" fill="#FF3377"/>
<path d="M31.136 40.056V38.208H33.25C33.782 38.208 34.2533 38.1287 34.664 37.97C35.084 37.802 35.4386 37.5687 35.728 37.27C36.0173 36.9713 36.2366 36.6213 36.386 36.22C36.5446 35.8093 36.624 35.3567 36.624 34.862C36.624 34.3487 36.5446 33.8913 36.386 33.49C36.2366 33.0793 36.0173 32.7293 35.728 32.44C35.4386 32.1507 35.084 31.9313 34.664 31.782C34.2533 31.6327 33.782 31.558 33.25 31.558H31.136V29.71H33.124C34.048 29.71 34.8553 29.8453 35.546 30.116C36.2366 30.3867 36.8106 30.76 37.268 31.236C37.7253 31.7027 38.066 32.2393 38.29 32.846C38.5233 33.4433 38.64 34.064 38.64 34.708V35.016C38.64 35.632 38.5233 36.2387 38.29 36.836C38.066 37.4333 37.7253 37.9747 37.268 38.46C36.8106 38.9453 36.2366 39.3327 35.546 39.622C34.8553 39.9113 34.048 40.056 33.124 40.056H31.136ZM29.428 40.056V29.71H31.416V40.056H29.428ZM43.6682 40.266C43.0148 40.266 42.4408 40.154 41.9462 39.93C41.4608 39.706 41.0548 39.4073 40.7282 39.034C40.4108 38.6513 40.1682 38.2267 40.0002 37.76C39.8415 37.2933 39.7622 36.8173 39.7622 36.332V36.066C39.7622 35.562 39.8415 35.0767 40.0002 34.61C40.1682 34.134 40.4108 33.714 40.7282 33.35C41.0548 32.9767 41.4562 32.6827 41.9322 32.468C42.4082 32.244 42.9588 32.132 43.5842 32.132C44.4055 32.132 45.0915 32.314 45.6422 32.678C46.2022 33.0327 46.6222 33.504 46.9022 34.092C47.1822 34.6707 47.3222 35.296 47.3222 35.968V36.668H40.5882V35.478H46.1042L45.5022 36.066C45.5022 35.5807 45.4322 35.1653 45.2922 34.82C45.1522 34.4747 44.9375 34.2087 44.6482 34.022C44.3682 33.8353 44.0135 33.742 43.5842 33.742C43.1548 33.742 42.7908 33.84 42.4922 34.036C42.1935 34.232 41.9648 34.5167 41.8062 34.89C41.6568 35.254 41.5822 35.6927 41.5822 36.206C41.5822 36.682 41.6568 37.1067 41.8062 37.48C41.9555 37.844 42.1842 38.1333 42.4922 38.348C42.8002 38.5533 43.1922 38.656 43.6682 38.656C44.1442 38.656 44.5315 38.5627 44.8302 38.376C45.1288 38.18 45.3202 37.942 45.4042 37.662H47.1962C47.0842 38.1847 46.8695 38.642 46.5522 39.034C46.2348 39.426 45.8288 39.7293 45.3342 39.944C44.8488 40.1587 44.2935 40.266 43.6682 40.266ZM51.7058 40.238C50.6605 40.238 49.8391 40.0187 49.2418 39.58C48.6538 39.132 48.3458 38.516 48.3178 37.732H50.0678C50.0958 37.9933 50.2405 38.2313 50.5018 38.446C50.7631 38.6607 51.1738 38.768 51.7338 38.768C52.2005 38.768 52.5691 38.684 52.8398 38.516C53.1198 38.348 53.2598 38.1193 53.2598 37.83C53.2598 37.578 53.1525 37.3773 52.9378 37.228C52.7325 37.0787 52.3778 36.9807 51.8738 36.934L51.2018 36.864C50.3525 36.7707 49.6991 36.528 49.2418 36.136C48.7845 35.744 48.5558 35.2213 48.5558 34.568C48.5558 34.0453 48.6865 33.6067 48.9478 33.252C49.2091 32.8973 49.5685 32.6313 50.0258 32.454C50.4925 32.2673 51.0245 32.174 51.6218 32.174C52.5551 32.174 53.3111 32.3793 53.8898 32.79C54.4685 33.2007 54.7718 33.8027 54.7998 34.596H53.0498C53.0311 34.3347 52.9005 34.1107 52.6578 33.924C52.4151 33.7373 52.0651 33.644 51.6078 33.644C51.1971 33.644 50.8798 33.7233 50.6558 33.882C50.4318 34.0407 50.3198 34.246 50.3198 34.498C50.3198 34.7407 50.4085 34.9273 50.5858 35.058C50.7725 35.1887 51.0711 35.2773 51.4818 35.324L52.1538 35.394C53.0498 35.4873 53.7498 35.7347 54.2538 36.136C54.7671 36.5373 55.0238 37.0787 55.0238 37.76C55.0238 38.264 54.8838 38.7027 54.6038 39.076C54.3331 39.44 53.9505 39.7247 53.4558 39.93C52.9611 40.1353 52.3778 40.238 51.7058 40.238ZM56.9954 40V32.398H58.9414V40H56.9954ZM55.9314 33.854V32.398H58.9414V33.854H55.9314ZM57.7094 31.488C57.3267 31.488 57.0421 31.39 56.8554 31.194C56.6781 30.9887 56.5894 30.7367 56.5894 30.438C56.5894 30.1207 56.6781 29.864 56.8554 29.668C57.0421 29.472 57.3267 29.374 57.7094 29.374C58.0921 29.374 58.3721 29.472 58.5494 29.668C58.7267 29.864 58.8154 30.1207 58.8154 30.438C58.8154 30.7367 58.7267 30.9887 58.5494 31.194C58.3721 31.39 58.0921 31.488 57.7094 31.488ZM64.1521 42.996C63.7881 42.996 63.4148 42.982 63.0321 42.954C62.6588 42.926 62.3088 42.8887 61.9821 42.842V41.218C62.3181 41.2553 62.6775 41.288 63.0601 41.316C63.4428 41.3533 63.8021 41.372 64.1381 41.372C64.7635 41.372 65.2675 41.2973 65.6501 41.148C66.0421 40.9987 66.3268 40.7607 66.5041 40.434C66.6908 40.1167 66.7841 39.7107 66.7841 39.216V37.718L67.2041 36.766C67.1761 37.466 67.0315 38.0633 66.7701 38.558C66.5088 39.0433 66.1541 39.4167 65.7061 39.678C65.2581 39.93 64.7401 40.056 64.1521 40.056C63.6295 40.056 63.1535 39.958 62.7241 39.762C62.3041 39.566 61.9401 39.2953 61.6321 38.95C61.3335 38.6047 61.1001 38.1987 60.9321 37.732C60.7641 37.2653 60.6801 36.766 60.6801 36.234V35.94C60.6801 35.408 60.7641 34.9133 60.9321 34.456C61.1095 33.9893 61.3568 33.5833 61.6741 33.238C61.9915 32.8927 62.3695 32.6267 62.8081 32.44C63.2468 32.2533 63.7321 32.16 64.2641 32.16C64.8895 32.16 65.4308 32.2953 65.8881 32.566C66.3548 32.8367 66.7188 33.2287 66.9801 33.742C67.2415 34.2553 67.3861 34.8853 67.4141 35.632L67.0781 35.688V32.398H68.6181V39.104C68.6181 40.028 68.4595 40.7747 68.1421 41.344C67.8248 41.9133 67.3348 42.3287 66.6721 42.59C66.0188 42.8607 65.1788 42.996 64.1521 42.996ZM64.7121 38.39C65.0855 38.39 65.4261 38.306 65.7341 38.138C66.0421 37.97 66.2895 37.7273 66.4761 37.41C66.6628 37.0927 66.7561 36.71 66.7561 36.262V35.772C66.7561 35.3427 66.6581 34.9787 66.4621 34.68C66.2755 34.3813 66.0281 34.1573 65.7201 34.008C65.4121 33.8493 65.0761 33.77 64.7121 33.77C64.3015 33.77 63.9375 33.868 63.6201 34.064C63.3121 34.2507 63.0695 34.5167 62.8921 34.862C62.7148 35.2073 62.6261 35.618 62.6261 36.094C62.6261 36.5607 62.7148 36.9667 62.8921 37.312C63.0695 37.6573 63.3121 37.9233 63.6201 38.11C63.9375 38.2967 64.3015 38.39 64.7121 38.39ZM70.7408 40V32.398H72.2808V35.66H72.1408C72.1408 34.8853 72.2434 34.2413 72.4488 33.728C72.6541 33.2053 72.9574 32.8133 73.3588 32.552C73.7694 32.2907 74.2781 32.16 74.8848 32.16H74.9688C75.8741 32.16 76.5601 32.454 77.0268 33.042C77.4934 33.6207 77.7268 34.4887 77.7268 35.646V40H75.7808V35.478C75.7808 35.0113 75.6454 34.6333 75.3748 34.344C75.1134 34.0547 74.7494 33.91 74.2828 33.91C73.8068 33.91 73.4194 34.0593 73.1208 34.358C72.8314 34.6473 72.6868 35.0393 72.6868 35.534V40H70.7408ZM86.4804 40.266C85.575 40.266 84.8097 40.1213 84.1844 39.832C83.5684 39.5427 83.097 39.146 82.7704 38.642C82.4437 38.1287 82.2804 37.55 82.2804 36.906H84.2264C84.2264 37.1767 84.301 37.4427 84.4504 37.704C84.5997 37.956 84.8377 38.1613 85.1644 38.32C85.5004 38.4787 85.939 38.558 86.4804 38.558C86.9657 38.558 87.3717 38.488 87.6984 38.348C88.025 38.208 88.2677 38.026 88.4264 37.802C88.585 37.5687 88.6644 37.3073 88.6644 37.018C88.6644 36.654 88.5104 36.3647 88.2024 36.15C87.8944 35.926 87.4184 35.786 86.7744 35.73L85.8784 35.66C84.8984 35.576 84.1144 35.2727 83.5264 34.75C82.9477 34.218 82.6584 33.518 82.6584 32.65C82.6584 31.9967 82.8124 31.4367 83.1204 30.97C83.4284 30.494 83.8577 30.13 84.4084 29.878C84.9684 29.6167 85.6217 29.486 86.3684 29.486C87.143 29.486 87.8104 29.6213 88.3704 29.892C88.9304 30.1627 89.3644 30.5453 89.6724 31.04C89.9804 31.5253 90.1344 32.0993 90.1344 32.762H88.1884C88.1884 32.482 88.1184 32.2253 87.9784 31.992C87.8477 31.7493 87.647 31.558 87.3764 31.418C87.115 31.2687 86.779 31.194 86.3684 31.194C85.9764 31.194 85.6497 31.2593 85.3884 31.39C85.127 31.5207 84.931 31.698 84.8004 31.922C84.6697 32.146 84.6044 32.3887 84.6044 32.65C84.6044 32.9673 84.721 33.2473 84.9544 33.49C85.1877 33.7233 85.5564 33.8587 86.0604 33.896L86.9564 33.98C87.6844 34.036 88.3237 34.19 88.8744 34.442C89.425 34.694 89.8497 35.0347 90.1484 35.464C90.4564 35.8933 90.6104 36.4113 90.6104 37.018C90.6104 37.662 90.4424 38.2313 90.1064 38.726C89.7704 39.2113 89.2897 39.5893 88.6644 39.86C88.0484 40.1307 87.3204 40.266 86.4804 40.266ZM92.05 42.996V41.33H93.478C93.7486 41.33 93.9726 41.2927 94.15 41.218C94.3366 41.1527 94.4906 41.0407 94.612 40.882C94.7333 40.7327 94.8266 40.5227 94.892 40.252L96.936 32.398H98.798L96.544 40.672C96.3946 41.2413 96.1846 41.694 95.914 42.03C95.6433 42.3753 95.2933 42.6227 94.864 42.772C94.444 42.9213 93.9213 42.996 93.296 42.996H92.05ZM94.416 39.832V38.292H96.04V39.832H94.416ZM93.758 39.832L91.294 32.398H93.254L95.592 39.832H93.758ZM102.825 40.238C101.78 40.238 100.958 40.0187 100.361 39.58C99.7729 39.132 99.4649 38.516 99.4369 37.732H101.187C101.215 37.9933 101.36 38.2313 101.621 38.446C101.882 38.6607 102.293 38.768 102.853 38.768C103.32 38.768 103.688 38.684 103.959 38.516C104.239 38.348 104.379 38.1193 104.379 37.83C104.379 37.578 104.272 37.3773 104.057 37.228C103.852 37.0787 103.497 36.9807 102.993 36.934L102.321 36.864C101.472 36.7707 100.818 36.528 100.361 36.136C99.9036 35.744 99.6749 35.2213 99.6749 34.568C99.6749 34.0453 99.8056 33.6067 100.067 33.252C100.328 32.8973 100.688 32.6313 101.145 32.454C101.612 32.2673 102.144 32.174 102.741 32.174C103.674 32.174 104.43 32.3793 105.009 32.79C105.588 33.2007 105.891 33.8027 105.919 34.596H104.169C104.15 34.3347 104.02 34.1107 103.777 33.924C103.534 33.7373 103.184 33.644 102.727 33.644C102.316 33.644 101.999 33.7233 101.775 33.882C101.551 34.0407 101.439 34.246 101.439 34.498C101.439 34.7407 101.528 34.9273 101.705 35.058C101.892 35.1887 102.19 35.2773 102.601 35.324L103.273 35.394C104.169 35.4873 104.869 35.7347 105.373 36.136C105.886 36.5373 106.143 37.0787 106.143 37.76C106.143 38.264 106.003 38.7027 105.723 39.076C105.452 39.44 105.07 39.7247 104.575 39.93C104.08 40.1353 103.497 40.238 102.825 40.238ZM111.055 40.098C110.355 40.098 109.776 40.0093 109.319 39.832C108.871 39.6453 108.535 39.3373 108.311 38.908C108.087 38.4693 107.975 37.8813 107.975 37.144L107.989 30.256H109.809L109.795 37.27C109.795 37.6433 109.893 37.9327 110.089 38.138C110.294 38.334 110.583 38.432 110.957 38.432H112.147V40.098H111.055ZM106.771 33.826V32.398H112.147V33.826H106.771ZM117.141 40.266C116.487 40.266 115.913 40.154 115.419 39.93C114.933 39.706 114.527 39.4073 114.201 39.034C113.883 38.6513 113.641 38.2267 113.473 37.76C113.314 37.2933 113.235 36.8173 113.235 36.332V36.066C113.235 35.562 113.314 35.0767 113.473 34.61C113.641 34.134 113.883 33.714 114.201 33.35C114.527 32.9767 114.929 32.6827 115.405 32.468C115.881 32.244 116.431 32.132 117.057 32.132C117.878 32.132 118.564 32.314 119.115 32.678C119.675 33.0327 120.095 33.504 120.375 34.092C120.655 34.6707 120.795 35.296 120.795 35.968V36.668H114.061V35.478H119.577L118.975 36.066C118.975 35.5807 118.905 35.1653 118.765 34.82C118.625 34.4747 118.41 34.2087 118.121 34.022C117.841 33.8353 117.486 33.742 117.057 33.742C116.627 33.742 116.263 33.84 115.965 34.036C115.666 34.232 115.437 34.5167 115.279 34.89C115.129 35.254 115.055 35.6927 115.055 36.206C115.055 36.682 115.129 37.1067 115.279 37.48C115.428 37.844 115.657 38.1333 115.965 38.348C116.273 38.5533 116.665 38.656 117.141 38.656C117.617 38.656 118.004 38.5627 118.303 38.376C118.601 38.18 118.793 37.942 118.877 37.662H120.669C120.557 38.1847 120.342 38.642 120.025 39.034C119.707 39.426 119.301 39.7293 118.807 39.944C118.321 40.1587 117.766 40.266 117.141 40.266ZM122.42 40V32.398H123.96V35.66H123.82C123.82 34.8947 123.918 34.2553 124.114 33.742C124.31 33.2193 124.6 32.8273 124.982 32.566C125.374 32.2953 125.86 32.16 126.438 32.16H126.522C127.11 32.16 127.596 32.2953 127.978 32.566C128.37 32.8273 128.66 33.2193 128.846 33.742C129.042 34.2553 129.14 34.8947 129.14 35.66H128.65C128.65 34.8947 128.748 34.2553 128.944 33.742C129.15 33.2193 129.444 32.8273 129.826 32.566C130.218 32.2953 130.704 32.16 131.282 32.16H131.366C131.954 32.16 132.444 32.2953 132.836 32.566C133.228 32.8273 133.522 33.2193 133.718 33.742C133.924 34.2553 134.026 34.8947 134.026 35.66V40H132.08V35.478C132.08 35.002 131.959 34.624 131.716 34.344C131.474 34.0547 131.128 33.91 130.68 33.91C130.232 33.91 129.873 34.0593 129.602 34.358C129.332 34.6473 129.196 35.0393 129.196 35.534V40H127.25V35.478C127.25 35.002 127.129 34.624 126.886 34.344C126.644 34.0547 126.298 33.91 125.85 33.91C125.402 33.91 125.043 34.0593 124.772 34.358C124.502 34.6473 124.366 35.0393 124.366 35.534V40H122.42Z" fill="#111213"/>
<path d="M14.6212 7.03616C15.0972 6.91716 15.1349 6.25521 14.6755 6.08293L1.20895 1.03296C0.807002 0.882232 0.41449 1.27474 0.565219 1.67669L5.61519 15.1433C5.78746 15.6027 6.44942 15.565 6.56842 15.089L8.10622 8.93777C8.15101 8.75863 8.29088 8.61875 8.47003 8.57396L14.6212 7.03616Z" fill="#FF3377"/>
</svg>
