<svg width="159" height="54" viewBox="0 0 159 54" fill="none" xmlns="http://www.w3.org/2000/svg">
<rect x="16" y="16" width="143" height="38" rx="4" fill="#9847FF"/>
<path d="M29.7665 40V29.78H31.7545V40H29.7665ZM34.1509 40V32.398H35.6909V35.66H35.5509C35.5509 34.8853 35.6536 34.2413 35.8589 33.728C36.0643 33.2053 36.3676 32.8133 36.7689 32.552C37.1796 32.2907 37.6883 32.16 38.2949 32.16H38.3789C39.2843 32.16 39.9703 32.454 40.4369 33.042C40.9036 33.6207 41.1369 34.4887 41.1369 35.646V40H39.1909V35.478C39.1909 35.0113 39.0556 34.6333 38.7849 34.344C38.5236 34.0547 38.1596 33.91 37.6929 33.91C37.2169 33.91 36.8296 34.0593 36.5309 34.358C36.2416 34.6473 36.0969 35.0393 36.0969 35.534V40H34.1509ZM46.533 40.098C45.833 40.098 45.2544 40.0093 44.797 39.832C44.349 39.6453 44.013 39.3373 43.789 38.908C43.565 38.4693 43.453 37.8813 43.453 37.144L43.467 30.256H45.287L45.273 37.27C45.273 37.6433 45.371 37.9327 45.567 38.138C45.7724 38.334 46.0617 38.432 46.435 38.432H47.625V40.098H46.533ZM42.249 33.826V32.398H47.625V33.826H42.249ZM52.6193 40.266C51.966 40.266 51.392 40.154 50.8973 39.93C50.412 39.706 50.006 39.4073 49.6793 39.034C49.362 38.6513 49.1193 38.2267 48.9513 37.76C48.7927 37.2933 48.7133 36.8173 48.7133 36.332V36.066C48.7133 35.562 48.7927 35.0767 48.9513 34.61C49.1193 34.134 49.362 33.714 49.6793 33.35C50.006 32.9767 50.4073 32.6827 50.8833 32.468C51.3593 32.244 51.91 32.132 52.5353 32.132C53.3567 32.132 54.0427 32.314 54.5933 32.678C55.1533 33.0327 55.5733 33.504 55.8533 34.092C56.1333 34.6707 56.2733 35.296 56.2733 35.968V36.668H49.5393V35.478H55.0553L54.4533 36.066C54.4533 35.5807 54.3833 35.1653 54.2433 34.82C54.1033 34.4747 53.8887 34.2087 53.5993 34.022C53.3193 33.8353 52.9647 33.742 52.5353 33.742C52.106 33.742 51.742 33.84 51.4433 34.036C51.1447 34.232 50.916 34.5167 50.7573 34.89C50.608 35.254 50.5333 35.6927 50.5333 36.206C50.5333 36.682 50.608 37.1067 50.7573 37.48C50.9067 37.844 51.1353 38.1333 51.4433 38.348C51.7513 38.5533 52.1433 38.656 52.6193 38.656C53.0953 38.656 53.4827 38.5627 53.7813 38.376C54.08 38.18 54.2713 37.942 54.3553 37.662H56.1473C56.0353 38.1847 55.8207 38.642 55.5033 39.034C55.186 39.426 54.78 39.7293 54.2853 39.944C53.8 40.1587 53.2447 40.266 52.6193 40.266ZM57.899 40V32.398H59.439V35.618H59.397C59.397 34.526 59.6303 33.7 60.097 33.14C60.5636 32.58 61.2496 32.3 62.155 32.3H62.435V33.994H61.903C61.2496 33.994 60.741 34.1713 60.377 34.526C60.0223 34.8713 59.845 35.3753 59.845 36.038V40H57.899ZM63.9599 40V32.216C63.9599 31.348 64.1979 30.7087 64.6739 30.298C65.1592 29.878 65.8732 29.668 66.8159 29.668H67.7679V31.166H66.6759C66.3865 31.166 66.1625 31.2453 66.0039 31.404C65.8545 31.5533 65.7799 31.768 65.7799 32.048V40H63.9599ZM63.0079 33.952V32.524H67.8939V33.952H63.0079ZM73.6886 40V37.746H73.3666V35.24C73.3666 34.8013 73.2592 34.4747 73.0446 34.26C72.8299 34.0453 72.4986 33.938 72.0506 33.938C71.8172 33.938 71.5372 33.9427 71.2106 33.952C70.8839 33.9613 70.5526 33.9753 70.2166 33.994C69.8899 34.0033 69.5959 34.0173 69.3346 34.036V32.384C69.5492 32.3653 69.7919 32.3467 70.0626 32.328C70.3332 32.3093 70.6086 32.3 70.8886 32.3C71.1779 32.2907 71.4486 32.286 71.7006 32.286C72.4846 32.286 73.1332 32.3887 73.6466 32.594C74.1692 32.7993 74.5612 33.1213 74.8226 33.56C75.0932 33.9987 75.2286 34.5727 75.2286 35.282V40H73.6886ZM71.2386 40.196C70.6879 40.196 70.2026 40.098 69.7826 39.902C69.3719 39.706 69.0499 39.426 68.8166 39.062C68.5926 38.698 68.4806 38.2593 68.4806 37.746C68.4806 37.186 68.6159 36.7287 68.8866 36.374C69.1666 36.0193 69.5539 35.7533 70.0486 35.576C70.5526 35.3987 71.1406 35.31 71.8126 35.31H73.5766V36.472H71.7846C71.3366 36.472 70.9912 36.584 70.7486 36.808C70.5152 37.0227 70.3986 37.3027 70.3986 37.648C70.3986 37.9933 70.5152 38.2733 70.7486 38.488C70.9912 38.7027 71.3366 38.81 71.7846 38.81C72.0552 38.81 72.3026 38.7633 72.5266 38.67C72.7599 38.5673 72.9512 38.3993 73.1006 38.166C73.2592 37.9233 73.3479 37.5967 73.3666 37.186L73.8426 37.732C73.7959 38.264 73.6652 38.712 73.4506 39.076C73.2452 39.44 72.9559 39.72 72.5826 39.916C72.2186 40.1027 71.7706 40.196 71.2386 40.196ZM80.687 40.266C80.0244 40.266 79.4504 40.154 78.965 39.93C78.489 39.706 78.0877 39.4073 77.761 39.034C77.4437 38.6607 77.2057 38.2407 77.047 37.774C76.8884 37.3073 76.809 36.8313 76.809 36.346V36.08C76.809 35.5667 76.8884 35.0767 77.047 34.61C77.215 34.134 77.4624 33.714 77.789 33.35C78.1157 32.9767 78.517 32.6827 78.993 32.468C79.4784 32.244 80.0384 32.132 80.673 32.132C81.3357 32.132 81.9284 32.2627 82.451 32.524C82.9737 32.776 83.389 33.1307 83.697 33.588C84.0144 34.0453 84.1917 34.5773 84.229 35.184H82.339C82.2924 34.792 82.1244 34.4653 81.835 34.204C81.555 33.9427 81.1677 33.812 80.673 33.812C80.2437 33.812 79.8844 33.9147 79.595 34.12C79.315 34.3253 79.105 34.61 78.965 34.974C78.825 35.3287 78.755 35.7393 78.755 36.206C78.755 36.654 78.8204 37.06 78.951 37.424C79.091 37.788 79.301 38.0727 79.581 38.278C79.8704 38.4833 80.239 38.586 80.687 38.586C81.023 38.586 81.3124 38.5253 81.555 38.404C81.7977 38.2827 81.989 38.1147 82.129 37.9C82.2784 37.6853 82.3717 37.4427 82.409 37.172H84.299C84.2617 37.788 84.0797 38.3293 83.753 38.796C83.4357 39.2533 83.011 39.6127 82.479 39.874C81.9564 40.1353 81.359 40.266 80.687 40.266ZM89.26 40.266C88.6066 40.266 88.0326 40.154 87.538 39.93C87.0526 39.706 86.6466 39.4073 86.32 39.034C86.0026 38.6513 85.76 38.2267 85.592 37.76C85.4333 37.2933 85.354 36.8173 85.354 36.332V36.066C85.354 35.562 85.4333 35.0767 85.592 34.61C85.76 34.134 86.0026 33.714 86.32 33.35C86.6466 32.9767 87.048 32.6827 87.524 32.468C88 32.244 88.5506 32.132 89.176 32.132C89.9973 32.132 90.6833 32.314 91.234 32.678C91.794 33.0327 92.214 33.504 92.494 34.092C92.774 34.6707 92.914 35.296 92.914 35.968V36.668H86.18V35.478H91.696L91.094 36.066C91.094 35.5807 91.024 35.1653 90.884 34.82C90.744 34.4747 90.5293 34.2087 90.24 34.022C89.96 33.8353 89.6053 33.742 89.176 33.742C88.7466 33.742 88.3826 33.84 88.084 34.036C87.7853 34.232 87.5566 34.5167 87.398 34.89C87.2486 35.254 87.174 35.6927 87.174 36.206C87.174 36.682 87.2486 37.1067 87.398 37.48C87.5473 37.844 87.776 38.1333 88.084 38.348C88.392 38.5533 88.784 38.656 89.26 38.656C89.736 38.656 90.1233 38.5627 90.422 38.376C90.7206 38.18 90.912 37.942 90.996 37.662H92.788C92.676 38.1847 92.4613 38.642 92.144 39.034C91.8266 39.426 91.4206 39.7293 90.926 39.944C90.4406 40.1587 89.8853 40.266 89.26 40.266ZM99.4231 40.056V38.208H101.537C102.069 38.208 102.54 38.1287 102.951 37.97C103.371 37.802 103.726 37.5687 104.015 37.27C104.304 36.9713 104.524 36.6213 104.673 36.22C104.832 35.8093 104.911 35.3567 104.911 34.862C104.911 34.3487 104.832 33.8913 104.673 33.49C104.524 33.0793 104.304 32.7293 104.015 32.44C103.726 32.1507 103.371 31.9313 102.951 31.782C102.54 31.6327 102.069 31.558 101.537 31.558H99.4231V29.71H101.411C102.335 29.71 103.142 29.8453 103.833 30.116C104.524 30.3867 105.098 30.76 105.555 31.236C106.012 31.7027 106.353 32.2393 106.577 32.846C106.81 33.4433 106.927 34.064 106.927 34.708V35.016C106.927 35.632 106.81 36.2387 106.577 36.836C106.353 37.4333 106.012 37.9747 105.555 38.46C105.098 38.9453 104.524 39.3327 103.833 39.622C103.142 39.9113 102.335 40.056 101.411 40.056H99.4231ZM97.7151 40.056V29.71H99.7031V40.056H97.7151ZM111.955 40.266C111.302 40.266 110.728 40.154 110.233 39.93C109.748 39.706 109.342 39.4073 109.015 39.034C108.698 38.6513 108.455 38.2267 108.287 37.76C108.129 37.2933 108.049 36.8173 108.049 36.332V36.066C108.049 35.562 108.129 35.0767 108.287 34.61C108.455 34.134 108.698 33.714 109.015 33.35C109.342 32.9767 109.743 32.6827 110.219 32.468C110.695 32.244 111.246 32.132 111.871 32.132C112.693 32.132 113.379 32.314 113.929 32.678C114.489 33.0327 114.909 33.504 115.189 34.092C115.469 34.6707 115.609 35.296 115.609 35.968V36.668H108.875V35.478H114.391L113.789 36.066C113.789 35.5807 113.719 35.1653 113.579 34.82C113.439 34.4747 113.225 34.2087 112.935 34.022C112.655 33.8353 112.301 33.742 111.871 33.742C111.442 33.742 111.078 33.84 110.779 34.036C110.481 34.232 110.252 34.5167 110.093 34.89C109.944 35.254 109.869 35.6927 109.869 36.206C109.869 36.682 109.944 37.1067 110.093 37.48C110.243 37.844 110.471 38.1333 110.779 38.348C111.087 38.5533 111.479 38.656 111.955 38.656C112.431 38.656 112.819 38.5627 113.117 38.376C113.416 38.18 113.607 37.942 113.691 37.662H115.483C115.371 38.1847 115.157 38.642 114.839 39.034C114.522 39.426 114.116 39.7293 113.621 39.944C113.136 40.1587 112.581 40.266 111.955 40.266ZM119.993 40.238C118.948 40.238 118.126 40.0187 117.529 39.58C116.941 39.132 116.633 38.516 116.605 37.732H118.355C118.383 37.9933 118.528 38.2313 118.789 38.446C119.05 38.6607 119.461 38.768 120.021 38.768C120.488 38.768 120.856 38.684 121.127 38.516C121.407 38.348 121.547 38.1193 121.547 37.83C121.547 37.578 121.44 37.3773 121.225 37.228C121.02 37.0787 120.665 36.9807 120.161 36.934L119.489 36.864C118.64 36.7707 117.986 36.528 117.529 36.136C117.072 35.744 116.843 35.2213 116.843 34.568C116.843 34.0453 116.974 33.6067 117.235 33.252C117.496 32.8973 117.856 32.6313 118.313 32.454C118.78 32.2673 119.312 32.174 119.909 32.174C120.842 32.174 121.598 32.3793 122.177 32.79C122.756 33.2007 123.059 33.8027 123.087 34.596H121.337C121.318 34.3347 121.188 34.1107 120.945 33.924C120.702 33.7373 120.352 33.644 119.895 33.644C119.484 33.644 119.167 33.7233 118.943 33.882C118.719 34.0407 118.607 34.246 118.607 34.498C118.607 34.7407 118.696 34.9273 118.873 35.058C119.06 35.1887 119.358 35.2773 119.769 35.324L120.441 35.394C121.337 35.4873 122.037 35.7347 122.541 36.136C123.054 36.5373 123.311 37.0787 123.311 37.76C123.311 38.264 123.171 38.7027 122.891 39.076C122.62 39.44 122.238 39.7247 121.743 39.93C121.248 40.1353 120.665 40.238 119.993 40.238ZM125.283 40V32.398H127.229V40H125.283ZM124.219 33.854V32.398H127.229V33.854H124.219ZM125.997 31.488C125.614 31.488 125.329 31.39 125.143 31.194C124.965 30.9887 124.877 30.7367 124.877 30.438C124.877 30.1207 124.965 29.864 125.143 29.668C125.329 29.472 125.614 29.374 125.997 29.374C126.379 29.374 126.659 29.472 126.837 29.668C127.014 29.864 127.103 30.1207 127.103 30.438C127.103 30.7367 127.014 30.9887 126.837 31.194C126.659 31.39 126.379 31.488 125.997 31.488ZM132.439 42.996C132.075 42.996 131.702 42.982 131.319 42.954C130.946 42.926 130.596 42.8887 130.269 42.842V41.218C130.605 41.2553 130.965 41.288 131.347 41.316C131.73 41.3533 132.089 41.372 132.425 41.372C133.051 41.372 133.555 41.2973 133.937 41.148C134.329 40.9987 134.614 40.7607 134.791 40.434C134.978 40.1167 135.071 39.7107 135.071 39.216V37.718L135.491 36.766C135.463 37.466 135.319 38.0633 135.057 38.558C134.796 39.0433 134.441 39.4167 133.993 39.678C133.545 39.93 133.027 40.056 132.439 40.056C131.917 40.056 131.441 39.958 131.011 39.762C130.591 39.566 130.227 39.2953 129.919 38.95C129.621 38.6047 129.387 38.1987 129.219 37.732C129.051 37.2653 128.967 36.766 128.967 36.234V35.94C128.967 35.408 129.051 34.9133 129.219 34.456C129.397 33.9893 129.644 33.5833 129.961 33.238C130.279 32.8927 130.657 32.6267 131.095 32.44C131.534 32.2533 132.019 32.16 132.551 32.16C133.177 32.16 133.718 32.2953 134.175 32.566C134.642 32.8367 135.006 33.2287 135.267 33.742C135.529 34.2553 135.673 34.8853 135.701 35.632L135.365 35.688V32.398H136.905V39.104C136.905 40.028 136.747 40.7747 136.429 41.344C136.112 41.9133 135.622 42.3287 134.959 42.59C134.306 42.8607 133.466 42.996 132.439 42.996ZM132.999 38.39C133.373 38.39 133.713 38.306 134.021 38.138C134.329 37.97 134.577 37.7273 134.763 37.41C134.95 37.0927 135.043 36.71 135.043 36.262V35.772C135.043 35.3427 134.945 34.9787 134.749 34.68C134.563 34.3813 134.315 34.1573 134.007 34.008C133.699 33.8493 133.363 33.77 132.999 33.77C132.589 33.77 132.225 33.868 131.907 34.064C131.599 34.2507 131.357 34.5167 131.179 34.862C131.002 35.2073 130.913 35.618 130.913 36.094C130.913 36.5607 131.002 36.9667 131.179 37.312C131.357 37.6573 131.599 37.9233 131.907 38.11C132.225 38.2967 132.589 38.39 132.999 38.39ZM139.028 40V32.398H140.568V35.66H140.428C140.428 34.8853 140.531 34.2413 140.736 33.728C140.941 33.2053 141.245 32.8133 141.646 32.552C142.057 32.2907 142.565 32.16 143.172 32.16H143.256C144.161 32.16 144.847 32.454 145.314 33.042C145.781 33.6207 146.014 34.4887 146.014 35.646V40H144.068V35.478C144.068 35.0113 143.933 34.6333 143.662 34.344C143.401 34.0547 143.037 33.91 142.57 33.91C142.094 33.91 141.707 34.0593 141.408 34.358C141.119 34.6473 140.974 35.0393 140.974 35.534V40H139.028Z" fill="white"/>
<path d="M14.6212 7.03616C15.0972 6.91716 15.1349 6.25521 14.6755 6.08293L1.20895 1.03296C0.807002 0.882232 0.41449 1.27474 0.565219 1.67669L5.61519 15.1433C5.78746 15.6027 6.44942 15.565 6.56842 15.089L8.10622 8.93777C8.15101 8.75862 8.29088 8.61875 8.47003 8.57396L14.6212 7.03616Z" fill="#9847FF"/>
</svg>
