<svg width="168" height="54" viewBox="0 0 168 54" fill="none" xmlns="http://www.w3.org/2000/svg">
<rect x="16" y="16" width="152" height="38" rx="4" fill="#007BE3"/>
<path d="M29.7151 40V29.78H32.4311L34.9931 35.884H35.2451L37.7931 29.78H40.5511V40H38.5771V31.278L38.8291 31.306L36.0711 37.914H34.0411L31.2691 31.306L31.5351 31.278V40H29.7151ZM46.5725 40.266C45.9005 40.266 45.3078 40.1587 44.7945 39.944C44.2812 39.7293 43.8472 39.44 43.4925 39.076C43.1378 38.7027 42.8672 38.2827 42.6805 37.816C42.5032 37.3493 42.4145 36.864 42.4145 36.36V36.066C42.4145 35.5433 42.5078 35.0487 42.6945 34.582C42.8905 34.106 43.1658 33.686 43.5205 33.322C43.8845 32.9487 44.3232 32.6593 44.8365 32.454C45.3498 32.2393 45.9285 32.132 46.5725 32.132C47.2165 32.132 47.7952 32.2393 48.3085 32.454C48.8218 32.6593 49.2558 32.9487 49.6105 33.322C49.9745 33.686 50.2498 34.106 50.4365 34.582C50.6232 35.0487 50.7165 35.5433 50.7165 36.066V36.36C50.7165 36.864 50.6232 37.3493 50.4365 37.816C50.2592 38.2827 49.9932 38.7027 49.6385 39.076C49.2838 39.44 48.8498 39.7293 48.3365 39.944C47.8232 40.1587 47.2352 40.266 46.5725 40.266ZM46.5725 38.6C47.0485 38.6 47.4498 38.4973 47.7765 38.292C48.1032 38.0773 48.3505 37.7927 48.5185 37.438C48.6865 37.074 48.7705 36.6633 48.7705 36.206C48.7705 35.7393 48.6818 35.3287 48.5045 34.974C48.3365 34.61 48.0845 34.3253 47.7485 34.12C47.4218 33.9053 47.0298 33.798 46.5725 33.798C46.1152 33.798 45.7185 33.9053 45.3825 34.12C45.0558 34.3253 44.8038 34.61 44.6265 34.974C44.4492 35.3287 44.3605 35.7393 44.3605 36.206C44.3605 36.6633 44.4445 37.074 44.6125 37.438C44.7898 37.7927 45.0418 38.0773 45.3685 38.292C45.6952 38.4973 46.0965 38.6 46.5725 38.6ZM56.8865 40.252C56.2611 40.252 55.7105 40.1213 55.2345 39.86C54.7585 39.5893 54.3851 39.1973 54.1145 38.684C53.8438 38.1707 53.6945 37.55 53.6665 36.822H53.9605V40H52.4205V29.78H54.3665V34.89L53.8485 35.688C53.8858 34.904 54.0398 34.2507 54.3105 33.728C54.5905 33.2053 54.9638 32.8133 55.4305 32.552C55.8971 32.2907 56.4245 32.16 57.0125 32.16C57.5351 32.16 58.0111 32.258 58.4405 32.454C58.8698 32.65 59.2385 32.9253 59.5465 33.28C59.8545 33.6253 60.0878 34.0313 60.2465 34.498C60.4145 34.9647 60.4985 35.4733 60.4985 36.024V36.318C60.4985 36.8687 60.4145 37.382 60.2465 37.858C60.0785 38.334 59.8358 38.754 59.5185 39.118C59.2011 39.4727 58.8185 39.7527 58.3705 39.958C57.9318 40.154 57.4371 40.252 56.8865 40.252ZM56.4525 38.614C56.8725 38.614 57.2365 38.5113 57.5445 38.306C57.8618 38.0913 58.1091 37.802 58.2865 37.438C58.4638 37.074 58.5525 36.654 58.5525 36.178C58.5525 35.6927 58.4638 35.2727 58.2865 34.918C58.1091 34.5633 57.8618 34.288 57.5445 34.092C57.2365 33.896 56.8725 33.798 56.4525 33.798C56.0698 33.798 55.7151 33.882 55.3885 34.05C55.0711 34.218 54.8098 34.4653 54.6045 34.792C54.4085 35.1187 54.3105 35.5107 54.3105 35.968V36.528C54.3105 36.9667 54.4131 37.34 54.6185 37.648C54.8238 37.956 55.0898 38.194 55.4165 38.362C55.7431 38.53 56.0885 38.614 56.4525 38.614ZM62.5735 40V32.398H64.5195V40H62.5735ZM61.5095 33.854V32.398H64.5195V33.854H61.5095ZM63.2875 31.488C62.9048 31.488 62.6202 31.39 62.4335 31.194C62.2562 30.9887 62.1675 30.7367 62.1675 30.438C62.1675 30.1207 62.2562 29.864 62.4335 29.668C62.6202 29.472 62.9048 29.374 63.2875 29.374C63.6702 29.374 63.9502 29.472 64.1275 29.668C64.3048 29.864 64.3935 30.1207 64.3935 30.438C64.3935 30.7367 64.3048 30.9887 64.1275 31.194C63.9502 31.39 63.6702 31.488 63.2875 31.488ZM66.8603 40V29.78H68.8063V40H66.8603ZM65.9083 31.236V29.78H68.8063V31.236H65.9083ZM74.4299 40.266C73.7765 40.266 73.2025 40.154 72.7079 39.93C72.2225 39.706 71.8165 39.4073 71.4899 39.034C71.1725 38.6513 70.9299 38.2267 70.7619 37.76C70.6032 37.2933 70.5239 36.8173 70.5239 36.332V36.066C70.5239 35.562 70.6032 35.0767 70.7619 34.61C70.9299 34.134 71.1725 33.714 71.4899 33.35C71.8165 32.9767 72.2179 32.6827 72.6939 32.468C73.1699 32.244 73.7205 32.132 74.3459 32.132C75.1672 32.132 75.8532 32.314 76.4039 32.678C76.9639 33.0327 77.3839 33.504 77.6639 34.092C77.9439 34.6707 78.0839 35.296 78.0839 35.968V36.668H71.3499V35.478H76.8659L76.2639 36.066C76.2639 35.5807 76.1939 35.1653 76.0539 34.82C75.9139 34.4747 75.6992 34.2087 75.4099 34.022C75.1299 33.8353 74.7752 33.742 74.3459 33.742C73.9165 33.742 73.5525 33.84 73.2539 34.036C72.9552 34.232 72.7265 34.5167 72.5679 34.89C72.4185 35.254 72.3439 35.6927 72.3439 36.206C72.3439 36.682 72.4185 37.1067 72.5679 37.48C72.7172 37.844 72.9459 38.1333 73.2539 38.348C73.5619 38.5533 73.9539 38.656 74.4299 38.656C74.9059 38.656 75.2932 38.5627 75.5919 38.376C75.8905 38.18 76.0819 37.942 76.1659 37.662H77.9579C77.8459 38.1847 77.6312 38.642 77.3139 39.034C76.9965 39.426 76.5905 39.7293 76.0959 39.944C75.6105 40.1587 75.0552 40.266 74.4299 40.266ZM84.593 40.056V38.208H86.707C87.239 38.208 87.7103 38.1287 88.121 37.97C88.541 37.802 88.8957 37.5687 89.185 37.27C89.4743 36.9713 89.6937 36.6213 89.843 36.22C90.0017 35.8093 90.081 35.3567 90.081 34.862C90.081 34.3487 90.0017 33.8913 89.843 33.49C89.6937 33.0793 89.4743 32.7293 89.185 32.44C88.8957 32.1507 88.541 31.9313 88.121 31.782C87.7103 31.6327 87.239 31.558 86.707 31.558H84.593V29.71H86.581C87.505 29.71 88.3123 29.8453 89.003 30.116C89.6937 30.3867 90.2677 30.76 90.725 31.236C91.1823 31.7027 91.523 32.2393 91.747 32.846C91.9803 33.4433 92.097 34.064 92.097 34.708V35.016C92.097 35.632 91.9803 36.2387 91.747 36.836C91.523 37.4333 91.1823 37.9747 90.725 38.46C90.2677 38.9453 89.6937 39.3327 89.003 39.622C88.3123 39.9113 87.505 40.056 86.581 40.056H84.593ZM82.885 40.056V29.71H84.873V40.056H82.885ZM97.1252 40.266C96.4719 40.266 95.8979 40.154 95.4032 39.93C94.9179 39.706 94.5119 39.4073 94.1852 39.034C93.8679 38.6513 93.6252 38.2267 93.4572 37.76C93.2985 37.2933 93.2192 36.8173 93.2192 36.332V36.066C93.2192 35.562 93.2985 35.0767 93.4572 34.61C93.6252 34.134 93.8679 33.714 94.1852 33.35C94.5119 32.9767 94.9132 32.6827 95.3892 32.468C95.8652 32.244 96.4159 32.132 97.0412 32.132C97.8625 32.132 98.5485 32.314 99.0992 32.678C99.6592 33.0327 100.079 33.504 100.359 34.092C100.639 34.6707 100.779 35.296 100.779 35.968V36.668H94.0452V35.478H99.5612L98.9592 36.066C98.9592 35.5807 98.8892 35.1653 98.7492 34.82C98.6092 34.4747 98.3945 34.2087 98.1052 34.022C97.8252 33.8353 97.4705 33.742 97.0412 33.742C96.6119 33.742 96.2479 33.84 95.9492 34.036C95.6505 34.232 95.4219 34.5167 95.2632 34.89C95.1139 35.254 95.0392 35.6927 95.0392 36.206C95.0392 36.682 95.1139 37.1067 95.2632 37.48C95.4125 37.844 95.6412 38.1333 95.9492 38.348C96.2572 38.5533 96.6492 38.656 97.1252 38.656C97.6012 38.656 97.9885 38.5627 98.2872 38.376C98.5859 38.18 98.7772 37.942 98.8612 37.662H100.653C100.541 38.1847 100.327 38.642 100.009 39.034C99.6919 39.426 99.2859 39.7293 98.7912 39.944C98.3059 40.1587 97.7505 40.266 97.1252 40.266ZM103.862 40L101.482 32.398H103.484L105.766 40H103.862ZM104.436 40V38.404H106.494V40H104.436ZM105.206 40L107.166 32.398H109.042L106.984 40H105.206ZM113.75 40.266C113.097 40.266 112.523 40.154 112.028 39.93C111.543 39.706 111.137 39.4073 110.81 39.034C110.493 38.6513 110.25 38.2267 110.082 37.76C109.924 37.2933 109.844 36.8173 109.844 36.332V36.066C109.844 35.562 109.924 35.0767 110.082 34.61C110.25 34.134 110.493 33.714 110.81 33.35C111.137 32.9767 111.538 32.6827 112.014 32.468C112.49 32.244 113.041 32.132 113.666 32.132C114.488 32.132 115.174 32.314 115.724 32.678C116.284 33.0327 116.704 33.504 116.984 34.092C117.264 34.6707 117.404 35.296 117.404 35.968V36.668H110.67V35.478H116.186L115.584 36.066C115.584 35.5807 115.514 35.1653 115.374 34.82C115.234 34.4747 115.02 34.2087 114.73 34.022C114.45 33.8353 114.096 33.742 113.666 33.742C113.237 33.742 112.873 33.84 112.574 34.036C112.276 34.232 112.047 34.5167 111.888 34.89C111.739 35.254 111.664 35.6927 111.664 36.206C111.664 36.682 111.739 37.1067 111.888 37.48C112.038 37.844 112.266 38.1333 112.574 38.348C112.882 38.5533 113.274 38.656 113.75 38.656C114.226 38.656 114.614 38.5627 114.912 38.376C115.211 38.18 115.402 37.942 115.486 37.662H117.278C117.166 38.1847 116.952 38.642 116.634 39.034C116.317 39.426 115.911 39.7293 115.416 39.944C114.931 40.1587 114.376 40.266 113.75 40.266ZM119.128 40V29.78H121.074V40H119.128ZM118.176 31.236V29.78H121.074V31.236H118.176ZM126.949 40.266C126.277 40.266 125.685 40.1587 125.171 39.944C124.658 39.7293 124.224 39.44 123.869 39.076C123.515 38.7027 123.244 38.2827 123.057 37.816C122.88 37.3493 122.791 36.864 122.791 36.36V36.066C122.791 35.5433 122.885 35.0487 123.071 34.582C123.267 34.106 123.543 33.686 123.897 33.322C124.261 32.9487 124.7 32.6593 125.213 32.454C125.727 32.2393 126.305 32.132 126.949 32.132C127.593 32.132 128.172 32.2393 128.685 32.454C129.199 32.6593 129.633 32.9487 129.987 33.322C130.351 33.686 130.627 34.106 130.813 34.582C131 35.0487 131.093 35.5433 131.093 36.066V36.36C131.093 36.864 131 37.3493 130.813 37.816C130.636 38.2827 130.37 38.7027 130.015 39.076C129.661 39.44 129.227 39.7293 128.713 39.944C128.2 40.1587 127.612 40.266 126.949 40.266ZM126.949 38.6C127.425 38.6 127.827 38.4973 128.153 38.292C128.48 38.0773 128.727 37.7927 128.895 37.438C129.063 37.074 129.147 36.6633 129.147 36.206C129.147 35.7393 129.059 35.3287 128.881 34.974C128.713 34.61 128.461 34.3253 128.125 34.12C127.799 33.9053 127.407 33.798 126.949 33.798C126.492 33.798 126.095 33.9053 125.759 34.12C125.433 34.3253 125.181 34.61 125.003 34.974C124.826 35.3287 124.737 35.7393 124.737 36.206C124.737 36.6633 124.821 37.074 124.989 37.438C125.167 37.7927 125.419 38.0773 125.745 38.292C126.072 38.4973 126.473 38.6 126.949 38.6ZM132.797 42.8V32.398H134.337V35.674L134.099 35.66C134.137 34.8853 134.295 34.2367 134.575 33.714C134.865 33.1913 135.247 32.804 135.723 32.552C136.199 32.2907 136.731 32.16 137.319 32.16C137.861 32.16 138.346 32.258 138.775 32.454C139.214 32.65 139.587 32.9253 139.895 33.28C140.213 33.6347 140.455 34.05 140.623 34.526C140.791 34.9927 140.875 35.4967 140.875 36.038V36.332C140.875 36.8827 140.791 37.396 140.623 37.872C140.465 38.3387 140.227 38.754 139.909 39.118C139.601 39.4727 139.228 39.7527 138.789 39.958C138.351 40.154 137.861 40.252 137.319 40.252C136.75 40.252 136.227 40.1353 135.751 39.902C135.285 39.6593 134.907 39.2907 134.617 38.796C134.328 38.292 134.165 37.6433 134.127 36.85L134.743 37.788V42.8H132.797ZM136.829 38.614C137.249 38.614 137.613 38.5113 137.921 38.306C138.239 38.1007 138.486 37.816 138.663 37.452C138.841 37.0787 138.929 36.6587 138.929 36.192C138.929 35.7067 138.841 35.2867 138.663 34.932C138.486 34.5773 138.239 34.302 137.921 34.106C137.613 33.9007 137.249 33.798 136.829 33.798C136.447 33.798 136.092 33.882 135.765 34.05C135.448 34.218 135.187 34.4653 134.981 34.792C134.785 35.1187 134.687 35.5107 134.687 35.968V36.528C134.687 36.9667 134.79 37.34 134.995 37.648C135.201 37.956 135.467 38.194 135.793 38.362C136.12 38.53 136.465 38.614 136.829 38.614ZM145.988 40.266C145.335 40.266 144.761 40.154 144.266 39.93C143.781 39.706 143.375 39.4073 143.048 39.034C142.731 38.6513 142.488 38.2267 142.32 37.76C142.162 37.2933 142.082 36.8173 142.082 36.332V36.066C142.082 35.562 142.162 35.0767 142.32 34.61C142.488 34.134 142.731 33.714 143.048 33.35C143.375 32.9767 143.776 32.6827 144.252 32.468C144.728 32.244 145.279 32.132 145.904 32.132C146.726 32.132 147.412 32.314 147.962 32.678C148.522 33.0327 148.942 33.504 149.222 34.092C149.502 34.6707 149.642 35.296 149.642 35.968V36.668H142.908V35.478H148.424L147.822 36.066C147.822 35.5807 147.752 35.1653 147.612 34.82C147.472 34.4747 147.258 34.2087 146.968 34.022C146.688 33.8353 146.334 33.742 145.904 33.742C145.475 33.742 145.111 33.84 144.812 34.036C144.514 34.232 144.285 34.5167 144.126 34.89C143.977 35.254 143.902 35.6927 143.902 36.206C143.902 36.682 143.977 37.1067 144.126 37.48C144.276 37.844 144.504 38.1333 144.812 38.348C145.12 38.5533 145.512 38.656 145.988 38.656C146.464 38.656 146.852 38.5627 147.15 38.376C147.449 38.18 147.64 37.942 147.724 37.662H149.516C149.404 38.1847 149.19 38.642 148.872 39.034C148.555 39.426 148.149 39.7293 147.654 39.944C147.169 40.1587 146.614 40.266 145.988 40.266ZM151.268 40V32.398H152.808V35.618H152.766C152.766 34.526 152.999 33.7 153.466 33.14C153.933 32.58 154.619 32.3 155.524 32.3H155.804V33.994H155.272C154.619 33.994 154.11 34.1713 153.746 34.526C153.391 34.8713 153.214 35.3753 153.214 36.038V40H151.268Z" fill="white"/>
<path d="M14.6212 7.03616C15.0972 6.91716 15.1349 6.25521 14.6755 6.08293L1.20895 1.03296C0.807002 0.882232 0.41449 1.27474 0.565219 1.67669L5.61519 15.1433C5.78746 15.6027 6.44942 15.565 6.56842 15.089L8.10622 8.93777C8.15101 8.75862 8.29088 8.61875 8.47003 8.57396L14.6212 7.03616Z" fill="#007BE3"/>
</svg>
