<svg width="127" height="54" viewBox="0 0 127 54" fill="none" xmlns="http://www.w3.org/2000/svg">
<rect x="16" y="16" width="111" height="38" rx="4" fill="#FF7733"/>
<path d="M31.0559 36.864V35.142H33.0439C33.4452 35.142 33.7812 35.0627 34.0519 34.904C34.3319 34.7453 34.5419 34.526 34.6819 34.246C34.8312 33.966 34.9059 33.644 34.9059 33.28C34.9059 32.916 34.8312 32.594 34.6819 32.314C34.5419 32.034 34.3319 31.8193 34.0519 31.67C33.7812 31.5113 33.4452 31.432 33.0439 31.432H31.0559V29.71H32.8759C33.7346 29.71 34.4626 29.85 35.0599 30.13C35.6666 30.41 36.1286 30.8113 36.4459 31.334C36.7632 31.8473 36.9219 32.4587 36.9219 33.168V33.392C36.9219 34.1013 36.7632 34.7173 36.4459 35.24C36.1286 35.7533 35.6666 36.1547 35.0599 36.444C34.4626 36.724 33.7346 36.864 32.8759 36.864H31.0559ZM29.3479 40V29.71H31.3359V40H29.3479ZM38.4634 40V32.398H40.0034V35.618H39.9614C39.9614 34.526 40.1948 33.7 40.6614 33.14C41.1281 32.58 41.8141 32.3 42.7194 32.3H42.9994V33.994H42.4674C41.8141 33.994 41.3054 34.1713 40.9414 34.526C40.5868 34.8713 40.4094 35.3753 40.4094 36.038V40H38.4634ZM47.9006 40.266C47.2286 40.266 46.636 40.1587 46.1226 39.944C45.6093 39.7293 45.1753 39.44 44.8206 39.076C44.466 38.7027 44.1953 38.2827 44.0086 37.816C43.8313 37.3493 43.7426 36.864 43.7426 36.36V36.066C43.7426 35.5433 43.836 35.0487 44.0226 34.582C44.2186 34.106 44.494 33.686 44.8486 33.322C45.2126 32.9487 45.6513 32.6593 46.1646 32.454C46.678 32.2393 47.2566 32.132 47.9006 32.132C48.5446 32.132 49.1233 32.2393 49.6366 32.454C50.15 32.6593 50.584 32.9487 50.9386 33.322C51.3026 33.686 51.578 34.106 51.7646 34.582C51.9513 35.0487 52.0446 35.5433 52.0446 36.066V36.36C52.0446 36.864 51.9513 37.3493 51.7646 37.816C51.5873 38.2827 51.3213 38.7027 50.9666 39.076C50.612 39.44 50.178 39.7293 49.6646 39.944C49.1513 40.1587 48.5633 40.266 47.9006 40.266ZM47.9006 38.6C48.3766 38.6 48.778 38.4973 49.1046 38.292C49.4313 38.0773 49.6786 37.7927 49.8466 37.438C50.0146 37.074 50.0986 36.6633 50.0986 36.206C50.0986 35.7393 50.01 35.3287 49.8326 34.974C49.6646 34.61 49.4126 34.3253 49.0766 34.12C48.75 33.9053 48.358 33.798 47.9006 33.798C47.4433 33.798 47.0466 33.9053 46.7106 34.12C46.384 34.3253 46.132 34.61 45.9546 34.974C45.7773 35.3287 45.6886 35.7393 45.6886 36.206C45.6886 36.6633 45.7726 37.074 45.9406 37.438C46.118 37.7927 46.37 38.0773 46.6966 38.292C47.0233 38.4973 47.4246 38.6 47.9006 38.6ZM57.0526 40.098C56.3526 40.098 55.7739 40.0093 55.3166 39.832C54.8686 39.6453 54.5326 39.3373 54.3086 38.908C54.0846 38.4693 53.9726 37.8813 53.9726 37.144L53.9866 30.256H55.8066L55.7926 37.27C55.7926 37.6433 55.8906 37.9327 56.0866 38.138C56.2919 38.334 56.5812 38.432 56.9546 38.432H58.1446V40.098H57.0526ZM52.7686 33.826V32.398H58.1446V33.826H52.7686ZM63.3909 40.266C62.7189 40.266 62.1262 40.1587 61.6129 39.944C61.0995 39.7293 60.6655 39.44 60.3109 39.076C59.9562 38.7027 59.6855 38.2827 59.4989 37.816C59.3215 37.3493 59.2329 36.864 59.2329 36.36V36.066C59.2329 35.5433 59.3262 35.0487 59.5129 34.582C59.7089 34.106 59.9842 33.686 60.3389 33.322C60.7029 32.9487 61.1415 32.6593 61.6549 32.454C62.1682 32.2393 62.7469 32.132 63.3909 32.132C64.0349 32.132 64.6135 32.2393 65.1269 32.454C65.6402 32.6593 66.0742 32.9487 66.4289 33.322C66.7929 33.686 67.0682 34.106 67.2549 34.582C67.4415 35.0487 67.5349 35.5433 67.5349 36.066V36.36C67.5349 36.864 67.4415 37.3493 67.2549 37.816C67.0775 38.2827 66.8115 38.7027 66.4569 39.076C66.1022 39.44 65.6682 39.7293 65.1549 39.944C64.6415 40.1587 64.0535 40.266 63.3909 40.266ZM63.3909 38.6C63.8669 38.6 64.2682 38.4973 64.5949 38.292C64.9215 38.0773 65.1689 37.7927 65.3369 37.438C65.5049 37.074 65.5889 36.6633 65.5889 36.206C65.5889 35.7393 65.5002 35.3287 65.3229 34.974C65.1549 34.61 64.9029 34.3253 64.5669 34.12C64.2402 33.9053 63.8482 33.798 63.3909 33.798C62.9335 33.798 62.5369 33.9053 62.2009 34.12C61.8742 34.3253 61.6222 34.61 61.4449 34.974C61.2675 35.3287 61.1789 35.7393 61.1789 36.206C61.1789 36.6633 61.2629 37.074 61.4309 37.438C61.6082 37.7927 61.8602 38.0773 62.1869 38.292C62.5135 38.4973 62.9149 38.6 63.3909 38.6ZM72.5428 40.098C71.8428 40.098 71.2641 40.0093 70.8068 39.832C70.3588 39.6453 70.0228 39.3373 69.7988 38.908C69.5748 38.4693 69.4628 37.8813 69.4628 37.144L69.4768 30.256H71.2968L71.2828 37.27C71.2828 37.6433 71.3808 37.9327 71.5768 38.138C71.7821 38.334 72.0715 38.432 72.4448 38.432H73.6348V40.098H72.5428ZM68.2588 33.826V32.398H73.6348V33.826H68.2588ZM75.0441 42.996V41.33H76.4721C76.7428 41.33 76.9668 41.2927 77.1441 41.218C77.3308 41.1527 77.4848 41.0407 77.6061 40.882C77.7274 40.7327 77.8208 40.5227 77.8861 40.252L79.9301 32.398H81.7921L79.5381 40.672C79.3888 41.2413 79.1788 41.694 78.9081 42.03C78.6374 42.3753 78.2874 42.6227 77.8581 42.772C77.4381 42.9213 76.9154 42.996 76.2901 42.996H75.0441ZM77.4101 39.832V38.292H79.0341V39.832H77.4101ZM76.7521 39.832L74.2881 32.398H76.2481L78.5861 39.832H76.7521ZM83.1294 42.8V32.398H84.6694V35.674L84.4314 35.66C84.4688 34.8853 84.6274 34.2367 84.9074 33.714C85.1968 33.1913 85.5794 32.804 86.0554 32.552C86.5314 32.2907 87.0634 32.16 87.6514 32.16C88.1928 32.16 88.6781 32.258 89.1074 32.454C89.5461 32.65 89.9194 32.9253 90.2274 33.28C90.5448 33.6347 90.7874 34.05 90.9554 34.526C91.1234 34.9927 91.2074 35.4967 91.2074 36.038V36.332C91.2074 36.8827 91.1234 37.396 90.9554 37.872C90.7968 38.3387 90.5588 38.754 90.2414 39.118C89.9334 39.4727 89.5601 39.7527 89.1214 39.958C88.6828 40.154 88.1928 40.252 87.6514 40.252C87.0821 40.252 86.5594 40.1353 86.0834 39.902C85.6168 39.6593 85.2388 39.2907 84.9494 38.796C84.6601 38.292 84.4968 37.6433 84.4594 36.85L85.0754 37.788V42.8H83.1294ZM87.1614 38.614C87.5814 38.614 87.9454 38.5113 88.2534 38.306C88.5708 38.1007 88.8181 37.816 88.9954 37.452C89.1728 37.0787 89.2614 36.6587 89.2614 36.192C89.2614 35.7067 89.1728 35.2867 88.9954 34.932C88.8181 34.5773 88.5708 34.302 88.2534 34.106C87.9454 33.9007 87.5814 33.798 87.1614 33.798C86.7788 33.798 86.4241 33.882 86.0974 34.05C85.7801 34.218 85.5188 34.4653 85.3134 34.792C85.1174 35.1187 85.0194 35.5107 85.0194 35.968V36.528C85.0194 36.9667 85.1221 37.34 85.3274 37.648C85.5328 37.956 85.7988 38.194 86.1254 38.362C86.4521 38.53 86.7974 38.614 87.1614 38.614ZM93.2825 40V32.398H95.2285V40H93.2825ZM92.2185 33.854V32.398H95.2285V33.854H92.2185ZM93.9965 31.488C93.6138 31.488 93.3292 31.39 93.1425 31.194C92.9652 30.9887 92.8765 30.7367 92.8765 30.438C92.8765 30.1207 92.9652 29.864 93.1425 29.668C93.3292 29.472 93.6138 29.374 93.9965 29.374C94.3792 29.374 94.6592 29.472 94.8365 29.668C95.0138 29.864 95.1025 30.1207 95.1025 30.438C95.1025 30.7367 95.0138 30.9887 94.8365 31.194C94.6592 31.39 94.3792 31.488 93.9965 31.488ZM97.4712 40V32.398H99.0112V35.66H98.8712C98.8712 34.8853 98.9739 34.2413 99.1792 33.728C99.3846 33.2053 99.6879 32.8133 100.089 32.552C100.5 32.2907 101.009 32.16 101.615 32.16H101.699C102.605 32.16 103.291 32.454 103.757 33.042C104.224 33.6207 104.457 34.4887 104.457 35.646V40H102.511V35.478C102.511 35.0113 102.376 34.6333 102.105 34.344C101.844 34.0547 101.48 33.91 101.013 33.91C100.537 33.91 100.15 34.0593 99.8512 34.358C99.5619 34.6473 99.4172 35.0393 99.4172 35.534V40H97.4712ZM109.517 42.996C109.153 42.996 108.78 42.982 108.397 42.954C108.024 42.926 107.674 42.8887 107.347 42.842V41.218C107.683 41.2553 108.043 41.288 108.425 41.316C108.808 41.3533 109.167 41.372 109.503 41.372C110.129 41.372 110.633 41.2973 111.015 41.148C111.407 40.9987 111.692 40.7607 111.869 40.434C112.056 40.1167 112.149 39.7107 112.149 39.216V37.718L112.569 36.766C112.541 37.466 112.397 38.0633 112.135 38.558C111.874 39.0433 111.519 39.4167 111.071 39.678C110.623 39.93 110.105 40.056 109.517 40.056C108.995 40.056 108.519 39.958 108.089 39.762C107.669 39.566 107.305 39.2953 106.997 38.95C106.699 38.6047 106.465 38.1987 106.297 37.732C106.129 37.2653 106.045 36.766 106.045 36.234V35.94C106.045 35.408 106.129 34.9133 106.297 34.456C106.475 33.9893 106.722 33.5833 107.039 33.238C107.357 32.8927 107.735 32.6267 108.173 32.44C108.612 32.2533 109.097 32.16 109.629 32.16C110.255 32.16 110.796 32.2953 111.253 32.566C111.72 32.8367 112.084 33.2287 112.345 33.742C112.607 34.2553 112.751 34.8853 112.779 35.632L112.443 35.688V32.398H113.983V39.104C113.983 40.028 113.825 40.7747 113.507 41.344C113.19 41.9133 112.7 42.3287 112.037 42.59C111.384 42.8607 110.544 42.996 109.517 42.996ZM110.077 38.39C110.451 38.39 110.791 38.306 111.099 38.138C111.407 37.97 111.655 37.7273 111.841 37.41C112.028 37.0927 112.121 36.71 112.121 36.262V35.772C112.121 35.3427 112.023 34.9787 111.827 34.68C111.641 34.3813 111.393 34.1573 111.085 34.008C110.777 33.8493 110.441 33.77 110.077 33.77C109.667 33.77 109.303 33.868 108.985 34.064C108.677 34.2507 108.435 34.5167 108.257 34.862C108.08 35.2073 107.991 35.618 107.991 36.094C107.991 36.5607 108.08 36.9667 108.257 37.312C108.435 37.6573 108.677 37.9233 108.985 38.11C109.303 38.2967 109.667 38.39 110.077 38.39Z" fill="#111213"/>
<path d="M14.6212 7.03616C15.0972 6.91716 15.1349 6.25521 14.6755 6.08293L1.20895 1.03296C0.807002 0.882232 0.41449 1.27474 0.565219 1.67669L5.61519 15.1433C5.78746 15.6027 6.44942 15.565 6.56842 15.089L8.10622 8.93777C8.15101 8.75863 8.29088 8.61875 8.47003 8.57396L14.6212 7.03616Z" fill="#FF7733"/>
</svg>
