<svg width="184" height="54" viewBox="0 0 184 54" fill="none" xmlns="http://www.w3.org/2000/svg">
<rect x="16" y="16" width="168" height="38" rx="4" fill="#11AE5C"/>
<path d="M30.2248 40V29.78H32.2128V40H30.2248ZM31.9328 35.744V34.064L36.0208 34.05V35.73L31.9328 35.744ZM31.9328 31.46V29.78H36.2168V31.46H31.9328ZM37.8091 40V32.398H39.3491V35.618H39.3071C39.3071 34.526 39.5405 33.7 40.0071 33.14C40.4738 32.58 41.1598 32.3 42.0651 32.3H42.3451V33.994H41.8131C41.1598 33.994 40.6511 34.1713 40.2871 34.526C39.9325 34.8713 39.7551 35.3753 39.7551 36.038V40H37.8091ZM47.2463 40.266C46.5743 40.266 45.9817 40.1587 45.4683 39.944C44.955 39.7293 44.521 39.44 44.1663 39.076C43.8117 38.7027 43.541 38.2827 43.3543 37.816C43.177 37.3493 43.0883 36.864 43.0883 36.36V36.066C43.0883 35.5433 43.1817 35.0487 43.3683 34.582C43.5643 34.106 43.8397 33.686 44.1943 33.322C44.5583 32.9487 44.997 32.6593 45.5103 32.454C46.0237 32.2393 46.6023 32.132 47.2463 32.132C47.8903 32.132 48.469 32.2393 48.9823 32.454C49.4957 32.6593 49.9297 32.9487 50.2843 33.322C50.6483 33.686 50.9237 34.106 51.1103 34.582C51.297 35.0487 51.3903 35.5433 51.3903 36.066V36.36C51.3903 36.864 51.297 37.3493 51.1103 37.816C50.933 38.2827 50.667 38.7027 50.3123 39.076C49.9577 39.44 49.5237 39.7293 49.0103 39.944C48.497 40.1587 47.909 40.266 47.2463 40.266ZM47.2463 38.6C47.7223 38.6 48.1237 38.4973 48.4503 38.292C48.777 38.0773 49.0243 37.7927 49.1923 37.438C49.3603 37.074 49.4443 36.6633 49.4443 36.206C49.4443 35.7393 49.3557 35.3287 49.1783 34.974C49.0103 34.61 48.7583 34.3253 48.4223 34.12C48.0957 33.9053 47.7037 33.798 47.2463 33.798C46.789 33.798 46.3923 33.9053 46.0563 34.12C45.7297 34.3253 45.4777 34.61 45.3003 34.974C45.123 35.3287 45.0343 35.7393 45.0343 36.206C45.0343 36.6633 45.1183 37.074 45.2863 37.438C45.4637 37.7927 45.7157 38.0773 46.0423 38.292C46.369 38.4973 46.7703 38.6 47.2463 38.6ZM53.0943 40V32.398H54.6343V35.66H54.4943C54.4943 34.8853 54.5969 34.2413 54.8023 33.728C55.0076 33.2053 55.3109 32.8133 55.7123 32.552C56.1229 32.2907 56.6316 32.16 57.2383 32.16H57.3223C58.2276 32.16 58.9136 32.454 59.3803 33.042C59.8469 33.6207 60.0803 34.4887 60.0803 35.646V40H58.1343V35.478C58.1343 35.0113 57.9989 34.6333 57.7283 34.344C57.4669 34.0547 57.1029 33.91 56.6363 33.91C56.1603 33.91 55.7729 34.0593 55.4743 34.358C55.1849 34.6473 55.0403 35.0393 55.0403 35.534V40H53.0943ZM65.4764 40.098C64.7764 40.098 64.1977 40.0093 63.7404 39.832C63.2924 39.6453 62.9564 39.3373 62.7324 38.908C62.5084 38.4693 62.3964 37.8813 62.3964 37.144L62.4104 30.256H64.2304L64.2164 37.27C64.2164 37.6433 64.3144 37.9327 64.5104 38.138C64.7157 38.334 65.0051 38.432 65.3784 38.432H66.5684V40.098H65.4764ZM61.1924 33.826V32.398H66.5684V33.826H61.1924ZM71.5627 40.266C70.9094 40.266 70.3354 40.154 69.8407 39.93C69.3554 39.706 68.9494 39.4073 68.6227 39.034C68.3054 38.6513 68.0627 38.2267 67.8947 37.76C67.736 37.2933 67.6567 36.8173 67.6567 36.332V36.066C67.6567 35.562 67.736 35.0767 67.8947 34.61C68.0627 34.134 68.3054 33.714 68.6227 33.35C68.9494 32.9767 69.3507 32.6827 69.8267 32.468C70.3027 32.244 70.8534 32.132 71.4787 32.132C72.3 32.132 72.986 32.314 73.5367 32.678C74.0967 33.0327 74.5167 33.504 74.7967 34.092C75.0767 34.6707 75.2167 35.296 75.2167 35.968V36.668H68.4827V35.478H73.9987L73.3967 36.066C73.3967 35.5807 73.3267 35.1653 73.1867 34.82C73.0467 34.4747 72.832 34.2087 72.5427 34.022C72.2627 33.8353 71.908 33.742 71.4787 33.742C71.0494 33.742 70.6854 33.84 70.3867 34.036C70.088 34.232 69.8594 34.5167 69.7007 34.89C69.5514 35.254 69.4767 35.6927 69.4767 36.206C69.4767 36.682 69.5514 37.1067 69.7007 37.48C69.85 37.844 70.0787 38.1333 70.3867 38.348C70.6947 38.5533 71.0867 38.656 71.5627 38.656C72.0387 38.656 72.426 38.5627 72.7247 38.376C73.0234 38.18 73.2147 37.942 73.2987 37.662H75.0907C74.9787 38.1847 74.764 38.642 74.4467 39.034C74.1294 39.426 73.7234 39.7293 73.2287 39.944C72.7434 40.1587 72.188 40.266 71.5627 40.266ZM76.8423 40V32.398H78.3823V35.66H78.2423C78.2423 34.8853 78.345 34.2413 78.5503 33.728C78.7557 33.2053 79.059 32.8133 79.4603 32.552C79.871 32.2907 80.3797 32.16 80.9863 32.16H81.0703C81.9757 32.16 82.6617 32.454 83.1283 33.042C83.595 33.6207 83.8283 34.4887 83.8283 35.646V40H81.8823V35.478C81.8823 35.0113 81.747 34.6333 81.4763 34.344C81.215 34.0547 80.851 33.91 80.3843 33.91C79.9083 33.91 79.521 34.0593 79.2223 34.358C78.933 34.6473 78.7883 35.0393 78.7883 35.534V40H76.8423ZM89.0705 40.252C88.5385 40.252 88.0485 40.154 87.6005 39.958C87.1525 39.762 86.7651 39.4867 86.4385 39.132C86.1118 38.7773 85.8598 38.3667 85.6825 37.9C85.5051 37.424 85.4165 36.9107 85.4165 36.36V36.066C85.4165 35.5247 85.5005 35.016 85.6685 34.54C85.8458 34.064 86.0885 33.6487 86.3965 33.294C86.7138 32.9393 87.0918 32.664 87.5305 32.468C87.9785 32.2627 88.4731 32.16 89.0145 32.16C89.6118 32.16 90.1345 32.2907 90.5825 32.552C91.0398 32.804 91.4038 33.1867 91.6745 33.7C91.9451 34.2133 92.0945 34.8573 92.1225 35.632L91.5485 34.96V29.78H93.4945V40H91.9545V36.766H92.2905C92.2625 37.5407 92.1038 38.1893 91.8145 38.712C91.5251 39.2253 91.1425 39.6127 90.6665 39.874C90.1998 40.126 89.6678 40.252 89.0705 40.252ZM89.5045 38.614C89.8871 38.614 90.2371 38.53 90.5545 38.362C90.8718 38.1847 91.1238 37.9327 91.3105 37.606C91.5065 37.27 91.6045 36.878 91.6045 36.43V35.87C91.6045 35.422 91.5065 35.0487 91.3105 34.75C91.1145 34.442 90.8578 34.2087 90.5405 34.05C90.2231 33.882 89.8778 33.798 89.5045 33.798C89.0845 33.798 88.7111 33.9007 88.3845 34.106C88.0671 34.302 87.8151 34.582 87.6285 34.946C87.4511 35.31 87.3625 35.7347 87.3625 36.22C87.3625 36.7053 87.4558 37.13 87.6425 37.494C87.8291 37.8487 88.0811 38.124 88.3985 38.32C88.7251 38.516 89.0938 38.614 89.5045 38.614ZM100.593 40.056V38.208H102.707C103.239 38.208 103.71 38.1287 104.121 37.97C104.541 37.802 104.896 37.5687 105.185 37.27C105.474 36.9713 105.694 36.6213 105.843 36.22C106.002 35.8093 106.081 35.3567 106.081 34.862C106.081 34.3487 106.002 33.8913 105.843 33.49C105.694 33.0793 105.474 32.7293 105.185 32.44C104.896 32.1507 104.541 31.9313 104.121 31.782C103.71 31.6327 103.239 31.558 102.707 31.558H100.593V29.71H102.581C103.505 29.71 104.312 29.8453 105.003 30.116C105.694 30.3867 106.268 30.76 106.725 31.236C107.182 31.7027 107.523 32.2393 107.747 32.846C107.98 33.4433 108.097 34.064 108.097 34.708V35.016C108.097 35.632 107.98 36.2387 107.747 36.836C107.523 37.4333 107.182 37.9747 106.725 38.46C106.268 38.9453 105.694 39.3327 105.003 39.622C104.312 39.9113 103.505 40.056 102.581 40.056H100.593ZM98.885 40.056V29.71H100.873V40.056H98.885ZM113.125 40.266C112.472 40.266 111.898 40.154 111.403 39.93C110.918 39.706 110.512 39.4073 110.185 39.034C109.868 38.6513 109.625 38.2267 109.457 37.76C109.299 37.2933 109.219 36.8173 109.219 36.332V36.066C109.219 35.562 109.299 35.0767 109.457 34.61C109.625 34.134 109.868 33.714 110.185 33.35C110.512 32.9767 110.913 32.6827 111.389 32.468C111.865 32.244 112.416 32.132 113.041 32.132C113.863 32.132 114.549 32.314 115.099 32.678C115.659 33.0327 116.079 33.504 116.359 34.092C116.639 34.6707 116.779 35.296 116.779 35.968V36.668H110.045V35.478H115.561L114.959 36.066C114.959 35.5807 114.889 35.1653 114.749 34.82C114.609 34.4747 114.395 34.2087 114.105 34.022C113.825 33.8353 113.471 33.742 113.041 33.742C112.612 33.742 112.248 33.84 111.949 34.036C111.651 34.232 111.422 34.5167 111.263 34.89C111.114 35.254 111.039 35.6927 111.039 36.206C111.039 36.682 111.114 37.1067 111.263 37.48C111.413 37.844 111.641 38.1333 111.949 38.348C112.257 38.5533 112.649 38.656 113.125 38.656C113.601 38.656 113.989 38.5627 114.287 38.376C114.586 38.18 114.777 37.942 114.861 37.662H116.653C116.541 38.1847 116.327 38.642 116.009 39.034C115.692 39.426 115.286 39.7293 114.791 39.944C114.306 40.1587 113.751 40.266 113.125 40.266ZM119.862 40L117.482 32.398H119.484L121.766 40H119.862ZM120.436 40V38.404H122.494V40H120.436ZM121.206 40L123.166 32.398H125.042L122.984 40H121.206ZM129.75 40.266C129.097 40.266 128.523 40.154 128.028 39.93C127.543 39.706 127.137 39.4073 126.81 39.034C126.493 38.6513 126.25 38.2267 126.082 37.76C125.924 37.2933 125.844 36.8173 125.844 36.332V36.066C125.844 35.562 125.924 35.0767 126.082 34.61C126.25 34.134 126.493 33.714 126.81 33.35C127.137 32.9767 127.538 32.6827 128.014 32.468C128.49 32.244 129.041 32.132 129.666 32.132C130.488 32.132 131.174 32.314 131.724 32.678C132.284 33.0327 132.704 33.504 132.984 34.092C133.264 34.6707 133.404 35.296 133.404 35.968V36.668H126.67V35.478H132.186L131.584 36.066C131.584 35.5807 131.514 35.1653 131.374 34.82C131.234 34.4747 131.02 34.2087 130.73 34.022C130.45 33.8353 130.096 33.742 129.666 33.742C129.237 33.742 128.873 33.84 128.574 34.036C128.276 34.232 128.047 34.5167 127.888 34.89C127.739 35.254 127.664 35.6927 127.664 36.206C127.664 36.682 127.739 37.1067 127.888 37.48C128.038 37.844 128.266 38.1333 128.574 38.348C128.882 38.5533 129.274 38.656 129.75 38.656C130.226 38.656 130.614 38.5627 130.912 38.376C131.211 38.18 131.402 37.942 131.486 37.662H133.278C133.166 38.1847 132.952 38.642 132.634 39.034C132.317 39.426 131.911 39.7293 131.416 39.944C130.931 40.1587 130.376 40.266 129.75 40.266ZM135.128 40V29.78H137.074V40H135.128ZM134.176 31.236V29.78H137.074V31.236H134.176ZM142.949 40.266C142.277 40.266 141.685 40.1587 141.171 39.944C140.658 39.7293 140.224 39.44 139.869 39.076C139.515 38.7027 139.244 38.2827 139.057 37.816C138.88 37.3493 138.791 36.864 138.791 36.36V36.066C138.791 35.5433 138.885 35.0487 139.071 34.582C139.267 34.106 139.543 33.686 139.897 33.322C140.261 32.9487 140.7 32.6593 141.213 32.454C141.727 32.2393 142.305 32.132 142.949 32.132C143.593 32.132 144.172 32.2393 144.685 32.454C145.199 32.6593 145.633 32.9487 145.987 33.322C146.351 33.686 146.627 34.106 146.813 34.582C147 35.0487 147.093 35.5433 147.093 36.066V36.36C147.093 36.864 147 37.3493 146.813 37.816C146.636 38.2827 146.37 38.7027 146.015 39.076C145.661 39.44 145.227 39.7293 144.713 39.944C144.2 40.1587 143.612 40.266 142.949 40.266ZM142.949 38.6C143.425 38.6 143.827 38.4973 144.153 38.292C144.48 38.0773 144.727 37.7927 144.895 37.438C145.063 37.074 145.147 36.6633 145.147 36.206C145.147 35.7393 145.059 35.3287 144.881 34.974C144.713 34.61 144.461 34.3253 144.125 34.12C143.799 33.9053 143.407 33.798 142.949 33.798C142.492 33.798 142.095 33.9053 141.759 34.12C141.433 34.3253 141.181 34.61 141.003 34.974C140.826 35.3287 140.737 35.7393 140.737 36.206C140.737 36.6633 140.821 37.074 140.989 37.438C141.167 37.7927 141.419 38.0773 141.745 38.292C142.072 38.4973 142.473 38.6 142.949 38.6ZM148.797 42.8V32.398H150.337V35.674L150.099 35.66C150.137 34.8853 150.295 34.2367 150.575 33.714C150.865 33.1913 151.247 32.804 151.723 32.552C152.199 32.2907 152.731 32.16 153.319 32.16C153.861 32.16 154.346 32.258 154.775 32.454C155.214 32.65 155.587 32.9253 155.895 33.28C156.213 33.6347 156.455 34.05 156.623 34.526C156.791 34.9927 156.875 35.4967 156.875 36.038V36.332C156.875 36.8827 156.791 37.396 156.623 37.872C156.465 38.3387 156.227 38.754 155.909 39.118C155.601 39.4727 155.228 39.7527 154.789 39.958C154.351 40.154 153.861 40.252 153.319 40.252C152.75 40.252 152.227 40.1353 151.751 39.902C151.285 39.6593 150.907 39.2907 150.617 38.796C150.328 38.292 150.165 37.6433 150.127 36.85L150.743 37.788V42.8H148.797ZM152.829 38.614C153.249 38.614 153.613 38.5113 153.921 38.306C154.239 38.1007 154.486 37.816 154.663 37.452C154.841 37.0787 154.929 36.6587 154.929 36.192C154.929 35.7067 154.841 35.2867 154.663 34.932C154.486 34.5773 154.239 34.302 153.921 34.106C153.613 33.9007 153.249 33.798 152.829 33.798C152.447 33.798 152.092 33.882 151.765 34.05C151.448 34.218 151.187 34.4653 150.981 34.792C150.785 35.1187 150.687 35.5107 150.687 35.968V36.528C150.687 36.9667 150.79 37.34 150.995 37.648C151.201 37.956 151.467 38.194 151.793 38.362C152.12 38.53 152.465 38.614 152.829 38.614ZM161.988 40.266C161.335 40.266 160.761 40.154 160.266 39.93C159.781 39.706 159.375 39.4073 159.048 39.034C158.731 38.6513 158.488 38.2267 158.32 37.76C158.162 37.2933 158.082 36.8173 158.082 36.332V36.066C158.082 35.562 158.162 35.0767 158.32 34.61C158.488 34.134 158.731 33.714 159.048 33.35C159.375 32.9767 159.776 32.6827 160.252 32.468C160.728 32.244 161.279 32.132 161.904 32.132C162.726 32.132 163.412 32.314 163.962 32.678C164.522 33.0327 164.942 33.504 165.222 34.092C165.502 34.6707 165.642 35.296 165.642 35.968V36.668H158.908V35.478H164.424L163.822 36.066C163.822 35.5807 163.752 35.1653 163.612 34.82C163.472 34.4747 163.258 34.2087 162.968 34.022C162.688 33.8353 162.334 33.742 161.904 33.742C161.475 33.742 161.111 33.84 160.812 34.036C160.514 34.232 160.285 34.5167 160.126 34.89C159.977 35.254 159.902 35.6927 159.902 36.206C159.902 36.682 159.977 37.1067 160.126 37.48C160.276 37.844 160.504 38.1333 160.812 38.348C161.12 38.5533 161.512 38.656 161.988 38.656C162.464 38.656 162.852 38.5627 163.15 38.376C163.449 38.18 163.64 37.942 163.724 37.662H165.516C165.404 38.1847 165.19 38.642 164.872 39.034C164.555 39.426 164.149 39.7293 163.654 39.944C163.169 40.1587 162.614 40.266 161.988 40.266ZM167.268 40V32.398H168.808V35.618H168.766C168.766 34.526 168.999 33.7 169.466 33.14C169.933 32.58 170.619 32.3 171.524 32.3H171.804V33.994H171.272C170.619 33.994 170.11 34.1713 169.746 34.526C169.391 34.8713 169.214 35.3753 169.214 36.038V40H167.268Z" fill="white"/>
<path d="M14.6212 7.03616C15.0972 6.91716 15.1349 6.25521 14.6755 6.08293L1.20895 1.03296C0.807002 0.882232 0.41449 1.27474 0.565219 1.67669L5.61519 15.1433C5.78746 15.6027 6.44942 15.565 6.56842 15.089L8.10622 8.93777C8.15101 8.75862 8.29088 8.61875 8.47003 8.57396L14.6212 7.03616Z" fill="#11AE5C"/>
</svg>
