<svg width="147" height="50" viewBox="0 0 147 50" fill="none" xmlns="http://www.w3.org/2000/svg">
<rect x="16" y="16" width="131" height="34" rx="10" fill="#FF3377"/>
<path d="M31.136 38.056V36.208H33.25C33.782 36.208 34.2533 36.1287 34.664 35.97C35.084 35.802 35.4386 35.5687 35.728 35.27C36.0173 34.9713 36.2366 34.6213 36.386 34.22C36.5446 33.8093 36.624 33.3567 36.624 32.862C36.624 32.3487 36.5446 31.8913 36.386 31.49C36.2366 31.0793 36.0173 30.7293 35.728 30.44C35.4386 30.1507 35.084 29.9313 34.664 29.782C34.2533 29.6327 33.782 29.558 33.25 29.558H31.136V27.71H33.124C34.048 27.71 34.8553 27.8453 35.546 28.116C36.2366 28.3867 36.8106 28.76 37.268 29.236C37.7253 29.7027 38.066 30.2393 38.29 30.846C38.5233 31.4433 38.64 32.064 38.64 32.708V33.016C38.64 33.632 38.5233 34.2387 38.29 34.836C38.066 35.4333 37.7253 35.9747 37.268 36.46C36.8106 36.9453 36.2366 37.3327 35.546 37.622C34.8553 37.9113 34.048 38.056 33.124 38.056H31.136ZM29.428 38.056V27.71H31.416V38.056H29.428ZM43.6682 38.266C43.0148 38.266 42.4408 38.154 41.9462 37.93C41.4608 37.706 41.0548 37.4073 40.7282 37.034C40.4108 36.6513 40.1682 36.2267 40.0002 35.76C39.8415 35.2933 39.7622 34.8173 39.7622 34.332V34.066C39.7622 33.562 39.8415 33.0767 40.0002 32.61C40.1682 32.134 40.4108 31.714 40.7282 31.35C41.0548 30.9767 41.4562 30.6827 41.9322 30.468C42.4082 30.244 42.9588 30.132 43.5842 30.132C44.4055 30.132 45.0915 30.314 45.6422 30.678C46.2022 31.0327 46.6222 31.504 46.9022 32.092C47.1822 32.6707 47.3222 33.296 47.3222 33.968V34.668H40.5882V33.478H46.1042L45.5022 34.066C45.5022 33.5807 45.4322 33.1653 45.2922 32.82C45.1522 32.4747 44.9375 32.2087 44.6482 32.022C44.3682 31.8353 44.0135 31.742 43.5842 31.742C43.1548 31.742 42.7908 31.84 42.4922 32.036C42.1935 32.232 41.9648 32.5167 41.8062 32.89C41.6568 33.254 41.5822 33.6927 41.5822 34.206C41.5822 34.682 41.6568 35.1067 41.8062 35.48C41.9555 35.844 42.1842 36.1333 42.4922 36.348C42.8002 36.5533 43.1922 36.656 43.6682 36.656C44.1442 36.656 44.5315 36.5627 44.8302 36.376C45.1288 36.18 45.3202 35.942 45.4042 35.662H47.1962C47.0842 36.1847 46.8695 36.642 46.5522 37.034C46.2348 37.426 45.8288 37.7293 45.3342 37.944C44.8488 38.1587 44.2935 38.266 43.6682 38.266ZM51.7058 38.238C50.6605 38.238 49.8391 38.0187 49.2418 37.58C48.6538 37.132 48.3458 36.516 48.3178 35.732H50.0678C50.0958 35.9933 50.2405 36.2313 50.5018 36.446C50.7631 36.6607 51.1738 36.768 51.7338 36.768C52.2005 36.768 52.5691 36.684 52.8398 36.516C53.1198 36.348 53.2598 36.1193 53.2598 35.83C53.2598 35.578 53.1525 35.3773 52.9378 35.228C52.7325 35.0787 52.3778 34.9807 51.8738 34.934L51.2018 34.864C50.3525 34.7707 49.6991 34.528 49.2418 34.136C48.7845 33.744 48.5558 33.2213 48.5558 32.568C48.5558 32.0453 48.6865 31.6067 48.9478 31.252C49.2091 30.8973 49.5685 30.6313 50.0258 30.454C50.4925 30.2673 51.0245 30.174 51.6218 30.174C52.5551 30.174 53.3111 30.3793 53.8898 30.79C54.4685 31.2007 54.7718 31.8027 54.7998 32.596H53.0498C53.0311 32.3347 52.9005 32.1107 52.6578 31.924C52.4151 31.7373 52.0651 31.644 51.6078 31.644C51.1971 31.644 50.8798 31.7233 50.6558 31.882C50.4318 32.0407 50.3198 32.246 50.3198 32.498C50.3198 32.7407 50.4085 32.9273 50.5858 33.058C50.7725 33.1887 51.0711 33.2773 51.4818 33.324L52.1538 33.394C53.0498 33.4873 53.7498 33.7347 54.2538 34.136C54.7671 34.5373 55.0238 35.0787 55.0238 35.76C55.0238 36.264 54.8838 36.7027 54.6038 37.076C54.3331 37.44 53.9505 37.7247 53.4558 37.93C52.9611 38.1353 52.3778 38.238 51.7058 38.238ZM56.9954 38V30.398H58.9414V38H56.9954ZM55.9314 31.854V30.398H58.9414V31.854H55.9314ZM57.7094 29.488C57.3267 29.488 57.0421 29.39 56.8554 29.194C56.6781 28.9887 56.5894 28.7367 56.5894 28.438C56.5894 28.1207 56.6781 27.864 56.8554 27.668C57.0421 27.472 57.3267 27.374 57.7094 27.374C58.0921 27.374 58.3721 27.472 58.5494 27.668C58.7267 27.864 58.8154 28.1207 58.8154 28.438C58.8154 28.7367 58.7267 28.9887 58.5494 29.194C58.3721 29.39 58.0921 29.488 57.7094 29.488ZM64.1521 40.996C63.7881 40.996 63.4148 40.982 63.0321 40.954C62.6588 40.926 62.3088 40.8887 61.9821 40.842V39.218C62.3181 39.2553 62.6775 39.288 63.0601 39.316C63.4428 39.3533 63.8021 39.372 64.1381 39.372C64.7635 39.372 65.2675 39.2973 65.6501 39.148C66.0421 38.9987 66.3268 38.7607 66.5041 38.434C66.6908 38.1167 66.7841 37.7107 66.7841 37.216V35.718L67.2041 34.766C67.1761 35.466 67.0315 36.0633 66.7701 36.558C66.5088 37.0433 66.1541 37.4167 65.7061 37.678C65.2581 37.93 64.7401 38.056 64.1521 38.056C63.6295 38.056 63.1535 37.958 62.7241 37.762C62.3041 37.566 61.9401 37.2953 61.6321 36.95C61.3335 36.6047 61.1001 36.1987 60.9321 35.732C60.7641 35.2653 60.6801 34.766 60.6801 34.234V33.94C60.6801 33.408 60.7641 32.9133 60.9321 32.456C61.1095 31.9893 61.3568 31.5833 61.6741 31.238C61.9915 30.8927 62.3695 30.6267 62.8081 30.44C63.2468 30.2533 63.7321 30.16 64.2641 30.16C64.8895 30.16 65.4308 30.2953 65.8881 30.566C66.3548 30.8367 66.7188 31.2287 66.9801 31.742C67.2415 32.2553 67.3861 32.8853 67.4141 33.632L67.0781 33.688V30.398H68.6181V37.104C68.6181 38.028 68.4595 38.7747 68.1421 39.344C67.8248 39.9133 67.3348 40.3287 66.6721 40.59C66.0188 40.8607 65.1788 40.996 64.1521 40.996ZM64.7121 36.39C65.0855 36.39 65.4261 36.306 65.7341 36.138C66.0421 35.97 66.2895 35.7273 66.4761 35.41C66.6628 35.0927 66.7561 34.71 66.7561 34.262V33.772C66.7561 33.3427 66.6581 32.9787 66.4621 32.68C66.2755 32.3813 66.0281 32.1573 65.7201 32.008C65.4121 31.8493 65.0761 31.77 64.7121 31.77C64.3015 31.77 63.9375 31.868 63.6201 32.064C63.3121 32.2507 63.0695 32.5167 62.8921 32.862C62.7148 33.2073 62.6261 33.618 62.6261 34.094C62.6261 34.5607 62.7148 34.9667 62.8921 35.312C63.0695 35.6573 63.3121 35.9233 63.6201 36.11C63.9375 36.2967 64.3015 36.39 64.7121 36.39ZM70.7408 38V30.398H72.2808V33.66H72.1408C72.1408 32.8853 72.2434 32.2413 72.4488 31.728C72.6541 31.2053 72.9574 30.8133 73.3588 30.552C73.7694 30.2907 74.2781 30.16 74.8848 30.16H74.9688C75.8741 30.16 76.5601 30.454 77.0268 31.042C77.4934 31.6207 77.7268 32.4887 77.7268 33.646V38H75.7808V33.478C75.7808 33.0113 75.6454 32.6333 75.3748 32.344C75.1134 32.0547 74.7494 31.91 74.2828 31.91C73.8068 31.91 73.4194 32.0593 73.1208 32.358C72.8314 32.6473 72.6868 33.0393 72.6868 33.534V38H70.7408ZM86.4804 38.266C85.575 38.266 84.8097 38.1213 84.1844 37.832C83.5684 37.5427 83.097 37.146 82.7704 36.642C82.4437 36.1287 82.2804 35.55 82.2804 34.906H84.2264C84.2264 35.1767 84.301 35.4427 84.4504 35.704C84.5997 35.956 84.8377 36.1613 85.1644 36.32C85.5004 36.4787 85.939 36.558 86.4804 36.558C86.9657 36.558 87.3717 36.488 87.6984 36.348C88.025 36.208 88.2677 36.026 88.4264 35.802C88.585 35.5687 88.6644 35.3073 88.6644 35.018C88.6644 34.654 88.5104 34.3647 88.2024 34.15C87.8944 33.926 87.4184 33.786 86.7744 33.73L85.8784 33.66C84.8984 33.576 84.1144 33.2727 83.5264 32.75C82.9477 32.218 82.6584 31.518 82.6584 30.65C82.6584 29.9967 82.8124 29.4367 83.1204 28.97C83.4284 28.494 83.8577 28.13 84.4084 27.878C84.9684 27.6167 85.6217 27.486 86.3684 27.486C87.143 27.486 87.8104 27.6213 88.3704 27.892C88.9304 28.1627 89.3644 28.5453 89.6724 29.04C89.9804 29.5253 90.1344 30.0993 90.1344 30.762H88.1884C88.1884 30.482 88.1184 30.2253 87.9784 29.992C87.8477 29.7493 87.647 29.558 87.3764 29.418C87.115 29.2687 86.779 29.194 86.3684 29.194C85.9764 29.194 85.6497 29.2593 85.3884 29.39C85.127 29.5207 84.931 29.698 84.8004 29.922C84.6697 30.146 84.6044 30.3887 84.6044 30.65C84.6044 30.9673 84.721 31.2473 84.9544 31.49C85.1877 31.7233 85.5564 31.8587 86.0604 31.896L86.9564 31.98C87.6844 32.036 88.3237 32.19 88.8744 32.442C89.425 32.694 89.8497 33.0347 90.1484 33.464C90.4564 33.8933 90.6104 34.4113 90.6104 35.018C90.6104 35.662 90.4424 36.2313 90.1064 36.726C89.7704 37.2113 89.2897 37.5893 88.6644 37.86C88.0484 38.1307 87.3204 38.266 86.4804 38.266ZM92.05 40.996V39.33H93.478C93.7486 39.33 93.9726 39.2927 94.15 39.218C94.3366 39.1527 94.4906 39.0407 94.612 38.882C94.7333 38.7327 94.8266 38.5227 94.892 38.252L96.936 30.398H98.798L96.544 38.672C96.3946 39.2413 96.1846 39.694 95.914 40.03C95.6433 40.3753 95.2933 40.6227 94.864 40.772C94.444 40.9213 93.9213 40.996 93.296 40.996H92.05ZM94.416 37.832V36.292H96.04V37.832H94.416ZM93.758 37.832L91.294 30.398H93.254L95.592 37.832H93.758ZM102.825 38.238C101.78 38.238 100.958 38.0187 100.361 37.58C99.7729 37.132 99.4649 36.516 99.4369 35.732H101.187C101.215 35.9933 101.36 36.2313 101.621 36.446C101.882 36.6607 102.293 36.768 102.853 36.768C103.32 36.768 103.688 36.684 103.959 36.516C104.239 36.348 104.379 36.1193 104.379 35.83C104.379 35.578 104.272 35.3773 104.057 35.228C103.852 35.0787 103.497 34.9807 102.993 34.934L102.321 34.864C101.472 34.7707 100.818 34.528 100.361 34.136C99.9036 33.744 99.6749 33.2213 99.6749 32.568C99.6749 32.0453 99.8056 31.6067 100.067 31.252C100.328 30.8973 100.688 30.6313 101.145 30.454C101.612 30.2673 102.144 30.174 102.741 30.174C103.674 30.174 104.43 30.3793 105.009 30.79C105.588 31.2007 105.891 31.8027 105.919 32.596H104.169C104.15 32.3347 104.02 32.1107 103.777 31.924C103.534 31.7373 103.184 31.644 102.727 31.644C102.316 31.644 101.999 31.7233 101.775 31.882C101.551 32.0407 101.439 32.246 101.439 32.498C101.439 32.7407 101.528 32.9273 101.705 33.058C101.892 33.1887 102.19 33.2773 102.601 33.324L103.273 33.394C104.169 33.4873 104.869 33.7347 105.373 34.136C105.886 34.5373 106.143 35.0787 106.143 35.76C106.143 36.264 106.003 36.7027 105.723 37.076C105.452 37.44 105.07 37.7247 104.575 37.93C104.08 38.1353 103.497 38.238 102.825 38.238ZM111.055 38.098C110.355 38.098 109.776 38.0093 109.319 37.832C108.871 37.6453 108.535 37.3373 108.311 36.908C108.087 36.4693 107.975 35.8813 107.975 35.144L107.989 28.256H109.809L109.795 35.27C109.795 35.6433 109.893 35.9327 110.089 36.138C110.294 36.334 110.583 36.432 110.957 36.432H112.147V38.098H111.055ZM106.771 31.826V30.398H112.147V31.826H106.771ZM117.141 38.266C116.487 38.266 115.913 38.154 115.419 37.93C114.933 37.706 114.527 37.4073 114.201 37.034C113.883 36.6513 113.641 36.2267 113.473 35.76C113.314 35.2933 113.235 34.8173 113.235 34.332V34.066C113.235 33.562 113.314 33.0767 113.473 32.61C113.641 32.134 113.883 31.714 114.201 31.35C114.527 30.9767 114.929 30.6827 115.405 30.468C115.881 30.244 116.431 30.132 117.057 30.132C117.878 30.132 118.564 30.314 119.115 30.678C119.675 31.0327 120.095 31.504 120.375 32.092C120.655 32.6707 120.795 33.296 120.795 33.968V34.668H114.061V33.478H119.577L118.975 34.066C118.975 33.5807 118.905 33.1653 118.765 32.82C118.625 32.4747 118.41 32.2087 118.121 32.022C117.841 31.8353 117.486 31.742 117.057 31.742C116.627 31.742 116.263 31.84 115.965 32.036C115.666 32.232 115.437 32.5167 115.279 32.89C115.129 33.254 115.055 33.6927 115.055 34.206C115.055 34.682 115.129 35.1067 115.279 35.48C115.428 35.844 115.657 36.1333 115.965 36.348C116.273 36.5533 116.665 36.656 117.141 36.656C117.617 36.656 118.004 36.5627 118.303 36.376C118.601 36.18 118.793 35.942 118.877 35.662H120.669C120.557 36.1847 120.342 36.642 120.025 37.034C119.707 37.426 119.301 37.7293 118.807 37.944C118.321 38.1587 117.766 38.266 117.141 38.266ZM122.42 38V30.398H123.96V33.66H123.82C123.82 32.8947 123.918 32.2553 124.114 31.742C124.31 31.2193 124.6 30.8273 124.982 30.566C125.374 30.2953 125.86 30.16 126.438 30.16H126.522C127.11 30.16 127.596 30.2953 127.978 30.566C128.37 30.8273 128.66 31.2193 128.846 31.742C129.042 32.2553 129.14 32.8947 129.14 33.66H128.65C128.65 32.8947 128.748 32.2553 128.944 31.742C129.15 31.2193 129.444 30.8273 129.826 30.566C130.218 30.2953 130.704 30.16 131.282 30.16H131.366C131.954 30.16 132.444 30.2953 132.836 30.566C133.228 30.8273 133.522 31.2193 133.718 31.742C133.924 32.2553 134.026 32.8947 134.026 33.66V38H132.08V33.478C132.08 33.002 131.959 32.624 131.716 32.344C131.474 32.0547 131.128 31.91 130.68 31.91C130.232 31.91 129.873 32.0593 129.602 32.358C129.332 32.6473 129.196 33.0393 129.196 33.534V38H127.25V33.478C127.25 33.002 127.129 32.624 126.886 32.344C126.644 32.0547 126.298 31.91 125.85 31.91C125.402 31.91 125.043 32.0593 124.772 32.358C124.502 32.6473 124.366 33.0393 124.366 33.534V38H122.42Z" fill="#0C0F14"/>
<path d="M17.6936 8.89977C19.1734 8.52981 19.2208 6.44401 17.7592 6.00733L3.66198 1.79535C2.51884 1.4538 1.4538 2.51885 1.79535 3.66198L6.00733 17.7592C6.44401 19.2208 8.52981 19.1734 8.89977 17.6936L10.4403 11.5317C10.5746 10.9942 10.9942 10.5746 11.5317 10.4403L17.6936 8.89977Z" fill="#FF3377"/>
</svg>
