<svg width="127" height="50" viewBox="0 0 127 50" fill="none" xmlns="http://www.w3.org/2000/svg">
<rect x="16" y="16" width="111" height="34" rx="10" fill="#FF7733"/>
<path d="M31.0559 34.864V33.142H33.0439C33.4452 33.142 33.7812 33.0627 34.0519 32.904C34.3319 32.7453 34.5419 32.526 34.6819 32.246C34.8312 31.966 34.9059 31.644 34.9059 31.28C34.9059 30.916 34.8312 30.594 34.6819 30.314C34.5419 30.034 34.3319 29.8193 34.0519 29.67C33.7812 29.5113 33.4452 29.432 33.0439 29.432H31.0559V27.71H32.8759C33.7346 27.71 34.4626 27.85 35.0599 28.13C35.6666 28.41 36.1286 28.8113 36.4459 29.334C36.7632 29.8473 36.9219 30.4587 36.9219 31.168V31.392C36.9219 32.1013 36.7632 32.7173 36.4459 33.24C36.1286 33.7533 35.6666 34.1547 35.0599 34.444C34.4626 34.724 33.7346 34.864 32.8759 34.864H31.0559ZM29.3479 38V27.71H31.3359V38H29.3479ZM38.4634 38V30.398H40.0034V33.618H39.9614C39.9614 32.526 40.1948 31.7 40.6614 31.14C41.1281 30.58 41.8141 30.3 42.7194 30.3H42.9994V31.994H42.4674C41.8141 31.994 41.3054 32.1713 40.9414 32.526C40.5868 32.8713 40.4094 33.3753 40.4094 34.038V38H38.4634ZM47.9006 38.266C47.2286 38.266 46.636 38.1587 46.1226 37.944C45.6093 37.7293 45.1753 37.44 44.8206 37.076C44.466 36.7027 44.1953 36.2827 44.0086 35.816C43.8313 35.3493 43.7426 34.864 43.7426 34.36V34.066C43.7426 33.5433 43.836 33.0487 44.0226 32.582C44.2186 32.106 44.494 31.686 44.8486 31.322C45.2126 30.9487 45.6513 30.6593 46.1646 30.454C46.678 30.2393 47.2566 30.132 47.9006 30.132C48.5446 30.132 49.1233 30.2393 49.6366 30.454C50.15 30.6593 50.584 30.9487 50.9386 31.322C51.3026 31.686 51.578 32.106 51.7646 32.582C51.9513 33.0487 52.0446 33.5433 52.0446 34.066V34.36C52.0446 34.864 51.9513 35.3493 51.7646 35.816C51.5873 36.2827 51.3213 36.7027 50.9666 37.076C50.612 37.44 50.178 37.7293 49.6646 37.944C49.1513 38.1587 48.5633 38.266 47.9006 38.266ZM47.9006 36.6C48.3766 36.6 48.778 36.4973 49.1046 36.292C49.4313 36.0773 49.6786 35.7927 49.8466 35.438C50.0146 35.074 50.0986 34.6633 50.0986 34.206C50.0986 33.7393 50.01 33.3287 49.8326 32.974C49.6646 32.61 49.4126 32.3253 49.0766 32.12C48.75 31.9053 48.358 31.798 47.9006 31.798C47.4433 31.798 47.0466 31.9053 46.7106 32.12C46.384 32.3253 46.132 32.61 45.9546 32.974C45.7773 33.3287 45.6886 33.7393 45.6886 34.206C45.6886 34.6633 45.7726 35.074 45.9406 35.438C46.118 35.7927 46.37 36.0773 46.6966 36.292C47.0233 36.4973 47.4246 36.6 47.9006 36.6ZM57.0526 38.098C56.3526 38.098 55.7739 38.0093 55.3166 37.832C54.8686 37.6453 54.5326 37.3373 54.3086 36.908C54.0846 36.4693 53.9726 35.8813 53.9726 35.144L53.9866 28.256H55.8066L55.7926 35.27C55.7926 35.6433 55.8906 35.9327 56.0866 36.138C56.2919 36.334 56.5812 36.432 56.9546 36.432H58.1446V38.098H57.0526ZM52.7686 31.826V30.398H58.1446V31.826H52.7686ZM63.3909 38.266C62.7189 38.266 62.1262 38.1587 61.6129 37.944C61.0995 37.7293 60.6655 37.44 60.3109 37.076C59.9562 36.7027 59.6855 36.2827 59.4989 35.816C59.3215 35.3493 59.2329 34.864 59.2329 34.36V34.066C59.2329 33.5433 59.3262 33.0487 59.5129 32.582C59.7089 32.106 59.9842 31.686 60.3389 31.322C60.7029 30.9487 61.1415 30.6593 61.6549 30.454C62.1682 30.2393 62.7469 30.132 63.3909 30.132C64.0349 30.132 64.6135 30.2393 65.1269 30.454C65.6402 30.6593 66.0742 30.9487 66.4289 31.322C66.7929 31.686 67.0682 32.106 67.2549 32.582C67.4415 33.0487 67.5349 33.5433 67.5349 34.066V34.36C67.5349 34.864 67.4415 35.3493 67.2549 35.816C67.0775 36.2827 66.8115 36.7027 66.4569 37.076C66.1022 37.44 65.6682 37.7293 65.1549 37.944C64.6415 38.1587 64.0535 38.266 63.3909 38.266ZM63.3909 36.6C63.8669 36.6 64.2682 36.4973 64.5949 36.292C64.9215 36.0773 65.1689 35.7927 65.3369 35.438C65.5049 35.074 65.5889 34.6633 65.5889 34.206C65.5889 33.7393 65.5002 33.3287 65.3229 32.974C65.1549 32.61 64.9029 32.3253 64.5669 32.12C64.2402 31.9053 63.8482 31.798 63.3909 31.798C62.9335 31.798 62.5369 31.9053 62.2009 32.12C61.8742 32.3253 61.6222 32.61 61.4449 32.974C61.2675 33.3287 61.1789 33.7393 61.1789 34.206C61.1789 34.6633 61.2629 35.074 61.4309 35.438C61.6082 35.7927 61.8602 36.0773 62.1869 36.292C62.5135 36.4973 62.9149 36.6 63.3909 36.6ZM72.5428 38.098C71.8428 38.098 71.2641 38.0093 70.8068 37.832C70.3588 37.6453 70.0228 37.3373 69.7988 36.908C69.5748 36.4693 69.4628 35.8813 69.4628 35.144L69.4768 28.256H71.2968L71.2828 35.27C71.2828 35.6433 71.3808 35.9327 71.5768 36.138C71.7821 36.334 72.0715 36.432 72.4448 36.432H73.6348V38.098H72.5428ZM68.2588 31.826V30.398H73.6348V31.826H68.2588ZM75.0441 40.996V39.33H76.4721C76.7428 39.33 76.9668 39.2927 77.1441 39.218C77.3308 39.1527 77.4848 39.0407 77.6061 38.882C77.7274 38.7327 77.8208 38.5227 77.8861 38.252L79.9301 30.398H81.7921L79.5381 38.672C79.3888 39.2413 79.1788 39.694 78.9081 40.03C78.6374 40.3753 78.2874 40.6227 77.8581 40.772C77.4381 40.9213 76.9154 40.996 76.2901 40.996H75.0441ZM77.4101 37.832V36.292H79.0341V37.832H77.4101ZM76.7521 37.832L74.2881 30.398H76.2481L78.5861 37.832H76.7521ZM83.1294 40.8V30.398H84.6694V33.674L84.4314 33.66C84.4688 32.8853 84.6274 32.2367 84.9074 31.714C85.1968 31.1913 85.5794 30.804 86.0554 30.552C86.5314 30.2907 87.0634 30.16 87.6514 30.16C88.1928 30.16 88.6781 30.258 89.1074 30.454C89.5461 30.65 89.9194 30.9253 90.2274 31.28C90.5448 31.6347 90.7874 32.05 90.9554 32.526C91.1234 32.9927 91.2074 33.4967 91.2074 34.038V34.332C91.2074 34.8827 91.1234 35.396 90.9554 35.872C90.7968 36.3387 90.5588 36.754 90.2414 37.118C89.9334 37.4727 89.5601 37.7527 89.1214 37.958C88.6828 38.154 88.1928 38.252 87.6514 38.252C87.0821 38.252 86.5594 38.1353 86.0834 37.902C85.6168 37.6593 85.2388 37.2907 84.9494 36.796C84.6601 36.292 84.4968 35.6433 84.4594 34.85L85.0754 35.788V40.8H83.1294ZM87.1614 36.614C87.5814 36.614 87.9454 36.5113 88.2534 36.306C88.5708 36.1007 88.8181 35.816 88.9954 35.452C89.1728 35.0787 89.2614 34.6587 89.2614 34.192C89.2614 33.7067 89.1728 33.2867 88.9954 32.932C88.8181 32.5773 88.5708 32.302 88.2534 32.106C87.9454 31.9007 87.5814 31.798 87.1614 31.798C86.7788 31.798 86.4241 31.882 86.0974 32.05C85.7801 32.218 85.5188 32.4653 85.3134 32.792C85.1174 33.1187 85.0194 33.5107 85.0194 33.968V34.528C85.0194 34.9667 85.1221 35.34 85.3274 35.648C85.5328 35.956 85.7988 36.194 86.1254 36.362C86.4521 36.53 86.7974 36.614 87.1614 36.614ZM93.2825 38V30.398H95.2285V38H93.2825ZM92.2185 31.854V30.398H95.2285V31.854H92.2185ZM93.9965 29.488C93.6138 29.488 93.3292 29.39 93.1425 29.194C92.9652 28.9887 92.8765 28.7367 92.8765 28.438C92.8765 28.1207 92.9652 27.864 93.1425 27.668C93.3292 27.472 93.6138 27.374 93.9965 27.374C94.3792 27.374 94.6592 27.472 94.8365 27.668C95.0138 27.864 95.1025 28.1207 95.1025 28.438C95.1025 28.7367 95.0138 28.9887 94.8365 29.194C94.6592 29.39 94.3792 29.488 93.9965 29.488ZM97.4712 38V30.398H99.0112V33.66H98.8712C98.8712 32.8853 98.9739 32.2413 99.1792 31.728C99.3846 31.2053 99.6879 30.8133 100.089 30.552C100.5 30.2907 101.009 30.16 101.615 30.16H101.699C102.605 30.16 103.291 30.454 103.757 31.042C104.224 31.6207 104.457 32.4887 104.457 33.646V38H102.511V33.478C102.511 33.0113 102.376 32.6333 102.105 32.344C101.844 32.0547 101.48 31.91 101.013 31.91C100.537 31.91 100.15 32.0593 99.8512 32.358C99.5619 32.6473 99.4172 33.0393 99.4172 33.534V38H97.4712ZM109.517 40.996C109.153 40.996 108.78 40.982 108.397 40.954C108.024 40.926 107.674 40.8887 107.347 40.842V39.218C107.683 39.2553 108.043 39.288 108.425 39.316C108.808 39.3533 109.167 39.372 109.503 39.372C110.129 39.372 110.633 39.2973 111.015 39.148C111.407 38.9987 111.692 38.7607 111.869 38.434C112.056 38.1167 112.149 37.7107 112.149 37.216V35.718L112.569 34.766C112.541 35.466 112.397 36.0633 112.135 36.558C111.874 37.0433 111.519 37.4167 111.071 37.678C110.623 37.93 110.105 38.056 109.517 38.056C108.995 38.056 108.519 37.958 108.089 37.762C107.669 37.566 107.305 37.2953 106.997 36.95C106.699 36.6047 106.465 36.1987 106.297 35.732C106.129 35.2653 106.045 34.766 106.045 34.234V33.94C106.045 33.408 106.129 32.9133 106.297 32.456C106.475 31.9893 106.722 31.5833 107.039 31.238C107.357 30.8927 107.735 30.6267 108.173 30.44C108.612 30.2533 109.097 30.16 109.629 30.16C110.255 30.16 110.796 30.2953 111.253 30.566C111.72 30.8367 112.084 31.2287 112.345 31.742C112.607 32.2553 112.751 32.8853 112.779 33.632L112.443 33.688V30.398H113.983V37.104C113.983 38.028 113.825 38.7747 113.507 39.344C113.19 39.9133 112.7 40.3287 112.037 40.59C111.384 40.8607 110.544 40.996 109.517 40.996ZM110.077 36.39C110.451 36.39 110.791 36.306 111.099 36.138C111.407 35.97 111.655 35.7273 111.841 35.41C112.028 35.0927 112.121 34.71 112.121 34.262V33.772C112.121 33.3427 112.023 32.9787 111.827 32.68C111.641 32.3813 111.393 32.1573 111.085 32.008C110.777 31.8493 110.441 31.77 110.077 31.77C109.667 31.77 109.303 31.868 108.985 32.064C108.677 32.2507 108.435 32.5167 108.257 32.862C108.08 33.2073 107.991 33.618 107.991 34.094C107.991 34.5607 108.08 34.9667 108.257 35.312C108.435 35.6573 108.677 35.9233 108.985 36.11C109.303 36.2967 109.667 36.39 110.077 36.39Z" fill="#0C0F14"/>
<path d="M17.6936 8.89977C19.1734 8.52981 19.2208 6.44401 17.7592 6.00733L3.66198 1.79535C2.51884 1.4538 1.4538 2.51885 1.79535 3.66198L6.00733 17.7592C6.44401 19.2208 8.52981 19.1734 8.89977 17.6936L10.4403 11.5317C10.5746 10.9942 10.9942 10.5746 11.5317 10.4403L17.6936 8.89977Z" fill="#FF7733"/>
</svg>
