<svg width="104" height="50" viewBox="0 0 104 50" fill="none" xmlns="http://www.w3.org/2000/svg">
<rect x="16" y="16" width="88" height="34" rx="10" fill="#00AAFF"/>
<path d="M30.9826 38.07V36.474H33.5446C34.0113 36.474 34.366 36.348 34.6086 36.096C34.8513 35.8347 34.9726 35.48 34.9726 35.032C34.9726 34.584 34.8513 34.2387 34.6086 33.996C34.366 33.744 34.0113 33.618 33.5446 33.618H30.9826V32.4H33.4046C34.086 32.4 34.6926 32.484 35.2246 32.652C35.766 32.8107 36.186 33.0813 36.4846 33.464C36.7926 33.8467 36.9466 34.36 36.9466 35.004V35.2C36.9466 35.8067 36.8113 36.3247 36.5406 36.754C36.2793 37.174 35.8826 37.5007 35.3506 37.734C34.828 37.958 34.1793 38.07 33.4046 38.07H30.9826ZM29.3166 38.07V27.71H31.2626V38.07H29.3166ZM30.9826 33.296V32.078H33.1666C33.6426 32.078 33.9926 31.952 34.2166 31.7C34.4406 31.448 34.5526 31.112 34.5526 30.692C34.5526 30.272 34.4406 29.936 34.2166 29.684C33.9926 29.432 33.6426 29.306 33.1666 29.306H30.9826V27.71H32.9846C34.142 27.71 35.0193 27.9527 35.6166 28.438C36.2233 28.9233 36.5266 29.6187 36.5266 30.524V30.72C36.5266 31.3547 36.3726 31.8633 36.0646 32.246C35.766 32.6193 35.3506 32.89 34.8186 33.058C34.2866 33.2167 33.6753 33.296 32.9846 33.296H30.9826ZM41.3913 38.238C40.514 38.238 39.8326 37.9487 39.3473 37.37C38.8713 36.7913 38.6333 35.9327 38.6333 34.794V30.384H40.5793V34.962C40.5793 35.4287 40.71 35.802 40.9713 36.082C41.2326 36.3527 41.5873 36.488 42.0353 36.488C42.4833 36.488 42.8473 36.3433 43.1273 36.054C43.4166 35.7647 43.5613 35.3727 43.5613 34.878V30.384H45.5073V38H43.9673V34.766H44.1213C44.1213 35.5313 44.0233 36.1707 43.8273 36.684C43.6313 37.1973 43.3373 37.5847 42.9453 37.846C42.5533 38.1073 42.0633 38.238 41.4753 38.238H41.3913ZM50.5007 38.238C49.4554 38.238 48.6341 38.0187 48.0367 37.58C47.4487 37.132 47.1407 36.516 47.1127 35.732H48.8627C48.8907 35.9933 49.0354 36.2313 49.2967 36.446C49.5581 36.6607 49.9687 36.768 50.5287 36.768C50.9954 36.768 51.3641 36.684 51.6347 36.516C51.9147 36.348 52.0547 36.1193 52.0547 35.83C52.0547 35.578 51.9474 35.3773 51.7327 35.228C51.5274 35.0787 51.1727 34.9807 50.6687 34.934L49.9967 34.864C49.1474 34.7707 48.4941 34.528 48.0367 34.136C47.5794 33.744 47.3507 33.2213 47.3507 32.568C47.3507 32.0453 47.4814 31.6067 47.7427 31.252C48.0041 30.8973 48.3634 30.6313 48.8207 30.454C49.2874 30.2673 49.8194 30.174 50.4167 30.174C51.3501 30.174 52.1061 30.3793 52.6847 30.79C53.2634 31.2007 53.5667 31.8027 53.5947 32.596H51.8447C51.8261 32.3347 51.6954 32.1107 51.4527 31.924C51.2101 31.7373 50.8601 31.644 50.4027 31.644C49.9921 31.644 49.6747 31.7233 49.4507 31.882C49.2267 32.0407 49.1147 32.246 49.1147 32.498C49.1147 32.7407 49.2034 32.9273 49.3807 33.058C49.5674 33.1887 49.8661 33.2773 50.2767 33.324L50.9487 33.394C51.8447 33.4873 52.5447 33.7347 53.0487 34.136C53.5621 34.5373 53.8187 35.0787 53.8187 35.76C53.8187 36.264 53.6787 36.7027 53.3987 37.076C53.1281 37.44 52.7454 37.7247 52.2507 37.93C51.7561 38.1353 51.1727 38.238 50.5007 38.238ZM55.7903 38V30.398H57.7363V38H55.7903ZM54.7263 31.854V30.398H57.7363V31.854H54.7263ZM56.5043 29.488C56.1216 29.488 55.837 29.39 55.6503 29.194C55.473 28.9887 55.3843 28.7367 55.3843 28.438C55.3843 28.1207 55.473 27.864 55.6503 27.668C55.837 27.472 56.1216 27.374 56.5043 27.374C56.887 27.374 57.167 27.472 57.3443 27.668C57.5216 27.864 57.6103 28.1207 57.6103 28.438C57.6103 28.7367 57.5216 28.9887 57.3443 29.194C57.167 29.39 56.887 29.488 56.5043 29.488ZM59.979 38V30.398H61.519V33.66H61.379C61.379 32.8853 61.4817 32.2413 61.687 31.728C61.8924 31.2053 62.1957 30.8133 62.597 30.552C63.0077 30.2907 63.5164 30.16 64.123 30.16H64.207C65.1124 30.16 65.7984 30.454 66.265 31.042C66.7317 31.6207 66.965 32.4887 66.965 33.646V38H65.019V33.478C65.019 33.0113 64.8837 32.6333 64.613 32.344C64.3517 32.0547 63.9877 31.91 63.521 31.91C63.045 31.91 62.6577 32.0593 62.359 32.358C62.0697 32.6473 61.925 33.0393 61.925 33.534V38H59.979ZM72.4592 38.266C71.8058 38.266 71.2318 38.154 70.7372 37.93C70.2518 37.706 69.8458 37.4073 69.5192 37.034C69.2018 36.6513 68.9592 36.2267 68.7912 35.76C68.6325 35.2933 68.5532 34.8173 68.5532 34.332V34.066C68.5532 33.562 68.6325 33.0767 68.7912 32.61C68.9592 32.134 69.2018 31.714 69.5192 31.35C69.8458 30.9767 70.2472 30.6827 70.7232 30.468C71.1992 30.244 71.7498 30.132 72.3752 30.132C73.1965 30.132 73.8825 30.314 74.4332 30.678C74.9932 31.0327 75.4132 31.504 75.6932 32.092C75.9732 32.6707 76.1132 33.296 76.1132 33.968V34.668H69.3792V33.478H74.8952L74.2932 34.066C74.2932 33.5807 74.2232 33.1653 74.0832 32.82C73.9432 32.4747 73.7285 32.2087 73.4392 32.022C73.1592 31.8353 72.8045 31.742 72.3752 31.742C71.9458 31.742 71.5818 31.84 71.2832 32.036C70.9845 32.232 70.7558 32.5167 70.5972 32.89C70.4478 33.254 70.3732 33.6927 70.3732 34.206C70.3732 34.682 70.4478 35.1067 70.5972 35.48C70.7465 35.844 70.9752 36.1333 71.2832 36.348C71.5912 36.5533 71.9832 36.656 72.4592 36.656C72.9352 36.656 73.3225 36.5627 73.6212 36.376C73.9198 36.18 74.1112 35.942 74.1952 35.662H75.9872C75.8752 36.1847 75.6605 36.642 75.3432 37.034C75.0258 37.426 74.6198 37.7293 74.1252 37.944C73.6398 38.1587 73.0845 38.266 72.4592 38.266ZM80.4968 38.238C79.4515 38.238 78.6301 38.0187 78.0328 37.58C77.4448 37.132 77.1368 36.516 77.1088 35.732H78.8588C78.8868 35.9933 79.0315 36.2313 79.2928 36.446C79.5541 36.6607 79.9648 36.768 80.5248 36.768C80.9915 36.768 81.3601 36.684 81.6308 36.516C81.9108 36.348 82.0508 36.1193 82.0508 35.83C82.0508 35.578 81.9435 35.3773 81.7288 35.228C81.5235 35.0787 81.1688 34.9807 80.6648 34.934L79.9928 34.864C79.1435 34.7707 78.4901 34.528 78.0328 34.136C77.5755 33.744 77.3468 33.2213 77.3468 32.568C77.3468 32.0453 77.4775 31.6067 77.7388 31.252C78.0001 30.8973 78.3595 30.6313 78.8168 30.454C79.2835 30.2673 79.8155 30.174 80.4128 30.174C81.3461 30.174 82.1021 30.3793 82.6808 30.79C83.2595 31.2007 83.5628 31.8027 83.5908 32.596H81.8408C81.8221 32.3347 81.6915 32.1107 81.4488 31.924C81.2061 31.7373 80.8561 31.644 80.3988 31.644C79.9881 31.644 79.6708 31.7233 79.4468 31.882C79.2228 32.0407 79.1108 32.246 79.1108 32.498C79.1108 32.7407 79.1995 32.9273 79.3768 33.058C79.5635 33.1887 79.8621 33.2773 80.2728 33.324L80.9448 33.394C81.8408 33.4873 82.5408 33.7347 83.0448 34.136C83.5581 34.5373 83.8148 35.0787 83.8148 35.76C83.8148 36.264 83.6748 36.7027 83.3948 37.076C83.1241 37.44 82.7415 37.7247 82.2468 37.93C81.7521 38.1353 81.1688 38.238 80.4968 38.238ZM88.1804 38.238C87.1351 38.238 86.3137 38.0187 85.7164 37.58C85.1284 37.132 84.8204 36.516 84.7924 35.732H86.5424C86.5704 35.9933 86.7151 36.2313 86.9764 36.446C87.2377 36.6607 87.6484 36.768 88.2084 36.768C88.6751 36.768 89.0437 36.684 89.3144 36.516C89.5944 36.348 89.7344 36.1193 89.7344 35.83C89.7344 35.578 89.6271 35.3773 89.4124 35.228C89.2071 35.0787 88.8524 34.9807 88.3484 34.934L87.6764 34.864C86.8271 34.7707 86.1737 34.528 85.7164 34.136C85.2591 33.744 85.0304 33.2213 85.0304 32.568C85.0304 32.0453 85.1611 31.6067 85.4224 31.252C85.6837 30.8973 86.0431 30.6313 86.5004 30.454C86.9671 30.2673 87.4991 30.174 88.0964 30.174C89.0297 30.174 89.7857 30.3793 90.3644 30.79C90.9431 31.2007 91.2464 31.8027 91.2744 32.596H89.5244C89.5057 32.3347 89.3751 32.1107 89.1324 31.924C88.8897 31.7373 88.5397 31.644 88.0824 31.644C87.6717 31.644 87.3544 31.7233 87.1304 31.882C86.9064 32.0407 86.7944 32.246 86.7944 32.498C86.7944 32.7407 86.8831 32.9273 87.0604 33.058C87.2471 33.1887 87.5457 33.2773 87.9564 33.324L88.6284 33.394C89.5244 33.4873 90.2244 33.7347 90.7284 34.136C91.2417 34.5373 91.4984 35.0787 91.4984 35.76C91.4984 36.264 91.3584 36.7027 91.0784 37.076C90.8077 37.44 90.4251 37.7247 89.9304 37.93C89.4357 38.1353 88.8524 38.238 88.1804 38.238Z" fill="#0C0F14"/>
<path d="M17.6936 8.89977C19.1734 8.52981 19.2208 6.44401 17.7592 6.00733L3.66198 1.79535C2.51884 1.4538 1.4538 2.51885 1.79535 3.66198L6.00733 17.7592C6.44401 19.2208 8.52981 19.1734 8.89977 17.6936L10.4403 11.5317C10.5746 10.9942 10.9942 10.5746 11.5317 10.4403L17.6936 8.89977Z" fill="#00AAFF"/>
</svg>
