<svg width="184" height="184" viewBox="0 0 184 184" fill="none" xmlns="http://www.w3.org/2000/svg">
<circle opacity="0.16" cx="92" cy="92" r="91" stroke="#46FC36" stroke-width="1.5"/>
<path d="M34.3617 74.9424C33.3392 77.9476 30.8626 79.1893 28.0334 78.2268C25.2042 77.2642 23.9987 74.7697 25.0212 71.7645C26.0666 68.6916 28.5386 67.4634 31.3678 68.426C34.1971 69.3886 35.4071 71.8695 34.3617 74.9424ZM32.4123 74.2792C33.0894 72.2893 32.648 71.2782 30.631 70.5919C28.6139 69.9057 27.6475 70.4378 26.9705 72.4277C26.2935 74.4177 26.7487 75.3882 28.7657 76.0744C30.7827 76.7606 31.7353 76.2691 32.4123 74.2792Z" fill="#0A0A0A"/>
<path d="M39.5629 63.1326L38.4041 64.9374L30.3425 59.7612L33.0465 55.5499C34.244 53.6849 36.0754 53.1616 37.9284 54.3514C39.7814 55.5411 40.0796 57.4319 38.8821 59.2969L37.337 61.7033L39.5629 63.1326ZM34.5473 56.7854L33.1257 58.9993L35.7127 60.6604L37.1342 58.4465C37.7754 57.4478 37.788 56.7931 36.7773 56.1441C35.7906 55.5106 35.1885 55.7867 34.5473 56.7854Z" fill="#0A0A0A"/>
<path d="M52.262 47.8728L46.4496 53.525L39.7706 46.6568L45.583 41.0045L46.9287 42.3884L42.654 46.5454L43.9599 47.8883L48.0809 43.8809L49.4167 45.2545L45.2957 49.2619L46.6415 50.6458L50.9162 46.4889L52.262 47.8728Z" fill="#0A0A0A"/>
<path d="M58.6916 43.1151L56.8472 44.21L51.9569 35.9718L53.9242 34.804L59.1889 36.95L61.3493 38.0122L61.4846 37.9319L60.4131 36.323L58.0556 32.3515L59.8999 31.2567L64.7902 39.4948L62.8229 40.6627L57.4502 38.5309L55.4854 37.602L55.3624 37.675L56.334 39.1436L58.6916 43.1151Z" fill="#0A0A0A"/>
<path d="M81.8363 34.0764L79.7283 34.4725L78.3158 26.9541L74.8165 27.6115L74.4601 25.7143L83.5665 24.0034L83.9229 25.9006L80.4237 26.558L81.8363 34.0764Z" fill="#0A0A0A"/>
<path d="M95.3153 33.4343C92.1461 33.253 90.2872 31.1988 90.4579 28.2152C90.6285 25.2316 92.7096 23.4028 95.8788 23.5841C99.1194 23.7695 100.964 25.8229 100.793 28.8065C100.623 31.7901 98.5559 33.6197 95.3153 33.4343ZM95.4329 31.3786C97.5314 31.4987 98.3876 30.8029 98.5093 28.6758C98.631 26.5487 97.8597 25.7599 95.7612 25.6398C93.6627 25.5198 92.8494 26.218 92.7277 28.3451C92.606 30.4721 93.3344 31.2586 95.4329 31.3786Z" fill="#0A0A0A"/>
<path d="M117.305 38.5823L114.454 37.1545L116.724 27.5767L118.872 28.6524L117.475 34.0294L116.827 36.0561L116.968 36.1266L118.306 34.4456L122.171 30.3043L125.022 31.7322L124.008 37.3013L123.463 39.3792L123.604 39.4496L124.839 37.7175L128.308 33.3777L130.404 34.4278L124.082 41.9759L121.23 40.548L122.097 35.6247L122.732 32.8562L122.591 32.7857L120.754 34.9524L117.305 38.5823Z" fill="#0A0A0A"/>
<path d="M133.766 49.7886C131.458 47.6083 131.36 44.8396 133.413 42.6675C135.465 40.4955 138.235 40.4374 140.542 42.6178C142.901 44.8472 142.989 47.6061 140.937 49.7781C138.884 51.9501 136.125 52.018 133.766 49.7886ZM135.18 48.2921C136.708 49.7358 137.811 49.7552 139.274 48.2067C140.737 46.6582 140.656 45.558 139.128 44.1143C137.6 42.6706 136.528 42.6806 135.065 44.2291C133.602 45.7776 133.652 46.8483 135.18 48.2921Z" fill="#0A0A0A"/>
<path d="M142.349 59.4146L141.203 57.6016L149.301 52.483L152.128 56.9552C153.388 58.9496 153.224 60.6435 151.677 61.6213C150.359 62.454 149.092 62.1891 147.985 60.7578L147.888 60.819C148.153 61.6664 147.942 62.1889 147.565 62.8501L146.13 65.3977L144.801 63.2946L146.201 60.8533C146.624 60.1296 146.638 59.6976 146.042 58.7548L145.286 57.5582L142.349 59.4146ZM148.815 55.3274L146.652 56.6949L148.325 59.342C148.867 60.2001 149.353 60.4341 150.199 59.8994C150.997 59.3952 151.031 58.8327 150.488 57.9745L148.815 55.3274Z" fill="#0A0A0A"/>
<path d="M149.259 72.5118L148.583 70.4763L157.675 67.4555L158.351 69.4909L154.741 70.6902L155.494 72.9563L159.906 74.1724L160.718 76.6149L155.19 74.9411L151.613 79.595L150.801 77.1525L153.522 73.6417L152.76 71.3485L149.259 72.5118Z" fill="#0A0A0A"/>
<path d="M149.709 109.218C150.731 106.212 153.208 104.971 156.037 105.933C158.866 106.896 160.072 109.39 159.049 112.396C158.004 115.468 155.532 116.697 152.702 115.734C149.873 114.771 148.663 112.291 149.709 109.218ZM151.658 109.881C150.981 111.871 151.422 112.882 153.439 113.568C155.456 114.254 156.423 113.722 157.1 111.732C157.777 109.742 157.322 108.772 155.305 108.086C153.288 107.399 152.335 107.891 151.658 109.881Z" fill="#0A0A0A"/>
<path d="M144.506 121.027L145.665 119.223L153.727 124.399L151.023 128.61C149.825 130.475 147.994 130.998 146.141 129.809C144.288 128.619 143.99 126.728 145.187 124.863L146.732 122.457L144.506 121.027ZM149.522 127.375L150.944 125.161L148.357 123.5L146.935 125.714C146.294 126.712 146.281 127.367 147.292 128.016C148.279 128.649 148.881 128.373 149.522 127.375Z" fill="#0A0A0A"/>
<path d="M131.808 136.287L137.621 130.635L144.3 137.503L138.487 143.155L137.142 141.772L141.416 137.615L140.11 136.272L135.989 140.279L134.654 138.906L138.775 134.898L137.429 133.514L133.154 137.671L131.808 136.287Z" fill="#0A0A0A"/>
<path d="M125.379 141.045L127.223 139.95L132.113 148.188L130.146 149.356L124.881 147.21L122.721 146.148L122.586 146.228L123.657 147.837L126.015 151.809L124.17 152.903L119.28 144.665L121.247 143.497L126.62 145.629L128.585 146.558L128.708 146.485L127.736 145.016L125.379 141.045Z" fill="#0A0A0A"/>
<path d="M102.234 150.083L104.342 149.687L105.755 157.206L109.254 156.548L109.61 158.446L100.504 160.156L100.147 158.259L103.647 157.602L102.234 150.083Z" fill="#0A0A0A"/>
<path d="M88.754 150.726C91.9232 150.907 93.7822 152.961 93.6115 155.945C93.4408 158.928 91.3597 160.757 88.1905 160.576C84.95 160.391 83.1053 158.337 83.2759 155.354C83.4466 152.37 85.5134 150.54 88.754 150.726ZM88.6364 152.781C86.5379 152.661 85.6817 153.357 85.56 155.484C85.4384 157.611 86.2096 158.4 88.3081 158.52C90.4066 158.64 91.22 157.942 91.3417 155.815C91.4633 153.688 90.7349 152.901 88.6364 152.781Z" fill="#0A0A0A"/>
<path d="M66.765 145.578L69.6161 147.006L67.3462 156.583L65.1983 155.508L66.5958 150.131L67.2429 148.104L67.1023 148.033L65.7647 149.714L61.8997 153.856L59.0486 152.428L60.0625 146.859L60.6074 144.781L60.4667 144.71L59.2315 146.443L55.7628 150.782L53.666 149.732L59.9888 142.184L62.8399 143.612L61.9734 148.535L61.3386 151.304L61.4792 151.374L63.3159 149.208L66.765 145.578Z" fill="#0A0A0A"/>
<path d="M50.3048 134.371C52.6119 136.552 52.7104 139.32 50.6577 141.493C48.6051 143.665 45.8353 143.723 43.5281 141.542C41.169 139.313 41.0809 136.554 43.1336 134.382C45.1862 132.21 47.9457 132.142 50.3048 134.371ZM48.8905 135.868C47.3628 134.424 46.2597 134.405 44.7964 135.953C43.333 137.502 43.4147 138.602 44.9424 140.046C46.4701 141.489 47.542 141.479 49.0053 139.931C50.4687 138.382 50.4182 137.312 48.8905 135.868Z" fill="#0A0A0A"/>
<path d="M41.7207 124.745L42.8666 126.558L34.7683 131.677L31.9417 127.205C30.6811 125.21 30.8453 123.517 32.3925 122.539C33.71 121.706 34.9769 121.971 36.0846 123.402L36.1813 123.341C35.9163 122.494 36.1274 121.971 36.5045 121.31L37.9391 118.762L39.2684 120.865L37.8681 123.307C37.4458 124.03 37.4313 124.462 38.0272 125.405L38.7835 126.602L41.7207 124.745ZM35.2541 128.833L37.4177 127.465L35.7446 124.818C35.2022 123.96 34.716 123.726 33.8699 124.261C33.0722 124.765 33.0386 125.327 33.581 126.186L35.2541 128.833Z" fill="#0A0A0A"/>
<path d="M34.811 111.648L35.4873 113.684L26.3957 116.705L25.7194 114.669L29.3289 113.47L28.5759 111.204L24.1639 109.988L23.3523 107.545L28.8808 109.219L32.4574 104.565L33.2689 107.008L30.548 110.518L31.31 112.812L34.811 111.648Z" fill="#0A0A0A"/>
<circle cx="26.1498" cy="92.2821" r="2.68105" fill="#0A0A0A"/>
<circle cx="157.968" cy="92.2821" r="2.68105" fill="#0A0A0A"/>
</svg>
