<svg width="33" height="33" viewBox="0 0 33 33" fill="none" xmlns="http://www.w3.org/2000/svg">
<path d="M28.7998 4.66699H4.7998V28.667H28.7998V4.66699Z" fill="#1976D2"/>
<path d="M19.1262 15.334H10.2842V17.51H13.4555V27.334H15.9682V17.51H19.1262V15.334Z" fill="white"/>
<path d="M26.9294 18.0568C26.9294 18.0568 25.7381 17.2621 24.3914 17.2621C23.0448 17.2621 22.5601 17.9021 22.5601 18.5861C22.5601 20.3515 27.4808 20.1748 27.4808 23.7275C27.4808 29.2001 19.9781 26.7728 19.9781 26.7728V24.1475C19.9781 24.1475 21.4128 25.2288 23.1334 25.2288C24.8541 25.2288 24.7888 24.1035 24.7888 23.9488C24.7888 22.3161 19.9121 22.3161 19.9121 18.6968C19.9121 13.7761 27.0174 15.7175 27.0174 15.7175L26.9294 18.0568Z" fill="white"/>
</svg>
